<svg width="38" height="37" viewBox="0 0 38 37" fill="none" xmlns="http://www.w3.org/2000/svg">
<path d="M38 18.5C38 8.28273 29.7173 0 19.5 0H18.5C8.28273 0 4.08614e-07 8.28273 4.08614e-07 18.5V18.5C4.08614e-07 28.7173 8.28273 37 18.5 37H19.5C29.7173 37 38 28.7173 38 18.5V18.5Z" fill="#52C234"/>
<path d="M27.5839 15.9259C25.3016 12.6138 21.824 10.3157 17.8823 9.51478C17.7249 9.48965 17.564 9.52728 17.4342 9.61956C17.3043 9.71184 17.2159 9.8514 17.1879 10.0082C17.1713 10.0872 17.1706 10.1687 17.1859 10.248C17.2012 10.3272 17.232 10.4026 17.2767 10.4698C17.3215 10.537 17.3791 10.5946 17.4463 10.6393C17.5135 10.684 17.589 10.7148 17.6682 10.7301C21.302 11.47 24.5077 13.5892 26.612 16.6427C26.7045 16.7716 26.8437 16.8591 26.9999 16.8867C27.1561 16.9143 27.3169 16.8798 27.448 16.7905C27.5149 16.7437 27.5716 16.6838 27.6149 16.6144C27.6581 16.5451 27.6869 16.4678 27.6996 16.3871C27.7123 16.3064 27.7086 16.224 27.6887 16.1447C27.6688 16.0655 27.6331 15.9911 27.5839 15.9259Z" fill="white"/>
<path d="M18.0061 14.011C20.2082 14.4569 22.1517 15.7392 23.428 17.5883C23.4942 17.6789 23.5842 17.7493 23.688 17.7919C23.7918 17.8345 23.9054 17.8475 24.0161 17.8295C24.0965 17.8127 24.1721 17.7784 24.2377 17.729C24.3613 17.6343 24.4437 17.4957 24.4681 17.3419C24.4925 17.1882 24.457 17.0309 24.3689 16.9026C22.9215 14.8029 20.716 13.3465 18.2166 12.8398C18.0646 12.8181 17.91 12.8546 17.7838 12.9422C17.6577 13.0297 17.5693 13.1618 17.5365 13.3118C17.5094 13.4664 17.5431 13.6256 17.6306 13.7559C17.7181 13.8862 17.8527 13.9776 18.0061 14.011V14.011Z" fill="white"/>
<path d="M25.1728 19.9351C25.0131 19.8102 24.8283 19.7213 24.631 19.6745C24.4337 19.6278 24.2286 19.6243 24.0298 19.6644C23.831 19.7045 23.6433 19.7871 23.4795 19.9066C23.3157 20.0261 23.1797 20.1796 23.0809 20.3567C22.6895 20.9379 22.2993 21.5251 21.9162 22.1171C21.9012 22.1532 21.879 22.186 21.851 22.2134C21.823 22.2408 21.7898 22.2623 21.7533 22.2766C21.7168 22.2909 21.6778 22.2977 21.6387 22.2966C21.5995 22.2955 21.561 22.2865 21.5254 22.2702C21.1747 22.1611 20.8073 22.0924 20.465 21.963C18.888 21.3401 17.4245 20.4617 16.1331 19.3629C15.4687 18.8382 14.8828 18.2212 14.3932 17.5305C14.3439 17.475 14.3167 17.4034 14.3166 17.3291C14.3164 17.2549 14.3435 17.1832 14.3926 17.1275C14.7853 16.5523 15.1648 15.9735 15.549 15.3875C15.6802 15.2249 15.7739 15.0353 15.8236 14.8324C15.8733 14.6295 15.8776 14.4181 15.8363 14.2132C15.7951 14.0084 15.7092 13.8152 15.5848 13.6474C15.4604 13.4795 15.3006 13.3411 15.1167 13.242C14.6572 12.9314 14.2001 12.6328 13.7346 12.3235L12.3025 11.3718C12.1395 11.2552 11.955 11.1721 11.7597 11.1274C11.5644 11.0826 11.3621 11.0771 11.1646 11.1111C10.9683 11.1575 10.7831 11.2421 10.6196 11.3602C10.4561 11.4783 10.3175 11.6275 10.2118 11.7993C9.81442 12.3817 9.44448 12.9772 9.03398 13.5561C8.67275 14.0666 8.5221 14.6966 8.6133 15.3153C8.77318 16.3279 9.15397 17.2929 9.72866 18.1418C10.8604 19.9193 12.2906 21.4879 13.9562 22.7785C16.1627 24.5553 18.7242 25.8387 21.4684 26.5423C22.696 26.9049 23.984 27.0166 25.2557 26.8707L25.4881 26.8238C25.873 26.763 26.2396 26.6172 26.561 26.3968C26.8825 26.1765 27.1507 25.8872 27.3462 25.5501C27.6685 24.9952 28.0529 24.4712 28.4098 23.9342C28.5378 23.7715 28.629 23.583 28.6771 23.3817C28.7251 23.1803 28.7288 22.9709 28.6879 22.768C28.647 22.5651 28.5625 22.3735 28.4402 22.2064C28.318 22.0394 28.1609 21.9009 27.9798 21.8006C27.0521 21.1772 26.1164 20.5554 25.1728 19.9351ZM27.4085 23.2739L27.0503 23.805C26.8005 24.1654 26.5447 24.5271 26.3056 24.9412C26.1988 25.1315 26.0487 25.2941 25.8674 25.4157C25.6862 25.5373 25.4788 25.6146 25.2622 25.6414L25.0953 25.675C23.98 25.8013 22.8506 25.702 21.7743 25.383C19.1983 24.7148 16.793 23.5086 14.7167 21.8438C13.1517 20.6447 11.8077 19.182 10.7448 17.5216C10.2641 16.8239 9.94299 16.0289 9.80423 15.1932C9.75361 14.8715 9.82962 14.5428 10.0163 14.276C10.2662 13.9155 10.4922 13.5599 10.7468 13.1923L11.2227 12.4762C11.2341 12.432 11.2577 12.3919 11.2909 12.3604C11.324 12.329 11.3653 12.3075 11.4101 12.2985C11.4549 12.2895 11.5013 12.2933 11.5441 12.3094C11.5868 12.3255 11.6241 12.3534 11.6518 12.3898C11.9656 12.5932 12.2748 12.8038 12.5839 13.0143L13.0565 13.3284L13.7726 13.8043L14.4528 14.2564C14.7178 14.4325 14.7143 14.4766 14.5465 14.7212L14.3847 14.9647C14.0635 15.4636 13.734 15.9517 13.3889 16.4554C13.2077 16.7134 13.1116 17.0215 13.114 17.3368C13.1164 17.6521 13.2172 17.9587 13.4023 18.214C13.9525 19.0021 14.6165 19.7042 15.3726 20.2976C16.7688 21.4743 18.3492 22.413 20.0505 23.076C20.3117 23.1722 20.5741 23.2434 20.8032 23.3026L21.1574 23.3987C21.4121 23.4872 21.6856 23.507 21.9504 23.456C22.156 23.4134 22.3504 23.3285 22.5213 23.2065C22.6921 23.0845 22.8356 22.9281 22.9425 22.7475C23.3161 22.1699 23.698 21.603 24.0989 21.0074C24.1365 20.9308 24.1979 20.8683 24.2739 20.8295C24.3613 20.8328 24.4448 20.8664 24.5101 20.9245C25.4649 21.559 26.4169 22.1796 27.366 22.7863C27.5451 22.9673 27.5738 23.0173 27.4085 23.2739V23.2739Z" fill="white"/>
</svg>
