<svg width="62" height="62" viewBox="0 0 62 62" fill="none" xmlns="http://www.w3.org/2000/svg">
<rect width="62" height="62" rx="31" fill="#FF992E" fill-opacity="0.1"/>
<path d="M51.3478 28.1765C51.3492 27.6889 51.1032 27.4293 50.6002 27.3853C50.1912 27.3496 49.7753 27.3084 49.3732 27.2685C48.7127 27.204 48.0314 27.1367 47.3585 27.0886C47.0434 27.0666 46.9163 26.9595 46.8348 26.6518C46.4755 25.2796 45.92 23.9775 45.1876 22.7811C45.0259 22.5174 45.0826 22.369 45.2636 22.1561C45.6547 21.696 46.0471 21.2248 46.4257 20.7674C46.7311 20.3993 47.0379 20.0326 47.346 19.6658C47.6652 19.2867 47.65 18.9323 47.2977 18.5807C46.6855 17.9667 46.0747 17.3514 45.464 16.7346C44.8159 16.0808 44.1692 15.4284 43.5184 14.7773C43.0762 14.335 42.8302 14.3281 42.3203 14.743L41.9528 15.0424C41.2729 15.5946 40.5709 16.166 39.8925 16.7442C39.6645 16.9379 39.5152 16.9956 39.2251 16.8198C38.0381 16.1028 36.7447 15.5575 35.3794 15.1976C35.0561 15.1124 34.9386 14.971 34.911 14.6372C34.8226 13.5466 34.7093 12.4546 34.6111 11.5178C34.5434 10.8805 34.3762 10.7335 33.7143 10.7335C32.1252 10.7308 30.3993 10.7308 28.4399 10.7335C27.7518 10.7335 27.5569 10.9107 27.4934 11.5934C27.4574 11.9752 27.4201 12.3557 27.3814 12.7362C27.3151 13.401 27.2474 14.0878 27.1921 14.7636C27.1728 15.0108 27.0885 15.107 26.8342 15.1756C25.3847 15.5602 24.0416 16.1234 22.8435 16.8486C22.6294 16.9791 22.4981 16.9681 22.3032 16.8019C21.4811 16.1042 20.6312 15.4105 19.8104 14.7388L19.8008 14.7306C19.3047 14.3254 19.0573 14.3378 18.6013 14.7897C17.3591 16.019 16.0933 17.2786 14.8359 18.5326C14.3854 18.9818 14.3757 19.2277 14.7861 19.7249C15.477 20.5614 16.1527 21.3773 16.834 22.1767C17.004 22.3759 17.0592 22.5146 16.9086 22.7605C16.179 23.95 15.6111 25.2851 15.2186 26.7246C15.1509 26.9719 15.0487 27.057 14.7958 27.0776C14.0234 27.1408 13.2399 27.2177 12.4826 27.2905C12.1565 27.3221 11.829 27.3537 11.5029 27.3853C10.9364 27.4389 10.736 27.6518 10.7346 28.2012C10.7319 29.1545 10.7319 30.1077 10.7319 31.061C10.7319 31.9236 10.7319 32.7862 10.7305 33.6488C10.7291 34.1419 10.9709 34.4029 11.4698 34.4468C11.8871 34.4839 12.3127 34.5251 12.7231 34.5663C13.3739 34.6309 14.0482 34.6968 14.7115 34.7463C15.0335 34.7696 15.1634 34.874 15.2407 35.1748C15.5973 36.5415 16.1514 37.845 16.8851 39.0469C17.0509 39.3189 16.9943 39.47 16.8216 39.6719C16.4346 40.1252 16.0463 40.5922 15.6719 41.0427C15.3665 41.4095 15.0514 41.7899 14.7378 42.1594C14.4089 42.5481 14.4199 42.8929 14.7737 43.2432C15.9994 44.4547 17.2402 45.6909 18.441 46.8859L18.6497 47.0947C18.8183 47.2622 18.9827 47.3776 19.2315 47.3914H19.2342C19.4636 47.3831 19.6515 47.2279 19.816 47.0919C20.0371 46.9106 20.2581 46.7293 20.4779 46.548C21.0707 46.0617 21.6842 45.559 22.2784 45.0535C22.4718 44.8887 22.6086 44.8379 22.8615 44.9904C24.0568 45.7129 25.3833 46.2719 26.8011 46.6524C27.0802 46.7266 27.1714 46.8419 27.1949 47.1455C27.2598 47.9847 27.3469 48.835 27.4298 49.6591C27.4519 49.8789 27.474 50.0973 27.4961 50.3171C27.5556 50.9091 27.7642 51.1 28.357 51.1014C29.2055 51.1027 30.0871 51.1041 31.0184 51.1041C31.8793 51.1041 32.7802 51.1027 33.7351 51.1014C34.3555 51.1 34.5421 50.9365 34.6042 50.3432C34.7189 49.2443 34.8239 48.1303 34.9138 47.173C34.9386 46.912 34.9773 46.7348 35.2951 46.6538C36.6756 46.3035 38.0187 45.7417 39.2872 44.9835C39.5014 44.8557 39.6285 44.8681 39.8275 45.0343C40.6773 45.7513 41.5327 46.4491 42.3342 47.1015C42.8288 47.5054 43.0748 47.4916 43.5322 47.0397C44.6625 45.9216 45.8827 44.7088 47.2617 43.3325C47.7551 42.8393 47.7633 42.6127 47.3018 42.0578C47.1526 41.8778 47.0047 41.6979 46.8555 41.518C46.3566 40.9136 45.8398 40.2886 45.3161 39.687C45.1033 39.4425 45.0854 39.279 45.2457 39.0167C45.9683 37.8272 46.5211 36.525 46.89 35.1446C46.9633 34.8699 47.089 34.7696 47.3889 34.7476C48.1392 34.6899 48.9006 34.6144 49.6371 34.5416C49.9687 34.5086 50.299 34.4757 50.6306 34.4441C51.1032 34.3988 51.3436 34.1391 51.3436 33.6721C51.345 31.9181 51.3436 30.0459 51.3478 28.1765ZM43.8735 39.9919C44.1817 40.3504 44.4884 40.7213 44.7855 41.0798C45.1351 41.5015 45.4971 41.9383 45.8619 42.3586C46.0637 42.5894 46.0568 42.713 45.8302 42.9314C44.8394 43.886 43.9675 44.7555 43.1619 45.5879C42.9187 45.8392 42.7888 45.8104 42.5442 45.6002C42.1227 45.2376 41.6861 44.8805 41.2632 44.5357C40.9136 44.25 40.5516 43.9547 40.202 43.658C39.8331 43.3462 39.489 43.3228 39.0855 43.5852C37.6719 44.5041 36.0994 45.1634 34.4108 45.5453C33.9285 45.6538 33.7157 45.9107 33.6784 46.4312C33.6383 46.9834 33.5803 47.5425 33.525 48.0836C33.478 48.5479 33.4283 49.0273 33.3896 49.4998C33.3703 49.7429 33.2956 49.8061 33.0428 49.8061C31.8793 49.7979 30.5016 49.7924 29.1115 49.8088C28.8476 49.813 28.7577 49.7333 28.7356 49.4709C28.6804 48.8158 28.6168 48.1496 28.556 47.5067C28.527 47.2073 28.498 46.9065 28.4703 46.6057C28.3929 45.776 28.31 45.6813 27.4906 45.4807C26.0217 45.1222 24.604 44.533 23.2788 43.728C22.9057 43.5014 22.6943 43.3819 22.5008 43.3819C22.2839 43.3819 22.0891 43.5303 21.7091 43.8421L21.3028 44.1745C20.7155 44.6552 20.1103 45.1511 19.523 45.651C19.3213 45.8241 19.208 45.8186 19.0173 45.6249C17.956 44.5467 17.0827 43.6813 16.2716 42.9012C16.0533 42.691 16.0795 42.5784 16.2647 42.3641C16.5825 41.996 16.8976 41.6155 17.2029 41.2474C17.5332 40.8477 17.8759 40.4356 18.2213 40.0373C18.5626 39.643 18.5848 39.2859 18.296 38.8436C17.3757 37.4371 16.7262 35.9056 16.3669 34.2916C16.255 33.7875 15.9952 33.5568 15.5005 33.5238C14.963 33.4881 14.4172 33.4318 13.8893 33.3782C13.4223 33.3315 12.94 33.282 12.4647 33.2463C12.1234 33.2202 12.0266 33.1186 12.0322 32.793C12.0543 31.5472 12.0543 30.2849 12.0322 29.0391C12.0266 28.7135 12.1234 28.6119 12.4647 28.5858C13.0727 28.5405 13.689 28.4787 14.2845 28.4196C14.717 28.377 15.1634 28.3331 15.6042 28.2946C16.0035 28.2603 16.2301 28.068 16.3199 27.6889C16.729 25.9499 17.4199 24.3236 18.3747 22.8539C18.5917 22.5201 18.5626 22.2097 18.2821 21.8787C18.0168 21.5655 17.7515 21.2441 17.4931 20.9336C17.1034 20.4639 16.7013 19.979 16.2951 19.5092C16.0933 19.2757 16.0505 19.1398 16.3089 18.8939C16.9266 18.3046 17.5415 17.6906 18.1357 17.0973C18.4189 16.8143 18.7022 16.5313 18.9883 16.2484C19.0076 16.2292 19.0269 16.2086 19.0449 16.188C19.114 16.111 19.1803 16.0382 19.2992 16.0231C19.3254 16.0437 19.3531 16.063 19.3807 16.0849C19.4525 16.1399 19.5285 16.1962 19.6004 16.2553C19.8049 16.4228 20.0094 16.589 20.2125 16.7566C20.7846 17.2236 21.3747 17.7057 21.9467 18.192C22.2977 18.4901 22.6376 18.5134 23.019 18.2662C24.4686 17.328 26.0577 16.6618 27.7393 16.2869C28.1857 16.188 28.404 15.938 28.4427 15.4806C28.4828 15.0245 28.527 14.5616 28.5712 14.1139C28.6251 13.5562 28.6804 12.9793 28.7273 12.412C28.7522 12.1098 28.8545 12.0205 29.1668 12.0247C30.3054 12.0425 31.5214 12.0439 32.9944 12.0274C33.0013 12.0274 33.0068 12.0274 33.0138 12.0274C33.2956 12.0274 33.3744 12.1043 33.3965 12.39C33.4407 12.9875 33.5015 13.5919 33.561 14.1784C33.6052 14.6152 33.6508 15.0671 33.6895 15.5108C33.7268 15.9435 33.9341 16.1811 34.361 16.2814C36.1035 16.6907 37.7092 17.3637 39.1311 18.2826C39.4987 18.5203 39.84 18.4873 40.2048 18.181C40.5461 17.8939 40.8957 17.6069 41.2356 17.3294C41.6806 16.964 42.1421 16.5863 42.587 16.2044C42.8136 16.0094 42.9242 16.0135 43.1259 16.2223C44.0642 17.1989 44.9444 18.0849 45.8136 18.931C46.0278 19.1398 46.0001 19.2538 45.8136 19.4708C45.5096 19.8252 45.207 20.1905 44.914 20.5449C44.5713 20.9584 44.2176 21.3869 43.8583 21.799C43.5142 22.1932 43.4907 22.549 43.7809 22.9899C44.6998 24.3909 45.3493 25.9224 45.7113 27.5419C45.8246 28.0487 46.083 28.2795 46.575 28.3125C47.1153 28.3496 47.6638 28.4045 48.1945 28.4581C48.6588 28.5048 49.1383 28.5542 49.6108 28.5899C49.9591 28.616 50.053 28.7135 50.0461 29.0405C50.0268 30.1778 50.0254 31.4222 50.0447 32.8452C50.0489 33.1309 49.9646 33.2216 49.6689 33.245C49.1617 33.2862 48.6477 33.3384 48.1502 33.3878C47.6362 33.4386 47.1056 33.4922 46.5819 33.5348C46.1342 33.5705 45.891 33.7738 45.7942 34.19C45.399 35.8877 44.7233 37.4838 43.7851 38.9329C43.5377 39.3065 43.5667 39.6348 43.8735 39.9919Z" fill="#FF992E"/>
<path d="M31.0891 19.0951C31.0408 19.0951 30.9924 19.0938 30.9441 19.0938C27.8819 19.0938 24.9787 20.2901 22.754 22.47C20.4933 24.6856 19.2276 27.6291 19.1875 30.7609C19.1474 33.9352 20.3441 36.9213 22.5591 39.1699C24.7742 41.4184 27.7672 42.6862 30.9855 42.7398C31.0491 42.7411 31.114 42.7411 31.1776 42.7411C34.1996 42.7411 37.0835 41.5612 39.3193 39.4047C41.6228 37.1837 42.9134 34.2429 42.9576 31.1235C43.0019 27.9437 41.8066 24.9493 39.5915 22.6898C37.3557 20.4124 34.3378 19.135 31.0891 19.0951ZM41.6435 31.1427C41.5288 36.762 36.7671 41.4363 31.2052 41.4363C31.1472 41.4363 31.0878 41.4363 31.0297 41.4349C25.0229 41.3277 20.3994 36.5738 20.5044 30.6111C20.6025 25.0358 25.414 20.3986 31.0518 20.3986C31.1099 20.3986 31.1693 20.3986 31.2287 20.4C34.0615 20.4481 36.7076 21.5964 38.6795 23.6307C40.6486 25.6635 41.7016 28.331 41.6435 31.1427Z" fill="#FF992E"/>
<path d="M35.5529 27.3929C35.3456 27.4286 35.2102 27.5674 35.0803 27.7006C35.0527 27.7281 35.0264 27.7555 34.9988 27.783L34.0826 28.6703C32.7464 29.9642 31.3632 31.3035 30.0146 32.6303C29.8874 32.7567 29.7948 32.8103 29.7092 32.8103H29.7078C29.6235 32.8103 29.5309 32.7553 29.4079 32.6317C28.8497 32.0699 28.2707 31.5123 27.7097 30.9738C27.4637 30.7376 27.2164 30.4999 26.9718 30.2623C26.8087 30.103 26.636 29.9381 26.408 29.9546C26.1012 29.9587 25.8898 30.0934 25.7793 30.3557C25.6273 30.717 25.8332 30.9793 26.028 31.1675C26.6443 31.7622 27.2606 32.3584 27.8755 32.9545C28.2583 33.3254 28.6424 33.6962 29.0252 34.0671C29.3071 34.3404 29.5074 34.4778 29.7078 34.4778C29.9109 34.4778 30.114 34.3377 30.4056 34.0547C32.4562 32.0672 34.2581 30.32 35.9136 28.7115C36.0656 28.5632 36.1706 28.4423 36.2521 28.3201C36.3889 28.1154 36.3779 27.8847 36.2203 27.6566C36.0669 27.4355 35.8362 27.3435 35.5529 27.3929Z" fill="#FF992E"/>
</svg>
