<svg width="30" height="30" viewBox="0 0 30 30" fill="none" xmlns="http://www.w3.org/2000/svg">
<circle cx="15" cy="15" r="15" fill="#52C234"/>
<path d="M22.1168 8.53471C21.4002 8.17143 20.3297 8.31209 19.7536 8.85029C18.8533 9.69185 17.9974 10.5744 17.1903 11.5003L17.1896 11.4997C17.1896 11.4997 17.1801 11.5113 17.1637 11.5303C17.1421 11.5554 17.12 11.5798 17.0985 11.6049C17.0795 11.6269 17.0611 11.6471 17.0434 11.6648C17.0447 11.6661 17.0453 11.6679 17.0465 11.6691C16.6914 12.0887 15.7677 13.1816 15.3841 13.6574C15.3835 13.6574 15.3828 13.6574 15.3828 13.658C15.3708 13.6733 15.3588 13.6886 15.3467 13.7039C15.3164 13.7418 15.2904 13.7748 15.2695 13.8017C15.2663 13.8054 15.2644 13.8091 15.2619 13.8134C14.2148 15.1509 13.2367 16.5356 12.301 17.949C12.1257 18.2138 12.1181 18.2138 11.9617 17.9435C11.4559 17.0664 10.9456 16.1919 10.4537 15.3075C10.2733 14.9833 10.0131 14.8023 9.64846 14.7424C9.04704 14.6439 8.47474 14.7344 7.94992 15.0311C7.46625 15.3044 7.38269 15.6127 7.65048 16.0805C8.60958 17.7557 9.57819 19.4266 10.5335 21.1042C10.7829 21.5427 11.1995 21.643 11.6528 21.6638C12.0706 21.6827 12.4745 21.5965 12.8512 21.4087C13.0715 21.2993 13.2367 21.1445 13.3659 20.9378C14.5776 18.9966 15.8152 17.0713 17.1858 15.2292L19.0179 12.9058C19.7428 12.0557 20.4867 11.2227 21.2869 10.4368C21.6243 10.1053 21.9757 9.78664 22.2985 9.44293C22.6258 9.09371 22.5467 8.75305 22.1168 8.53471Z" fill="white"/>
</svg>
