<svg width="63" height="62" viewBox="0 0 63 62" fill="none" xmlns="http://www.w3.org/2000/svg">
<rect x="0.905273" width="62" height="62" rx="31" fill="#FF1572" fill-opacity="0.1"/>
<path d="M49.1654 35.128C48.8407 34.8905 48.7026 34.6111 48.7026 34.1943C48.7088 29.8934 48.7088 25.5195 48.7088 21.2903V17.8302C48.7088 17.4197 48.6976 16.9856 48.5658 16.5738C48.1104 15.1579 46.9075 14.3108 45.3474 14.3108C37.1616 14.3071 28.9771 14.3071 20.7925 14.3084H13.8296C13.7363 14.3084 13.6443 14.3121 13.551 14.3158C12.2273 14.3702 11.0828 15.2074 10.6362 16.4489C10.5852 16.5899 10.5416 16.7334 10.4956 16.8842C10.4782 16.9411 10.4608 16.9992 10.4434 17.0561V39.0295C10.4595 39.0542 10.4757 39.0851 10.4857 39.121C11.0181 41.013 12.088 41.8205 14.0598 41.8205H17.5406C23.68 41.8205 30.0271 41.8205 36.2709 41.8131C36.2721 41.8131 36.2721 41.8131 36.2734 41.8131C36.7374 41.8131 36.9489 41.9924 37.0285 42.4499C37.7438 46.5938 41.5755 49.3589 45.7542 48.7455C48.7474 48.3053 51.2566 46.0621 51.9981 43.1647C52.7781 40.1115 51.6672 36.9581 49.1654 35.128ZM11.6414 18.7552C11.6613 18.5326 11.6563 18.3088 11.6513 18.0701C11.6476 17.9106 11.6451 17.7449 11.6501 17.5792C11.6849 16.3413 12.5358 15.5091 13.7662 15.5079C24.9713 15.5054 35.3205 15.5054 45.4059 15.5079C46.6263 15.5079 47.4884 16.3673 47.5021 17.5977C47.5046 17.7832 47.5033 17.97 47.5021 18.1555C47.5009 18.43 47.4984 18.7132 47.5083 18.9889C47.5108 19.0656 47.5195 19.2968 47.3528 19.4502C47.1886 19.6023 46.9672 19.5788 46.895 19.5714C46.8378 19.5652 46.7731 19.5677 46.7047 19.5689C46.6674 19.5701 46.63 19.5714 46.5927 19.5714H26.1618C21.6621 19.5701 17.0082 19.5701 12.4313 19.5825C12.4289 19.5825 12.4264 19.5825 12.4239 19.5825C12.2149 19.5825 11.9574 19.5578 11.7907 19.3785C11.6252 19.1992 11.624 18.9506 11.6414 18.7552ZM11.6389 23.1984C11.6675 22.6481 11.6575 22.0805 11.6476 21.5326L11.6439 21.3274C11.6426 21.2532 11.6389 21.0306 11.8019 20.8834C11.9076 20.7882 12.0531 20.7499 12.236 20.7709C12.2721 20.7746 12.3181 20.7734 12.3666 20.7721C12.3953 20.7709 12.4251 20.7709 12.4537 20.7709H17.4063C27.0165 20.7721 36.9526 20.7709 46.7258 20.7598C46.7271 20.7598 46.7283 20.7598 46.7296 20.7598C46.9485 20.7598 47.1948 20.7833 47.3566 20.9551C47.517 21.1258 47.5257 21.3595 47.5121 21.566C47.4772 22.1101 47.4859 22.6543 47.5096 23.3047C47.5158 23.4605 47.5033 23.6584 47.3628 23.8018C47.221 23.9453 47.0232 23.9601 46.8664 23.9576C46.1001 23.944 45.3188 23.9465 44.5624 23.949C44.2713 23.9502 43.979 23.9502 43.6879 23.9502H26.3596C21.7816 23.949 17.048 23.949 12.3928 23.9589C12.3903 23.9589 12.389 23.9589 12.3866 23.9589C12.1825 23.9589 11.9536 23.9354 11.7969 23.7722C11.6389 23.6077 11.6302 23.3789 11.6389 23.1984ZM37.0198 40.0348C36.9327 40.5554 36.6242 40.6272 36.3032 40.6272H36.302C31.8993 40.6235 27.4979 40.6222 23.0953 40.6222C20.0138 40.6222 16.9323 40.621 13.8508 40.6198C12.4948 40.6185 11.6513 39.7727 11.6501 38.4112C11.6488 36.8419 11.6488 35.2714 11.6488 33.7021C11.6488 31.1238 11.6488 28.4577 11.6426 25.8348C11.6426 25.6555 11.6613 25.4527 11.8081 25.3068C11.9561 25.1596 12.1639 25.1411 12.3281 25.1411C12.3293 25.1411 12.3293 25.1411 12.3306 25.1411C22.9783 25.1485 34.2705 25.1497 46.8552 25.1436H46.8564C47.0356 25.1436 47.2197 25.1621 47.3566 25.2994C47.4971 25.4403 47.5133 25.6382 47.5121 25.7755C47.5033 27.6774 47.5033 29.6102 47.5046 31.48C47.5046 32.1539 47.5046 32.8266 47.5046 33.5006C47.5046 33.5661 47.4996 33.6279 47.4934 33.6935C47.4909 33.7244 47.4884 33.7578 47.4859 33.7937L47.4623 34.1461L47.1239 34.0348C46.2046 33.7331 45.3288 33.5983 44.4455 33.6193C40.691 33.7133 37.6381 36.3522 37.0198 40.0348ZM49.143 45.7492C47.9189 46.9636 46.3053 47.6326 44.5985 47.6326C44.5948 47.6326 44.591 47.6326 44.5861 47.6326C42.8544 47.6289 41.2247 46.9537 39.9993 45.7307C38.7839 44.5163 38.1171 42.9124 38.122 41.2146C38.127 39.4895 38.805 37.8769 40.0304 36.6725C41.2508 35.473 42.8792 34.8126 44.6172 34.8126C44.6234 34.8126 44.6296 34.8126 44.6358 34.8126C48.1639 34.8225 51.0352 37.7075 51.0377 41.2442C51.0389 42.9347 50.3659 44.5349 49.143 45.7492Z" fill="#FF1572"/>
<path d="M32.041 28.33C26.2002 28.3275 20.3868 28.3275 14.7625 28.33C14.1815 28.33 13.985 28.5278 13.9825 29.1128C13.9775 30.1565 13.98 31.1915 13.9812 32.1932C13.9825 32.8906 14.1367 33.0415 14.8496 33.0415C16.8699 33.0427 18.8902 33.0427 20.9105 33.0415H23.4061H25.7486C27.8473 33.0415 29.946 33.0415 32.0447 33.0402C32.6481 33.039 32.8235 32.8671 32.826 32.2698C32.8309 31.1977 32.8309 30.133 32.826 29.109C32.8222 28.5192 32.6319 28.33 32.041 28.33ZM31.4401 31.7022C31.2734 31.8506 31.047 31.8889 30.8044 31.8889C30.6675 31.8889 30.5245 31.8766 30.3839 31.8642C30.2533 31.8531 30.1301 31.842 30.0219 31.842C30.0219 31.842 30.0219 31.842 30.0206 31.842C28.6584 31.8432 27.2962 31.8432 25.934 31.8432C22.641 31.8432 19.2361 31.8432 15.8871 31.8519C15.8846 31.8519 15.8821 31.8519 15.8809 31.8519C15.6793 31.8519 15.4554 31.8284 15.3074 31.6639C15.1581 31.4982 15.1643 31.2756 15.183 31.1222C15.1979 30.9974 15.1805 30.8378 15.1643 30.6845C15.1282 30.3444 15.0872 29.9586 15.3571 29.6952C15.6271 29.4318 16.0463 29.4788 16.4158 29.5208C16.5489 29.5357 16.6746 29.5493 16.784 29.5493C16.7853 29.5493 16.7865 29.5493 16.7865 29.5493C18.4125 29.5456 20.0372 29.5468 21.6632 29.5468H23.3999C24.0007 29.5468 24.6016 29.5468 25.2025 29.548C27.076 29.5493 29.0142 29.5505 30.9188 29.5394C31.1191 29.5394 31.3455 29.5592 31.4973 29.7274C31.6479 29.8943 31.6416 30.1194 31.6242 30.2739C31.6105 30.3988 31.6267 30.5584 31.6441 30.7129C31.6814 31.0579 31.7237 31.4512 31.4401 31.7022Z" fill="#FF1572"/>
<path d="M32.1309 37.1092C31.7503 37.1042 31.3621 37.1055 30.9864 37.1067C30.6443 37.1079 30.301 37.1079 29.9589 37.1067C29.7884 37.1067 29.6155 37.1055 29.4426 37.1055C29.2236 37.1055 29.0047 37.1067 28.787 37.1092C28.3727 37.1141 28.099 37.3454 28.0891 37.6966C28.0853 37.8549 28.1363 37.9934 28.2396 38.0997C28.3652 38.2296 28.5593 38.3013 28.787 38.3025C29.9215 38.3112 31.0474 38.3099 32.1334 38.3025C32.3698 38.3013 32.5552 38.237 32.6721 38.1183C32.7729 38.0156 32.8214 37.8722 32.8177 37.6941C32.8127 37.3268 32.5614 37.1141 32.1309 37.1092Z" fill="#FF1572"/>
<path d="M18.0644 37.1109C17.4946 37.106 16.9136 37.1035 16.3265 37.1035C15.7679 37.1035 15.2043 37.106 14.637 37.1097C14.4293 37.1109 14.2589 37.174 14.1432 37.2915C14.0387 37.3978 13.9839 37.5462 13.9864 37.7181C13.9914 38.0742 14.2315 38.2919 14.6283 38.3005C15.0115 38.3092 15.4021 38.3067 15.7803 38.3055C15.9595 38.3043 16.1398 38.3043 16.319 38.3043C16.8701 38.3043 17.4212 38.3043 17.9736 38.3043C17.9972 38.3043 18.0221 38.3043 18.0457 38.303C18.4538 38.2869 18.7237 38.0433 18.7175 37.6983C18.7075 37.357 18.4401 37.1146 18.0644 37.1109Z" fill="#FF1572"/>
<path d="M25.1419 37.1122C24.5871 37.106 24.0198 37.1035 23.4314 37.1035C22.8703 37.1035 22.2906 37.106 21.6835 37.1109C21.3103 37.1146 21.0441 37.3545 21.0353 37.6959C21.0316 37.8578 21.0839 37.9988 21.1859 38.1064C21.3028 38.2276 21.482 38.2981 21.6885 38.3018C22.0791 38.3104 22.4797 38.308 22.8653 38.3055C23.0345 38.3043 23.2037 38.3043 23.3729 38.3043C23.5558 38.3055 23.7399 38.3055 23.924 38.3055C24.3233 38.308 24.7351 38.3092 25.1394 38.3006C25.5126 38.2919 25.7714 38.0483 25.7714 37.7082C25.7714 37.3669 25.5064 37.1159 25.1419 37.1122Z" fill="#FF1572"/>
<path d="M46.0454 40.7212C46.4136 40.3848 46.7744 40.0225 47.1227 39.6713C47.2297 39.5637 47.3367 39.4561 47.4437 39.3486C47.6626 39.1297 47.7833 38.8885 47.7821 38.6697C47.7808 38.5052 47.7136 38.3568 47.5805 38.2257C47.1576 37.8102 46.6923 38.1453 46.4534 38.3815L46.3128 38.52C45.8886 38.938 45.4507 39.3708 45.0352 39.8073C44.9407 39.9063 44.7914 40.0386 44.5836 40.0386C44.3759 40.0386 44.2253 39.9063 44.1295 39.8061C43.6493 39.304 43.148 38.8106 42.6765 38.3481C42.5309 38.2059 42.2958 38.0254 42.0321 38.0254C41.8865 38.0254 41.7323 38.081 41.5805 38.2282C41.4486 38.3568 41.3802 38.5064 41.3789 38.6721C41.3765 38.8836 41.4872 39.1111 41.6875 39.3139L41.9338 39.5625C42.317 39.9496 42.7126 40.349 43.1181 40.7187C43.2326 40.8226 43.3844 40.9883 43.3856 41.2134C43.3868 41.4347 43.2463 41.5955 43.1094 41.7229C42.7661 42.0419 42.4277 42.3807 42.0993 42.7084C41.9462 42.8605 41.7932 43.0139 41.6402 43.1647C41.4598 43.3428 41.3727 43.5073 41.3814 43.6557V43.6718C41.3852 44.0056 41.5071 44.2122 41.7783 44.3383C42.0632 44.4718 42.3182 44.4261 42.5558 44.1973C43.102 43.6742 43.6245 43.1524 44.1096 42.6466C44.2191 42.5328 44.3709 42.4018 44.5824 42.4018C44.5824 42.4018 44.5824 42.4018 44.5836 42.4018C44.7976 42.4018 44.9543 42.5403 45.0526 42.6454C45.5278 43.1462 46.0242 43.6322 46.5044 44.1021C46.7097 44.3024 46.9249 44.4088 47.1265 44.4088C47.1289 44.4088 47.1314 44.4088 47.1339 44.4088C47.2994 44.4063 47.4549 44.3333 47.5942 44.1887C47.8816 43.8931 47.8405 43.4863 47.486 43.1276C47.0506 42.6874 46.5579 42.1878 46.0541 41.7204C45.916 41.593 45.7754 41.4323 45.7767 41.2109C45.7791 40.9895 45.9309 40.8251 46.0454 40.7212Z" fill="#FF1572"/>
</svg>
