<svg width="63" height="62" viewBox="0 0 63 62" fill="none" xmlns="http://www.w3.org/2000/svg">
<rect x="0.905273" width="62" height="62" rx="31" fill="#06A88B" fill-opacity="0.1"/>
<path d="M33.1051 29.9661C33.5141 29.5924 33.9149 29.19 34.3018 28.7999C34.4206 28.6804 34.5395 28.5609 34.6583 28.4414C34.9015 28.1983 35.0355 27.9304 35.0341 27.6873C35.0328 27.5046 34.9581 27.3398 34.8103 27.1942C34.3405 26.7327 33.8237 27.1049 33.5584 27.3673L33.4022 27.5211C32.931 27.9854 32.4446 28.4661 31.9831 28.951C31.8781 29.0609 31.7123 29.2079 31.4815 29.2079C31.2507 29.2079 31.0835 29.0609 30.9771 28.9496C30.4437 28.392 29.8869 27.8439 29.3632 27.3302C29.2015 27.1722 28.9403 26.9717 28.6474 26.9717C28.4857 26.9717 28.3144 27.0335 28.1458 27.1969C27.9993 27.3398 27.9233 27.506 27.9219 27.6901C27.9192 27.9249 28.0421 28.1777 28.2646 28.4029L28.5382 28.679C28.9638 29.109 29.4032 29.5526 29.8537 29.9633C29.9808 30.0787 30.1494 30.2628 30.1508 30.5127C30.1522 30.7586 29.996 30.9372 29.844 31.0787C29.4626 31.433 29.0868 31.8094 28.722 32.1734C28.552 32.3423 28.3821 32.5127 28.2121 32.6802C28.0117 32.878 27.915 33.0607 27.9247 33.2255V33.2434C27.9288 33.6143 28.0642 33.8436 28.3655 33.9838C28.6819 34.1321 28.9652 34.0813 29.2291 33.8272C29.8357 33.2461 30.4161 32.6665 30.955 32.1047C31.0766 31.9783 31.2452 31.8327 31.4801 31.8327C31.4801 31.8327 31.4801 31.8327 31.4815 31.8327C31.7192 31.8327 31.8933 31.9866 32.0024 32.1033C32.5303 32.6596 33.0816 33.1994 33.615 33.7214C33.843 33.9439 34.0821 34.062 34.3059 34.062C34.3087 34.062 34.3115 34.062 34.3142 34.062C34.498 34.0593 34.6707 33.9783 34.8255 33.8176C35.1447 33.4893 35.0991 33.0374 34.7053 32.639C34.2216 32.15 33.6744 31.5951 33.1148 31.0759C32.9614 30.9344 32.8053 30.7559 32.8067 30.51C32.8094 30.2641 32.978 30.0814 33.1051 29.9661Z" fill="#06A88B"/>
<path d="M46.489 15.7381C41.6844 14.1571 36.9585 12.5844 32.9678 11.2548C32.8407 11.2122 32.7108 11.1737 32.5823 11.1339C32.2202 11.024 31.8513 10.9128 31.4906 10.7314L31.4741 10.7383C31.3801 10.7781 31.2737 10.8235 31.1576 10.8619L30.7154 11.0089C26.0255 12.5693 21.1781 14.1819 16.4053 15.7601C16.4108 17.6996 16.4094 19.639 16.4094 21.5799V21.6321C16.4094 24.4328 16.408 27.3283 16.4246 30.1743C16.4412 32.9091 17.0008 35.567 18.0897 38.0737C20.6751 44.0282 25.137 48.1393 31.3511 50.2944C31.4229 50.3191 31.4851 50.3219 31.6426 50.2683C40.6632 47.2286 46.5014 39.1451 46.5152 29.6757C46.518 27.6909 46.518 25.7061 46.518 23.7213V23.5688C46.518 21.0209 46.518 18.3864 46.5249 15.7972C46.5249 15.7876 46.5249 15.7683 46.5249 15.7505C46.5124 15.7464 46.5 15.7422 46.489 15.7381L46.5539 15.5431L46.489 15.7381ZM45.2246 22.9837V23.0414C45.226 25.2611 45.2273 27.5563 45.2163 29.8145C45.1983 33.9626 43.9436 37.9474 41.5918 41.336C39.2413 44.7232 35.9512 47.2863 32.0793 48.7491C31.8665 48.8302 31.6661 48.8686 31.4671 48.8686C31.2599 48.8686 31.054 48.826 30.8384 48.7381C23.8312 45.8756 19.5227 40.689 18.0317 33.3198C17.8078 32.2141 17.7056 31.0369 17.7083 29.6125C17.7111 28.3241 17.7097 27.0344 17.7097 25.7459V24.088V22.4659C17.7111 20.8354 17.7125 19.1487 17.7014 17.4922C17.6987 17.1433 17.7747 16.6529 18.4476 16.4318C22.6912 15.0348 26.961 13.6146 30.9434 12.2863C31.3041 12.1668 31.6357 12.1655 31.9895 12.2822C36.4583 13.7739 40.5457 15.1296 44.4812 16.429C44.9855 16.5952 45.2301 16.929 45.2287 17.4496C45.2218 19.3341 45.2232 21.2736 45.2246 22.9837Z" fill="#06A88B"/>
<path d="M31.4763 20.3525H31.4694C25.8302 20.3525 21.2301 24.9087 21.2149 30.5073C21.208 33.227 22.2706 35.7901 24.2093 37.7241C26.1466 39.6581 28.7196 40.7253 31.4528 40.7281H31.4666C37.1017 40.7281 41.699 36.1706 41.7142 30.5692C41.7211 27.8481 40.6585 25.285 38.7198 23.351C36.7825 21.4198 34.2109 20.3553 31.4763 20.3525ZM31.457 39.441H31.4335C26.5045 39.4287 22.5 35.4261 22.5096 30.5197C22.5138 28.1476 23.4493 25.9169 25.1434 24.2411C26.8389 22.564 29.0913 21.6409 31.486 21.6409H31.5012C33.8959 21.6478 36.1344 22.5846 37.8202 24.2755C39.5047 25.9663 40.4277 28.2052 40.4195 30.5801C40.4015 35.4659 36.3818 39.441 31.457 39.441Z" fill="#06A88B"/>
</svg>
