<svg width="46" height="46" viewBox="0 0 46 46" fill="none" xmlns="http://www.w3.org/2000/svg">
<path d="M45.9411 22.9706C45.9411 10.284 35.6571 0 22.9706 0C10.284 0 0 10.284 0 22.9706C0 34.4354 8.39872 43.9401 19.3804 45.6621V29.6099H13.5475V22.9706H19.3804V17.9102C19.3804 12.1523 22.8106 8.97383 28.0581 8.97383C30.573 8.97383 33.2001 9.42303 33.2001 9.42303V15.0755H30.3041C27.449 15.0755 26.5608 16.8451 26.5608 18.6623V22.9706H32.9313L31.9138 29.6099H26.5608V45.6621C37.5424 43.9401 45.9411 34.4354 45.9411 22.9706Z" fill="white"/>
<path d="M31.9104 29.6087L32.9279 22.9694H26.5608V18.6611C26.5608 16.8439 27.449 15.0743 30.3041 15.0743H33.2001V9.42186C33.2001 9.42186 30.573 8.97266 28.0581 8.97266C22.8106 8.97266 19.3804 12.1511 19.3804 17.9091V22.9694H13.5475V29.6087H19.3804V45.6609C20.551 45.8447 21.7489 45.94 22.9706 45.94C24.1923 45.94 25.3901 45.8447 26.5608 45.6609V29.6087H31.9104Z" fill="#21367F"/>
</svg>
