<svg width="47" height="46" viewBox="0 0 47 46" fill="none" xmlns="http://www.w3.org/2000/svg">
<path d="M23.8462 45.9411C36.5325 45.9411 46.8168 35.6569 46.8168 22.9706C46.8168 10.2843 36.5325 0 23.8462 0C11.1599 0 0.87561 10.2843 0.87561 22.9706C0.87561 35.6569 11.1599 45.9411 23.8462 45.9411Z" fill="white"/>
<path d="M23.8462 11.1126C27.7086 11.1126 28.1646 11.1262 29.6892 11.1977C31.0981 11.2623 31.8638 11.4971 32.3742 11.6945C33.048 11.9565 33.5313 12.2696 34.0383 12.7767C34.5454 13.2837 34.8584 13.7636 35.1205 14.4408C35.3178 14.9512 35.5526 15.7169 35.6173 17.1258C35.6854 18.6503 35.7024 19.1098 35.7024 22.9688C35.7024 26.8279 35.6888 27.2873 35.6173 28.8118C35.5526 30.2207 35.3178 30.9864 35.1205 31.4968C34.8584 32.1706 34.5454 32.6539 34.0383 33.1609C33.5313 33.668 33.0514 33.9811 32.3742 34.2431C31.8638 34.4405 31.0981 34.6753 29.6892 34.7399C28.1646 34.808 27.7086 34.825 23.8462 34.825C19.9837 34.825 19.5277 34.8114 18.0031 34.7399C16.5943 34.6753 15.8286 34.4405 15.3181 34.2431C14.6443 33.9811 14.1611 33.668 13.654 33.1609C13.147 32.6539 12.8339 32.174 12.5719 31.4968C12.3745 30.9864 12.1397 30.2207 12.075 28.8118C12.007 27.2873 11.99 26.8279 11.99 22.9688C11.99 19.1098 12.0036 18.6503 12.075 17.1258C12.1397 15.7169 12.3745 14.9512 12.5719 14.4408C12.8339 13.767 13.147 13.2837 13.654 12.7767C14.1611 12.2696 14.6409 11.9565 15.3181 11.6945C15.8286 11.4971 16.5943 11.2623 18.0031 11.1977C19.5277 11.1262 19.9837 11.1126 23.8462 11.1126ZM23.8462 8.50586C19.9191 8.50586 19.4256 8.52287 17.884 8.59434C16.3459 8.6658 15.2943 8.90742 14.3721 9.26814C13.4226 9.63907 12.6161 10.1325 11.8096 10.9356C11.0065 11.7388 10.5096 12.5453 10.1421 13.4981C9.78478 14.417 9.53976 15.4685 9.46829 17.0101C9.39683 18.5517 9.37982 19.0451 9.37982 22.9722C9.37982 26.8993 9.39683 27.3928 9.46829 28.9343C9.53976 30.4725 9.78138 31.5241 10.1421 32.4463C10.513 33.3957 11.0065 34.2023 11.8096 35.0088C12.6127 35.8119 13.4192 36.3088 14.3721 36.6763C15.2909 37.0336 16.3425 37.2786 17.884 37.3501C19.4256 37.4215 19.9191 37.4386 23.8462 37.4386C27.7733 37.4386 28.2667 37.4215 29.8083 37.3501C31.3465 37.2786 32.398 37.037 33.3202 36.6763C34.2697 36.3053 35.0762 35.8119 35.8828 35.0088C36.6859 34.2057 37.1827 33.3991 37.5502 32.4463C37.9076 31.5275 38.1526 30.4759 38.224 28.9343C38.2955 27.3928 38.3125 26.8993 38.3125 22.9722C38.3125 19.0451 38.2955 18.5517 38.224 17.0101C38.1526 15.4719 37.911 14.4204 37.5502 13.4981C37.1793 12.5487 36.6859 11.7422 35.8828 10.9356C35.0796 10.1325 34.2731 9.63567 33.3202 9.26814C32.4014 8.91082 31.3499 8.6658 29.8083 8.59434C28.2667 8.52287 27.7733 8.50586 23.8462 8.50586Z" fill="#21367F"/>
<path d="M23.8462 15.543C19.7455 15.543 16.4207 18.8677 16.4207 22.9684C16.4207 27.0691 19.7455 30.3939 23.8462 30.3939C27.9468 30.3939 31.2716 27.0691 31.2716 22.9684C31.2716 18.8677 27.9468 15.543 23.8462 15.543ZM23.8462 27.7905C21.185 27.7905 19.024 25.633 19.024 22.9684C19.024 20.3038 21.1816 18.1463 23.8462 18.1463C26.5073 18.1463 28.6683 20.3038 28.6683 22.9684C28.6683 25.633 26.5073 27.7905 23.8462 27.7905Z" fill="#21367F"/>
<path d="M31.5677 16.9828C32.5262 16.9828 33.3032 16.2058 33.3032 15.2473C33.3032 14.2888 32.5262 13.5117 31.5677 13.5117C30.6091 13.5117 29.8321 14.2888 29.8321 15.2473C29.8321 16.2058 30.6091 16.9828 31.5677 16.9828Z" fill="#21367F"/>
</svg>
