<svg width="47" height="46" viewBox="0 0 47 46" fill="none" xmlns="http://www.w3.org/2000/svg">
<path d="M23.7873 45.9411C36.4736 45.9411 46.7579 35.6569 46.7579 22.9706C46.7579 10.2843 36.4736 0 23.7873 0C11.101 0 0.816742 10.2843 0.816742 22.9706C0.816742 35.6569 11.101 45.9411 23.7873 45.9411Z" fill="white"/>
<path d="M25.5672 19.8381C25.9449 19.4128 26.2546 18.984 26.6425 18.6199C27.8336 17.4968 29.2424 16.9319 30.8895 16.9456C31.7947 16.9524 32.6863 17.017 33.5575 17.2688C35.5517 17.844 36.7087 19.2188 37.2634 21.1653C37.6786 22.6252 37.7535 24.126 37.7569 25.6301C37.7637 28.8018 37.7467 31.9768 37.7535 35.1484C37.7535 35.4445 37.6718 35.5228 37.3791 35.5228C35.7457 35.5092 34.1088 35.5092 32.4754 35.5228C32.1861 35.5262 32.1248 35.4377 32.1248 35.1655C32.135 32.147 32.135 29.1285 32.1248 26.1066C32.1214 25.3511 32.0738 24.5922 31.8628 23.8571C31.4714 22.5027 30.5016 21.8119 29.0825 21.8868C27.1428 21.9889 26.1355 22.9485 25.8904 24.9189C25.8326 25.3885 25.802 25.8615 25.8054 26.3346C25.8088 29.2714 25.802 32.2082 25.8122 35.145C25.8122 35.4377 25.7407 35.5228 25.4412 35.5228C23.7942 35.5092 22.1471 35.5092 20.5 35.5228C20.2346 35.5262 20.1597 35.4547 20.1597 35.1859C20.1665 29.3735 20.1665 23.5577 20.1597 17.7453C20.1597 17.456 20.255 17.3914 20.5272 17.3914C22.0892 17.4016 23.6547 17.405 25.2167 17.3914C25.5059 17.3879 25.5774 17.4832 25.574 17.7555C25.557 18.4497 25.5672 19.1439 25.5672 19.8381Z" fill="#21367F"/>
<path d="M16.6103 26.4826C16.6103 29.3582 16.6069 32.2338 16.6171 35.1094C16.6171 35.4292 16.5388 35.5245 16.2087 35.5211C14.5753 35.5041 12.9418 35.5075 11.305 35.5177C11.0429 35.5211 10.9647 35.4531 10.9647 35.1842C10.9715 29.3616 10.9715 23.539 10.9647 17.713C10.9647 17.4714 11.0225 17.3863 11.2777 17.3863C12.935 17.3965 14.5923 17.3999 16.2496 17.3829C16.5695 17.3795 16.6103 17.502 16.6103 17.7776C16.6069 20.6804 16.6103 23.5798 16.6103 26.4826Z" fill="#21367F"/>
<path d="M17.0595 11.6191C17.0629 13.4261 15.5962 14.8962 13.7926 14.8962C12.0128 14.8962 10.5359 13.4261 10.5291 11.6463C10.5223 9.84947 11.9992 8.36914 13.7994 8.36914C15.586 8.37595 17.0595 9.84266 17.0595 11.6191Z" fill="#21367F"/>
</svg>
