<svg width="47" height="47" viewBox="0 0 47 47" fill="none" xmlns="http://www.w3.org/2000/svg">
<path d="M23.9321 0C11.2353 0 0.941132 10.2942 0.941132 22.991C0.941132 32.7339 6.99515 41.0612 15.547 44.4098C15.3394 42.5925 15.1693 39.7918 15.6219 37.8078C16.037 36.011 18.3103 26.3804 18.3103 26.3804C18.3103 26.3804 17.6297 24.9988 17.6297 22.974C17.6297 19.7751 19.4843 17.393 21.7916 17.393C23.7586 17.393 24.7046 18.8699 24.7046 20.6293C24.7046 22.5962 23.4557 25.5501 22.7921 28.2929C22.2442 30.5832 23.9457 32.4549 26.1985 32.4549C30.2856 32.4549 33.4266 28.1398 33.4266 21.936C33.4266 16.4299 29.4723 12.5879 23.813 12.5879C17.2655 12.5879 13.4235 17.4883 13.4235 22.5588C13.4235 24.5258 14.179 26.6459 15.125 27.7995C15.3156 28.0275 15.3326 28.2351 15.2748 28.4631C15.1046 29.1811 14.7065 30.7533 14.6316 31.0732C14.5363 31.4884 14.2913 31.5837 13.8557 31.3761C10.9801 30.0319 9.18331 25.8495 9.18331 22.4635C9.18331 15.215 14.4444 8.55526 24.3779 8.55526C32.3444 8.55526 38.5516 14.2315 38.5516 21.8374C38.5516 29.7664 33.5559 36.1404 26.6307 36.1404C24.303 36.1404 22.1081 34.9289 21.3696 33.4928C21.3696 33.4928 20.216 37.8827 19.9301 38.9615C19.4197 40.9659 18.0176 43.4637 17.0716 44.9985C19.2291 45.6621 21.4989 46.0194 23.8845 46.0194C36.5812 46.0194 46.8755 35.7252 46.8755 23.0284C46.9197 10.2942 36.6289 0 23.9321 0Z" fill="white"/>
</svg>
