<svg width="47" height="46" viewBox="0 0 47 46" fill="none" xmlns="http://www.w3.org/2000/svg">
<path d="M23.7284 45.9411C36.4147 45.9411 46.699 35.6569 46.699 22.9706C46.699 10.2843 36.4147 0 23.7284 0C11.0421 0 0.757874 10.2843 0.757874 22.9706C0.757874 35.6569 11.0421 45.9411 23.7284 45.9411Z" fill="white"/>
<path d="M19.0867 36.2007C30.3066 36.2007 36.4423 26.907 36.4423 18.8452C36.4423 18.5797 36.4354 18.3177 36.4252 18.0556C37.6163 17.1947 38.6508 16.1193 39.4675 14.8976C38.3752 15.3843 37.1977 15.7109 35.9658 15.8573C37.2249 15.1018 38.1914 13.9073 38.6474 12.4849C37.47 13.1825 36.1632 13.6929 34.7748 13.9652C33.662 12.7809 32.0761 12.0391 30.3236 12.0391C26.9545 12.0391 24.2219 14.7717 24.2219 18.1373C24.2219 18.6172 24.2764 19.08 24.3819 19.5292C19.3113 19.2739 14.8159 16.8476 11.811 13.1553C11.2869 14.0571 10.9841 15.1052 10.9841 16.2214C10.9841 18.3381 12.0594 20.2064 13.6997 21.2988C12.6992 21.2681 11.76 20.9925 10.9364 20.5365C10.9364 20.5603 10.9364 20.5875 10.9364 20.6147C10.9364 23.5686 13.0395 26.0358 15.83 26.5939C15.3161 26.7334 14.7784 26.8083 14.2237 26.8083C13.8324 26.8083 13.4479 26.7709 13.0769 26.6994C13.8528 29.1224 16.1056 30.8851 18.7736 30.9362C16.6842 32.573 14.057 33.5463 11.1985 33.5463C10.705 33.5463 10.2218 33.5191 9.74194 33.4612C12.4372 35.19 15.6428 36.2007 19.0867 36.2007Z" fill="#21367F"/>
</svg>
