<svg width="22" height="19" viewBox="0 0 22 19" fill="none" xmlns="http://www.w3.org/2000/svg">
<path fill-rule="evenodd" clip-rule="evenodd" d="M-1.32579e-06 9.49965C-1.30376e-06 9.17446 0.144847 8.86259 0.40268 8.63265C0.660514 8.40271 1.01021 8.27353 1.37484 8.27353L17.3038 8.27353L11.4002 3.01106C11.2724 2.89706 11.171 2.76172 11.1018 2.61278C11.0326 2.46383 10.997 2.30419 10.997 2.14297C10.997 1.98175 11.0326 1.82211 11.1018 1.67317C11.171 1.52422 11.2724 1.38888 11.4002 1.27488C11.5281 1.16089 11.6798 1.07046 11.8468 1.00876C12.0138 0.947064 12.1928 0.915311 12.3736 0.915311C12.5544 0.915311 12.7334 0.947064 12.9004 1.00876C13.0674 1.07046 13.2192 1.16089 13.347 1.27488L21.5961 8.63156C21.7241 8.74545 21.8257 8.88076 21.895 9.02972C21.9643 9.17868 22 9.33837 22 9.49965C22 9.66092 21.9643 9.82062 21.895 9.96958C21.8257 10.1185 21.7241 10.2538 21.5961 10.3677L13.347 17.7244C13.0888 17.9546 12.7387 18.084 12.3736 18.084C12.0085 18.084 11.6584 17.9546 11.4002 17.7244C11.1421 17.4942 10.997 17.1819 10.997 16.8563C10.997 16.5307 11.1421 16.2185 11.4002 15.9882L17.3038 10.7258L1.37484 10.7258C1.01021 10.7258 0.660513 10.5966 0.40268 10.3666C0.144847 10.1367 -1.34782e-06 9.82483 -1.32579e-06 9.49965Z" fill="black"/>
</svg>
