<svg width="121" height="120" viewBox="0 0 121 120" fill="none" xmlns="http://www.w3.org/2000/svg">
<path d="M67.5295 0C69.8793 0.811434 72.3491 1.13877 74.7266 1.86261C85.7276 5.20978 95.1406 11.0696 103.072 19.3684C109.585 26.1872 114.336 34.071 117.433 42.9553C118.495 46.0074 119.266 49.1471 119.862 52.3283C119.903 52.5496 120.019 52.757 120.102 52.9691C120.102 53.361 120.102 53.7483 120.102 54.1402C120.046 54.1955 119.968 54.237 119.94 54.3015C119.183 56.0996 117.932 57.0401 116.478 56.9064C114.645 56.7358 113.477 55.6432 113.099 53.5869C111.829 46.699 109.461 40.2259 105.842 34.2278C100.828 25.9152 94.1526 19.2439 85.8384 14.2278C79.8693 10.627 73.4478 8.22038 66.5831 6.96635C64.0302 6.50069 62.89 5.09913 63.0839 2.9645C63.2223 1.45689 64.3164 0.728446 65.429 0.00460965C66.1215 -7.73741e-07 66.8232 0 67.5295 0Z" fill="#52C234"/>
<path d="M85.6499 120.001C79.3946 119.825 72.8346 117.917 66.4916 115.16C51.4097 108.608 38.3035 99.2352 27.1409 87.2112C17.1001 76.3998 8.81819 64.4081 3.56927 50.5031C1.67653 45.4869 0.263898 40.3555 0.0284586 34.9567C-0.225447 29.1338 1.19181 23.8825 5.40202 19.6409C8.75819 16.2615 11.9205 12.6792 15.5859 9.61323C19.87 6.03554 25.816 6.06321 30.1416 9.56713C32.1821 11.2223 33.9963 13.1172 35.8152 14.9936C39.4576 18.7511 43.3908 22.232 46.7839 26.2292C50.4309 30.5215 50.3525 36.5381 46.6916 40.812C44.0695 43.8733 41.138 46.6349 38.2296 49.415C37.6526 49.9683 37.5602 50.3463 37.9249 51.0748C40.8195 56.9116 44.8958 61.8816 49.3092 66.6027C53.8933 71.4989 58.9252 75.8742 64.5896 79.4842C66.0346 80.4016 67.5996 81.1301 69.0814 81.9922C69.7416 82.3749 69.9909 81.8816 70.3371 81.5496C73.3009 78.7142 76.02 75.6252 79.1823 72.9973C83.1016 69.7377 88.4798 69.5118 92.6577 72.4256C93.581 73.0711 94.4258 73.8456 95.2244 74.6432C99.6562 79.0508 104.074 83.4814 108.478 87.912C110.463 89.9083 112.061 92.1398 112.564 94.9936C113.196 98.5759 112.213 101.753 109.919 104.473C106.715 108.262 103.105 111.688 99.5547 115.141C95.9539 118.645 91.3743 120.024 85.6499 120.001ZM6.94852 33.5321C6.98546 38.1379 8.19496 43.3062 10.1154 48.3177C14.3302 59.2997 20.6271 69.0185 28.1519 77.9766C38.4328 90.2172 50.7126 99.9683 65.1113 106.985C71.3066 110.001 77.6819 112.467 84.6527 113.071C89.1353 113.463 93.0178 112.398 96.0923 109C98.1421 106.741 100.344 104.634 102.486 102.467C103.229 101.72 103.986 100.978 104.647 100.157C106.313 98.0872 106.258 95.7866 104.545 93.7765C104.139 93.3016 103.7 92.8544 103.262 92.4118C100.667 89.8115 98.0682 87.2159 95.4645 84.6248C93.4702 82.6377 91.5082 80.6229 89.4723 78.682C87.6026 76.9023 85.4929 76.8147 83.4294 78.3362C82.9308 78.705 82.4784 79.1476 82.0352 79.5856C79.293 82.3104 76.5693 85.0628 73.8133 87.7737C71.8975 89.6594 69.7093 90.0328 67.3826 88.871C65.7437 88.0503 64.1049 87.2158 62.5307 86.2799C55.3752 82.043 49.1799 76.6395 43.5755 70.5446C38.6174 65.1504 34.1118 59.4334 31.1111 52.6654C29.7446 49.5764 30.1093 47.6538 32.5422 45.3071C35.2151 42.7299 37.8742 40.1434 40.4871 37.5017C43.4139 34.5418 43.3816 32.3426 40.4732 29.3504C40.3901 29.2675 40.3071 29.1845 40.224 29.1015C35.8568 24.7354 31.4989 20.3647 27.1271 16.0033C24.1818 13.0664 21.6981 13.0664 18.7436 15.9987C16.2461 18.4745 13.8178 21.0194 11.2649 23.4399C8.19957 26.3398 6.72232 29.8161 6.94852 33.5321Z" fill="#52C234"/>
<path d="M65.9079 21.7946C68.927 22.2326 72.1124 23.1362 75.1362 24.5147C86.5712 29.7384 94.0267 38.4059 97.4891 50.4852C97.7891 51.5318 98.0107 52.6014 98.2093 53.6757C98.574 55.6074 97.4522 57.4193 95.6748 57.8389C93.8559 58.2676 92.0047 57.2441 91.5339 55.3124C90.8045 52.3202 90.0935 49.3326 88.6901 46.5664C83.8798 37.0828 76.3503 31.08 65.9125 28.7932C65.4924 28.701 65.0676 28.6272 64.6568 28.5166C62.8564 28.0279 61.85 26.4603 62.127 24.5931C62.367 22.9334 63.8305 21.7623 65.9079 21.7946Z" fill="#52C234"/>
</svg>
