<svg width="133" height="120" viewBox="0 0 133 120" fill="none" xmlns="http://www.w3.org/2000/svg">
<path d="M57.2209 17.9102C54.2524 10.3958 55.025 5.72872 59.736 2.19379C63.6745 -0.758287 69.3008 -0.728934 73.2098 2.26926C77.8453 5.82098 78.6221 10.7103 75.5989 17.9102C77.7949 17.9102 79.9279 18.0234 82.0399 17.8892C87.6452 17.5286 92.6754 21.6464 93.028 27.5925C93.0952 28.7163 93.5067 28.926 94.5396 28.9218C103.563 28.884 112.594 29.0685 121.613 28.8379C127.542 28.687 132.866 33.0689 132.845 40.055C132.769 62.9629 132.774 85.8666 132.841 108.774C132.862 115.945 127.34 120.013 121.605 119.996C84.8237 119.874 48.0466 119.87 11.2654 120C5.61384 120.021 -0.0167027 116.012 0.00429116 108.804C0.079869 85.8959 0.0882625 62.9922 8.82857e-05 40.0843C-0.0251043 33.0773 5.34512 28.6911 11.2066 28.8421C20.171 29.0727 29.1479 28.8882 38.1207 28.9218C39.2124 28.926 39.7121 28.7876 39.8464 27.4751C40.4678 21.4955 44.5616 17.9396 50.6163 17.9186C52.7996 17.906 54.9788 17.9102 57.2209 17.9102ZM66.3743 115.232C84.5339 115.232 102.694 115.165 120.849 115.287C124.859 115.312 128.067 113.475 128.037 108.146C127.903 85.6527 127.983 63.1599 127.979 40.6672C127.979 40.0382 127.983 39.4092 127.928 38.7844C127.676 35.8239 125.426 33.6392 122.419 33.6266C113.027 33.5847 103.63 33.6224 94.2373 33.5931C93.3346 33.5889 93.0658 33.8866 93.0868 34.7588C93.1372 36.7464 93.1288 38.7341 93.091 40.7217C93.0533 42.8057 92.1799 43.6486 90.0847 43.6528C74.2889 43.657 58.4932 43.657 42.6932 43.6528C40.6946 43.6528 39.8002 42.8016 39.754 40.8181C39.7121 38.9899 39.6575 37.1532 39.7708 35.3291C39.8506 33.9915 39.5105 33.5637 38.0703 33.5763C29.2529 33.6518 20.4355 33.6141 11.6223 33.6141C6.93645 33.6141 4.86646 35.6394 4.86646 40.2604C4.86226 63.0174 4.86226 85.7701 4.86646 108.527C4.86646 113.156 6.95745 115.236 11.5803 115.241C29.8491 115.236 48.1096 115.232 66.3743 115.232ZM66.433 38.9437C73.1972 38.9437 79.9615 38.9228 86.7215 38.9647C87.8216 38.9731 88.3044 38.7844 88.2666 37.5306C88.1743 34.503 88.2582 31.4671 88.2289 28.4396C88.1911 24.892 85.9699 22.636 82.4471 22.6319C71.7529 22.6109 61.0544 22.6109 50.3601 22.6319C46.9088 22.6402 44.6498 24.8836 44.6078 28.3096C44.57 31.3413 44.654 34.373 44.57 37.4006C44.5365 38.625 44.8849 38.9857 46.1362 38.9731C52.9088 38.9102 59.673 38.9437 66.433 38.9437ZM72.7816 11.1632C72.7816 7.60312 69.9684 4.76846 66.4246 4.7475C62.9145 4.72653 60.0509 7.61151 60.0593 11.1548C60.0677 14.7191 62.8977 17.5789 66.4162 17.5748C69.9516 17.5706 72.7816 14.7149 72.7816 11.1632Z" fill="#52C234"/>
<path d="M26.809 76.4865C24.655 74.2096 23.3324 71.7691 22.8579 68.9218C22.4212 66.3052 22.4968 63.718 23.408 61.202C25.0497 56.6607 28.8034 54.1153 33.5228 54.3124C37.8727 54.4969 41.597 57.579 42.7139 62.221C43.8896 67.1061 43.1044 71.6558 39.7916 75.6143C39.5984 75.8449 39.4137 76.0798 39.1156 76.4446C40.1107 76.6039 40.9714 76.692 41.807 76.8891C47.7147 78.2812 51.7749 83.2503 51.8925 89.2886C51.9512 92.3204 51.926 95.3521 51.9008 98.3838C51.884 100.3 51.0317 101.185 49.117 101.189C38.3136 101.21 27.5101 101.206 16.7067 101.189C14.981 101.185 13.9565 100.401 13.9313 98.8703C13.8683 95.3186 13.6626 91.7333 14.0363 88.2193C14.7543 81.422 19.3435 77.2832 26.809 76.4865ZM32.8846 96.4256C37.1799 96.4256 41.4753 96.4256 45.7706 96.4256C46.4508 96.4256 47.1562 96.5598 47.131 95.4653C47.0807 93.3267 47.2444 91.1756 47.0891 89.0454C46.7406 84.3573 43.3941 81.3214 38.6873 81.2962C34.6523 81.2752 30.6215 81.2501 26.5864 81.313C22.4716 81.3759 19.0748 84.5754 18.8103 88.6596C18.6717 90.794 18.8061 92.941 18.7053 95.0795C18.6507 96.2285 19.1042 96.4591 20.1539 96.4465C24.3989 96.3962 28.6438 96.4256 32.8846 96.4256ZM38.4354 66.1626C38.469 64.4476 38.1246 62.8332 37.1715 61.3949C35.0553 58.1954 30.7768 58.1954 28.6396 61.3781C26.4773 64.5902 27.1239 70.1882 29.9539 72.8216C31.8559 74.5911 34.1064 74.5744 35.9497 72.7251C37.7468 70.9136 38.3808 68.6409 38.4354 66.1626Z" fill="#52C234"/>
<path d="M91.4579 60.6015C99.3306 60.6015 107.203 60.6015 115.076 60.6015C115.546 60.6015 116.025 60.5763 116.491 60.6309C117.784 60.7776 118.494 61.6205 118.557 62.8197C118.624 64.1113 117.893 64.9961 116.583 65.2686C116.13 65.3651 115.643 65.3106 115.168 65.3106C99.2676 65.3106 83.3627 65.3106 67.4619 65.3106C67.042 65.3106 66.618 65.3399 66.2023 65.2896C64.9091 65.1428 63.9097 64.0526 64.0441 62.8365C64.1869 61.5576 64.8797 60.7105 66.2611 60.6183C66.7313 60.5847 67.2058 60.6015 67.6761 60.6015C75.6075 60.5973 83.5348 60.6015 91.4579 60.6015Z" fill="#52C234"/>
<path d="M91.4614 76.5608C99.2291 76.5608 106.997 76.5608 114.76 76.5608C115.285 76.5608 115.81 76.5566 116.335 76.5859C117.716 76.6698 118.48 77.5126 118.56 78.7874C118.644 80.0873 117.859 80.9469 116.583 81.2446C116.133 81.3495 115.642 81.3033 115.172 81.3033C99.2711 81.3075 83.3703 81.3075 67.4696 81.3033C66.9993 81.3033 66.5081 81.3537 66.0588 81.2488C64.7782 80.9553 63.9972 80.1124 64.0686 78.8041C64.14 77.5252 64.8916 76.6782 66.2729 76.5901C66.7978 76.5566 67.3226 76.5608 67.8475 76.5608C75.716 76.5608 83.5887 76.5608 91.4614 76.5608Z" fill="#52C234"/>
<path d="M84.6892 97.2922C78.9159 97.2922 73.1425 97.2922 67.3692 97.288C66.7982 97.288 66.223 97.3342 65.6645 97.1077C64.5519 96.6632 63.964 95.8288 64.069 94.6798C64.174 93.5434 64.8332 92.7383 66.055 92.5832C66.6261 92.5119 67.2055 92.4993 67.7807 92.4993C79.0628 92.4951 90.3491 92.4951 101.631 92.4951C104.155 92.4951 105.347 93.2499 105.368 94.8517C105.389 96.4871 104.125 97.2922 101.53 97.2922C95.9167 97.2922 90.3029 97.2922 84.6892 97.2922Z" fill="#52C234"/>
</svg>
