<svg width="27" height="27" viewBox="0 0 27 27" fill="none" xmlns="http://www.w3.org/2000/svg">
<rect width="27" height="27" rx="4" fill="#FF2741"/>
<path d="M14.0004 6C14.7188 6 15.4097 6.24652 15.9303 6.68858C16.4508 7.13063 16.7611 7.7344 16.797 8.375L16.8005 8.5H20.3007C20.4792 8.50018 20.6508 8.56117 20.7805 8.67053C20.9103 8.77989 20.9883 8.92935 20.9988 9.08837C21.0093 9.2474 20.9513 9.40399 20.8368 9.52615C20.7223 9.6483 20.5598 9.72681 20.3826 9.74563L20.3007 9.75H19.7064L18.8804 18.8456C18.8271 19.4325 18.5283 19.9801 18.0434 20.3792C17.5586 20.7784 16.9232 21 16.2636 21H11.7372C11.0776 21 10.4422 20.7784 9.95736 20.3792C9.4725 19.9801 9.17371 19.4325 9.12042 18.8456L8.29367 9.75H7.70004C7.52858 9.74998 7.36308 9.69378 7.23495 9.59205C7.10682 9.49033 7.02496 9.35016 7.0049 9.19813L7 9.125C7.00002 8.97192 7.06297 8.82416 7.17691 8.70977C7.29085 8.59537 7.44785 8.52229 7.61813 8.50437L7.70004 8.5H11.2002C11.2002 7.83696 11.4952 7.20107 12.0204 6.73223C12.5455 6.26339 13.2577 6 14.0004 6V6ZM12.4253 11.7812C12.2984 11.7813 12.1758 11.8223 12.0802 11.8967C11.9846 11.9712 11.9224 12.074 11.9052 12.1862L11.9003 12.25V17.25L11.9052 17.3137C11.9225 17.4259 11.9847 17.5288 12.0803 17.6032C12.1759 17.6776 12.2985 17.7186 12.4253 17.7186C12.5521 17.7186 12.6747 17.6776 12.7703 17.6032C12.8659 17.5288 12.9281 17.4259 12.9454 17.3137L12.9503 17.25V12.25L12.9454 12.1862C12.9282 12.074 12.866 11.9712 12.7704 11.8967C12.6748 11.8223 12.5522 11.7813 12.4253 11.7812ZM15.5755 11.7812C15.4486 11.7813 15.326 11.8223 15.2304 11.8967C15.1348 11.9712 15.0726 12.074 15.0553 12.1862L15.0504 12.25V17.25L15.0553 17.3137C15.0726 17.4259 15.1348 17.5288 15.2305 17.6032C15.3261 17.6776 15.4486 17.7186 15.5755 17.7186C15.7023 17.7186 15.8249 17.6776 15.9205 17.6032C16.0161 17.5288 16.0783 17.4259 16.0956 17.3137L16.1005 17.25V12.25L16.0956 12.1862C16.0783 12.074 16.0162 11.9712 15.9205 11.8967C15.8249 11.8223 15.7023 11.7813 15.5755 11.7812ZM14.0004 7.25C13.6472 7.2499 13.307 7.369 13.048 7.58344C12.789 7.79787 12.6303 8.09178 12.6038 8.40625L12.6003 8.5H15.4005L15.397 8.40625C15.3705 8.09178 15.2118 7.79787 14.9528 7.58344C14.6938 7.369 14.3536 7.2499 14.0004 7.25V7.25Z" fill="white"/>
</svg>
