<svg width="120" height="120" viewBox="0 0 120 120" fill="none" xmlns="http://www.w3.org/2000/svg">
<path d="M0 90.7626C0.388216 89.9015 1.0116 89.2305 1.67232 88.5706C4.95722 85.2974 8.2384 82.0243 11.4897 78.7176C13.1359 77.0474 15.0434 76.0856 17.4249 76.2758C18.0147 76.3242 18.3171 76.1117 18.6232 75.6159C25.1146 65.0471 34.8312 60.9128 46.892 61.4906C49.9082 61.636 52.8086 62.3369 55.612 63.4404C56.1794 63.664 56.743 63.6901 57.3254 63.6901C65.3472 63.6901 73.3691 63.7162 81.391 63.6752C84.452 63.6603 87.1657 64.4245 89.286 66.7359C89.9318 67.4405 90.152 66.7321 90.4357 66.4414C94.9562 61.8187 99.4468 57.1624 103.975 52.5472C108.663 47.768 116.913 49.2629 119.197 55.5445C120.377 58.7916 120.269 62.2698 117.783 65.226C112.265 71.7835 106.808 78.3895 101.283 84.9358C99.3535 87.2211 97.655 89.7263 95.3369 91.6648C91.4249 94.938 86.8783 96.5485 81.8016 96.5634C71.7155 96.5969 61.6256 96.6715 51.5432 96.5224C48.0231 96.4702 45.8468 98.3938 43.6893 100.642C43.413 100.929 43.5623 101.197 43.6183 101.503C44.1185 104.228 43.4205 106.558 41.4048 108.519C37.8585 111.967 34.3571 115.464 30.8259 118.927C30.4153 119.33 29.915 119.643 29.4559 120.001C28.9893 120.001 28.5227 120.001 28.0524 120.001C27.4999 119.643 26.981 119.248 26.5144 118.775C18.2275 110.402 9.93684 102.04 1.63499 93.6816C0.978006 93.0181 0.339689 92.3582 0.00373285 91.4672C0 91.2286 0 90.9938 0 90.7626ZM66.5082 91.8326C71.4542 91.8326 76.4002 91.84 81.3462 91.8326C86.6693 91.8251 91.1226 89.9686 94.5008 85.7224C96.4643 83.2545 98.536 80.8723 100.563 78.4529C105.061 73.0734 109.574 67.7089 114.053 62.3145C115.849 60.1486 115.666 57.36 113.691 55.6191C111.769 53.9266 109.014 54.1242 107.095 56.0963C102.235 61.0955 97.3751 66.0984 92.5075 71.0939C92.0894 71.5226 91.8057 71.9178 91.8131 72.5962C91.8953 78.356 87.8302 82.494 82.0517 82.5238C76.0157 82.5537 69.976 82.535 63.94 82.5238C63.5181 82.5238 63.0814 82.4791 62.6783 82.3635C61.5733 82.0392 60.9462 81.1296 61.0209 79.9888C61.0955 78.8331 61.7338 78.1174 62.8462 77.8713C63.3352 77.7632 63.8504 77.7483 64.3506 77.7483C70.4277 77.7371 76.5047 77.7669 82.5781 77.7259C84.9335 77.711 86.7141 76.0409 87.0276 73.7445C87.3375 71.4518 86.031 69.3865 83.8286 68.6707C83.1081 68.4358 82.3653 68.4731 81.6299 68.4731C73.3355 68.4657 65.0374 68.4694 56.743 68.4731C56.0375 68.4731 55.3469 68.4396 54.6862 68.1562C50.0127 66.1469 45.1413 65.6995 40.1617 66.4451C32.7109 67.5635 26.8429 71.1722 22.8637 77.6887C22.3822 78.4753 22.4643 78.9114 23.1101 79.5489C28.616 85.0067 34.107 90.483 39.5458 96.0079C40.3932 96.8691 40.8747 96.9324 41.6922 96.0228C44.4433 92.9621 47.9186 91.7133 52.0247 91.8139C56.8475 91.922 61.6779 91.8326 66.5082 91.8326ZM39.0605 103.151C39.1128 102.409 38.7395 101.831 38.2281 101.32C31.7329 94.8224 25.2453 88.3208 18.7389 81.8342C17.5145 80.6114 16.3051 80.63 15.0732 81.8565C12.1766 84.7382 9.30972 87.6535 6.3981 90.5203C5.87924 91.0311 5.90537 91.2846 6.40183 91.7878C13.6548 99.0686 20.889 106.364 28.1121 113.675C28.5936 114.163 28.8736 114.253 29.4074 113.719C32.3227 110.8 35.2754 107.919 38.2169 105.026C38.7283 104.511 39.1016 103.937 39.0605 103.151Z" fill="#52C234"/>
<path d="M72.6971 0.00372797C74.0484 0.313149 75.4295 0.525644 76.7472 0.939448C87.2701 4.24616 93.6906 11.3069 95.3517 22.2336C97.5243 36.5155 87.2029 49.7348 72.8651 51.4124C59.0087 53.0341 46.3171 43.1923 44.3872 29.3242C42.4162 15.1766 52.4091 1.99819 66.452 0.231134C66.6835 0.20131 66.9224 0.208766 67.0866 0C68.9568 0.00372797 70.8269 0.00372797 72.6971 0.00372797ZM69.8825 46.8158C81.4954 46.8196 90.9283 37.4251 90.9433 25.8423C90.9582 14.1961 81.5066 4.69724 69.9049 4.68979C58.348 4.68606 48.8554 14.1551 48.8442 25.7044C48.833 37.3841 58.2323 46.8121 69.8825 46.8158Z" fill="#52C234"/>
<path d="M53.7006 77.4148C55.0369 77.4707 55.9589 78.522 55.8806 79.9013C55.8096 81.1763 54.7644 82.1344 53.4878 82.0896C52.2037 82.0449 51.1548 80.9079 51.2108 79.6292C51.2742 78.3095 52.3493 77.3551 53.7006 77.4148Z" fill="#52C234"/>
<path d="M73.5219 20.6128C72.8276 20.6911 72.249 20.24 71.6704 19.7591C70.9052 19.1291 70.0802 18.6109 69.0201 18.8234C67.8368 19.062 67.0006 20.1356 67.1014 21.2577C67.2096 22.4581 68.1541 23.3156 69.468 23.405C72.8799 23.6399 75.3547 25.5412 76.1984 28.5683C77.0793 31.7221 75.6982 35.1071 72.7753 36.6095C71.9242 37.0457 71.6592 37.5303 71.7525 38.3952C71.8048 38.8948 71.7787 39.4092 71.7525 39.9125C71.6816 41.2471 70.7148 42.1605 69.4046 42.153C68.1018 42.1455 67.0006 41.2061 67.1313 39.8789C67.3142 38.0187 66.9073 36.7325 65.0035 36.0242C64.1151 35.6924 63.4395 34.8797 62.8347 34.1043C61.9426 32.9524 62.0396 31.6513 63.0587 30.7641C64.0293 29.9178 65.3096 29.9737 66.3138 30.9467C66.9558 31.5693 67.5531 32.2366 68.4266 32.5647C69.8674 33.1089 71.2523 32.4566 71.6629 31.0176C72.0288 29.7426 71.1889 28.4974 69.7629 28.1806C69.0425 28.0203 68.2996 28.0911 67.5717 27.8786C64.8169 27.0696 62.7004 24.6726 62.4353 21.981C62.1367 18.9501 63.5067 16.2362 66.1421 14.8866C66.8662 14.5176 67.1984 14.1261 67.1014 13.3134C67.0342 12.7356 67.0641 12.1428 67.1014 11.5613C67.1798 10.305 68.1541 9.38415 69.3896 9.36551C70.6252 9.34687 71.8533 10.2789 71.7077 11.4793C71.4464 13.6229 72.1519 14.9612 74.1714 15.7254C74.6753 15.9156 75.0934 16.4412 75.4555 16.8923C76.0378 17.6192 76.1274 18.4543 75.6981 19.3043C75.2726 20.1431 74.597 20.6016 73.5219 20.6128Z" fill="#52C234"/>
</svg>
