<svg width="20" height="20" viewBox="0 0 20 20" fill="none" xmlns="http://www.w3.org/2000/svg">
<path fill-rule="evenodd" clip-rule="evenodd" d="M1.25 9.99921C1.25 9.83345 1.31585 9.67448 1.43306 9.55727C1.55027 9.44006 1.70924 9.37421 1.875 9.37421L16.6162 9.37421L12.6825 5.44171C12.5651 5.32435 12.4992 5.16518 12.4992 4.99921C12.4992 4.83324 12.5651 4.67407 12.6825 4.55671C12.7999 4.43935 12.959 4.37342 13.125 4.37342C13.291 4.37342 13.4501 4.43935 13.5675 4.55671L18.5675 9.55671C18.6257 9.61477 18.6719 9.68374 18.7034 9.75967C18.7349 9.8356 18.7511 9.917 18.7511 9.99921C18.7511 10.0814 18.7349 10.1628 18.7034 10.2388C18.6719 10.3147 18.6257 10.3837 18.5675 10.4417L13.5675 15.4417C13.4501 15.5591 13.291 15.625 13.125 15.625C12.959 15.625 12.7999 15.5591 12.6825 15.4417C12.5651 15.3244 12.4992 15.1652 12.4992 14.9992C12.4992 14.8332 12.5651 14.6741 12.6825 14.5567L16.6162 10.6242L1.875 10.6242C1.70924 10.6242 1.55027 10.5584 1.43306 10.4412C1.31585 10.3239 1.25 10.165 1.25 9.99921Z" fill="#52C234"/>
</svg>
