<svg width="27" height="27" viewBox="0 0 27 27" fill="none" xmlns="http://www.w3.org/2000/svg">
<rect width="27" height="27" rx="4" fill="#3DA1FD"/>
<g clip-path="url(#clip0_1302_115)">
<path d="M23 13.6156C22.9373 13.7963 22.8383 13.9558 22.7261 14.1083C21.383 15.9053 19.832 17.4508 17.9641 18.6063C16.7365 19.3648 15.4231 19.8788 13.9975 19.9816C12.8326 20.0666 11.7073 19.854 10.6182 19.4109C8.97812 18.741 7.5657 17.6812 6.27868 16.4193C5.52297 15.6785 4.83326 14.8739 4.20295 14.009C3.93235 13.6368 3.93235 13.3533 4.20295 12.9846C5.55597 11.1486 7.12349 9.57479 9.01772 8.40155C10.506 7.47997 12.0934 6.92347 13.8325 7.00854C15.0271 7.06525 16.1557 7.41262 17.2282 7.9762C19.4756 9.16362 21.2741 10.9253 22.8185 13.013C22.901 13.1229 22.9472 13.254 23 13.3781C23 13.4561 23 13.5376 23 13.6156ZM13.5091 18.6524C14.6179 18.6488 15.895 18.2731 16.9642 17.6634C18.733 16.6532 20.1884 15.2425 21.482 13.6227C21.5579 13.527 21.5579 13.4702 21.482 13.3745C21.1685 12.9811 20.8418 12.5983 20.5019 12.2332C19.2776 10.9075 17.9311 9.7662 16.324 9.0183C15.5188 8.64258 14.6839 8.398 13.8028 8.35192C12.4564 8.28458 11.2122 8.68511 10.0341 9.3444C8.25871 10.3404 6.80999 11.7618 5.51637 13.3816C5.44377 13.4702 5.44707 13.5234 5.51637 13.612C6.81659 15.2354 8.26861 16.6603 10.0506 17.6599C11.133 18.266 12.2749 18.6559 13.5091 18.6524Z" fill="white"/>
<path d="M18 13.504C17.996 15.9934 15.9666 18.0157 13.4862 17.9999C10.9978 17.9841 9 15.9736 9 13.496C9.00396 11.0066 11.0294 8.98426 13.5138 9.00009C16.0022 9.01197 18.004 11.0225 18 13.504ZM16.5007 13.496C16.4967 11.8378 15.1556 10.5001 13.502 10.4961C11.8523 10.4961 10.5073 11.8338 10.4993 13.4921C10.4914 15.1464 11.8602 16.5158 13.5099 16.4999C15.1714 16.4881 16.5046 15.1464 16.5007 13.496Z" fill="white"/>
</g>
<defs>
<clipPath id="clip0_1302_115">
<rect width="20" height="13" fill="white" transform="translate(4 7)"/>
</clipPath>
</defs>
</svg>
