<svg width="107" height="107" viewBox="0 0 107 107" fill="none" xmlns="http://www.w3.org/2000/svg">
<path d="M53.5 107C83.0472 107 107 83.0472 107 53.5C107 23.9528 83.0472 0 53.5 0C23.9528 0 0 23.9528 0 53.5C0 83.0472 23.9528 107 53.5 107Z" fill="url(#paint0_linear_582_191)" fill-opacity="0.1"/>
<path d="M59.4263 27C61.0754 28.0036 62.6089 29.1715 64.1908 30.2721C67.9479 32.8838 71.6901 35.5179 75.436 38.1446C76.4284 38.8385 76.5291 39.3907 75.8389 40.3795C75.1076 41.4279 74.3726 42.4763 73.6339 43.5247C73.2683 44.0471 72.8504 44.1702 72.44 43.9016C72.0147 43.6255 71.9773 43.1553 72.3467 42.6181C72.9772 41.7114 73.5966 40.7973 74.2532 39.9094C74.5032 39.5736 74.4995 39.4057 74.1338 39.1482C69.8022 36.1336 65.4817 33.1002 61.1612 30.0744C60.6874 29.7423 60.1912 29.4364 59.7472 29.0707C59.3666 28.7573 59.1689 28.776 58.8704 29.2088C56.7512 32.2831 54.5985 35.3351 52.4569 38.3946C51.1697 40.234 49.8825 42.0696 48.5916 43.909C48.4834 44.0657 48.3789 44.2262 48.2707 44.3829C48.3976 44.5619 48.5692 44.4873 48.711 44.4873C50.0802 44.4948 51.4458 44.4799 52.815 44.4985C53.1807 44.5023 53.3598 44.3978 53.5127 44.0471C54.5462 41.7264 56.1655 39.9802 58.5869 39.0736C59.6987 38.6557 60.8404 38.5662 61.9858 38.9468C63.9222 39.5848 65.1012 41.4577 65.0452 43.7896C65.0303 44.4911 65.0303 44.4911 65.7578 44.4911C66.8622 44.4911 67.9665 44.4836 69.0746 44.4948C71.4102 44.5172 73.078 46.1887 73.0929 48.5243C73.1041 50.4346 73.1041 52.3486 73.0892 54.2589C73.0854 54.5872 73.1787 54.729 73.5033 54.8559C75.1487 55.4864 76.0889 56.6952 76.1784 58.4675C76.2418 59.6726 76.2418 60.8889 76.1784 62.0978C76.0851 63.87 75.1375 65.0714 73.4959 65.7057C73.1638 65.8325 73.0854 65.9818 73.0892 66.3064C73.1041 68.1831 73.1004 70.0598 73.0929 71.9365C73.0854 74.4027 71.4326 76.0481 68.959 76.0556C67.0823 76.0593 65.2056 76.0555 63.3289 76.0593C62.9484 76.0593 62.635 75.966 62.4596 75.6004C62.1835 75.0258 62.5902 74.4848 63.3215 74.4811C65.1459 74.4736 66.9704 74.4811 68.7948 74.4773C70.6193 74.4773 71.5184 73.5856 71.5184 71.7798C71.5184 69.9889 71.5072 68.2017 71.5259 66.4108C71.5296 66.0452 71.4326 65.9333 71.0595 65.9407C69.3246 65.9594 67.586 65.9631 65.8511 65.9445C62.8551 65.9183 60.512 63.732 60.2098 60.7061C59.9337 57.9638 61.8888 55.3521 64.6907 54.7365C65.187 54.6283 65.6981 54.5984 66.2093 54.5984C67.8061 54.6021 69.403 54.5872 70.9961 54.6096C71.3953 54.6133 71.5371 54.5201 71.5296 54.091C71.5035 52.2665 71.5222 50.442 71.5184 48.6176C71.5147 47.0244 70.5558 46.073 68.9515 46.073C59.8815 46.0693 50.8152 46.073 41.7452 46.073C39.5701 46.073 37.3949 46.0693 35.2198 46.073C33.5072 46.0767 32.5857 46.9983 32.5857 48.7071C32.5857 56.4415 32.5857 64.1797 32.5857 71.9141C32.5857 73.552 33.5184 74.4736 35.1712 74.4773C36.9957 74.4811 38.8202 74.4736 40.6446 74.4811C41.2863 74.4848 41.6594 74.8728 41.5512 75.4175C41.4617 75.8653 41.152 76.0593 40.7155 76.0556C38.697 76.0556 36.6786 76.0929 34.6638 76.0369C32.6715 75.9847 31.0485 74.2721 31.0149 72.2536C30.9888 70.7612 31.0075 69.2725 31.0075 67.7801C31.0075 61.4113 31.0149 55.0461 31 48.6773C30.9963 47.1326 31.5597 45.9126 32.8767 45.088C33.1528 44.9127 33.1267 44.7 33.1267 44.4612C33.1267 42.1629 33.1267 39.8646 33.1267 37.5663C33.1267 37.4245 33.1192 37.2864 33.1304 37.1447C33.1603 36.6223 33.4848 36.2753 33.9326 36.2791C34.3803 36.2828 34.7011 36.6298 34.7049 37.1596C34.7123 39.4206 34.7198 41.6853 34.6974 43.9463C34.6937 44.3829 34.8093 44.5433 35.2496 44.4948C35.8167 44.4314 36.5629 44.7373 36.9136 44.3717C37.2345 44.0359 36.9994 43.3046 37.0032 42.7449C37.0106 38.6595 36.9994 34.5703 37.0181 30.4848C37.0218 30.0445 36.9062 29.8915 36.4659 29.9438C35.8988 30.0109 35.1526 29.7013 34.8019 30.0669C34.4773 30.4027 34.7235 31.1377 34.7123 31.6936C34.7011 32.3951 34.7161 33.0965 34.7049 33.7979C34.6974 34.3464 34.4064 34.6747 33.9475 34.6859C33.4662 34.6971 33.1379 34.3613 33.1341 33.7905C33.1229 32.4212 33.1192 31.0556 33.1341 29.6863C33.1453 28.8282 33.6527 28.373 34.5631 28.3693C37.5292 28.3656 40.4916 28.3693 43.4577 28.3693C46.6142 28.3693 49.7743 28.3693 52.9307 28.3693C54.0798 28.3693 54.4903 28.776 54.494 29.9102C54.494 30.787 54.494 31.6638 54.494 32.5518C54.7328 32.5368 54.7738 32.3354 54.8633 32.2085C55.8744 30.7758 56.8818 29.3431 57.878 27.8992C58.1317 27.5335 58.4115 27.2127 58.8033 27C59.0047 27 59.2137 27 59.4263 27ZM42.3683 37.2044C42.3683 39.4504 42.3795 41.6928 42.3608 43.9389C42.3571 44.353 42.428 44.5246 42.8944 44.506C43.8756 44.4687 44.8569 44.4799 45.8418 44.5023C46.1627 44.5097 46.3455 44.3903 46.5246 44.1366C48.5692 41.2003 50.6212 38.2752 52.677 35.35C52.8337 35.1262 52.9232 34.9098 52.9195 34.6262C52.9083 33.2234 52.9009 31.8205 52.9232 30.4176C52.927 30.052 52.83 29.9475 52.4569 29.9475C49.2482 29.9624 46.0396 29.9624 42.8272 29.9475C42.4504 29.9475 42.3646 30.0594 42.3646 30.4214C42.3758 32.6786 42.3683 34.9396 42.3683 37.2044ZM68.9366 64.37C69.9887 64.37 71.0409 64.3774 72.093 64.37C73.5182 64.3588 74.5667 63.3775 74.6152 61.9523C74.6525 60.833 74.6525 59.7062 74.6114 58.5869C74.5629 57.2325 73.5854 56.2251 72.2273 56.199C70.0559 56.1542 67.877 56.1319 65.7056 56.2065C63.4222 56.2848 61.6948 58.1765 61.7619 60.3703C61.8328 62.6313 63.6312 64.355 65.9369 64.37C66.9405 64.3737 67.9404 64.37 68.9366 64.37ZM38.5814 37.1559C38.5814 39.3982 38.6 41.6443 38.5664 43.8866C38.559 44.4164 38.7194 44.5545 39.2082 44.5023C39.5701 44.4612 39.9469 44.4649 40.3125 44.5023C40.7267 44.5433 40.7976 44.3679 40.7976 43.9948C40.7864 39.4878 40.7864 34.9844 40.7976 30.4773C40.7976 30.0856 40.7304 29.899 40.2902 29.9438C39.8909 29.9848 39.4805 29.9848 39.0813 29.9438C38.6411 29.899 38.5702 30.0856 38.5739 30.4773C38.5888 32.701 38.5814 34.9284 38.5814 37.1559ZM59.2696 44.4948C60.2173 44.4948 61.1612 44.4948 62.1089 44.4948C63.6125 44.4948 63.62 44.4873 63.4222 42.9539C63.1946 41.163 61.7843 40.0511 60.0158 40.3496C57.7101 40.7376 56.2625 42.2487 55.1805 44.1926C54.9604 44.5881 55.3073 44.4911 55.479 44.4911C56.7438 44.4985 58.0048 44.4948 59.2696 44.4948Z" fill="#21367F"/>
<path d="M61.5828 71.3734C61.5642 76.664 57.2661 80.9211 51.9756 80.895C46.7597 80.8689 42.4914 76.567 42.4989 71.3436C42.5064 66.0716 46.8194 61.8033 52.1099 61.8332C57.3519 61.8555 61.6052 66.1425 61.5828 71.3734ZM60.0046 71.3622C60.0158 66.9932 56.4639 63.4263 52.0912 63.4077C47.685 63.3927 44.1032 66.9335 44.0808 71.3249C44.0585 75.7014 47.6476 79.3093 52.0278 79.3168C56.4229 79.3205 59.9934 75.7611 60.0046 71.3622Z" fill="#21367F"/>
<path d="M72.0557 41.1105C72.0706 41.2747 72.0109 41.4239 71.9214 41.5545C71.5446 42.103 71.1752 42.6552 70.776 43.185C70.4775 43.5804 70.0223 43.6439 69.6679 43.3864C69.3097 43.1253 69.2463 42.6962 69.5037 42.2709C69.5597 42.1813 69.6119 42.0918 69.6828 42.0134C70.0857 41.562 70.3394 41.118 69.9365 40.5023C69.7276 40.1778 69.791 39.7487 69.8582 39.3718C69.9029 39.1256 69.8432 38.9838 69.6343 38.8532C69.3395 38.6667 69.0523 38.4652 68.7762 38.2525C68.4031 37.9615 68.3322 37.4877 68.5859 37.1407C68.8396 36.7974 69.2649 36.7042 69.6529 36.9616C70.2536 37.3534 70.8394 37.7675 71.4103 38.1966C71.761 38.4615 71.8468 38.842 71.6043 39.2226C71.2722 39.745 71.3431 40.1666 71.8095 40.5546C71.9811 40.6889 72.0632 40.8866 72.0557 41.1105Z" fill="#21367F"/>
<path d="M57.6317 34.7938C57.0609 34.7826 56.6579 34.1707 56.9601 33.667C57.3444 33.0215 57.7921 32.4134 58.2585 31.8239C58.5048 31.5142 58.8779 31.5328 59.2211 31.7119C59.6949 31.9619 60.0755 31.8873 60.4225 31.462C60.7695 31.0366 61.1202 30.9919 61.5716 31.2903C62.1275 31.656 62.6723 32.0365 63.2095 32.432C63.6125 32.7268 63.6945 33.1745 63.4558 33.5364C63.2058 33.917 62.7394 33.9879 62.2992 33.7155C62.2096 33.6595 62.1201 33.6036 62.0417 33.5364C61.5716 33.1409 61.1164 32.8275 60.4896 33.3014C60.2285 33.4991 59.8442 33.4842 59.5159 33.4245C59.139 33.3499 58.9301 33.5028 58.7585 33.8088C58.6279 34.0364 58.4637 34.2416 58.307 34.4542C58.1354 34.6781 57.919 34.805 57.6317 34.7938Z" fill="#21367F"/>
<path d="M66.2316 63.2057C64.7877 63.2169 63.6199 62.3476 63.2543 61.1052C62.8924 59.8739 63.3811 58.5457 64.4556 57.8368C65.5414 57.1204 66.9815 57.2137 67.9702 58.0606C68.4217 58.4487 68.5224 58.93 68.2314 59.2956C67.9255 59.6799 67.4777 59.6836 66.9853 59.2993C66.3323 58.7919 65.6085 58.8106 65.0936 59.3478C64.6086 59.8553 64.5899 60.6313 65.0563 61.1611C65.5488 61.7208 66.2838 61.7693 66.9442 61.288C67.4628 60.9111 67.8844 60.9149 68.1866 61.3029C68.4926 61.6909 68.3993 62.1387 67.9217 62.5304C67.3919 62.9707 66.7763 63.1871 66.2316 63.2057Z" fill="#21367F"/>
<path d="M52.7404 69.1195C52.3039 69.1195 51.8636 69.1046 51.4271 69.1232C50.9906 69.1456 50.6921 69.3583 50.6734 69.8321C50.6548 70.2649 50.9533 70.5485 51.4495 70.5671C51.886 70.582 52.3263 70.5634 52.7628 70.5746C53.897 70.6044 54.8297 71.4178 54.9902 72.5073C55.1543 73.6191 54.5387 74.675 53.4567 75.0182C53.0874 75.1339 52.968 75.2794 52.9754 75.66C52.9941 76.2756 52.6732 76.6151 52.1696 76.6039C51.6845 76.5927 51.3898 76.2793 51.4159 75.6749C51.4346 75.2346 51.2667 75.1264 50.8749 75.16C50.6137 75.1824 50.3488 75.1749 50.0877 75.1488C49.64 75.1041 49.39 74.8317 49.3564 74.3914C49.3228 73.9773 49.6437 73.6191 50.0989 73.6042C50.9048 73.5743 51.7106 73.5893 52.5165 73.5818C52.7665 73.5818 53.009 73.5631 53.203 73.3803C53.412 73.1788 53.4791 72.9289 53.397 72.6602C53.3 72.3468 53.0725 72.164 52.7329 72.1565C52.3113 72.1454 51.8935 72.1528 51.4719 72.1491C50.2108 72.1342 49.2146 71.2909 49.099 70.1418C48.9721 68.862 49.7071 67.8509 50.9943 67.5972C51.3189 67.5338 51.4196 67.4256 51.4159 67.0973C51.4047 66.4518 51.6808 66.116 52.1621 66.0974C52.6583 66.0787 52.9904 66.4481 52.9754 67.0973C52.9643 67.489 53.1135 67.5823 53.4605 67.545C53.6321 67.5263 53.8112 67.5301 53.9865 67.5525C54.4454 67.6084 54.7327 67.933 54.7215 68.3584C54.7103 68.7949 54.4156 69.0822 53.9455 69.1158C53.9119 69.1195 53.8746 69.1195 53.841 69.1195C53.4754 69.1195 53.1098 69.1195 52.7404 69.1195Z" fill="#21367F"/>
<defs>
<linearGradient id="paint0_linear_582_191" x1="53.4943" y1="-0.307995" x2="53.4943" y2="106.064" gradientUnits="userSpaceOnUse">
<stop stop-color="#21367F"/>
<stop offset="1" stop-color="#21367F"/>
</linearGradient>
</defs>
</svg>
