<svg width="80" height="80" viewBox="0 0 80 80" fill="none" xmlns="http://www.w3.org/2000/svg">
<path d="M18.6385 79.9969C18.1057 79.667 17.6793 79.2188 17.242 78.7778C11.7901 73.2791 6.33455 67.784 0.881446 62.2877C-0.287939 61.1097 -0.291557 60.4186 0.857292 59.2647C3.11271 57.0005 5.37899 54.7459 7.62112 52.4684C8.72044 51.3519 10.0034 50.7285 11.5895 50.8554C11.9556 50.8843 12.1537 50.7756 12.3325 50.4603C17.486 41.3574 28.8126 39.1233 36.9355 42.272C37.3595 42.4363 37.7823 42.4871 38.2281 42.4871C43.5544 42.4835 48.8806 42.5052 54.2069 42.4738C56.2533 42.4617 58.0642 42.9571 59.48 44.5048C59.9052 44.97 60.0574 44.5109 60.2507 44.3139C63.2648 41.2281 66.2583 38.1229 69.2784 35.0431C72.4278 31.8316 77.9896 32.8876 79.4634 37.1237C80.2233 39.3082 80.0832 41.6075 78.4088 43.5697C75.4914 46.9878 72.6332 50.4578 69.7496 53.9062C68.2661 55.6799 66.7621 57.4366 65.3028 59.2297C62.4904 62.6888 58.8083 64.3236 54.4159 64.3538C47.6871 64.3997 40.9559 64.4227 34.2283 64.3345C31.91 64.3043 30.487 65.6092 29.059 67.0772C28.8803 67.2608 28.954 67.4517 28.995 67.6571C29.3623 69.4828 28.873 71.0281 27.5309 72.3342C25.1667 74.6359 22.8304 76.9678 20.4747 79.278C20.2017 79.5462 19.8755 79.7601 19.5735 79.9993C19.2618 79.9969 18.9501 79.9969 18.6385 79.9969ZM44.0195 61.245C47.4491 61.245 50.8775 61.2692 54.3071 61.2378C57.7923 61.2063 60.7206 59.9643 62.9422 57.1853C64.3206 55.4612 65.7691 53.7926 67.1861 52.0998C70.1361 48.573 73.0946 45.0534 76.0314 41.5169C77.1959 40.1153 77.0812 38.257 75.8091 37.1032C74.56 35.9698 72.6779 36.0254 71.4541 37.2772C68.1127 40.6953 64.7881 44.1303 61.4551 47.5569C61.2715 47.7453 61.141 47.9217 61.1362 48.2238C61.0686 52.5384 58.5655 54.9912 54.2492 54.9936C50.4559 54.996 46.6639 54.9948 42.8706 54.9924C42.5601 54.9924 42.2436 54.9936 41.9392 54.9416C41.1201 54.8015 40.5934 54.1538 40.6212 53.3624C40.649 52.5723 41.2156 51.9802 42.0516 51.8884C42.3342 51.857 42.6217 51.8606 42.9068 51.8606C46.7255 51.8594 50.5441 51.8606 54.3627 51.857C54.6998 51.857 55.0392 51.8497 55.3726 51.8026C56.8501 51.5936 57.9397 50.3938 58.0388 48.8859C58.1294 47.517 57.1738 46.1541 55.8232 45.7493C55.3207 45.5995 54.7988 45.5995 54.2781 45.5995C48.7707 45.6007 43.2632 45.6007 37.7557 45.5995C37.2882 45.5995 36.8268 45.5983 36.3798 45.4062C33.2087 44.0505 29.9059 43.7569 26.5306 44.297C21.5921 45.0872 17.7264 47.5291 15.1098 51.8582C14.8247 52.3294 14.879 52.5892 15.2644 52.971C18.9912 56.6658 22.7072 60.3714 26.3905 64.1097C26.9063 64.6341 27.189 64.6039 27.6444 64.0989C29.5398 61.9953 31.9076 61.1242 34.7429 61.2196C37.8343 61.3248 40.9281 61.245 44.0195 61.245ZM25.9918 68.753C26.0075 68.2697 25.7925 67.8976 25.4687 67.5726C21.1138 63.2181 16.7624 58.8587 12.4001 54.5115C11.6258 53.7406 10.7874 53.7479 10.0034 54.526C8.04756 56.4652 6.1159 58.4298 4.15766 60.3666C3.84598 60.6747 3.83633 60.8475 4.15163 61.1628C9.014 66.0405 13.8655 70.9266 18.7098 75.8224C19.0081 76.1245 19.1942 76.1764 19.5203 75.8514C21.487 73.8856 23.4731 71.9403 25.4542 69.989C25.801 69.6447 26.022 69.2496 25.9918 68.753Z" fill="#7055D1"/>
<path d="M46.5346 34.3466C37.0273 34.3393 29.3586 26.6429 29.3804 17.1292C29.4021 7.6699 37.0985 -0.00483067 46.5587 2.28131e-06C56.0467 0.00604347 63.7383 7.73152 63.7129 17.2307C63.6875 26.7045 56.0104 34.3538 46.5346 34.3466ZM46.5454 31.2257C54.2962 31.2269 60.5744 24.967 60.5913 17.221C60.6082 9.44238 54.3156 3.12571 46.5478 3.12571C38.8115 3.12571 32.5152 9.40855 32.5019 17.1413C32.4899 24.932 38.7632 31.2245 46.5454 31.2257Z" fill="#7055D1"/>
<path d="M37.2011 53.1892C37.183 54.0349 36.4981 54.714 35.6609 54.7164C34.8117 54.7176 34.0736 53.9636 34.0953 53.1179C34.1171 52.2552 34.8588 51.5726 35.7322 51.6088C36.5814 51.645 37.2192 52.3313 37.2011 53.1892Z" fill="#7055D1"/>
<path d="M46.2241 28.0927C45.3628 28.0879 44.6138 27.4608 44.708 26.5703C44.8458 25.2751 44.4797 24.4499 43.221 23.9581C42.6339 23.7285 42.1857 23.1812 41.7967 22.6544C41.2797 21.9524 41.3582 21.1006 41.9707 20.5448C42.588 19.9842 43.4263 19.9939 44.0883 20.575C44.4387 20.8831 44.7515 21.242 45.1345 21.5005C45.7844 21.9379 46.4947 22.043 47.1652 21.5368C47.7124 21.1236 47.9262 20.5448 47.7197 19.8779C47.4708 19.0756 46.8559 18.7772 46.0538 18.7228C42.7752 18.5017 40.7179 15.3893 41.8607 12.3916C42.286 11.2764 43.0265 10.421 44.1004 9.9075C44.5413 9.69727 44.7358 9.46408 44.6815 8.97474C44.638 8.59052 44.6585 8.19543 44.6791 7.80638C44.7262 6.91832 45.3809 6.26225 46.2108 6.25016C47.0444 6.23808 47.8513 6.89657 47.7571 7.75925C47.6109 9.0859 48.0144 9.94616 49.278 10.4234C49.5764 10.5358 49.824 10.8173 50.0608 11.0553C50.7059 11.7029 50.7373 12.5825 50.1599 13.2253C49.6126 13.8343 48.7525 13.9104 48.047 13.4102C47.7305 13.1855 47.4346 12.9233 47.0975 12.7348C46.4476 12.3735 45.7953 12.3904 45.2178 12.8967C44.725 13.328 44.5425 13.8838 44.7527 14.5157C44.9931 15.237 45.5247 15.5633 46.2833 15.6188C48.6885 15.7965 50.3471 17.192 50.8195 19.3994C51.2616 21.4667 50.2662 23.4434 48.1968 24.5405C47.9045 24.6951 47.7668 24.8498 47.7849 25.1857C47.8103 25.6521 47.8103 26.1221 47.7825 26.5884C47.7317 27.4922 47.0891 28.0975 46.2241 28.0927Z" fill="#7055D1"/>
</svg>
