<svg width="107" height="108" viewBox="0 0 107 108" fill="none" xmlns="http://www.w3.org/2000/svg">
<path d="M53.5 108C83.0472 108 107 83.8234 107 54C107 24.1766 83.0472 0 53.5 0C23.9528 0 0 24.1766 0 54C0 83.8234 23.9528 108 53.5 108Z" fill="url(#paint0_linear_582_201)" fill-opacity="0.1"/>
<path d="M77.3723 58.7361C77.0554 58.3062 77.0116 57.8836 77.0116 57.5666C77.0153 50.3567 77.0153 43.1504 77.0153 35.9441V31.8856C77.0153 30.676 76.6983 30.359 75.4706 30.359H73.7036C71.8784 30.359 70.0568 30.3554 68.2316 30.37C67.9401 30.37 67.6232 30.3408 67.3864 30.0822C67.1204 29.7943 67.1569 29.4009 67.1678 29.2734C67.2006 28.9018 67.1933 28.5156 67.1678 28.0565C67.135 27.4627 66.676 27.0109 66.1004 27.0109C66.1004 27.0109 66.1003 27.0109 66.0967 27.0109C65.5174 27.0109 65.062 27.4627 65.0329 28.0602C65.0147 28.4536 65.011 28.8835 65.0293 29.4191C65.0329 29.543 65.0438 29.8745 64.8034 30.1186C64.5629 30.3663 64.2314 30.3627 64.1257 30.3627C62.2386 30.3518 60.2931 30.3518 58.3477 30.3627C58.2384 30.3627 57.8996 30.3663 57.6591 30.115C57.4442 29.8927 57.4296 29.6122 57.4369 29.4191C57.4551 29.0074 57.4551 28.5812 57.4369 28.1075C57.415 27.4736 56.9669 27.0109 56.3731 27.0073C56.3694 27.0073 56.3694 27.0073 56.3658 27.0073C55.772 27.0073 55.3202 27.4627 55.2983 28.0893C55.2801 28.5192 55.2801 28.9783 55.2983 29.4555C55.302 29.5612 55.3129 29.8745 55.0798 30.1186C54.8466 30.3627 54.5224 30.359 54.4131 30.359C52.3146 30.3518 50.4056 30.3518 48.5803 30.359C48.2962 30.3554 48.0922 30.2789 47.9355 30.1222C47.7023 29.8818 47.7096 29.5721 47.7133 29.4373C47.7242 28.9564 47.7242 28.5265 47.7133 28.1185C47.6914 27.4809 47.2506 27.0146 46.6567 27.0036C46.6495 27.0036 46.6458 27.0036 46.6385 27.0036C46.0411 27.0036 45.5893 27.4736 45.5674 28.1258C45.5674 28.1658 45.5674 28.2023 45.5674 28.2387C45.5674 28.3152 45.5674 28.3954 45.5638 28.4719C45.5565 28.5702 45.5711 28.7123 45.5893 28.8471C45.633 29.2297 45.695 29.7579 45.2942 30.1259C44.908 30.4829 44.3907 30.421 43.979 30.3736C43.8479 30.359 43.7167 30.3445 43.622 30.3445C43.0282 30.3481 42.4307 30.3481 41.8368 30.3445C40.9188 30.3408 39.9679 30.3408 39.0352 30.359C38.7984 30.3627 38.4487 30.3372 38.2046 30.0785C37.9642 29.8199 37.9605 29.4847 37.9824 29.2515C38.0115 28.9273 38.0006 28.5921 37.9897 28.2387L37.986 28.1258C37.9642 27.47 37.516 27 36.9149 27C36.9113 27 36.9076 27 36.9004 27C36.3065 27.0073 35.8621 27.4736 35.8402 28.1075C35.8256 28.5338 35.811 28.9163 35.8438 29.2879C35.8548 29.4118 35.8839 29.798 35.6252 30.0749C35.3921 30.3263 35.0751 30.359 34.8164 30.3554C33.8692 30.3481 32.9184 30.3518 31.9711 30.3518C30.5467 30.3554 29.0712 30.359 27.6212 30.3299C26.765 30.3153 26.3024 30.5339 26 31.1132V74.0012C26.2951 74.5622 26.7614 74.7845 27.6139 74.7845C27.6176 74.7845 27.6248 74.7845 27.6285 74.7845C32.9402 74.7699 38.252 74.7662 43.5637 74.7662C46.8936 74.7662 50.227 74.7662 53.5569 74.7626C53.5569 74.7626 53.5569 74.7626 53.5606 74.7626C54.1289 74.7626 54.526 74.9593 54.8466 75.4002C57.1892 78.5771 60.3405 80.5043 64.2168 81.1237C64.2933 81.1346 64.3698 81.1346 64.4463 81.1382C64.6394 81.1419 64.8945 81.1492 65.1531 81.2621H67.2516C68.687 81.0362 70.0095 80.8249 71.27 80.3076C75.609 78.5188 78.4434 75.4147 79.6894 71.0757C80.9535 66.6892 80.1739 62.5323 77.3723 58.7361ZM28.1312 38.9352C28.1677 37.0662 28.1531 35.19 28.1349 33.6015C28.1312 33.4194 28.1276 33.0332 28.4008 32.7636C28.6449 32.5195 28.9838 32.494 29.2096 32.4976C30.8855 32.5231 32.667 32.5231 34.8164 32.5013C35.0605 32.5049 35.3848 32.5268 35.6216 32.7818C35.8548 33.0368 35.8584 33.3611 35.8366 33.5797C35.8147 33.8128 35.822 34.0569 35.8293 34.3156L35.8329 34.5487C35.8438 35.2628 36.2737 35.7437 36.9004 35.751C36.904 35.751 36.9076 35.751 36.9113 35.751C37.5306 35.751 37.9714 35.2665 37.9824 34.5706C37.9896 34.1808 37.997 33.7982 37.9787 33.4157C37.9751 33.3101 37.9605 32.9931 38.1973 32.749C38.4341 32.5049 38.7584 32.5085 38.864 32.5049C40.9188 32.5158 42.8278 32.5122 44.6967 32.5049C44.7004 32.5049 44.7004 32.5049 44.704 32.5049C44.9772 32.5049 45.1922 32.5851 45.3452 32.7417C45.5784 32.9822 45.5711 33.3028 45.5674 33.423C45.5529 33.9294 45.5529 34.3192 45.5711 34.6799C45.6002 35.292 46.0556 35.751 46.6385 35.751C46.6458 35.751 46.6495 35.751 46.6567 35.751C47.2397 35.7401 47.6805 35.292 47.7096 34.6835C47.7278 34.2864 47.7278 33.882 47.7096 33.4886C47.7023 33.3465 47.6878 33.0113 47.9355 32.7563C48.1796 32.5013 48.5221 32.5049 48.635 32.5049C50.4602 32.5195 52.3292 32.5195 54.3548 32.5049C54.5697 32.5085 54.8575 32.5304 55.0798 32.7636C55.3239 33.0222 55.3056 33.3647 55.2983 33.4776C55.2801 33.8238 55.2801 34.2026 55.2983 34.6653C55.3239 35.2956 55.772 35.751 56.3694 35.751C56.3731 35.751 56.3731 35.751 56.3767 35.751C56.9706 35.7474 57.4187 35.2847 57.4405 34.6508C57.4551 34.2099 57.4551 33.8165 57.4405 33.4521C57.4369 33.3428 57.4223 33.004 57.6591 32.7563C57.8996 32.5049 58.242 32.5049 58.3477 32.5085C60.2968 32.5195 62.2422 32.5195 64.1257 32.5085C64.235 32.5085 64.5666 32.5049 64.807 32.7563C65.0475 33.004 65.0329 33.3319 65.0293 33.4558C65.0147 33.8383 65.0147 34.2318 65.0293 34.658C65.0511 35.292 65.5029 35.7547 66.0967 35.7547H66.1004C66.6942 35.7547 67.1459 35.2993 67.1714 34.6653C67.186 34.2427 67.1897 33.8201 67.1714 33.4121C67.1678 33.3101 67.1569 32.9967 67.39 32.7526C67.5977 32.5377 67.8673 32.5085 68.0567 32.5085C68.0604 32.5085 68.064 32.5085 68.064 32.5085C70.0459 32.5158 72.0241 32.5158 74.006 32.5085C74.1044 32.5122 74.414 32.5085 74.6436 32.7381C74.8731 32.9676 74.8694 33.2663 74.8694 33.3647C74.8622 35.3284 74.8622 37.2885 74.8694 39.2521C74.8694 39.5254 74.7893 39.7403 74.6217 39.8934C74.374 40.1229 74.0607 40.101 73.955 40.0937C73.8858 40.0901 73.8202 40.0901 73.7474 40.0937H73.6162H47.2542C41.2685 40.0937 35.2828 40.0937 29.2934 40.1047C29.2898 40.1047 29.2861 40.1047 29.2861 40.1047C28.9874 40.1047 28.6486 40.0682 28.3972 39.8168C28.1531 39.5582 28.124 39.2121 28.1312 38.9352ZM53.4185 59.7125C52.3073 59.636 51.1269 59.6323 49.8081 59.6942C49.258 59.7197 48.9009 60.2699 48.9155 60.769C48.9337 61.3337 49.3746 61.7818 49.9465 61.8037C50.6788 61.8328 51.4293 61.8219 52.0742 61.8073C52.198 61.8073 52.5769 61.7964 52.8028 62.1097C52.9522 62.3137 52.974 62.5724 52.8684 62.8748C52.6133 63.6143 52.4275 64.4195 52.3 65.3412C52.2563 65.6582 52.0778 66.1865 51.3237 66.1537C50.8828 66.1391 50.442 66.1391 50.0121 66.1537C49.3782 66.1755 48.9192 66.6273 48.9192 67.2248C48.9192 67.8223 49.3782 68.274 50.0085 68.2959C50.4129 68.3105 50.8428 68.3105 51.3237 68.2959C52.0814 68.2631 52.2599 68.7914 52.3037 69.1047C52.4275 70.0301 52.6133 70.8389 52.8684 71.5711C53.0104 71.9792 52.9012 72.2379 52.7809 72.3836C52.6643 72.5293 52.4385 72.6896 52.0231 72.635C51.9904 72.6313 51.9576 72.635 51.9248 72.635L51.8228 72.6386H47.5967C41.4944 72.6386 35.3884 72.6386 29.2861 72.6532C29.2825 72.6532 29.2788 72.6532 29.2752 72.6532C29.002 72.6532 28.6595 72.6204 28.4118 72.369C28.164 72.1176 28.1276 71.7788 28.1276 71.4801C28.1422 62.3574 28.1422 52.9033 28.1276 43.3763C28.1276 43.1686 28.1276 42.7788 28.4008 42.5055C28.6449 42.2614 28.9801 42.2287 29.2461 42.2287H29.2497C43.4653 42.2432 58.0162 42.2432 73.7291 42.2323C74.0242 42.2287 74.3558 42.2651 74.5962 42.5092C74.8403 42.7569 74.8731 43.0957 74.8694 43.3653C74.8512 46.1815 74.8549 49.0488 74.8549 51.8213V56.0838L74.0169 55.5519C72.873 54.8305 71.8311 54.3169 70.7454 53.9343C64.8799 51.8832 58.304 54.0145 54.7555 59.1113C54.3876 59.6578 53.954 59.7489 53.4185 59.7125ZM74.6181 75.626C72.3629 77.8812 69.3792 79.1235 66.2169 79.1272C66.2133 79.1272 66.2133 79.1272 66.2096 79.1272C59.6519 79.1272 54.3183 73.7935 54.3147 67.2321C54.3147 64.0698 55.5534 61.0823 57.8049 58.8272C60.06 56.572 63.0437 55.3297 66.206 55.3297C66.2096 55.3297 66.2096 55.3297 66.2133 55.3297C69.3756 55.3297 72.3557 56.5684 74.6108 58.8199C76.8659 61.075 78.1082 64.0588 78.1082 67.2211C78.1082 70.3871 76.8695 73.3709 74.6181 75.626Z" fill="#FF1572"/>
<path d="M40.1245 46.6953C39.1227 46.6771 38.088 46.6771 36.955 46.6953C36.2992 46.7062 35.8293 47.1616 35.8329 47.7737C35.8365 48.3858 36.3138 48.8229 36.9841 48.8375C37.3339 48.8448 37.68 48.8448 38.0261 48.8412H38.4851C38.4924 48.8412 38.4997 48.8412 38.5106 48.8412C38.6746 48.8412 38.8421 48.8412 39.0061 48.8448C39.3704 48.8484 39.7311 48.8484 40.0954 48.8412C40.7548 48.8229 41.2284 48.3675 41.2211 47.7591C41.2175 47.1543 40.7548 46.7062 40.1245 46.6953Z" fill="#FF1572"/>
<path d="M53.2218 46.6951C52.1543 46.6732 51.0687 46.6732 50.0012 46.6951C49.3855 46.706 48.9192 47.1651 48.9192 47.7626C48.9192 48.3601 49.3782 48.8118 50.0121 48.8337C50.3619 48.8446 50.7153 48.841 51.0687 48.841C51.2326 48.841 51.3965 48.8373 51.5605 48.8373C51.7354 48.8373 51.9102 48.8373 52.0851 48.841C52.4604 48.8446 52.8465 48.8482 53.2181 48.8337C53.8484 48.8118 54.3074 48.3637 54.3074 47.7626C54.3074 47.1687 53.8411 46.7097 53.2218 46.6951Z" fill="#FF1572"/>
<path d="M66.1805 46.6948C65.8307 46.6839 65.481 46.6875 65.1312 46.6911C64.9637 46.6911 64.8106 46.6911 64.6285 46.6948L64.133 46.6911C63.9618 46.6911 63.7906 46.6875 63.6193 46.6875C63.4226 46.6875 63.2222 46.6875 63.0219 46.6948C62.3625 46.713 61.8888 47.1648 61.8925 47.7732C61.8961 48.378 62.3552 48.8224 62.9854 48.8334C64.133 48.8552 65.1859 48.8552 66.206 48.8334C66.8217 48.8188 67.2843 48.3561 67.2771 47.7586C67.2771 47.1611 66.8144 46.713 66.1805 46.6948Z" fill="#FF1572"/>
<path d="M40.121 53.1835C39.6073 53.1726 39.079 53.1689 38.5435 53.1689C38.0189 53.1689 37.487 53.1726 36.9514 53.1835C36.2957 53.1944 35.8257 53.6499 35.833 54.2656C35.8403 54.8594 36.3066 55.3039 36.9405 55.3257C37.2939 55.3367 37.6473 55.333 38.0006 55.3294C38.1646 55.3294 38.3285 55.3257 38.4925 55.3257L38.9879 55.3294C39.3595 55.333 39.7311 55.333 40.0991 55.3257C40.7585 55.3075 41.2285 54.8521 41.2212 54.2437C41.2175 53.6389 40.7512 53.1944 40.121 53.1835Z" fill="#FF1572"/>
<path d="M53.2109 53.1836C52.209 53.1654 51.1743 53.1654 50.0413 53.1836C49.3855 53.1945 48.9156 53.6499 48.9192 54.262C48.9229 54.874 49.4001 55.3112 50.0705 55.3258C50.4166 55.3331 50.7663 55.3331 51.1124 55.3294H51.5714C51.5787 55.3294 51.5897 55.3294 51.5969 55.3294C51.7609 55.3294 51.9248 55.3294 52.0924 55.3331C52.4567 55.3367 52.8174 55.3367 53.1817 55.3294C53.8411 55.3112 54.3147 54.8558 54.3074 54.2474C54.3001 53.6426 53.8411 53.1945 53.2109 53.1836Z" fill="#FF1572"/>
<path d="M40.1282 59.6691C39.7748 59.6582 39.4251 59.6618 39.0717 59.6618C38.9078 59.6618 38.7438 59.6655 38.5799 59.6655C38.3977 59.6655 38.2265 59.6655 38.048 59.6618C37.8804 59.6618 37.7128 59.6582 37.5452 59.6582C37.3376 59.6582 37.1299 59.6618 36.9222 59.6691C36.292 59.691 35.8329 60.1428 35.8366 60.7439C35.8402 61.3377 36.3065 61.7968 36.9259 61.8077C38.0225 61.8296 39.1081 61.8296 40.1464 61.8077C40.7621 61.7931 41.2248 61.3341 41.2248 60.7366C41.2212 60.1391 40.7585 59.691 40.1282 59.6691Z" fill="#FF1572"/>
<path d="M40.1282 66.1611C39.5635 66.1501 39.0207 66.1465 38.4961 66.1465C37.9496 66.1465 37.425 66.1538 36.9077 66.1647C36.292 66.1793 35.8329 66.642 35.8366 67.2394C35.8402 67.8333 36.3065 68.2814 36.9404 68.3033C37.2938 68.3142 37.6472 68.3106 38.0006 68.3069C38.1645 68.3069 38.3248 68.3033 38.4888 68.3033L38.9879 68.3069C39.3595 68.3106 39.7275 68.3106 40.0954 68.3033C40.7548 68.2851 41.2284 67.8333 41.2211 67.2249C41.2175 66.6165 40.7585 66.172 40.1282 66.1611Z" fill="#FF1572"/>
<path d="M71.31 66.1502C70.3373 66.1466 69.3318 66.1429 68.3445 66.1612C68.0822 66.1648 67.7689 66.1393 67.5321 65.9025C67.2916 65.662 67.2698 65.3305 67.2734 65.1046C67.2989 63.8696 67.2916 62.609 67.2843 61.3922L67.2807 60.9076C67.2771 60.1571 66.8545 59.6726 66.2096 59.6689C65.5721 59.6689 65.1385 60.1644 65.1385 60.9004C65.1312 62.9515 65.1312 65.0026 65.1385 67.0574C65.1422 67.888 65.5429 68.2961 66.3699 68.3034C67.0658 68.307 67.7579 68.307 68.4538 68.307H72.3083C72.9713 68.307 73.7619 68.1212 73.7692 67.2396C73.7728 66.9445 73.6854 66.7076 73.5105 66.5328C73.2701 66.2887 72.8511 66.1575 72.3338 66.1575L71.31 66.1502Z" fill="#FF1572"/>
<defs>
<linearGradient id="paint0_linear_582_201" x1="53.4943" y1="-0.309866" x2="53.4943" y2="107.056" gradientUnits="userSpaceOnUse">
<stop stop-color="#FF1572"/>
<stop offset="1" stop-color="#FF1572"/>
</linearGradient>
</defs>
</svg>
