<svg width="48" height="80" viewBox="0 0 48 80" fill="none" xmlns="http://www.w3.org/2000/svg">
<path d="M22.4707 0C23.1068 0.332171 23.3963 0.839405 23.3907 1.57332C23.3716 4.35301 23.384 7.1327 23.3806 9.91351C23.3806 10.0942 23.3772 10.2816 23.3335 10.4544C23.1629 11.121 22.7298 11.4835 22.0342 11.4352C21.3385 11.387 20.9066 10.9717 20.9021 10.2827C20.8796 7.2438 20.8931 4.20376 20.8931 1.16372C20.8931 0.591399 21.3183 0.315338 21.6897 0.0011222C21.95 0 22.2103 0 22.4707 0Z" fill="#F4731D"/>
<path d="M17.4945 43.001C17.4945 42.4837 17.4945 42.1998 17.4945 41.9147C17.4945 34.8864 17.49 27.8569 17.4978 20.8286C17.5001 18.5494 18.7747 16.7393 20.7764 16.1154C23.7508 15.1873 26.7982 17.3487 26.8442 20.4695C26.8869 23.3322 26.8554 26.1961 26.8566 29.0599C26.8566 29.3394 26.8566 29.6177 26.8566 29.9846C27.8608 29.5481 28.8336 29.373 29.8209 29.5503C31.5062 29.8533 32.7023 30.8252 33.3676 32.403C33.5449 32.8238 33.6313 33.0034 34.1654 32.7868C36.3971 31.8834 38.7152 32.6936 39.9516 34.791C40.1996 35.2118 40.3522 35.2264 40.7729 35.03C43.8506 33.5925 47.3782 35.7123 47.4242 39.1238C47.5017 44.7977 47.4467 50.4738 47.4512 56.1487C47.4512 56.528 47.3031 56.8568 47.1527 57.189C46.5188 58.585 45.8983 59.9878 45.2397 61.3726C45.0445 61.7844 45.0669 61.9662 45.5202 62.1749C46.8027 62.7652 47.4343 63.8347 47.4422 65.2262C47.4624 69.0271 47.4669 72.828 47.4422 76.6289C47.4299 78.5759 46.0116 79.9887 44.0784 79.991C36.3219 80.0033 28.5654 80.0045 20.8089 79.991C18.8678 79.9876 17.4765 78.5703 17.4687 76.6177C17.4541 72.8168 17.4675 69.0159 17.4608 65.215C17.4597 64.5439 17.5853 63.8964 17.996 63.3768C18.3203 62.9661 18.1946 62.7203 17.9231 62.3769C14.6995 58.291 11.4704 54.2084 8.28046 50.0967C6.63895 47.9814 4.95705 45.8885 3.62746 43.5498C3.13602 42.6868 2.74107 41.779 2.6255 40.7813C2.38315 38.6974 3.39072 37.1802 5.46308 36.9378C8.63614 36.5663 11.6375 37.0747 14.1015 39.3662C15.2617 40.4424 16.295 41.6398 17.4945 43.001ZM19.9932 33.5117C19.9932 37.573 19.9932 41.6342 19.9932 45.6954C19.9932 45.9042 19.9865 46.1118 19.9943 46.3205C20.0168 46.9545 19.798 47.4438 19.1696 47.675C18.5335 47.9084 18.0611 47.6391 17.6684 47.1554C17.5203 46.9736 17.3699 46.7941 17.2218 46.6123C15.7856 44.8616 14.3124 43.1447 12.7472 41.504C10.9654 39.6356 8.70907 39.2641 6.31694 39.3415C5.06701 39.3819 4.84709 39.8174 5.24878 41.0349C5.63699 42.211 6.3102 43.2345 7.02381 44.2276C11.2762 50.1494 16.0156 55.6942 20.4016 61.514C20.6283 61.8158 20.8852 61.845 21.2061 61.8439C28.0257 61.8405 34.8453 61.8349 41.6649 61.854C42.1743 61.8551 42.392 61.6587 42.5794 61.23C43.2571 59.6825 43.9561 58.144 44.6719 56.6133C44.8773 56.1757 44.9581 55.7402 44.9569 55.2622C44.948 50.1079 44.9524 44.9525 44.9513 39.7983C44.9513 38.0903 44.1121 37.0511 42.7477 37.0612C41.3889 37.0713 40.5889 38.0959 40.5878 39.8263C40.5867 41.5444 40.6001 43.2625 40.5811 44.9806C40.5721 45.7785 40.056 46.316 39.3592 46.3306C38.6299 46.3463 38.1182 45.7942 38.0902 44.9537C38.0835 44.7461 38.0879 44.5373 38.0879 44.3286C38.0879 41.9854 38.0958 39.6423 38.0846 37.2991C38.079 36.0827 37.417 35.2006 36.3915 34.9863C34.962 34.6878 33.7502 35.6607 33.73 37.1757C33.7031 39.1283 33.7289 41.081 33.7199 43.0336C33.7155 43.9392 33.2105 44.5149 32.4633 44.507C31.7194 44.4992 31.2291 43.9235 31.2268 43.01C31.2201 40.3021 31.2246 37.5954 31.2235 34.8875C31.2235 34.653 31.2291 34.4185 31.2201 34.185C31.1707 32.9371 30.3045 32.036 29.1264 32.0012C27.9 31.9642 26.9575 32.8361 26.8678 34.1009C26.8476 34.3859 26.8588 34.6732 26.8588 34.9593C26.8577 37.068 26.8689 39.1766 26.8498 41.2852C26.8431 42.0382 26.3337 42.5421 25.6504 42.56C24.966 42.578 24.4397 42.0921 24.3679 41.3559C24.3455 41.1236 24.359 40.8879 24.359 40.6534C24.359 34.1974 24.359 27.7402 24.3578 21.2842C24.3578 20.9981 24.3668 20.7108 24.3455 20.4257C24.2647 19.3507 23.44 18.5101 22.3988 18.426C21.2779 18.3351 20.3377 18.9949 20.0886 20.0857C20.0089 20.4358 19.9999 20.8073 19.9988 21.1698C19.9909 25.2849 19.9932 29.3989 19.9932 33.5117ZM32.4655 77.4952C36.2142 77.4952 39.9628 77.4963 43.7115 77.4941C44.7112 77.493 44.9491 77.2562 44.9502 76.2507C44.9536 72.7102 44.9536 69.1685 44.9502 65.628C44.9491 64.5529 44.7449 64.3442 43.6801 64.343C36.1828 64.3408 28.6855 64.3408 21.1881 64.343C20.1503 64.343 19.9651 64.5338 19.964 65.5797C19.9618 69.1202 19.9618 72.6619 19.964 76.2024C19.964 77.3123 20.1525 77.493 21.2981 77.493C25.0198 77.4963 28.7427 77.4952 32.4655 77.4952Z" fill="#F4731D"/>
<path d="M6.78372 22.8303C5.01767 22.8303 3.25049 22.836 1.48443 22.8281C0.564381 22.8247 0.00112849 22.3478 6.47507e-06 21.5993C-0.00223756 20.8631 0.578967 20.3391 1.4777 20.3368C5.01093 20.3256 8.54304 20.3245 12.0763 20.3379C12.9604 20.3413 13.5484 20.8979 13.5248 21.6318C13.5012 22.3545 12.9514 22.8247 12.083 22.8281C10.317 22.8371 8.5509 22.8303 6.78372 22.8303Z" fill="#F4731D"/>
<path d="M37.233 20.8852C38.8723 20.8852 40.5126 20.8785 42.1519 20.8875C43.1415 20.8931 43.7126 21.3599 43.7093 22.1286C43.7059 22.8962 43.1269 23.3788 42.1441 23.381C38.8128 23.39 35.4815 23.3934 32.1503 23.3788C31.0529 23.3743 30.419 22.6516 30.6928 21.7774C30.9059 21.0962 31.4165 20.8807 32.0796 20.883C33.7974 20.8886 35.5152 20.8852 37.233 20.8852Z" fill="#F4731D"/>
<path d="M15.5893 14.0173C15.5489 14.4886 15.3234 14.8892 14.8521 15.089C14.3932 15.2831 13.9242 15.2562 13.5394 14.9049C13.1175 14.52 12.7192 14.1093 12.3141 13.7053C10.4572 11.8492 8.59575 9.99754 6.74779 8.13244C5.97248 7.35027 6.09814 6.30662 6.99463 5.95986C7.53096 5.75226 8.01342 5.87794 8.42296 6.28754C10.6647 8.53082 12.9077 10.773 15.1494 13.0163C15.4154 13.2822 15.5859 13.5942 15.5893 14.0173Z" fill="#F4731D"/>
<path d="M37.849 7.4188C37.8467 7.86319 37.6818 8.17516 37.4125 8.44337C35.2605 10.5924 33.1163 12.7481 30.9553 14.8882C30.3831 15.4549 29.6538 15.4728 29.1466 14.9937C28.5991 14.4752 28.5946 13.748 29.2039 13.1319C31.3424 10.9706 33.5001 8.82716 35.6498 6.67702C36.0773 6.25059 36.5721 6.09797 37.1388 6.35832C37.6066 6.57378 37.8344 6.96318 37.849 7.4188Z" fill="#F4731D"/>
<path d="M26.9059 73.5044C26.8981 75.0811 25.6459 76.3099 24.0628 76.2942C22.5278 76.2785 21.2914 75.0463 21.2745 73.5145C21.2577 71.977 22.5514 70.6686 24.0919 70.6641C25.6437 70.6596 26.9138 71.9434 26.9059 73.5044Z" fill="#F4731D"/>
</svg>
