<svg width="109" height="107" viewBox="0 0 109 107" fill="none" xmlns="http://www.w3.org/2000/svg">
<path d="M54.5 107C84.5995 107 109 83.0472 109 53.5C109 23.9528 84.5995 0 54.5 0C24.4005 0 0 23.9528 0 53.5C0 83.0472 24.4005 107 54.5 107Z" fill="url(#paint0_linear_582_175)" fill-opacity="0.1"/>
<path d="M67.0059 31.2616C67.0024 31.2616 66.9989 31.2616 66.9989 31.2616C66.5273 31.2616 66.194 31.1233 65.8749 30.8007C65.0062 29.9178 64.1304 29.042 63.251 28.1662C62.4745 27.3896 61.698 26.6167 60.9286 25.8366C59.3969 24.2836 57.6559 23.3865 55.6065 23.0957C55.525 23.0851 55.454 23.0461 55.4009 23.0142C55.3867 23.0071 55.3796 23.0035 55.3725 23H40.5514C39.5019 23.2943 38.5162 23.8013 37.5659 24.2907C37.3461 24.4041 37.1227 24.5176 36.8994 24.631C36.2328 24.9643 35.5023 25.0849 34.5237 25.014C34.0096 24.9785 33.9564 24.6346 33.96 24.3793C33.9671 24.0176 33.9564 23.6453 33.9458 23.2872C33.9458 23.1915 33.9422 23.0957 33.9422 23H24.0036V26.6415C24.0036 32.7473 24.0036 38.8566 24.0001 44.9624V45.0369C24.0001 45.168 23.9965 45.2921 24.0391 45.3347C24.0603 45.356 24.1242 45.3879 24.2908 45.3879C27.5529 45.3631 30.861 45.3737 33.6692 45.3843C33.8288 45.3772 33.9032 45.356 33.9281 45.3312C33.96 45.2957 33.9777 45.2106 33.9741 45.0829C33.9529 44.4234 33.96 43.7568 33.9671 43.1115L33.9706 42.8988C33.9706 42.8739 33.9706 42.842 33.9671 42.8137C33.96 42.6825 33.9493 42.5052 34.0734 42.3811C34.1479 42.3031 34.2543 42.2676 34.3961 42.2712C34.5521 42.2783 34.7081 42.2747 34.8641 42.2712C34.9634 42.2676 35.0662 42.2676 35.1655 42.2676C35.63 42.2676 36.1051 42.3173 36.5767 42.6506C38.0978 43.732 39.8671 44.3632 41.8279 44.5227C42.4165 44.5724 42.615 44.7851 42.6115 45.3737C42.5938 49.0365 42.5973 52.7595 42.6008 56.362V57.1669V57.3973C42.6008 57.5569 42.5973 57.72 42.615 57.7555C42.6363 57.759 42.7817 57.7555 42.92 57.7519C43.0015 57.7519 43.0902 57.7413 43.2072 57.7484C51.4332 57.7519 59.6592 57.7519 67.8853 57.7484C71.7466 57.7484 75.6078 57.7448 79.4691 57.7448L85.6103 57.7413V31.2297L83.7133 31.2368C82.1284 31.2439 80.5435 31.2474 78.9585 31.251C77.5722 31.251 76.1893 31.251 74.803 31.251C72.211 31.251 69.6085 31.251 67.0059 31.2616ZM32.0807 43.498C31.9283 43.6505 31.7013 43.6788 31.4709 43.6788C31.4496 43.6788 31.4283 43.6788 31.4071 43.6788C29.6732 43.6434 27.911 43.6576 26.397 43.6753C26.2126 43.6788 26.0034 43.6611 25.8616 43.5193C25.7197 43.3774 25.702 43.1611 25.702 42.991C25.7162 37.2291 25.7162 31.29 25.702 25.3402C25.702 25.1806 25.7197 24.9821 25.8545 24.8473C25.9857 24.7161 26.1807 24.702 26.3686 24.702C27.911 24.7161 29.737 24.7268 31.5631 24.6984C31.8219 24.6949 31.985 24.7445 32.0985 24.858C32.2332 24.9927 32.2616 25.1877 32.2616 25.4359C32.2509 27.6378 32.2509 29.8433 32.2545 32.0452V34.1372L32.2509 36.371C32.2474 38.4914 32.2438 40.6862 32.2651 42.842C32.2722 43.1682 32.2155 43.3668 32.0807 43.498ZM41.2854 34.8535C41.1258 34.7258 41.0514 34.7081 41.0159 34.7116C40.9911 34.7152 40.9379 34.7435 40.8493 34.8854C40.7784 35.0024 40.6933 35.1017 40.6082 35.1974C40.5692 35.2399 40.5337 35.2825 40.4982 35.3286C40.2323 35.6583 40.0408 35.8959 40.055 36.0023C40.0692 36.1086 40.3103 36.2824 40.6401 36.527C41.0656 36.8391 41.5336 37.1511 42.0619 37.339C42.5548 37.5163 42.615 37.8673 42.6115 38.1865C42.5938 39.4027 42.576 40.7819 42.6186 42.1081C42.6257 42.2924 42.6115 42.5548 42.4377 42.7108C42.3278 42.8101 42.186 42.8385 42.0406 42.8385C41.952 42.8385 41.8598 42.8278 41.7747 42.8172C40.0373 42.5726 38.814 42.1329 37.8071 41.3918C36.832 40.672 35.8746 40.4061 34.7932 40.5515C34.6124 40.5763 34.3464 40.5905 34.1656 40.4309C33.9777 40.2678 33.9564 39.9948 33.9564 39.7501C33.9777 35.8392 33.9777 31.8431 33.9564 27.5315C33.9564 27.2762 33.9777 27.0138 34.1514 26.8578C34.2862 26.7337 34.4812 26.6947 34.779 26.723C35.9136 26.8365 36.9703 26.5989 37.917 26.0174C39.5125 25.0353 41.2783 24.6098 43.4837 24.6736C46.4018 24.7622 49.3767 24.7374 52.2487 24.7091L53.94 24.6949C56.2873 24.67 58.1984 25.4749 59.8082 27.1308C60.6414 27.9889 61.4746 28.8115 62.3575 29.6802C62.7476 30.0631 63.1411 30.4496 63.5347 30.8432L63.7084 31.0134L63.4922 31.1233C63.2156 31.2652 62.9851 31.2545 62.8043 31.2439C62.7617 31.2403 62.7192 31.2332 62.6802 31.2403C61.9604 31.2403 61.2371 31.2403 60.5173 31.2368C59.0281 31.2332 57.4857 31.2297 55.9682 31.2581C55.142 31.2722 54.596 31.0489 54.1457 30.5099C53.8975 30.2121 53.6067 29.9355 53.3302 29.666C53.1103 29.4533 52.8834 29.237 52.6707 29.003C52.5466 28.8647 52.4863 28.8469 52.465 28.854C52.4402 28.854 52.3835 28.8753 52.2735 29.0065C52.1459 29.1625 51.9792 29.2973 51.8161 29.4284C51.5715 29.627 51.3162 29.8327 51.3233 30.0277C51.3268 30.2156 51.6247 30.4674 51.8871 30.6872C52.0112 30.7936 52.1353 30.8964 52.2381 30.9992C52.9756 31.7403 53.7131 32.4778 54.4541 33.2153C55.7554 34.5166 57.0567 35.8144 58.3509 37.1227C58.9714 37.7539 59.2196 38.6013 59.0104 39.3956C58.8154 40.1437 58.2339 40.7217 57.4574 40.9415C56.6064 41.1862 55.8263 40.9592 55.1385 40.2678C54.5144 39.6402 53.8904 39.0162 53.2628 38.3921C52.0679 37.1972 50.834 35.9668 49.6284 34.74C49.3341 34.4386 49.2455 34.4031 48.9228 34.6868C46.5649 36.7611 43.778 36.8178 41.2854 34.8535ZM61.5562 48.8982C63.6304 50.1534 66.3145 49.7385 67.9314 47.9089C69.5518 46.0793 69.6298 43.3668 68.1158 41.4592C67.2116 40.3175 66.0167 39.6757 64.57 39.5551C63.212 39.4417 61.9604 39.8352 60.7407 40.7607L60.2691 41.1188L60.4641 40.5621C60.8648 39.4204 60.9073 38.4737 60.5989 37.5908C60.5528 37.4596 60.5599 37.3461 60.6237 37.2575C60.7123 37.1298 60.8719 37.1121 60.9853 37.1086C61.1094 37.105 61.23 37.105 61.3541 37.105H64.2403C67.4527 37.105 70.6651 37.1086 73.8775 37.0944C74.3491 37.1015 74.6682 37.2043 74.8313 37.7929C75.4483 40.0161 76.9056 41.4556 79.1642 42.0761C79.6322 42.2038 79.7989 42.4272 79.7882 42.8988C79.7634 43.9377 79.7634 45.0049 79.7882 46.1573C79.7989 46.6112 79.6322 46.831 79.1961 46.948C76.9056 47.5614 75.427 49.0294 74.803 51.3164C74.6789 51.7667 74.459 51.9333 73.9874 51.9333H73.9839C68.0626 51.9192 61.6129 51.9192 54.2627 51.9298C53.8053 51.9227 53.5429 51.8305 53.394 51.2916C52.7664 49.0258 51.302 47.565 49.0399 46.9516C48.664 46.8487 48.4194 46.6785 48.43 46.175C48.4584 45.0369 48.4477 43.8774 48.4335 42.7924C48.43 42.4485 48.5186 42.1967 48.976 42.0939C50.1532 41.8209 51.146 41.2464 51.9225 40.3848C52.036 40.2607 52.1884 40.1189 52.3835 40.1189H52.387C52.5785 40.1224 52.7274 40.2607 52.8444 40.399C52.9543 40.5267 53.0784 40.6472 53.2096 40.7713C53.3443 40.899 53.4826 41.0302 53.6067 41.1755C54.8264 42.6009 57.0035 43.5193 59.4536 41.8315L59.9252 41.5053L59.7195 42.0407C58.5884 45.0049 59.255 47.5047 61.5562 48.8982ZM60.8258 44.505C60.8293 43.6327 61.1697 42.8137 61.7902 42.2003C62.4178 41.5797 63.2546 41.2429 64.1446 41.2535C65.9564 41.2713 67.3747 42.7073 67.3676 44.5227C67.3641 46.3098 65.9103 47.7777 64.1304 47.7954C64.1197 47.7954 64.1091 47.7954 64.102 47.7954C63.244 47.7954 62.432 47.4551 61.8079 46.8346C61.1697 46.2034 60.8222 45.3772 60.8258 44.505ZM83.0432 32.9529C83.3091 32.9636 83.5609 32.9742 83.731 33.1444C83.9012 33.3146 83.9225 33.5841 83.9225 33.8216C83.9048 40.4557 83.9012 47.4621 83.919 55.2415C83.919 55.5181 83.8906 55.7344 83.7417 55.8833C83.5857 56.0393 83.3446 56.0606 83.1247 56.0606H83.1212C70.9027 56.0464 58.475 56.0464 45.1254 56.0606H45.1218C44.8417 56.0606 44.6254 56.0287 44.4765 55.8833C44.3489 55.7557 44.2957 55.5713 44.2992 55.2663C44.3205 49.2811 44.3134 43.2959 44.3028 38.7502C44.3028 38.5091 44.3134 38.2786 44.4694 38.1226C44.59 38.0021 44.7744 37.956 45.058 37.9595C46.3345 37.9808 47.5223 37.6723 48.6002 37.0305C49.015 36.7823 49.3164 36.8284 49.632 37.1901C50.0149 37.6262 50.3269 37.9347 50.639 38.1936C50.8411 38.3567 50.9404 38.5233 50.9474 38.6935C50.9581 38.924 50.7985 39.1084 50.6283 39.275C49.7313 40.1402 48.6498 40.5692 47.3876 40.5586C47.1039 40.555 46.8344 40.5515 46.7812 40.6082C46.7281 40.6614 46.7281 40.9025 46.7281 41.2039C46.7281 41.8102 46.7281 42.413 46.7316 43.0193C46.7351 44.6468 46.7387 46.3275 46.7174 47.9834C46.7139 48.2068 46.7387 48.3344 46.7954 48.3911C46.8522 48.4479 46.9763 48.4762 47.2032 48.4727C49.554 48.4443 51.263 49.7031 51.77 51.8128C51.8729 52.2418 51.9048 52.685 51.8658 53.1318C51.8481 53.3516 51.8658 53.4864 51.9261 53.5502C51.9899 53.6176 52.1388 53.6459 52.3728 53.6459C54.557 53.6211 56.773 53.6247 58.9182 53.6282L61.2052 53.6318H64.4459C68.2257 53.6318 72.0089 53.6282 75.7887 53.6424C76.0369 53.6388 76.1787 53.6176 76.239 53.5573C76.2992 53.497 76.3276 53.3658 76.3241 53.1495C76.3099 51.7312 76.7354 50.5505 77.5544 49.7279C78.3735 48.9053 79.5648 48.4691 80.9938 48.4691C81.0079 48.4691 81.0186 48.4691 81.0328 48.4691C81.242 48.4691 81.3696 48.4408 81.4228 48.3876C81.4795 48.3309 81.5043 48.2032 81.5008 47.9692C81.4724 45.7495 81.4724 43.4732 81.5008 41.0089C81.5043 40.789 81.4795 40.6685 81.4299 40.6153C81.3767 40.5621 81.2561 40.5479 81.0611 40.5408C79.5826 40.555 78.3948 40.1331 77.5757 39.3176C76.7495 38.4949 76.3276 37.3071 76.3241 35.7895C76.3241 35.6016 76.2992 35.4846 76.2425 35.4385C76.1893 35.3924 76.09 35.3853 75.8773 35.3747C73.2145 35.3818 70.5517 35.3818 67.8888 35.3818C65.1657 35.3818 62.4426 35.3853 59.7195 35.3924C59.1948 35.3889 58.8544 35.247 58.5317 34.9031C58.1984 34.5485 57.8332 34.2046 57.4786 33.8748C57.3262 33.733 57.1737 33.5876 57.0212 33.4422L56.9291 33.3536L57.1099 32.9565H62.5986C69.417 32.9636 76.2319 32.9671 83.0432 32.9529Z" fill="#FF992E"/>
<path d="M76.1184 64.2935C75.8773 64.2935 75.7497 64.3183 75.6965 64.3786C75.6468 64.4318 75.6291 64.5488 75.6433 64.7261C75.6823 65.1586 75.6681 65.6019 75.6575 66.0274L75.6504 66.2578C75.6468 66.3536 75.661 66.4706 75.6752 66.5911C75.7107 66.9138 75.7497 67.2755 75.4873 67.435C75.1221 67.6549 74.7604 67.3464 74.498 67.123C74.4378 67.0734 74.381 67.0202 74.3243 66.9812C72.5479 65.6657 70.6013 65.1303 68.364 65.3395C67.8676 65.3856 67.3676 65.3749 66.8783 65.3678C66.5486 65.3608 66.2082 65.3537 65.8749 65.3678C65.3714 65.3856 64.8785 65.4104 64.4176 65.5309C59.3827 66.8571 55.4966 67.896 51.8197 68.8994C50.7666 69.1866 49.9866 69.8213 49.5717 70.7361C49.4299 71.0481 49.2845 71.2148 49.0966 71.2786C48.8448 71.3602 48.6037 71.229 48.3201 71.0765C44.3524 68.91 41.3209 67.2684 38.4914 65.7579C37.4454 65.2012 36.2824 65.1019 35.2151 65.4778C34.1763 65.8465 33.3607 66.623 32.9211 67.6655C32.1233 69.5554 32.8183 71.5623 34.6478 72.6579C38.9913 75.264 43.3419 77.8631 47.6889 80.4657L53.3656 83.8625C54.213 84.3695 55.1207 84.6142 56.1419 84.6142C56.1455 84.6142 56.149 84.6142 56.1525 84.6142C60.8932 84.6071 65.6302 84.6071 70.3673 84.6142C70.3708 84.6142 70.3744 84.6142 70.3744 84.6142C71.1296 84.6142 71.8352 84.4795 72.5408 84.1993C72.8847 84.0646 73.2287 83.9299 73.5691 83.7951C74.0513 83.6072 74.5299 83.4193 75.0086 83.2243C75.0937 83.1923 75.1965 83.1533 75.3029 83.1533C75.3738 83.1533 75.4447 83.1711 75.505 83.2136C75.6752 83.3342 75.661 83.5753 75.6575 83.6533C75.6539 83.7136 75.6575 83.7774 75.661 83.8377C75.6646 83.9405 75.6681 84.0433 75.6539 84.1532C75.6256 84.3447 75.6362 84.4724 75.6894 84.5326C75.7461 84.5965 75.895 84.6248 76.122 84.6248C78.5366 84.6 80.9938 84.6071 83.3694 84.6071L85.6245 84.6106V64.2793L85.5784 64.2828C85.4117 64.2935 85.2451 64.3006 85.0784 64.3006H83.1921C80.8697 64.3041 78.4728 64.3077 76.1184 64.2935ZM75.1292 81.345C74.3385 81.6428 73.5371 81.9584 72.7642 82.2634C72.4273 82.3981 72.094 82.5293 71.7572 82.6605C71.3353 82.8271 70.8708 82.898 70.3318 82.9051C68.598 82.9016 66.8606 82.9016 65.1267 82.9016H63.2546H61.2867C59.6238 82.9016 57.9609 82.898 56.2979 82.9087C56.2873 82.9087 56.2802 82.9087 56.2696 82.9087C55.4789 82.9087 54.7626 82.7101 54.0819 82.3024C50.3979 80.0934 46.7103 77.8879 43.0228 75.6824C40.555 74.2074 38.0872 72.7288 35.6194 71.2538C34.5911 70.6368 34.1408 69.7539 34.35 68.7682C34.506 68.052 34.9528 67.4705 35.5804 67.1797C36.2363 66.8748 37.0199 66.9138 37.7255 67.2932C39.6189 68.3037 41.5088 69.3284 43.3986 70.3496L45.8097 71.6545C45.9764 71.7431 46.143 71.8353 46.3132 71.9275C46.6855 72.1331 47.072 72.3423 47.4549 72.5374C48.391 73.0054 49.1072 73.5302 49.5646 74.5726C50.2702 76.1824 52.0324 76.9412 53.9542 76.466C56.4646 75.8455 59.0068 75.1612 61.464 74.4982C62.6376 74.1826 63.8113 73.867 64.9884 73.555C65.1622 73.5089 65.187 73.4876 65.148 73.2961C64.9991 72.5551 64.914 72.119 64.7367 72.009C64.563 71.8991 64.141 72.0126 63.4461 72.197C60.2585 73.0444 57.0886 73.8883 53.9152 74.7215L53.8124 74.7499C53.4259 74.8527 53.0252 74.9591 52.5891 74.8705C51.5573 74.6648 50.8056 73.828 50.756 72.8352C50.6993 71.6828 51.3658 70.7787 52.5005 70.4702C54.1138 70.0305 55.7271 69.5979 57.3439 69.1724C58.0601 68.9845 58.7728 68.7895 59.4891 68.5945C61.2903 68.1016 63.1553 67.5946 65.0133 67.2045C66.3606 66.9244 67.7541 66.9847 69.1015 67.045C69.5943 67.0663 70.1049 67.0911 70.6013 67.0946C71.0977 67.1017 71.5515 67.3322 71.9309 67.5627L72.4663 67.8853C73.3599 68.4243 74.2817 68.9774 75.2001 69.5093C75.5298 69.7008 75.6681 69.949 75.6681 70.339C75.6575 73.8493 75.6575 77.2922 75.6681 80.5614C75.661 80.9762 75.5086 81.2032 75.1292 81.345ZM83.7594 66.1656C83.9012 66.3075 83.919 66.5167 83.919 66.7046C83.9048 68.6654 83.9083 70.6262 83.9083 72.587V74.5088V76.4093C83.9083 78.3347 83.9048 80.2635 83.919 82.1889C83.919 82.4016 83.9012 82.6179 83.7559 82.7598C83.6176 82.8945 83.4155 82.9193 83.2453 82.9193C83.2347 82.9193 83.224 82.9193 83.2134 82.9193C81.6923 82.898 80.04 82.8945 78.0154 82.9158C77.8416 82.9158 77.6466 82.9016 77.5083 82.7668C77.3736 82.6321 77.3559 82.4371 77.3559 82.2634C77.3665 77.044 77.3665 71.7927 77.3559 66.655C77.3559 66.5096 77.3701 66.3004 77.5119 66.1621C77.6502 66.0274 77.8487 66.0096 78.0331 66.0096C79.9726 66.0238 81.6745 66.0238 83.2311 66.0096C83.4048 66.0096 83.6176 66.0203 83.7594 66.1656Z" fill="#FF992E"/>
<defs>
<linearGradient id="paint0_linear_582_175" x1="54.5003" y1="-0.314647" x2="54.5003" y2="106.057" gradientUnits="userSpaceOnUse">
<stop stop-color="#FF992E"/>
<stop offset="1" stop-color="#FF992E"/>
</linearGradient>
</defs>
</svg>
