<svg width="109" height="108" viewBox="0 0 109 108" fill="none" xmlns="http://www.w3.org/2000/svg">
<path d="M54.5 108C84.5995 108 109 83.8234 109 54C109 24.1766 84.5995 0 54.5 0C24.4005 0 0 24.1766 0 54C0 83.8234 24.4005 108 54.5 108Z" fill="#06A88B" fill-opacity="0.1"/>
<path d="M87.8677 57.5519C87.5811 57.3766 87.2406 57.1238 87.1596 56.7023C87.072 56.2505 87.3249 55.9134 87.5474 55.6167C89.9951 52.3564 91.074 48.6544 90.7571 44.6152C90.3457 39.3556 87.308 34.6556 82.6317 32.0393C77.9925 29.4466 72.4463 29.3184 67.7936 31.6988C62.3722 34.4736 59.3985 39.0319 58.9569 45.2457C58.886 46.2505 58.3938 46.7022 57.3857 46.6652C56.5159 46.6314 55.6258 46.6382 54.7661 46.6449H54.7087C54.0816 46.6483 53.4545 46.6483 52.8241 46.655H52.76C52.0857 46.6584 51.3912 46.6652 50.6932 46.6449C48.8153 46.5977 47.2138 47.2619 45.8214 48.6712C44.7155 49.794 43.5996 50.9032 42.487 52.0158L42.3656 52.1372C41.2597 53.2397 40.1505 54.3456 39.0548 55.4582C38.2321 56.291 37.2746 56.7967 36.1316 56.999C33.7851 57.4137 31.4014 57.8486 29.0953 58.2701L28.7413 58.3342C27.251 58.6072 25.7608 58.8803 24.2706 59.1467C21.1419 59.7098 19.0818 62.1171 19.0212 65.2796C18.9874 67.0564 19.0009 68.8602 19.0144 70.6033V70.637C19.038 73.3511 20.8755 75.1954 23.5896 75.2257C24.7224 75.2392 25.8687 75.2358 27.0016 75.2223C27.0049 75.2223 27.0083 75.2223 27.0117 75.2223C27.6219 75.2223 28.0467 75.4347 28.3873 75.9135C29.5403 77.5285 31.2598 78.486 33.1074 78.5332C34.9482 78.5804 36.7217 77.7173 37.9556 76.1664C38.485 75.4988 39.0885 75.2122 39.9718 75.2122C50.0594 75.2291 60.0695 75.2291 69.739 75.2122C70.7336 75.2122 71.3708 75.5157 71.9574 76.254C73.1611 77.778 74.9109 78.6209 76.7686 78.5636C78.6297 78.5029 80.3323 77.5487 81.4415 75.9405C81.7821 75.4482 82.2204 75.2156 82.8205 75.2156C84.0073 75.2324 85.1806 75.2358 86.31 75.219C88.9836 75.1819 90.8009 73.3781 90.8346 70.7348C90.8683 67.8588 90.8683 65.2661 90.8312 62.8049C90.8009 60.4987 89.8029 58.7286 87.8677 57.5519ZM65.0728 36.0211C67.7329 33.3812 71.2359 31.9584 74.9514 31.9786C82.6283 32.0393 88.8589 38.334 88.8387 46.0144C88.8184 53.6949 82.5541 59.9424 74.8738 59.9424C67.1699 59.9289 60.9224 53.6578 60.9258 45.9571C60.9224 42.2046 62.3992 38.6779 65.0728 36.0211ZM33.313 76.5743C32.2578 76.5743 31.2598 76.1562 30.5012 75.3943C29.7359 74.6289 29.3178 73.6242 29.3178 72.5622C29.3212 70.3605 31.1114 68.5702 33.313 68.5702C34.3751 68.5702 35.3798 68.9917 36.1418 69.7503C36.9037 70.5123 37.3218 71.5136 37.3218 72.5689C37.3184 74.7402 35.4809 76.5743 33.313 76.5743ZM76.5461 76.5743H76.5427C75.4908 76.5743 74.4895 76.1529 73.7241 75.3909C72.9588 74.6256 72.5373 73.6242 72.5373 72.5689C72.5373 70.3673 74.331 68.5702 76.5393 68.5702C77.6047 68.5702 78.6061 68.9849 79.3647 69.7402C80.1233 70.4954 80.5413 71.5001 80.5413 72.5622C80.5413 74.7368 78.7106 76.5743 76.5461 76.5743ZM88.8252 70.9135C88.8151 72.2385 87.9047 73.1623 86.5595 73.2129C86.0875 73.2297 85.5986 73.2264 85.2075 73.223H85.157C84.722 73.2196 84.2702 73.2162 83.8387 73.2365C82.6148 73.2938 82.4935 72.3026 82.4564 71.9755C82.1732 69.4704 80.8886 67.8049 78.6364 67.0261C76.2123 66.1865 74.0714 66.6417 72.271 68.378C71.3438 69.2715 70.8044 70.4347 70.6695 71.8339C70.5313 73.2398 69.4929 73.2398 69.0512 73.2398C65.6122 73.223 62.1429 73.223 58.7883 73.2264H54.8436C54.0209 73.2264 53.2017 73.2264 52.379 73.2264H51.3001C47.9252 73.223 44.4323 73.2196 40.9799 73.2466H40.9361C40.1606 73.2466 39.3413 73.0612 39.1593 71.6957C38.8187 69.167 37.5241 67.5554 35.309 66.9114C32.8478 66.1966 30.6664 66.7664 28.8289 68.6073C27.9388 69.4974 27.4533 70.6201 27.3859 71.9351C27.3387 72.8353 26.8903 73.2736 26.0036 73.2365C25.5451 73.2162 25.0865 73.2196 24.5808 73.223C24.183 73.2264 23.8155 73.2297 23.448 73.2196C21.9173 73.1859 21.034 72.2823 21.0171 70.7449C21.0036 69.2142 20.9901 67.198 21.0205 65.1987C21.0508 63.0982 22.4095 61.4967 24.4797 61.1123C27.8242 60.4953 32.2207 59.6895 36.5801 58.9174C38.0602 58.6545 39.2773 58.0307 40.2921 57.0024C41.3036 55.9808 42.3218 54.966 43.34 53.9511C44.5975 52.7003 45.8956 51.4022 47.1666 50.1109C48.1815 49.0792 49.3716 48.5903 50.7775 48.6004C52.8207 48.6308 55.0021 48.6308 57.851 48.6004C58.4646 48.5971 59.1322 48.7319 59.4019 49.767C61.408 57.4946 68.3634 62.4576 76.3135 61.844C79.0208 61.6349 81.5562 60.7077 83.8555 59.0961C84.4961 58.6443 85.1401 58.5398 85.8818 58.7691C87.6081 59.2984 88.7847 60.7887 88.8117 62.4846C88.8589 65.3807 88.8454 68.2466 88.8252 70.9135Z" fill="#06A88B"/>
<path d="M72.9925 46.1153C73.4814 46.3816 74.0073 46.6379 74.4726 46.8638C74.9986 47.12 75.5279 47.3796 76.0437 47.6595C76.7618 48.0539 77.2002 48.7384 77.2204 49.4936C77.2372 50.2218 76.8596 50.8962 76.2089 51.294C75.4773 51.7424 74.594 51.7863 73.8387 51.4086C73.0936 51.0344 72.6048 50.3095 72.5306 49.4666C72.4901 49.0249 72.3148 48.2967 71.5832 48.2967C71.5596 48.2967 71.536 48.2967 71.5124 48.3001C70.8853 48.3371 70.565 48.8766 70.565 49.9015C70.6257 51.2535 71.445 52.4033 72.8711 53.1248C73.3296 53.3574 73.8185 53.7013 73.9534 54.4936C74.0478 55.0432 74.2905 55.2522 74.8569 55.2657C75.4402 55.2961 75.7133 55.0533 75.8145 54.4902C75.9291 53.8665 76.246 53.4619 76.8394 53.1753C78.2656 52.4875 79.0477 51.3614 79.1691 49.8341C79.2939 48.2663 78.6567 47.0087 77.2743 46.1018C76.6506 45.6938 75.9392 45.3668 75.2514 45.0532L74.7794 44.8375C74.3074 44.6217 73.8219 44.3992 73.3735 44.0418C72.6419 43.4551 72.3856 42.6594 72.652 41.7963C72.9149 40.95 73.5623 40.4308 74.4793 40.3297C75.2885 40.242 75.9089 40.3836 76.3809 40.7612C76.863 41.149 77.1428 41.7491 77.2339 42.5987C77.3047 43.2495 77.7059 43.6473 78.2588 43.617C78.8286 43.5832 79.1995 43.1382 79.1894 42.5111C79.1556 40.7815 78.3802 39.5306 76.8832 38.7889C76.2494 38.4753 75.9291 38.064 75.8077 37.4166C75.7032 36.857 75.4908 36.685 74.8907 36.6816C74.8873 36.6816 74.8873 36.6816 74.8839 36.6816C74.2433 36.6816 74.041 36.8468 73.9433 37.4436C73.8151 38.2224 73.3398 38.5461 72.8913 38.7619C71.7518 39.3047 71.0168 40.1914 70.7066 41.3917C70.1806 43.4147 70.9527 45.0027 72.9925 46.1153Z" fill="#06A88B"/>
<path d="M33.3501 73.5503C33.8727 73.5503 34.3077 73.1188 34.3178 72.5861C34.3279 72.0365 33.9368 71.6218 33.3906 71.6016H33.3468C33.077 71.6016 32.8309 71.6926 32.6556 71.8612C32.4769 72.0298 32.3758 72.2725 32.3724 72.5422C32.369 72.812 32.4702 73.0648 32.6623 73.2604C32.8444 73.4492 33.0872 73.5503 33.3501 73.5503Z" fill="#06A88B"/>
<path d="M76.6034 71.6045H76.573C76.3067 71.6045 76.0538 71.7056 75.8684 71.8843C75.683 72.063 75.5785 72.3024 75.5751 72.5586C75.5717 72.8081 75.6796 73.061 75.8718 73.2498C76.064 73.4386 76.3168 73.5499 76.573 73.5499C77.1091 73.5431 77.544 73.1082 77.5508 72.5789C77.5575 72.0293 77.1597 71.618 76.6034 71.6045Z" fill="#06A88B"/>
</svg>
