<svg width="80" height="80" viewBox="0 0 80 80" fill="none" xmlns="http://www.w3.org/2000/svg">
<path d="M79.9598 79.9854C53.565 79.9854 27.1715 79.9828 0.776675 80C0.177304 80 -0.00131583 79.9272 7.28469e-06 79.2589C0.0277927 68.3071 0.0198572 57.3539 0.0198572 46.402C5.95138 46.4059 11.8829 46.4086 17.8131 46.4086C17.8501 46.4086 17.8859 46.3557 17.9745 46.2868C13.1703 40.2339 11.0229 33.3301 11.7718 25.6363C12.5233 17.9279 15.9581 11.5428 21.8909 6.56973C32.2562 -2.11926 47.2617 -2.19601 57.8479 6.37917C63.0464 10.59 66.4058 16.009 67.7316 22.5635C69.5059 31.3279 67.496 39.2586 61.9125 46.4298C62.328 46.4298 62.6019 46.4298 62.8757 46.4298C68.2621 46.4298 73.6472 46.4456 79.0336 46.4112C79.7772 46.4059 79.9796 46.578 79.977 47.3429C79.9518 58.2259 79.9598 69.1063 79.9598 79.9854ZM45.6845 46.4417C46.9335 46.4417 48.1812 46.4417 49.4302 46.4417C49.716 46.4417 49.9899 46.4377 50.2572 46.2815C51.313 45.6596 52.3014 44.9476 53.2593 44.1841C53.6258 43.8916 53.5121 43.7249 53.2474 43.4695C52.6282 42.8753 52.0169 42.2705 51.4255 41.6486C50.9809 41.1814 50.1434 40.7712 50.1897 40.2405C50.2334 39.7364 51.0127 39.3076 51.4374 38.818C51.7245 38.4871 51.923 38.4739 52.2379 38.8021C53.1363 39.7417 54.0849 40.6349 54.982 41.5771C55.3273 41.9397 55.5285 41.9873 55.8738 41.5612C58.5729 38.237 60.1263 34.451 60.5484 30.1912C60.5934 29.732 60.4147 29.6711 60.0363 29.6777C59.1525 29.6949 58.2673 29.683 57.3835 29.683C55.3803 29.683 55.4014 29.683 55.4425 27.6676C55.453 27.1462 55.6647 27.0734 56.0974 27.0787C57.398 27.0959 58.6987 27.0787 59.9993 27.088C60.3698 27.0906 60.5603 27.0364 60.5166 26.5692C60.1157 22.271 58.5227 18.4757 55.7852 15.1476C55.5073 14.8101 55.3379 14.8366 55.0601 15.1317C54.4713 15.7563 53.8521 16.3518 53.2448 16.9592C51.796 18.4096 51.8066 18.3977 50.4067 16.9288C50.0945 16.6006 50.1116 16.4206 50.4226 16.1215C51.3593 15.219 52.2564 14.2755 53.1958 13.3756C53.5292 13.0567 53.5914 12.8807 53.1852 12.5472C49.8947 9.8463 46.1343 8.30197 41.911 7.84542C41.3672 7.78587 41.2494 7.97379 41.26 8.47268C41.2878 9.77351 41.2441 11.0757 41.2785 12.3765C41.297 13.099 40.7665 13.0064 40.441 12.8966C39.8721 12.7047 38.9062 13.5357 38.7461 12.3924C38.6098 11.4224 38.717 10.418 38.717 9.42945C38.717 7.79117 38.7117 7.75676 37.0948 7.98437C33.2168 8.53091 29.782 10.0911 26.7613 12.5843C26.4411 12.8489 26.4239 13.013 26.7282 13.2975C27.3527 13.8851 27.9442 14.5097 28.5528 15.1158C30.0069 16.5635 29.991 16.5463 28.5515 17.9649C28.1744 18.3368 27.9945 18.2336 27.6915 17.9199C26.7878 16.9843 25.8444 16.0871 24.9447 15.1476C24.6258 14.8141 24.4498 14.8405 24.1667 15.1886C21.4543 18.5022 19.8679 22.2724 19.4723 26.5441C19.4326 26.9675 19.5464 27.0999 19.9592 27.0919C20.843 27.0734 21.7282 27.0866 22.612 27.0866C24.5702 27.0866 24.5491 27.0866 24.5385 29.0505C24.5359 29.5758 24.3691 29.7068 23.8716 29.6949C22.5975 29.6645 21.322 29.7029 20.0478 29.6751C19.5503 29.6645 19.3307 29.773 19.4471 30.3222C19.5649 30.8806 19.5914 31.4576 19.6919 32.02C20.3283 35.5758 21.8142 38.7386 24.0939 41.5387C24.4154 41.9331 24.6245 41.994 24.9883 41.5877C25.5441 40.9684 26.1567 40.402 26.7454 39.8131C28.1823 38.376 28.1704 38.3866 29.5835 39.8475C29.8971 40.1717 29.8878 40.3464 29.5729 40.6495C28.5978 41.5877 27.6637 42.567 26.6912 43.5079C26.416 43.7752 26.4133 43.9194 26.7137 44.1655C27.5195 44.8259 28.3557 45.4426 29.2488 45.9785C29.5769 46.1757 29.8772 46.4337 30.3033 46.4324C32.931 46.4258 35.5587 46.4231 38.1851 46.4351C38.5953 46.4377 38.7382 46.2908 38.7183 45.8885C38.6932 45.3949 38.7355 44.8987 38.7064 44.4064C38.6826 43.9909 38.8453 43.889 39.2449 43.8731C41.2375 43.795 41.2653 43.7831 41.2494 45.7284C41.2441 46.3437 41.4598 46.4681 42.0155 46.4523C43.2381 46.4179 44.4619 46.4417 45.6845 46.4417ZM49.0928 77.3335C49.3244 77.3679 49.4236 77.3944 49.5242 77.3944C56.0789 77.397 62.6349 77.393 69.1896 77.4063C69.6673 77.4076 69.7665 77.2012 69.871 76.7856C70.7906 73.1253 73.0941 70.8108 76.7539 69.9017C77.2924 69.768 77.3903 69.5497 77.3876 69.068C77.3731 65.1641 77.3731 61.2603 77.3876 57.3578C77.389 56.8655 77.2685 56.6578 76.738 56.5254C73.147 55.6282 70.8369 53.3786 69.9187 49.7791C69.7652 49.177 69.5495 49.0222 68.9488 49.0235C62.5754 49.0473 56.2033 49.038 49.8298 49.042C49.6128 49.042 49.376 48.9758 49.1577 49.1333C59.2014 55.7844 59.3033 70.4707 49.0928 77.3335ZM30.8061 77.2647C25.9873 73.8108 23.2656 69.2082 23.263 63.2242C23.2604 57.2176 25.9952 52.5991 30.8841 49.1148C30.7121 49.0738 30.642 49.0433 30.5719 49.0433C23.9642 49.0407 17.3579 49.0433 10.7503 49.0301C10.3084 49.0288 10.2158 49.2154 10.1192 49.6018C9.1996 53.2912 6.90137 55.6388 3.19533 56.5321C2.61978 56.671 2.59596 56.9582 2.59596 57.4055C2.6039 61.2828 2.60918 65.1602 2.58933 69.0375C2.58669 69.5642 2.71768 69.772 3.27339 69.9123C6.83257 70.8081 9.12421 73.0459 10.0477 76.6096C10.2092 77.2316 10.4354 77.4155 11.0718 77.4129C17.3924 77.3877 23.7142 77.3983 30.0347 77.393C30.2795 77.393 30.5481 77.487 30.8061 77.2647ZM39.9938 77.397C47.816 77.3944 54.1948 71.0066 54.1815 63.1924C54.1683 55.4019 47.8187 49.0566 40.0242 49.0407C32.1914 49.0248 25.8087 55.3794 25.7994 63.2003C25.7901 71.0186 32.1715 77.401 39.9938 77.397ZM54.6698 46.4324C55.7746 46.4324 56.71 46.4086 57.6428 46.4417C58.1496 46.4589 58.5108 46.316 58.8587 45.9269C64.8723 39.2097 67.021 31.4153 65.0999 22.6244C61.6677 6.92174 44.2132 -1.85591 29.606 4.82294C20.6181 8.9332 15.4355 16.0501 14.3717 25.9036C13.5421 33.5948 15.974 40.316 21.2175 46.0063C21.3881 46.1916 21.5271 46.4298 21.8367 46.4284C22.9441 46.4245 24.0516 46.4271 25.3787 46.4271C21.7652 43.3729 19.2791 39.7933 17.9004 35.4805C16.5111 31.1307 16.404 26.7373 17.5921 22.3293C18.7737 17.9451 21.0613 14.212 24.434 11.1815C33.7513 2.80883 47.775 3.25479 56.538 12.1171C65.7125 21.395 65.6371 37.3491 54.6698 46.4324ZM2.60256 51.3578C2.60256 52.1783 2.61052 52.8559 2.59993 53.5321C2.59464 53.892 2.66608 54.0627 3.08948 53.9304C5.31892 53.2343 6.76245 51.7601 7.49678 49.5581C7.641 49.1267 7.47163 49.0169 7.05749 49.0314C6.38271 49.0566 5.70526 49.0208 5.02915 49.042C4.25513 49.0672 3.24427 48.7099 2.76928 49.177C2.25459 49.6838 2.6793 50.7094 2.60256 51.3578ZM75.055 49.0394C74.2439 49.0394 73.5652 49.0672 72.8917 49.0301C72.4022 49.0036 72.3717 49.2286 72.4921 49.5886C73.2198 51.7588 74.6554 53.2132 76.8452 53.9198C77.2844 54.0614 77.3943 53.9172 77.3837 53.5016C77.3651 52.8254 77.3929 52.1479 77.3757 51.4717C77.3559 50.6949 77.7012 49.6799 77.2461 49.2061C76.7472 48.6887 75.7152 49.1201 75.055 49.0394ZM2.60389 74.835C2.60389 75.5113 2.61978 76.1875 2.59861 76.8624C2.58537 77.2713 2.7468 77.4076 3.14638 77.4023C4.44568 77.3864 5.74495 77.3877 7.04425 77.4023C7.46368 77.4076 7.62511 77.2673 7.48751 76.8505C6.76906 74.6749 5.32421 73.2285 3.14769 72.5126C2.72693 72.3737 2.5867 72.5483 2.59861 72.9625C2.61581 73.5871 2.60256 74.2104 2.60389 74.835ZM77.3784 74.9065C77.3784 74.2819 77.3585 73.6573 77.385 73.0353C77.4048 72.5404 77.2487 72.3644 76.7525 72.5351C74.6475 73.2616 73.2344 74.6736 72.5133 76.7817C72.3744 77.1892 72.4339 77.4129 72.9433 77.4049C74.2426 77.3838 75.5419 77.3877 76.8412 77.4036C77.2474 77.4089 77.3956 77.2594 77.3837 76.8571C77.3625 76.2073 77.3771 75.5563 77.3784 74.9065Z" fill="#E9248D"/>
<path d="M47.7327 26.2491C47.734 27.6267 47.7459 29.0056 47.7261 30.3832C47.7195 30.8146 47.8451 30.9972 48.299 30.9668C48.7912 30.9337 49.2873 30.9827 49.7795 30.9536C50.1976 30.9284 50.3512 31.0965 50.3009 31.4948C50.2982 31.5199 50.2995 31.5464 50.3009 31.5729C50.3578 33.5367 50.3577 33.5552 48.43 33.5552C47.8941 33.5552 47.7208 33.6955 47.7195 34.2487C47.7142 36.149 47.693 36.1331 45.8009 36.1251C45.3127 36.1238 45.1155 36.0193 45.1301 35.4847C45.1473 34.8719 45.4172 34.074 45.011 33.6876C44.6114 33.3064 43.8228 33.5857 43.2049 33.5724C42.243 33.5526 41.2811 33.5619 40.3205 33.5685C39.7145 33.5724 39.1747 33.4375 38.8677 32.8578C38.5793 32.3126 38.7434 31.8164 39.053 31.3228C41.1105 28.0449 43.1587 24.7604 45.2068 21.4759C45.5654 20.9002 46.0245 20.5098 46.7456 20.7017C47.4945 20.9015 47.7353 21.4719 47.7327 22.1918C47.7287 23.5456 47.7313 24.898 47.7327 26.2491ZM45.1447 26.7626C45.0917 26.7414 45.0401 26.7215 44.9872 26.7004C44.1232 28.0833 43.2605 29.4661 42.3264 30.9602C43.2129 30.9602 43.934 30.9456 44.6551 30.9655C45.0163 30.9761 45.1565 30.8636 45.1513 30.4838C45.1327 29.2438 45.1447 28.0025 45.1447 26.7626Z" fill="#E9248D"/>
<path d="M33.8968 36.1126C32.9601 36.1126 32.0233 36.1245 31.0879 36.1086C30.167 36.0927 29.7396 35.6296 29.6761 34.7085C29.6086 33.7147 29.815 32.8559 30.4157 32.0116C31.801 30.0623 33.0725 28.0323 34.4208 26.0566C34.7859 25.522 34.9037 24.9701 34.8177 24.3601C34.7224 23.6825 34.1879 23.2326 33.521 23.2564C32.8264 23.2802 32.4242 23.6614 32.2879 24.3336C32.272 24.4104 32.272 24.4884 32.2575 24.5652C32.1821 24.9595 32.452 25.6225 32.0921 25.7085C31.3802 25.8793 30.5996 25.7774 29.8481 25.7668C29.6973 25.7641 29.6973 25.5908 29.684 25.4598C29.3824 22.5193 31.1381 20.8744 33.2419 20.66C35.4792 20.4324 37.3501 22.2335 37.411 24.6194C37.4374 25.6384 37.19 26.5634 36.6092 27.417C35.3946 29.2008 34.2051 31.0032 33.0169 32.8056C32.8833 33.008 32.5737 33.2211 32.7259 33.4659C32.8635 33.6869 33.2035 33.5585 33.4522 33.5612C34.5451 33.5718 35.638 33.5824 36.7296 33.5572C37.1993 33.5466 37.4163 33.6406 37.4255 34.1871C37.4573 36.1126 37.4798 36.1126 35.5375 36.1126C34.9884 36.1139 34.4419 36.1139 33.8968 36.1126Z" fill="#E9248D"/>
<path d="M39.9197 64.5165C38.8255 64.5363 37.7366 64.5443 36.7006 64.0957C34.532 63.1574 33.2989 60.9858 33.5992 58.6012C33.8784 56.378 35.7533 54.5081 38.0608 54.2448C38.6151 54.1813 38.7951 54.0013 38.7157 53.4892C38.7117 53.464 38.7157 53.4376 38.7157 53.4111C38.7276 51.4274 38.8467 51.3374 40.8591 51.5889C41.2269 51.6352 41.2719 51.8112 41.268 52.101C41.2614 52.5946 41.2944 53.0922 41.26 53.5831C41.227 54.0489 41.3884 54.1826 41.8607 54.2368C44.1471 54.5028 45.92 56.1689 46.35 58.3868C46.526 59.2959 46.4784 59.3542 45.5548 59.3555C45.3471 59.3555 45.1341 59.3277 44.9317 59.3608C44.2092 59.4786 43.8745 59.2576 43.6668 58.4728C43.3836 57.3996 42.4945 56.8385 41.3831 56.775C40.4754 56.7234 39.5612 56.7194 38.6535 56.771C37.161 56.8557 36.0774 58.0136 36.1158 59.4058C36.1555 60.827 37.2484 61.8619 38.7699 61.9161C39.835 61.9545 40.9028 61.8513 41.9653 61.9902C44.5321 62.3264 46.4202 64.486 46.4188 67.089C46.4188 69.6881 44.5202 71.8874 41.9613 72.1706C41.3712 72.2368 41.2494 72.4485 41.2547 72.9937C41.2706 74.8543 41.2508 74.8332 39.4024 74.8451C38.8639 74.849 38.6204 74.7127 38.7144 74.1569C38.7183 74.1318 38.7157 74.1053 38.7144 74.0789C38.7064 73.5337 38.8559 72.9143 38.6482 72.4604C38.4061 71.9337 37.6718 72.2011 37.169 72.0237C34.8006 71.19 33.2896 69.1217 33.5569 66.1429C33.5807 65.8795 33.6866 65.7683 33.9446 65.7829C34.0742 65.7895 34.2052 65.7803 34.3349 65.7829C34.8787 65.7935 35.5297 65.6254 35.9385 65.8663C36.3738 66.1243 36.0509 66.8244 36.1224 67.3272C36.3142 68.6836 37.333 69.6285 38.7183 69.6642C39.5757 69.6867 40.4357 69.6894 41.2931 69.6629C42.7538 69.6166 43.8824 68.46 43.8652 67.0612C43.848 65.644 42.7194 64.5443 41.2468 64.5165C40.8049 64.5099 40.3617 64.5165 39.9197 64.5165Z" fill="#E9248D"/>
</svg>
