<svg width="76" height="80" viewBox="0 0 76 80" fill="none" xmlns="http://www.w3.org/2000/svg">
<path d="M1.44176 80C0.370215 79.5837 0.0145337 78.7902 0.0437067 77.6647C0.137958 74.0747 -0.194165 70.4679 0.191817 66.8947C1.30937 56.5355 6.79726 49.4161 16.4187 45.4659C16.9214 45.2594 17.4432 45.1023 17.993 44.9104C17.9043 44.5782 17.598 44.5142 17.3781 44.3773C10.9488 40.3867 7.66459 32.5648 9.2691 25.0459C10.813 17.8099 16.9932 12.1022 24.4189 11.0765C27.509 10.6501 30.5452 10.8566 33.4737 12.0091C33.8777 12.1673 34.0684 12.0753 34.2603 11.7095C34.5868 11.0889 34.9548 10.4896 35.3195 9.89034C36.5324 7.90289 38.8528 7.22731 40.9543 8.22497C41.65 8.5549 42.2727 9.32699 42.9942 9.21252C43.6686 9.10479 44.2442 8.42023 44.8792 8.01623C45.714 7.48542 46.5825 7.00175 47.5183 6.68303C48.0366 6.50685 48.1646 6.22517 48.1533 5.71119C48.1354 4.90992 48.0613 4.1008 48.2678 3.3029C48.7581 1.40635 50.3783 0.0697839 52.3329 0.0204062C53.6076 -0.0121382 54.8833 0.00132843 56.1591 0.0125506C58.6657 0.0349951 60.6304 1.79352 60.5496 4.30168C60.4969 5.92778 60.9289 6.80087 62.5031 7.27781C63.5342 7.58979 64.4397 8.28669 65.2824 8.98359C65.6818 9.31352 65.9736 9.28098 66.3786 9.03409C67.3077 8.46737 68.2188 7.85576 69.3689 7.7974C71.1159 7.70875 72.4612 8.40003 73.3857 9.86229C74.0937 10.9823 74.7569 12.1325 75.4009 13.2918C76.4601 15.1973 75.8542 17.591 74.0197 18.7985C73.3689 19.2261 72.4634 19.4685 72.0898 20.0577C71.7105 20.6558 72.2031 21.5502 72.2054 22.3257C72.2087 23.2908 72.2368 24.2626 72.0247 25.2019C71.8901 25.7967 72.1201 26.0492 72.5925 26.2804C73.0345 26.497 73.4564 26.7607 73.8693 27.0312C75.8666 28.3363 76.4848 30.7592 75.3325 32.8465C74.7299 33.9384 74.0859 35.009 73.4396 36.0774C72.1941 38.14 69.7335 38.9716 67.7183 37.69C66.244 36.753 65.2016 36.7911 63.9348 37.9088C63.146 38.6046 62.1149 39.0131 61.1095 39.3745C60.728 39.5125 60.5956 39.7111 60.6012 40.1118C60.6113 40.839 60.6562 41.5673 60.5384 42.2934C60.2007 44.3807 58.5995 45.8811 56.5013 45.9653C55.073 46.0225 53.6367 46.0259 52.2084 45.9641C49.9183 45.8643 48.0613 44.0294 48.1893 41.7367C48.279 40.1308 47.8751 39.1725 46.2728 38.7617C45.7623 38.6304 45.3079 38.2623 44.8445 37.9751C44.4035 37.7012 43.9838 37.3926 43.5081 37.0661C42.6632 38.6978 41.6545 40.2049 40.3978 41.5325C39.14 42.8612 37.7083 43.9744 36.0129 44.9351C36.8769 45.2538 37.6421 45.485 38.3647 45.8093C48.1006 50.1758 53.3899 57.6532 53.9375 68.3446C54.1013 71.5385 53.9554 74.7469 53.9868 77.9486C53.9958 78.8868 53.5537 79.504 52.8356 80C35.7021 80 18.5719 80 1.44176 80ZM26.9895 76.5907C34.5901 76.5907 42.1908 76.5828 49.7915 76.6042C50.4412 76.6064 50.6252 76.4257 50.6129 75.7782C50.5736 73.5663 50.6128 71.3522 50.5949 69.1403C50.5141 59.488 44.6649 51.2689 35.6684 48.3332C30.7831 46.7385 25.7451 46.8417 20.761 47.6946C11.5177 49.2747 4.01796 57.8429 3.4547 67.2089C3.28415 70.0448 3.43114 72.884 3.34474 75.7187C3.3223 76.4706 3.58037 76.6075 4.26594 76.6053C11.8408 76.5828 19.4146 76.5907 26.9895 76.5907ZM26.9334 43.9161C35.3879 43.906 41.9092 37.3982 41.898 28.9816C41.8868 20.8376 35.1714 14.1828 26.9693 14.1907C18.7256 14.1986 12.0675 20.8062 12.063 28.9827C12.0596 37.2119 18.7447 43.9262 26.9334 43.9161ZM54.3964 3.41961C53.8241 3.41961 53.2508 3.40839 52.6785 3.42186C51.8101 3.44206 51.4488 3.7978 51.4353 4.66079C51.4207 5.54622 51.4353 6.43166 51.4308 7.31597C51.4252 8.46512 51.0639 8.9993 49.9823 9.33821C47.9144 9.98461 46.0787 11.0249 44.4686 12.4759C43.6349 13.2278 43.057 13.2761 42.0584 12.724C41.2393 12.2717 40.4337 11.7925 39.6101 11.3481C38.8303 10.9273 38.3523 11.0676 37.9282 11.8251C37.6488 12.3244 37.4154 12.8496 37.1226 13.3401C36.9184 13.6812 36.9868 13.8552 37.3044 14.0897C43.8212 18.8849 46.3222 25.2738 44.831 33.218C44.7468 33.668 44.9017 33.8812 45.2046 34.1236C46.6431 35.2761 48.242 36.1167 50.0013 36.6598C51.2098 37.0335 51.5329 37.4813 51.5419 38.755C51.5475 39.5877 51.5363 40.4215 51.5453 41.2542C51.5565 42.2709 51.883 42.5952 52.9175 42.6053C53.9588 42.6154 55 42.6177 56.0413 42.6042C57.0242 42.5919 57.363 42.2518 57.3731 41.289C57.3821 40.3519 57.363 39.4137 57.3799 38.4778C57.3967 37.5441 57.7703 37.0077 58.6534 36.7372C60.829 36.0729 62.7533 34.9832 64.4442 33.4615C65.159 32.8173 65.803 32.7657 66.6625 33.2325C67.4849 33.6803 68.2917 34.155 69.1108 34.6084C69.9186 35.0562 70.3372 34.9608 70.8006 34.1988C71.3683 33.2662 71.926 32.3258 72.4657 31.3764C72.9134 30.5886 72.772 30.0971 71.9731 29.6268C71.1888 29.1656 70.3899 28.7291 69.6011 28.2757C68.7046 27.7595 68.4207 27.1972 68.6552 26.2007C69.1635 24.0315 69.1691 21.8745 68.653 19.7064C68.4162 18.711 68.6866 18.1735 69.6056 17.6382C70.4146 17.1679 71.237 16.7191 72.0449 16.2466C72.754 15.8325 72.8932 15.3937 72.5005 14.6979C71.9383 13.7014 71.3593 12.7127 70.7602 11.7386C70.3495 11.0709 69.8547 10.9452 69.168 11.3167C68.322 11.7746 67.4962 12.2706 66.6546 12.7363C65.702 13.2637 65.104 13.2177 64.3062 12.5085C62.6467 11.0339 60.7583 9.98012 58.6489 9.30005C57.6391 8.97461 57.3193 8.5246 57.3002 7.4641C57.2822 6.50123 57.3159 5.53725 57.2856 4.57438C57.2609 3.78658 56.8974 3.44655 56.1153 3.42186C55.542 3.40615 54.9697 3.42074 54.3964 3.41961Z" fill="#0EC4BC"/>
<path d="M54.2583 32.2047C49.2339 32.2036 45.0296 28.0794 45.0206 23.1439C45.0117 17.9772 49.0925 13.7801 54.117 13.7891C59.294 13.7981 63.459 17.9222 63.4355 23.0149C63.4119 28.1008 59.312 32.2059 54.2583 32.2047ZM54.1876 28.9076C57.4539 28.9043 60.1468 26.239 60.1288 23.0272C60.1109 19.7268 57.4528 17.0895 54.1518 17.0974C50.8967 17.1052 48.316 19.6976 48.3149 22.9587C48.316 26.2278 50.964 28.9099 54.1876 28.9076Z" fill="#0EC4BC"/>
</svg>
