<svg width="158" height="59" viewBox="0 0 158 59" fill="none" xmlns="http://www.w3.org/2000/svg">
<g clip-path="url(#clip0_406_962)">
<path d="M60.9676 17.7884C60.8944 17.6462 60.8239 17.5023 60.749 17.3609L60.5149 16.9411L60.2808 16.5222C60.2025 16.3825 60.1259 16.242 60.0407 16.1066L59.5399 15.2883C59.4581 15.1512 59.3678 15.0192 59.2791 14.8864L59.0132 14.4878L58.7465 14.0902L58.4659 13.7019C58.2766 13.4447 58.0941 13.1824 57.8988 12.9304L57.3067 12.1785C57.2095 12.0524 57.1062 11.9307 57.0021 11.8097L56.6914 11.4461L56.3808 11.0834C56.2758 10.9633 56.1656 10.8483 56.058 10.7308C55.8412 10.4975 55.6286 10.2608 55.4075 10.0317L54.7328 9.35559C51.0943 5.79359 46.6314 3.10441 41.8157 1.56397L41.3647 1.41751L40.9086 1.28722C40.604 1.20292 40.3028 1.10925 39.9964 1.03431L39.0765 0.812059L38.8467 0.757561L38.6144 0.710726L38.1505 0.617908C37.5344 0.484215 36.9096 0.401616 36.2883 0.301134L35.3511 0.191285C35.1945 0.174254 35.0396 0.152965 34.8829 0.140192L34.4131 0.104427C31.9088 -0.0990917 29.3951 -0.00201574 26.9262 0.368405L26.0019 0.511465L25.088 0.698804C24.4753 0.811208 23.8746 0.978962 23.2713 1.13224C23.1216 1.17311 22.9693 1.20547 22.8213 1.25316L22.3755 1.39111L21.4857 1.66786C21.1913 1.76579 20.9013 1.87819 20.6096 1.98293L20.1733 2.14302L19.9547 2.22307C19.8824 2.25032 19.8119 2.28267 19.7396 2.31163C17.441 3.23896 15.2595 4.42516 13.2457 5.8319C11.2372 7.24717 9.40933 8.89405 7.78802 10.7095C7.57891 10.9309 7.38786 11.1677 7.19423 11.4018L6.61335 12.1044L6.06603 12.8324C5.88531 13.076 5.69771 13.3136 5.53248 13.5682C5.19428 14.0714 4.84316 14.5645 4.53852 15.0882L4.06779 15.8631L3.63407 16.6584C3.33459 17.1821 3.08761 17.7339 2.82256 18.2747C2.68573 18.5429 2.57815 18.8247 2.45768 19.1006L2.10742 19.9318L1.79676 20.7782C1.69435 21.06 1.58506 21.3402 1.50159 21.6289C1.32603 22.2028 1.13326 22.7699 0.996434 23.3541C0.391456 25.6712 0.0541139 28.0487 0.00247997 30.4245C-0.0371061 32.8003 0.180617 35.1735 0.683188 37.4829C1.18232 39.7923 1.95597 42.0353 2.97746 44.1513C5.01786 48.3869 8.05738 52.1056 11.7475 54.9506C8.22949 51.8978 5.46277 48.0531 3.72271 43.8243C2.85095 41.7108 2.23393 39.5036 1.8854 37.2632C1.53343 35.0228 1.46114 32.7492 1.63067 30.5028C1.81225 28.2573 2.26233 26.0433 2.95336 23.9153C3.11171 23.3788 3.32427 22.8602 3.51789 22.3365C3.60997 22.0734 3.72787 21.8188 3.83802 21.5625L4.17106 20.7944L4.54111 20.0433C4.66675 19.7947 4.7812 19.54 4.92234 19.2999C5.19772 18.8145 5.45245 18.3198 5.75795 17.8531L6.19856 17.1447L6.67359 16.4583C6.97995 15.9942 7.3302 15.5608 7.66582 15.1188C7.82933 14.8949 8.01521 14.6871 8.19335 14.4742L8.7312 13.839L9.29918 13.2301C9.4885 13.0274 9.67352 12.8214 9.87662 12.6315C11.448 11.0672 13.1855 9.67662 15.0598 8.51256C16.9393 7.35617 18.9427 6.41606 21.0201 5.71354C21.0846 5.6914 21.1483 5.66585 21.2137 5.64542L21.4108 5.58666L21.8049 5.4683C22.0683 5.39081 22.3281 5.3065 22.5923 5.23497L23.3892 5.03742L23.7868 4.93864C23.9193 4.90457 24.0553 4.88414 24.1887 4.85604C24.7257 4.753 25.2592 4.63464 25.8023 4.56822L26.612 4.44985L27.427 4.37236C29.5973 4.17395 31.7901 4.21568 33.9346 4.51712L34.3365 4.57077C34.4707 4.5895 34.6033 4.61675 34.7367 4.63889L35.5344 4.7794C36.0611 4.89861 36.592 4.99739 37.111 5.14301L37.5017 5.24434L37.697 5.29458L37.8906 5.35249L38.6626 5.58666C38.919 5.665 39.1712 5.76123 39.425 5.84723L39.8054 5.97922L40.1797 6.12569C44.1831 7.66783 47.7803 10.1467 50.6132 13.2659C52.3895 15.2142 53.8636 17.4112 54.9875 19.7572L61.1431 18.1384C61.0863 18.0226 61.0261 17.9059 60.9676 17.7884Z" fill="white"/>
<path d="M35.9588 33.5007L56.3198 23.1034L62.0735 20.1656L62.1182 20.1426L62.0701 20.1554L55.8611 21.7886L29.0613 28.836C27.5717 29.1919 26.397 30.4386 26.2249 32.0327C26.1698 32.5427 26.2223 33.0392 26.3643 33.4999H35.0491H35.9588V33.5007Z" fill="white"/>
<path d="M114.039 47.0549L112.182 56.3026H110.152L111.247 50.8068L107.681 55.3251H106.719L104.796 50.754L103.673 56.3026H101.643L103.513 47.0549H105.277L107.615 52.8147L112.183 47.0549H114.039ZM117.485 55.9595C116.8 55.6248 116.275 55.1539 115.909 54.5459C115.544 53.9379 115.362 53.2379 115.362 52.4451C115.362 51.3969 115.604 50.4525 116.09 49.6112C116.575 48.7699 117.257 48.1074 118.133 47.6229C119.01 47.1383 120.015 46.8965 121.145 46.8965C122.081 46.8965 122.891 47.0642 123.576 47.3989C124.262 47.7336 124.787 48.2045 125.153 48.8125C125.518 49.4196 125.7 50.1204 125.7 50.9132C125.7 51.9615 125.458 52.9058 124.972 53.7471C124.487 54.5885 123.805 55.251 122.928 55.7355C122.052 56.22 121.047 56.4619 119.917 56.4619C118.981 56.4619 118.17 56.2941 117.485 55.9595ZM121.906 54.1499C122.422 53.8238 122.819 53.3886 123.095 52.842C123.371 52.2961 123.509 51.6924 123.509 51.0324C123.509 50.3282 123.286 49.7662 122.841 49.3481C122.395 48.93 121.768 48.7205 120.957 48.7205C120.271 48.7205 119.67 48.8831 119.153 49.2093C118.637 49.5354 118.24 49.9714 117.965 50.5172C117.689 51.0631 117.551 51.6668 117.551 52.3268C117.551 53.0319 117.774 53.593 118.219 54.0111C118.664 54.4292 119.292 54.6387 120.102 54.6387C120.789 54.6387 121.39 54.4752 121.906 54.1499ZM137.456 47.0549L135.586 56.3026H133.809L130.322 50.5164L129.147 56.3026H127.009L128.879 47.0549H130.669L134.155 52.8547L135.318 47.0549H137.456ZM142.144 48.7724L141.743 50.7804H146.085L145.751 52.4451H141.396L140.969 54.5851H146.072L145.711 56.3026H138.471L140.341 47.0549H147.407L147.047 48.7724H142.144ZM153.138 53.0932L152.497 56.3035H150.332L150.987 53.0003L148.583 47.0557H150.747L152.417 51.178L155.769 47.0557H158L153.138 53.0932Z" fill="white"/>
<path d="M104.107 43.4829C103.407 43.1482 102.871 42.6773 102.498 42.0693C102.123 41.4613 101.937 40.7614 101.937 39.9686C101.937 38.9203 102.179 37.976 102.665 37.1346C103.15 36.2933 103.833 35.6308 104.715 35.1463C105.597 34.6618 106.608 34.4199 107.748 34.4199C108.585 34.4199 109.325 34.5613 109.966 34.8431C110.607 35.125 111.092 35.5303 111.422 36.0583L109.859 37.3262C109.36 36.6041 108.608 36.2431 107.602 36.2431C106.916 36.2431 106.31 36.4015 105.785 36.7182C105.259 37.035 104.852 37.4667 104.563 38.0126C104.274 38.5584 104.129 39.1664 104.129 39.8357C104.129 40.5493 104.358 41.1147 104.817 41.5329C105.276 41.951 105.919 42.1604 106.747 42.1604C107.736 42.1604 108.564 41.8036 109.232 41.0901L110.514 42.3844C109.588 43.4505 108.27 43.9827 106.56 43.9827C105.623 43.9844 104.806 43.8175 104.107 43.4829ZM123.99 41.8445H119.636L118.421 43.8261H116.11L122.162 34.5783H124.299L126.597 43.8261H124.433L123.99 41.8445ZM123.63 40.2198L122.842 36.6527L120.638 40.2198H123.63ZM142.291 39.6646C141.819 40.2811 141.165 40.7171 140.327 40.9725L141.957 43.8261H139.673L138.204 41.2365H136.361L135.84 43.8261H133.663L135.533 34.5783H139.34C140.498 34.5783 141.397 34.8295 142.039 35.3311C142.68 35.8335 143.001 36.5377 143.001 37.4446C142.999 38.3081 142.763 39.0481 142.291 39.6646ZM140.214 39.0438C140.61 38.7177 140.808 38.251 140.808 37.6439C140.808 37.2036 140.657 36.8732 140.354 36.6527C140.051 36.433 139.619 36.3223 139.058 36.3223H137.348L136.693 39.5326H138.537C139.259 39.5326 139.817 39.3699 140.214 39.0438ZM150.707 43.6941C150.029 43.4999 149.486 43.2538 149.077 42.9541L149.958 41.3029C150.386 41.6112 150.867 41.8488 151.4 42.0165C151.935 42.1843 152.482 42.2677 153.043 42.2677C153.64 42.2677 154.112 42.1707 154.459 41.9774C154.806 41.7841 154.979 41.5192 154.979 41.1846C154.979 40.9121 154.841 40.7026 154.565 40.557C154.289 40.4114 153.849 40.2555 153.243 40.0878C152.637 39.9115 152.143 39.7421 151.76 39.5794C151.377 39.4168 151.045 39.1724 150.765 38.8462C150.485 38.5201 150.344 38.0892 150.344 37.5519C150.344 36.9269 150.52 36.3759 150.872 35.9008C151.224 35.4256 151.722 35.0594 152.368 34.804C153.014 34.5485 153.764 34.4208 154.62 34.4208C155.252 34.4208 155.849 34.4889 156.41 34.626C156.971 34.7622 157.452 34.9581 157.852 35.2136L157.037 36.8519C156.689 36.6143 156.298 36.4355 155.862 36.3172C155.425 36.1979 154.971 36.1392 154.499 36.1392C153.885 36.1392 153.399 36.2448 153.043 36.456C152.687 36.6671 152.509 36.9405 152.509 37.2751C152.509 37.4778 152.584 37.6473 152.736 37.7835C152.887 37.9198 153.078 38.0305 153.31 38.1139C153.541 38.1974 153.867 38.297 154.285 38.4111C154.881 38.5695 155.371 38.7304 155.754 38.8931C156.137 39.0557 156.464 39.2942 156.736 39.6067C157.008 39.9192 157.143 40.3313 157.143 40.8414C157.143 41.4758 156.965 42.0285 156.608 42.4994C156.252 42.9703 155.749 43.3364 155.099 43.5961C154.449 43.8559 153.692 43.9861 152.828 43.9861C152.091 43.9844 151.383 43.8874 150.707 43.6941Z" fill="white"/>
<path d="M41.2986 34.9249L27.9082 56.1139H33.3642L35.2342 53.1548C35.3022 53.0475 35.4218 52.9819 35.55 52.9819H44.3708C44.5636 52.9819 44.7245 53.1275 44.7417 53.3174L44.9964 56.1139H50.5832L48.6702 34.9249H41.2986ZM44.0739 47.3345C44.0034 47.4103 43.9035 47.4537 43.7994 47.4537H39.5086C39.3735 47.4537 39.2487 47.3813 39.1825 47.2638C39.1171 47.1463 39.1205 47.0032 39.1928 46.89L42.9621 40.9385C43.0309 40.8295 43.1514 40.7657 43.2779 40.7657C43.3063 40.7657 43.3356 40.7691 43.3648 40.7759C43.5206 40.8134 43.635 40.9445 43.6488 41.102L44.1712 47.0535C44.1798 47.1565 44.1445 47.2587 44.0739 47.3345ZM71.9709 35.1702H76.7049L75.3426 40.2071H64.7344C63.3652 40.2071 62.5666 40.6039 62.3627 41.3771C62.2241 41.871 62.3773 42.2116 62.5305 42.4117C62.8394 42.8136 63.404 43.0018 64.3067 43.0018H69.057C71.5854 43.0018 73.2988 43.5562 74.1481 44.6504C74.9226 45.6484 75.038 47.1837 74.4906 49.213C73.3332 53.4647 70.557 55.6362 66.002 55.8541C65.7327 55.8669 65.5029 56.0509 65.4323 56.308L64.7008 59.0014H59.6545L60.2982 56.6435C60.3481 56.4587 60.3094 56.262 60.1915 56.1105C60.0736 55.9589 59.892 55.8695 59.6984 55.8695H54.9644L56.3267 50.8326H66.9349C68.6336 50.8326 69.1878 50.1284 69.3565 49.528C69.446 49.19 69.3849 48.8638 69.1852 48.6084C68.8772 48.2141 68.3152 48.0387 67.3626 48.0387H62.6122C60.1071 48.0387 58.4075 47.4843 57.5599 46.3901C56.7699 45.3717 56.658 43.7938 57.2268 41.7007C58.3516 37.5349 61.1131 35.4035 65.6673 35.1864C65.9366 35.1736 66.1664 34.9897 66.2369 34.7325L66.9684 32.0391H72.0157L71.3719 34.397C71.322 34.5818 71.3608 34.7785 71.4786 34.93C71.5957 35.0816 71.7781 35.1702 71.9709 35.1702ZM80.9664 34.9249H97.6141L96.1193 40.4523H90.8629C90.6942 40.4523 90.5471 40.5647 90.5032 40.7256L86.3329 56.1139H80.7702L84.888 40.9164C84.9181 40.8057 84.894 40.6873 84.8235 40.5971C84.7529 40.5059 84.6436 40.4532 84.5283 40.4532H79.4707L80.9664 34.9249ZM31.4313 48.2831H22.2155C22.0469 48.2831 21.8997 48.3955 21.8558 48.5564L19.8077 56.1139H14.245L19.9841 34.9249H24.5589H27.1887H33.1697H35.0483L34.5784 36.6629L33.5535 40.4532H24.3377C24.169 40.4532 24.0219 40.5647 23.978 40.7256L23.5503 42.2916C23.5202 42.4023 23.5434 42.5207 23.614 42.6118C23.6845 42.7029 23.7938 42.7566 23.91 42.7566H32.9261L31.4313 48.2831Z" fill="white"/>
</g>
<defs>
<clipPath id="clip0_406_962">
<rect width="158" height="59" fill="white"/>
</clipPath>
</defs>
</svg>
