<svg width="70" height="70" viewBox="0 0 70 70" fill="none" xmlns="http://www.w3.org/2000/svg">
<circle cx="35" cy="35" r="35" fill="#FF992E" fill-opacity="0.1"/>
<path d="M50.176 33.4529C47.5915 27.4157 42.7668 22.6159 36.7163 20.0627C36.4726 19.9717 36.203 19.98 35.9654 20.0858C35.7277 20.1917 35.5412 20.3865 35.4458 20.6285C35.3938 20.7495 35.3664 20.8798 35.3653 21.0115C35.3641 21.1433 35.3892 21.274 35.4391 21.3959C35.489 21.5179 35.5627 21.6287 35.6559 21.7219C35.749 21.8151 35.8598 21.8888 35.9818 21.9387C41.559 24.295 46.0062 28.7208 48.3893 34.2867C48.4959 34.5227 48.6904 34.7078 48.9315 34.8024C49.1726 34.8969 49.4411 34.8936 49.6797 34.7929C49.8019 34.7395 49.912 34.6619 50.0036 34.5649C50.0951 34.4679 50.1662 34.3534 50.2125 34.2283C50.2589 34.1033 50.2795 33.9701 50.2732 33.8369C50.2669 33.7037 50.2339 33.5731 50.176 33.4529Z" fill="#FF992E"/>
<path d="M35.4653 27.2983C38.846 28.7223 41.5429 31.4014 42.9892 34.7726C43.0661 34.9389 43.1874 35.0807 43.3398 35.1823C43.4922 35.2839 43.6698 35.3414 43.8528 35.3483C43.9868 35.3473 44.119 35.3168 44.2399 35.259C44.4682 35.1472 44.6448 34.952 44.7335 34.7138C44.8221 34.4755 44.816 34.2124 44.7164 33.9785C43.077 30.1511 40.0169 27.1088 36.18 25.4918C35.9437 25.4079 35.6844 25.4165 35.4543 25.516C35.2241 25.6154 35.0401 25.7982 34.9392 26.0278C34.8459 26.2665 34.8485 26.5321 34.9466 26.7689C35.0447 27.0057 35.2305 27.1954 35.4653 27.2983Z" fill="#FF992E"/>
<path d="M45.0238 39.0913C44.8085 38.8398 44.5414 38.6379 44.2407 38.4994C43.9399 38.361 43.6128 38.2893 43.2818 38.2893C42.9507 38.2893 42.6236 38.361 42.3229 38.4994C42.0222 38.6379 41.755 38.8398 41.5397 39.0913C40.7258 39.8953 39.9119 40.7092 39.1079 41.5331C39.0721 41.5861 39.026 41.6314 38.9724 41.6663C38.9188 41.7011 38.8587 41.7248 38.7957 41.7359C38.7327 41.747 38.6681 41.7453 38.6058 41.731C38.5434 41.7166 38.4847 41.6898 38.4329 41.6522C37.9068 41.3644 37.341 41.1361 36.8348 40.8184C34.5118 39.3129 32.4527 37.4349 30.7402 35.2599C29.8461 34.2058 29.1074 33.0292 28.5466 31.7659C28.4856 31.6611 28.465 31.5377 28.4888 31.4188C28.5126 31.3 28.579 31.1939 28.6756 31.1207C29.4895 30.3266 30.2836 29.5226 31.0876 28.7087C31.35 28.4907 31.5612 28.2176 31.7061 27.9088C31.8511 27.6 31.9262 27.2631 31.9262 26.922C31.9262 26.5809 31.8511 26.2439 31.7061 25.9351C31.5612 25.6263 31.35 25.3533 31.0876 25.1353C30.4524 24.4901 29.8171 23.8648 29.1719 23.2196L27.1867 21.2344C26.9635 20.9952 26.695 20.8027 26.3968 20.6681C26.0986 20.5335 25.7767 20.4594 25.4496 20.4502C25.1205 20.461 24.7968 20.5368 24.497 20.6731C24.1972 20.8093 23.9272 21.0034 23.7027 21.2443C22.8788 22.0483 22.0946 22.8821 21.2509 23.6762C20.5081 24.3767 20.0638 25.3365 20.0102 26.3562C19.9395 28.0284 20.2377 29.6958 20.8837 31.2398C22.1217 34.4496 23.9048 37.4215 26.1544 40.0243C29.1128 43.5798 32.7987 46.4601 36.9639 48.4714C38.8116 49.4477 40.8371 50.0418 42.9195 50.2184H43.3066C43.9423 50.2453 44.576 50.1301 45.1616 49.8811C45.7471 49.6321 46.2697 49.2556 46.6914 48.7791C47.3862 47.995 48.1704 47.2803 48.9148 46.5358C49.1722 46.3168 49.379 46.0445 49.5208 45.7378C49.6626 45.431 49.7361 45.097 49.7361 44.7591C49.7361 44.4211 49.6626 44.0872 49.5208 43.7804C49.379 43.4736 49.1722 43.2013 48.9148 42.9823C47.631 41.6853 46.334 40.3883 45.0238 39.0913ZM47.5251 45.1561L46.7807 45.8906C46.2645 46.3869 45.7385 46.8832 45.2223 47.4689C44.9899 47.7391 44.6972 47.9508 44.3679 48.087C44.0386 48.2232 43.6818 48.2801 43.3265 48.253H43.0485C41.2226 48.0954 39.447 47.5722 37.8274 46.7145C33.92 44.8142 30.4592 42.1079 27.6731 38.7737C25.5551 36.3497 23.8757 33.5752 22.7101 30.5748C22.1658 29.3031 21.9082 27.9272 21.9557 26.5448C21.9784 26.0136 22.2061 25.512 22.5909 25.1452C23.1071 24.6489 23.5835 24.1526 24.1096 23.6464L25.1022 22.6538C25.1347 22.5866 25.1855 22.53 25.2487 22.4904C25.3119 22.4508 25.385 22.4298 25.4596 22.4298C25.5342 22.4298 25.6072 22.4508 25.6704 22.4904C25.7336 22.53 25.7844 22.5866 25.8169 22.6538C26.2537 23.0806 26.6805 23.5173 27.1073 23.9541L27.7624 24.6092L28.755 25.6018L29.698 26.5448C30.0653 26.912 30.0454 26.9815 29.698 27.319L29.3605 27.6565C28.6855 28.3513 28.0006 29.0263 27.286 29.7211C26.9127 30.0756 26.6595 30.5378 26.5617 31.0432C26.4638 31.5486 26.5262 32.0719 26.7401 32.5401C27.3665 33.9789 28.2028 35.3169 29.2216 36.5105C31.0766 38.8442 33.3034 40.8563 35.8124 42.4662C36.1995 42.7044 36.5966 42.9029 36.944 43.0716L37.48 43.3397C37.8591 43.5635 38.2905 43.6833 38.7307 43.6871C39.0734 43.6853 39.4121 43.612 39.7249 43.4719C40.0377 43.3317 40.3177 43.1278 40.5471 42.8731C41.3313 42.0691 42.1254 41.285 42.9592 40.4611C43.0441 40.3505 43.1625 40.2704 43.2967 40.2328C43.4355 40.2663 43.5583 40.347 43.6441 40.4611C44.9676 41.7846 46.291 43.0849 47.6145 44.362C47.8428 44.7094 47.8726 44.7988 47.5251 45.1561Z" fill="#FF992E"/>
</svg>
