<svg width="70" height="70" viewBox="0 0 70 70" fill="none" xmlns="http://www.w3.org/2000/svg">
<circle cx="35" cy="35" r="35" fill="#0EC4BC" fill-opacity="0.1"/>
<path d="M34.9039 19C31.4815 19 28.1994 20.3595 25.7794 22.7794C23.3595 25.1994 22 28.4815 22 31.9039C22 38.0381 28.6504 45.4033 34.2388 50.5052L34.9237 51.1306L35.5888 50.4854C41.7727 44.5298 47.8077 38.2069 47.8077 31.9039C47.8077 28.4815 46.4482 25.1994 44.0283 22.7794C41.6083 20.3595 38.3262 19 34.9039 19ZM34.9039 48.4009C27.8663 41.8299 23.9852 35.9934 23.9852 31.9039C23.9852 29.008 25.1356 26.2308 27.1832 24.1832C29.2308 22.1356 32.008 20.9852 34.9039 20.9852C37.7997 20.9852 40.5769 22.1356 42.6245 24.1832C44.6721 26.2308 45.8225 29.008 45.8225 31.9039C45.8225 37.2143 40.522 42.9118 34.9039 48.4009Z" fill="#06A88B"/>
<path d="M34.9025 26.9414C33.9209 26.9414 32.9613 27.2325 32.1452 27.7778C31.329 28.3232 30.6929 29.0983 30.3172 30.0052C29.9416 30.912 29.8433 31.9099 30.0348 32.8727C30.2263 33.8354 30.699 34.7197 31.3931 35.4138C32.0872 36.1079 32.9715 36.5806 33.9342 36.7721C34.897 36.9636 35.8949 36.8653 36.8017 36.4897C37.7086 36.114 38.4837 35.4779 39.0291 34.6617C39.5744 33.8456 39.8655 32.886 39.8655 31.9044C39.8655 30.5882 39.3426 29.3258 38.4119 28.395C37.4811 27.4643 36.2187 26.9414 34.9025 26.9414ZM34.9025 34.8822C34.3135 34.8822 33.7378 34.7076 33.2481 34.3804C32.7584 34.0532 32.3767 33.5881 32.1513 33.044C31.926 32.4999 31.867 31.9011 31.9819 31.3235C32.0968 30.7458 32.3804 30.2152 32.7968 29.7988C33.2133 29.3823 33.7439 29.0987 34.3215 28.9838C34.8992 28.8689 35.4979 28.9279 36.042 29.1533C36.5862 29.3787 37.0512 29.7603 37.3784 30.25C37.7056 30.7397 37.8803 31.3155 37.8803 31.9044C37.8803 32.6942 37.5666 33.4516 37.0081 34.0101C36.4497 34.5685 35.6922 34.8822 34.9025 34.8822Z" fill="#06A88B"/>
</svg>
