<svg width="70" height="70" viewBox="0 0 70 70" fill="none" xmlns="http://www.w3.org/2000/svg">
<circle cx="35" cy="35" r="35" fill="#FF1572" fill-opacity="0.1"/>
<path d="M46.7929 24H22.9704C21.9174 24 20.9075 24.4183 20.1629 25.1629C19.4183 25.9075 19 26.9174 19 27.9704V42.8595C19 43.9125 19.4183 44.9224 20.1629 45.667C20.9075 46.4116 21.9174 46.8299 22.9704 46.8299H46.7929C47.8459 46.8299 48.8558 46.4116 49.6004 45.667C50.345 44.9224 50.7633 43.9125 50.7633 42.8595V27.9704C50.7633 26.9174 50.345 25.9075 49.6004 25.1629C48.8558 24.4183 47.8459 24 46.7929 24ZM48.7781 42.8595C48.7781 43.386 48.569 43.8909 48.1967 44.2632C47.8244 44.6355 47.3194 44.8447 46.7929 44.8447H22.9704C22.4439 44.8447 21.939 44.6355 21.5667 44.2632C21.1944 43.8909 20.9852 43.386 20.9852 42.8595V27.9704C20.9852 27.4439 21.1944 26.939 21.5667 26.5667C21.939 26.1944 22.4439 25.9852 22.9704 25.9852H46.7929C47.3194 25.9852 47.8244 26.1944 48.1967 26.5667C48.569 26.939 48.7781 27.4439 48.7781 27.9704V42.8595Z" fill="#FF1572"/>
<path d="M46.5648 29.3294C46.4822 29.2282 46.3804 29.1443 46.2652 29.0825C46.1501 29.0207 46.0239 28.9822 45.8939 28.9693C45.7638 28.9564 45.6325 28.9693 45.5075 29.0072C45.3825 29.0452 45.2661 29.1075 45.1652 29.1905L34.8818 37.6077L24.5886 29.1905C24.4895 29.0979 24.3726 29.0265 24.245 28.9809C24.1174 28.9352 23.9817 28.9162 23.8464 28.9249C23.7112 28.9337 23.5791 28.9701 23.4585 29.0318C23.3378 29.0935 23.231 29.1793 23.1448 29.2839C23.0585 29.3885 22.9946 29.5096 22.957 29.6399C22.9194 29.7701 22.9088 29.9067 22.926 30.0411C22.9431 30.1756 22.9876 30.3051 23.0568 30.4217C23.1259 30.5383 23.2182 30.6395 23.3279 30.7191L34.2466 39.6525C34.4252 39.8005 34.6499 39.8813 34.8818 39.8808C35.1104 39.879 35.3312 39.7983 35.5072 39.6525L46.4258 30.7191C46.6274 30.5524 46.755 30.313 46.7811 30.0528C46.8071 29.7926 46.7294 29.5327 46.5648 29.3294Z" fill="#FF1572"/>
<path d="M42.5252 37.191C42.3392 37.0061 42.0877 36.9023 41.8254 36.9023C41.5632 36.9023 41.3116 37.0061 41.1257 37.191C41.0326 37.2833 40.9588 37.393 40.9084 37.514C40.858 37.635 40.832 37.7647 40.832 37.8957C40.832 38.0268 40.858 38.1565 40.9084 38.2775C40.9588 38.3984 41.0326 38.5082 41.1257 38.6005L45.0961 42.5709C45.1886 42.6628 45.2984 42.7356 45.419 42.785C45.5397 42.8345 45.6689 42.8598 45.7994 42.8593C45.9298 42.8588 46.0588 42.8327 46.1792 42.7824C46.2995 42.732 46.4087 42.6585 46.5006 42.5659C46.5925 42.4734 46.6653 42.3636 46.7147 42.243C46.7642 42.1223 46.7895 41.9931 46.789 41.8626C46.7885 41.7322 46.7624 41.6032 46.7121 41.4828C46.6617 41.3625 46.5882 41.2533 46.4956 41.1614L42.5252 37.191Z" fill="#FF1572"/>
<path d="M27.2677 37.191L23.2973 41.1614C23.1104 41.347 23.0048 41.5992 23.0039 41.8626C23.003 42.126 23.1067 42.379 23.2923 42.5659C23.4779 42.7528 23.7302 42.8584 23.9936 42.8593C24.257 42.8602 24.51 42.7565 24.6969 42.5709L28.6673 38.6005C28.7603 38.5082 28.8342 38.3984 28.8845 38.2775C28.9349 38.1565 28.9609 38.0268 28.9609 37.8957C28.9609 37.7647 28.9349 37.635 28.8845 37.514C28.8342 37.393 28.7603 37.2833 28.6673 37.191C28.4813 37.0061 28.2297 36.9023 27.9675 36.9023C27.7053 36.9023 27.4537 37.0061 27.2677 37.191Z" fill="#FF1572"/>
</svg>
