<svg width="22" height="24" viewBox="0 0 22 24" fill="none" xmlns="http://www.w3.org/2000/svg">
<path d="M15.1377 0C15.3911 0.137943 15.4783 0.346265 15.4699 0.636227C15.453 1.26682 15.4671 1.89742 15.4643 2.52802C15.4643 2.87991 15.2728 3.09949 14.9857 3.09105C14.7042 3.0826 14.5296 2.87147 14.5296 2.52802C14.5268 1.89742 14.5409 1.26682 14.524 0.636227C14.5155 0.34908 14.6028 0.137943 14.8562 0C14.9491 0 15.0448 0 15.1377 0Z" fill="black"/>
<path d="M0.00280932 17.8986C0.00280932 16.0716 0.00280932 14.2446 0.00280932 12.4175C0.00280932 11.9643 0.157645 11.8066 0.60244 11.8066C2.09448 11.8066 3.5837 11.8094 5.07574 11.8066C5.64722 11.8066 6.08357 12.0347 6.37916 12.5273C6.41857 12.5949 6.44391 12.654 6.5537 12.6258C8.34414 12.1444 10.067 11.5223 11.5225 10.3258C12.2741 9.70651 12.8428 8.96049 13.0511 7.98082C13.1327 7.59514 13.113 7.20383 13.1215 6.81534C13.1355 6.0468 13.6113 5.37116 14.3207 5.10091C15.0499 4.82502 15.8353 5.00519 16.3589 5.56822C16.6517 5.88071 16.8234 6.25512 16.8572 6.68021C16.9923 8.35805 16.8206 9.99929 16.2576 11.5899C16.1844 11.7925 16.2379 11.8179 16.4265 11.8151C17.4878 11.8094 18.5491 11.8094 19.6104 11.8123C20.5366 11.8151 21.2883 12.3809 21.4966 13.2311C21.7134 14.1094 21.3108 14.954 20.455 15.3847C20.3311 15.4466 20.3255 15.4917 20.3846 15.6099C20.8913 16.6262 20.5394 17.6762 19.5175 18.197C19.3908 18.2618 19.3937 18.3097 19.45 18.4223C19.9539 19.4357 19.5963 20.4942 18.5801 21.0094C18.4534 21.0741 18.4534 21.1192 18.5097 21.2346C19.1684 22.5605 18.2845 23.9907 16.8009 23.9963C14.9964 23.9991 13.1947 23.9907 11.3901 23.9963C9.79113 24.0019 8.24561 23.6669 6.71979 23.2362C6.53681 23.1855 6.42702 23.1827 6.30878 23.3741C6.0526 23.7851 5.65284 23.9963 5.16863 23.9963C3.62311 24.0019 2.07759 23.9991 0.532061 23.9991C0.17172 23.9991 0.00281516 23.8161 0 23.4361C0.00281516 21.5837 0.00280932 19.7398 0.00280932 17.8986ZM6.56214 17.8902C6.56214 19.1148 6.56214 20.3422 6.56214 21.5668C6.56214 21.7779 6.50021 22.0313 6.59592 22.1833C6.69446 22.3382 6.97597 22.3184 7.17867 22.3747C8.49616 22.7407 9.82773 23.0363 11.2072 23.0419C13.0821 23.0476 14.9541 23.0476 16.829 23.0476C17.3949 23.0476 17.8115 22.6366 17.8059 22.1017C17.8003 21.5752 17.3864 21.1811 16.8319 21.1755C16.4096 21.1727 15.9873 21.1755 15.5679 21.1755C15.2103 21.1755 14.9936 20.9897 14.9992 20.6997C15.0048 20.4154 15.216 20.2409 15.5622 20.2409C16.297 20.238 17.0289 20.2437 17.7637 20.2409C18.3323 20.238 18.749 19.8355 18.7462 19.2978C18.7434 18.7601 18.3295 18.3688 17.7552 18.366C17.3245 18.3631 16.8966 18.3631 16.4659 18.366C16.2829 18.366 16.1281 18.3125 16.0211 18.1576C15.9197 18.0112 15.9057 17.8508 15.9873 17.6931C16.083 17.5073 16.2407 17.4285 16.4462 17.4285C17.1866 17.4285 17.9298 17.4313 18.6702 17.4285C19.2613 17.4257 19.6808 17.0372 19.6808 16.4911C19.6808 15.9477 19.2613 15.5564 18.6702 15.5536C18.2338 15.5508 17.7946 15.5536 17.3583 15.5508C17.1528 15.5508 17.0008 15.4579 16.9135 15.2665C16.8375 15.1004 16.8628 14.9455 16.9698 14.802C17.0824 14.6499 17.2429 14.6105 17.4259 14.6105C18.1662 14.6133 18.9095 14.6133 19.6498 14.6105C20.0862 14.6077 20.4381 14.3628 20.5676 13.9771C20.7787 13.3521 20.3227 12.7384 19.6358 12.7384C17.6595 12.7356 15.6861 12.7384 13.7098 12.7384C13.3439 12.7384 13.1299 12.5667 13.1243 12.2768C13.1187 11.9784 13.3382 11.801 13.7183 11.801C14.1152 11.801 14.515 11.7869 14.9119 11.8066C15.1231 11.8179 15.2075 11.7362 15.2807 11.5533C15.8888 10.0021 16.0352 8.38902 15.9282 6.74496C15.9 6.30017 15.5284 5.94545 15.0893 5.90041C14.636 5.85537 14.225 6.14252 14.0955 6.5845C14.0364 6.78437 14.0589 6.98707 14.0617 7.18976C14.0645 7.82317 13.9576 8.43124 13.6986 9.01117C13.2256 10.0837 12.4233 10.8692 11.4774 11.5195C10.0501 12.502 8.45393 13.0932 6.79017 13.5182C6.59593 13.5689 6.55652 13.6477 6.55652 13.8307C6.56496 15.1905 6.56214 16.5417 6.56214 17.8902ZM0.940263 17.8958C0.940263 19.5427 0.943082 21.1896 0.934636 22.8392C0.934636 23.0166 0.979678 23.0588 1.15422 23.0588C2.45764 23.0504 3.76105 23.056 5.06448 23.0532C5.45015 23.0532 5.62188 22.8787 5.62188 22.493C5.62188 19.4329 5.62188 16.3728 5.62188 13.3127C5.62188 12.9158 5.45015 12.7469 5.04758 12.7469C3.75261 12.7469 2.45482 12.7525 1.15985 12.7413C0.965599 12.7384 0.934636 12.8032 0.934636 12.9777C0.943082 14.6162 0.940263 16.2546 0.940263 17.8958Z" fill="black"/>
<path d="M12.3111 4.18312C12.207 4.18593 12.0972 4.13244 12.0043 4.03954C11.5736 3.60882 11.14 3.18373 10.7121 2.74738C10.4954 2.52499 10.4982 2.25473 10.6981 2.06048C10.8923 1.87468 11.1541 1.87468 11.3681 2.08301C11.8044 2.5081 12.2323 2.94163 12.6602 3.37235C12.8122 3.52718 12.8517 3.71298 12.7672 3.91005C12.6884 4.09303 12.5392 4.18312 12.3111 4.18312Z" fill="black"/>
<path d="M17.6724 4.18363C17.4585 4.18363 17.3149 4.09636 17.2332 3.92745C17.1516 3.76136 17.1488 3.57837 17.2783 3.44324C17.74 2.96748 18.2045 2.49453 18.6859 2.03566C18.8688 1.86112 19.1279 1.89209 19.2996 2.06381C19.4769 2.24117 19.4966 2.49735 19.3221 2.69722C19.1419 2.90273 18.942 3.08853 18.7506 3.28278C18.5141 3.52207 18.2748 3.75854 18.0384 3.99501C17.9286 4.1048 17.8103 4.18926 17.6724 4.18363Z" fill="black"/>
<path d="M10.2998 6.8412C10.0042 6.8412 9.70858 6.84402 9.41298 6.8412C9.11176 6.83557 8.90907 6.64132 8.90625 6.37388C8.90625 6.10644 9.11176 5.90938 9.41017 5.90657C10.0098 5.90094 10.6094 5.90094 11.2091 5.90657C11.5075 5.90938 11.7158 6.10363 11.7158 6.37107C11.7158 6.63851 11.5103 6.83557 11.2119 6.83839C10.905 6.84402 10.6038 6.8412 10.2998 6.8412Z" fill="black"/>
<path d="M19.6814 6.84104C19.3858 6.84104 19.0902 6.84386 18.7946 6.84104C18.4905 6.83541 18.285 6.65243 18.2794 6.38499C18.2738 6.1091 18.4821 5.90922 18.7974 5.90641C19.3886 5.90359 19.9798 5.90359 20.5709 5.90641C20.875 5.90922 21.0805 6.09502 21.0861 6.36246C21.0917 6.63835 20.8806 6.83541 20.5681 6.84104C20.2725 6.84386 19.9769 6.84104 19.6814 6.84104Z" fill="black"/>
<path d="M4.68854 18.859C4.68854 19.4445 4.68854 20.0273 4.68854 20.6128C4.68854 20.9563 4.51119 21.1702 4.23249 21.1759C3.94253 21.1815 3.75391 20.9647 3.75391 20.61C3.75391 19.4248 3.75391 18.2396 3.75391 17.0573C3.75391 16.7138 3.92844 16.4999 4.20996 16.4942C4.49992 16.4886 4.68854 16.7082 4.68854 17.0601C4.69136 17.6597 4.68854 18.2594 4.68854 18.859Z" fill="black"/>
<path d="M4.2297 15.5539C3.9707 15.5595 3.75112 15.3428 3.75393 15.0838C3.75393 14.8332 3.96225 14.6249 4.20999 14.6193C4.45772 14.6136 4.67449 14.8163 4.68575 15.0641C4.69983 15.323 4.48869 15.5483 4.2297 15.5539Z" fill="black"/>
</svg>
