<svg width="26" height="24" viewBox="0 0 26 24" fill="none" xmlns="http://www.w3.org/2000/svg">
<path d="M13.9704 18.3597C13.2559 17.9603 12.4571 17.6496 11.5251 17.4144L11.4453 17.3966L11.4497 17.3168C11.4541 17.2103 11.5207 17.157 11.5606 17.1259C11.5695 17.1215 11.574 17.1126 11.5828 17.1082C13.6731 15.0579 13.8728 11.5342 12.0355 9.24872C11.1746 8.17919 9.99851 7.58895 8.72928 7.58008C8.72041 7.58008 8.71597 7.58008 8.7071 7.58008C7.45118 7.58008 6.28402 8.157 5.41864 9.20434C4.64201 10.1452 4.21154 11.2591 4.13609 12.515C4.02958 14.339 4.59763 15.8833 5.82692 17.0993C5.8358 17.1037 5.84023 17.1126 5.84911 17.1171C5.88905 17.1481 5.97781 17.2147 5.95118 17.3434L5.93787 17.4055L5.87574 17.4188C4.81065 17.6895 3.90089 18.0623 3.08876 18.5638C1.70858 19.4159 0.798814 20.4455 0.306211 21.7102C0.199702 21.9854 0.137573 22.2827 0.0754429 22.5712C0.0488157 22.6866 0.0266272 22.8064 0 22.9218V23.5342C0.137574 23.8582 0.346154 24.0002 0.66568 24.0002C3.72781 24.0002 6.7855 24.0002 9.84763 24.0002H16.7308C16.9438 24.0002 17.108 23.9425 17.2189 23.8271C17.3343 23.7117 17.392 23.5386 17.392 23.3256C17.3876 22.6733 17.25 22.0387 16.9704 21.4307C16.4112 20.1792 15.426 19.1762 13.9704 18.3597ZM5.32988 12.7813C5.34763 11.5919 5.7781 10.5357 6.56804 9.72801C7.16715 9.12002 7.92603 8.78274 8.70266 8.78274C8.70709 8.78274 8.7071 8.78274 8.7071 8.78274C9.49704 8.78274 10.2648 9.12889 10.8728 9.7502C12.4305 11.3478 12.4882 14.3212 10.9926 15.9854C10.3535 16.6955 9.54142 17.0816 8.69822 17.0816C8.6494 17.0816 8.60059 17.0816 8.55177 17.0771C7.63757 17.0283 6.79881 16.5401 6.18639 15.6969C5.60503 14.8892 5.32988 13.9662 5.32988 12.7813ZM16.0562 22.7088C15.9941 22.7931 15.8787 22.7975 15.7633 22.7975C15.0577 22.7887 14.3432 22.7887 13.642 22.7975C13.5355 22.7975 13.4334 22.7887 13.3624 22.7132C13.2914 22.6378 13.287 22.5268 13.2914 22.4469C13.3047 22.225 13.3003 21.9943 13.2959 21.7724L13.2914 21.5416C13.2914 21.3064 13.2204 21.1156 13.0961 20.9869C12.9941 20.8848 12.8521 20.8316 12.6923 20.8316H12.6879C12.324 20.836 12.0932 21.1111 12.0932 21.5505V21.6969C12.0932 21.9588 12.0888 22.225 12.0976 22.4869C12.0976 22.5668 12.0932 22.66 12.0311 22.7221C11.9689 22.7887 11.8757 22.7931 11.8136 22.7931C9.75 22.7887 7.68639 22.7887 5.61834 22.7931C5.55177 22.7931 5.45858 22.7842 5.39645 22.7221C5.33432 22.66 5.32544 22.5668 5.32988 22.4913C5.33876 22.1762 5.33876 21.8478 5.32988 21.5105C5.321 21.0934 5.08136 20.836 4.71302 20.836C4.35799 20.8404 4.12278 21.1067 4.11834 21.515C4.1139 21.8567 4.10947 22.1629 4.12278 22.4736C4.12722 22.5534 4.11834 22.6555 4.05177 22.7265C3.98964 22.7886 3.90088 22.802 3.82988 22.802C3.821 22.802 3.81213 22.802 3.80325 22.802C3.54142 22.7931 3.27958 22.7931 3.01775 22.7975H2.69379H2.36982C2.10799 22.7975 1.84615 22.7931 1.58432 22.802C1.5 22.8064 1.41124 22.7975 1.35355 22.7265C1.30029 22.6555 1.31361 22.5668 1.34023 22.478C1.57988 21.6215 2.07248 20.8892 2.84911 20.2324C3.94526 19.3049 5.25887 18.7236 6.86094 18.4529C8.97337 18.0978 10.966 18.3197 12.7855 19.1185C13.9038 19.6111 14.7559 20.2546 15.3905 21.0934C15.6834 21.4795 15.9053 21.91 16.0651 22.4114C16.0917 22.5135 16.1183 22.6244 16.0562 22.7088Z" fill="black"/>
<path d="M23.2941 1.80621C22.1313 0.643491 20.587 0 18.9405 0H18.9361C15.5544 0 12.7941 2.75148 12.7852 6.13757C12.7807 7.78846 13.4154 9.33727 14.5736 10.5C15.7319 11.6627 17.2807 12.3062 18.9272 12.3062H18.9316C22.3177 12.3062 25.0736 9.55473 25.0825 6.17307C25.0914 4.52219 24.4568 2.97337 23.2941 1.80621ZM22.4331 9.65236C21.4967 10.5888 20.2586 11.1035 18.9405 11.1035C16.2112 11.1035 13.9923 8.88018 13.9923 6.15532C13.9923 3.43047 16.2112 1.21154 18.9405 1.2071H18.9449C20.263 1.2071 21.5012 1.72189 22.4375 2.65385C23.3739 3.59024 23.8887 4.83284 23.8887 6.15089C23.8843 7.47337 23.3695 8.71597 22.4331 9.65236Z" fill="black"/>
<path d="M20.861 5.52934H20.7634C20.4483 5.5249 20.1243 5.52047 19.8048 5.53378C19.7071 5.53822 19.5962 5.52934 19.5252 5.45834C19.4497 5.38289 19.4497 5.27195 19.4542 5.19206C19.4675 4.92579 19.4631 4.65508 19.4631 4.39325L19.4586 4.16248C19.4542 3.74976 19.2145 3.47461 18.8551 3.47461H18.8506C18.5 3.47905 18.2604 3.74532 18.2515 4.14473C18.2471 4.50419 18.2382 4.85035 18.256 5.20094C18.2604 5.28526 18.256 5.38733 18.1805 5.45834C18.1095 5.52934 18.0074 5.53378 17.9142 5.53378C17.5415 5.52047 17.1642 5.5249 16.8092 5.53378C16.4586 5.54266 16.1968 5.80005 16.2012 6.13733C16.2057 6.47017 16.4542 6.71869 16.8003 6.72757C16.9246 6.732 17.0444 6.732 17.1687 6.72757H17.4394C17.466 6.72757 17.4971 6.72757 17.5237 6.72757C17.6568 6.732 17.7944 6.732 17.9276 6.72313C17.9409 6.72313 17.9586 6.72313 17.9719 6.72313C18.0385 6.72313 18.1228 6.73644 18.1805 6.79413C18.256 6.86514 18.2604 6.97165 18.256 7.04709C18.2471 7.36662 18.2471 7.70833 18.256 8.12549C18.2648 8.51603 18.5089 8.78674 18.8551 8.78674C18.8595 8.78674 18.8595 8.78674 18.8639 8.78674C19.219 8.7823 19.4586 8.51159 19.4631 8.11218V8.01455C19.4675 7.69058 19.4719 7.35774 19.4586 7.03378C19.4542 6.96277 19.4631 6.86514 19.5296 6.79857C19.5962 6.732 19.6894 6.72313 19.7737 6.72757C20.1642 6.73644 20.5503 6.732 20.8787 6.72757C21.2604 6.72313 21.5134 6.47904 21.5089 6.12402C21.5 5.76899 21.2426 5.53378 20.861 5.52934Z" fill="black"/>
</svg>
