<svg width="25" height="24" viewBox="0 0 25 24" fill="none" xmlns="http://www.w3.org/2000/svg">
<path d="M17.3912 0.00348389C17.858 0.14632 18.2169 0.400639 18.3527 0.898824C18.3945 1.05211 18.398 1.20888 18.398 1.36217C18.398 3.75207 18.398 6.14197 18.398 8.53186C18.398 8.60851 18.398 8.68863 18.3841 8.76528C18.3527 8.97779 18.2064 9.10669 18.0044 9.10321C17.7884 9.09972 17.6525 8.98824 17.6176 8.77225C17.6002 8.6747 17.6002 8.57018 17.6002 8.46915C17.6002 6.11758 17.6002 3.766 17.6002 1.41443C17.6002 0.905792 17.4922 0.797794 16.9801 0.797794C11.7927 0.797794 6.60531 0.797794 1.4179 0.797794C0.912751 0.797794 0.801273 0.909276 0.801273 1.4214C0.801273 8.47612 0.801273 15.5308 0.801273 22.5821C0.801273 23.0907 0.912758 23.1987 1.42488 23.1987C6.61228 23.1987 11.7997 23.1987 16.9871 23.1987C17.4922 23.1987 17.6002 23.0907 17.6002 22.5786C17.6002 21.3906 17.6002 20.2026 17.6002 19.0181C17.6002 18.9415 17.6002 18.8614 17.6107 18.7847C17.6455 18.5443 17.7918 18.4085 18.0113 18.412C18.2273 18.4154 18.3841 18.5583 18.3945 18.8021C18.4085 19.154 18.4015 19.5059 18.4015 19.8577C18.4015 20.7879 18.405 21.7181 18.4015 22.6448C18.398 23.5297 17.9242 24 17.0359 24C11.8171 24 6.59835 24 1.38308 24C0.473799 24 0.0069638 23.5262 0.0069638 22.61C0.0069638 15.5866 0.0139353 8.56322 0 1.54333C0 0.776891 0.236891 0.243867 0.992879 0C6.4555 0.00348381 11.9251 0.00348389 17.3912 0.00348389Z" fill="black"/>
<path d="M24.004 6.2389C23.9412 6.37826 23.889 6.52458 23.8158 6.66045C23.7218 6.82767 23.6103 6.96702 23.7914 7.16908C23.8959 7.28753 23.8158 7.46521 23.7322 7.60804C23.45 8.09229 23.1748 8.58351 22.8857 9.06428C22.7916 9.22105 22.8195 9.28376 22.9727 9.3604C23.4674 9.61124 23.7531 9.99794 23.7252 10.5728C23.7148 10.7888 23.6347 10.9839 23.5267 11.165C23.0285 12.029 22.5303 12.8965 22.0286 13.7605C21.9973 13.8127 21.9624 13.8685 21.9241 13.9137C21.7848 14.0636 21.621 14.0984 21.4364 14.0043C21.2622 13.9137 21.196 13.7117 21.2692 13.5201C21.304 13.433 21.3493 13.3529 21.3981 13.2692C21.8684 12.4505 22.3422 11.6353 22.8125 10.8166C23.0459 10.4125 22.924 10.1199 22.4815 9.96659C22.3422 9.91781 22.3422 10.0363 22.3073 10.0955C21.8126 10.9455 21.3214 11.7956 20.8302 12.6491C20.4121 13.3738 19.9767 14.0845 19.5865 14.823C19.1266 15.7044 18.51 16.4639 17.8724 17.2129C17.5868 17.5474 17.329 17.8957 17.1164 18.279C16.8308 18.7911 16.4023 19.0524 15.803 18.9722C15.6846 18.9548 15.6323 19.0175 15.5766 19.0942C15.3223 19.4182 15.068 19.7457 14.8067 20.0662C14.3433 20.634 13.6431 20.533 13.3609 19.8571C13.2912 19.6934 13.225 19.5262 13.1588 19.3659C13.0683 19.3694 13.0578 19.4426 13.0264 19.4913C12.7861 19.8467 12.4551 20 12.1137 19.9129C11.7479 19.8188 11.5284 19.5157 11.4936 19.0733C11.4587 18.6239 11.4169 18.1745 11.3368 17.7146C11.3124 17.7808 11.2811 17.8435 11.2601 17.9097C10.978 18.7597 10.6993 19.6133 10.4101 20.4633C10.3021 20.7838 10.0443 20.8918 9.79347 20.7211C9.62276 20.6062 9.57747 20.4355 9.64018 20.2473C9.96417 19.2614 10.2882 18.279 10.6261 17.2965C10.7515 16.9377 11.1069 16.7391 11.4796 16.7844C11.8141 16.8227 12.1102 17.098 12.1555 17.4638C12.2182 17.9794 12.2565 18.5019 12.3053 19.0628C12.3924 18.9479 12.4551 18.8538 12.5248 18.7667C12.8801 18.3382 13.5386 18.387 13.8103 18.8712C13.9357 19.0942 14.0193 19.3381 14.1343 19.5924C14.4165 19.2475 14.6882 18.913 14.96 18.5821C15.0157 18.5159 15.0018 18.4636 14.9634 18.3939C14.737 17.9724 14.7544 17.5543 14.9948 17.1467C15.5 16.2862 15.7578 15.3212 16.1305 14.405C16.1828 14.2761 16.242 14.1472 16.3117 14.0252C17.3673 12.1927 18.4194 10.3603 19.4854 8.53125C19.59 8.3501 19.576 8.263 19.3879 8.18984C19.3391 8.17242 19.2904 8.13758 19.2485 8.10623C19.0674 7.97036 19.0116 7.7474 19.1162 7.56972C19.2207 7.39205 19.4332 7.33631 19.6527 7.4234C19.7781 7.47217 19.8861 7.64637 20.0185 7.56972C20.1195 7.5105 20.1648 7.35372 20.231 7.24224C20.4714 6.83115 20.7187 6.42355 20.9521 6.00897C21.0706 5.79994 21.2204 5.66407 21.4782 5.7233C21.6175 5.75465 21.628 5.6362 21.6698 5.56304C21.8684 5.19724 22.1366 4.91505 22.5616 4.83144C23.1992 4.70951 23.774 5.06486 23.9621 5.68498C23.9761 5.72678 23.9935 5.76859 24.0109 5.81388C24.0039 5.95672 24.004 6.09607 24.004 6.2389ZM21.6663 9.56246C21.6628 9.49279 21.6071 9.47537 21.5618 9.4475C21.1855 9.22802 20.8023 9.01551 20.4296 8.78906C20.3041 8.71241 20.2728 8.78557 20.224 8.86919C19.2172 10.6181 18.2069 12.3704 17.1931 14.1158C17.1164 14.2482 17.1443 14.2935 17.2663 14.3597C17.6216 14.5548 17.9735 14.7533 18.3184 14.9693C18.4612 15.0599 18.5169 15.0321 18.5971 14.8927C19.59 13.1612 20.5898 11.4333 21.5862 9.7053C21.6141 9.65653 21.6384 9.60775 21.6663 9.56246ZM22.8647 7.49308C22.8787 7.41295 22.809 7.4025 22.7672 7.37811C22.3909 7.15863 22.0112 6.94612 21.6384 6.71967C21.527 6.64999 21.4817 6.68832 21.4259 6.78586C21.2169 7.15863 21.0009 7.5314 20.7814 7.8972C20.7187 8.00171 20.7292 8.05397 20.8406 8.1132C21.2064 8.31526 21.5757 8.52429 21.9311 8.74377C22.0739 8.83086 22.1227 8.78906 22.1924 8.66364C22.3875 8.30829 22.5965 7.96339 22.7986 7.61153C22.8195 7.56972 22.8404 7.52792 22.8647 7.49308ZM16.9527 16.9482C17.0328 16.9586 17.0503 16.9098 17.0781 16.875C17.3673 16.5266 17.653 16.1747 17.9456 15.8298C18.0292 15.7323 17.9944 15.694 17.9003 15.6417C17.5659 15.4536 17.2384 15.262 16.9074 15.0669C16.8168 15.0146 16.7681 14.9972 16.7228 15.1226C16.573 15.5477 16.4092 15.9692 16.2525 16.3942C16.235 16.436 16.2002 16.4918 16.2455 16.5231C16.4824 16.6729 16.7263 16.8123 16.9527 16.9482ZM22.7916 5.61878C22.6035 5.62227 22.269 5.94975 22.2725 6.12394C22.2725 6.16923 22.8508 6.52806 22.9135 6.52458C22.9902 6.52109 23.1887 6.15878 23.1922 6.01246C23.1992 5.79298 23.018 5.6153 22.7916 5.61878ZM16.019 18.1919C16.2176 18.1954 16.5277 17.9062 16.5451 17.7007C16.5486 17.6484 16.019 17.2965 15.925 17.2896C15.8414 17.2826 15.6428 17.617 15.6358 17.7808C15.6254 18.0037 15.7961 18.1849 16.019 18.1919Z" fill="black"/>
<path d="M9.19157 4.80382C7.53676 4.80382 5.87847 4.80382 4.22366 4.80382C3.70805 4.80382 3.60702 4.70279 3.60702 4.18718C3.60702 3.74822 3.60353 3.31275 3.60702 2.87378C3.6105 2.56373 3.75335 2.4174 4.06341 2.39999C4.11915 2.3965 4.17139 2.39999 4.22714 2.39999C7.54721 2.39999 10.8673 2.39999 14.1874 2.39999C14.2954 2.39999 14.4068 2.3965 14.5114 2.42786C14.703 2.48708 14.797 2.62643 14.7901 2.81456C14.7831 3.01314 14.6751 3.15249 14.4661 3.18733C14.365 3.20475 14.264 3.20126 14.163 3.20126C10.9997 3.20126 7.83638 3.20475 4.67307 3.19778C4.46405 3.19778 4.39437 3.24307 4.39785 3.46603C4.41527 4.00254 4.40134 4.00254 4.93436 4.00254C8.01057 4.00254 11.0903 4.00254 14.1665 4.00254C14.2814 4.00254 14.4034 4.00602 14.5149 4.0339C14.7065 4.08267 14.797 4.23247 14.7901 4.4206C14.7831 4.60872 14.6786 4.74808 14.4835 4.78292C14.3859 4.80034 14.2814 4.80382 14.1804 4.80382C12.5186 4.8073 10.8534 4.80382 9.19157 4.80382Z" fill="black"/>
<path d="M5.02572 15.6114C5.71551 15.6219 6.34608 15.817 6.91743 16.2071C7.1822 16.3883 7.26233 16.6008 7.12994 16.8133C7.00104 17.0224 6.76066 17.0607 6.49589 16.883C6.09176 16.6148 5.6528 16.4475 5.16507 16.4162C3.7367 16.3256 2.54524 17.3603 2.40589 18.8061C2.27351 20.1717 3.29426 21.398 4.72263 21.5896C6.05344 21.7673 7.32851 20.7988 7.55845 19.4297C7.58283 19.2903 7.58283 19.151 7.60025 19.0116C7.6316 18.7538 7.8058 18.597 8.03225 18.6145C8.25173 18.6319 8.39108 18.7991 8.39456 19.0534C8.43288 20.973 6.59343 22.6208 4.67385 22.3909C2.97026 22.1854 1.72654 20.8998 1.60809 19.2206C1.46874 17.2732 3.06433 15.5975 5.02572 15.6114Z" fill="black"/>
<path d="M11.1855 9.20069C9.79543 9.20069 8.40539 9.20069 7.01534 9.20069C6.92825 9.20069 6.84464 9.20418 6.75755 9.19372C6.552 9.16934 6.43355 9.05089 6.41265 8.84534C6.39175 8.64328 6.50322 8.48303 6.70877 8.43077C6.78889 8.40987 6.87948 8.4029 6.96309 8.4029C9.78846 8.4029 12.6138 8.4029 15.4392 8.39941C15.5402 8.39941 15.6448 8.39942 15.7388 8.44122C15.9165 8.51438 16.0071 8.65373 15.9862 8.84883C15.9653 9.03347 15.8607 9.15192 15.6796 9.18676C15.589 9.20418 15.4915 9.20069 15.4009 9.20069C13.9969 9.20069 12.5894 9.20069 11.1855 9.20069Z" fill="black"/>
<path d="M7.18932 11.6046C5.9247 11.6046 4.66008 11.6046 3.39545 11.6046C2.99133 11.6046 2.8032 11.4757 2.80669 11.2004C2.81017 10.9287 2.99829 10.7998 3.40242 10.7998C5.93167 10.7998 8.45743 10.7998 10.9867 10.7998C11.0877 10.7998 11.1922 10.8033 11.2898 10.8242C11.4918 10.8695 11.5929 11.0123 11.5859 11.2144C11.5789 11.4095 11.4779 11.5384 11.2828 11.5767C11.1853 11.5976 11.0807 11.5976 10.9797 11.5976C9.71857 11.608 8.45395 11.6046 7.18932 11.6046Z" fill="black"/>
<path d="M9.20792 5.60938C10.4725 5.60938 11.7372 5.60938 13.0018 5.60938C13.4059 5.60938 13.5975 5.73828 13.594 6.01001C13.5906 6.28175 13.399 6.41065 12.9983 6.41065C10.4691 6.41065 7.93981 6.41065 5.41404 6.41065C5.30604 6.41065 5.19456 6.40717 5.09005 6.3793C4.89844 6.33052 4.80786 6.1842 4.81483 5.99608C4.82179 5.80795 4.92283 5.6686 5.11793 5.63028C5.21547 5.60938 5.31999 5.60938 5.42102 5.60938C6.67867 5.60938 7.9433 5.60938 9.20792 5.60938Z" fill="black"/>
<path d="M5.19658 13.6006C4.56253 13.6006 3.93197 13.6006 3.29791 13.6006C2.9774 13.6006 2.80321 13.4508 2.80669 13.1965C2.81018 12.9526 2.98784 12.8063 3.29094 12.8063C4.56253 12.8028 5.83761 12.8028 7.10921 12.8063C7.40533 12.8063 7.58996 12.9666 7.58996 13.207C7.58996 13.4473 7.41229 13.6041 7.11268 13.6041C6.47514 13.6041 5.83761 13.6006 5.19658 13.6006Z" fill="black"/>
<path d="M4.92427 20.1362C4.66995 20.1327 4.47835 20.0491 4.32158 19.8958C4.05333 19.6345 3.78855 19.3697 3.52726 19.1015C3.33217 18.8994 3.31824 18.666 3.48198 18.4988C3.65269 18.3211 3.88261 18.3385 4.09861 18.5475C4.31112 18.7531 4.5306 18.9551 4.72569 19.1781C4.86156 19.3349 4.93821 19.3035 5.06711 19.1711C5.45033 18.7705 5.84748 18.3873 6.24115 17.9936C6.39444 17.8403 6.56864 17.7811 6.76721 17.8926C6.98669 18.0145 7.04244 18.3037 6.8578 18.4953C6.37703 18.9935 5.87884 19.4812 5.38414 19.9654C5.25175 20.0978 5.07408 20.1327 4.92427 20.1362Z" fill="black"/>
<path d="M14.187 11.6051C13.7411 11.6051 13.2986 11.6121 12.8527 11.6017C12.5844 11.5982 12.4311 11.4623 12.4137 11.2428C12.3963 11.0199 12.5217 10.8457 12.7516 10.8213C12.992 10.7969 13.2324 10.8039 13.4763 10.8004C14.1173 10.7969 14.7548 10.8004 15.3959 10.8004C15.4795 10.8004 15.5666 10.8039 15.6502 10.8178C15.8731 10.8561 16.0055 11.0129 15.9881 11.2219C15.9707 11.4379 15.8522 11.5773 15.6362 11.5877C15.2879 11.6051 14.936 11.5982 14.5841 11.6017C14.4517 11.6086 14.3194 11.6051 14.187 11.6051Z" fill="black"/>
<path d="M10.1985 13.6012C9.76298 13.6012 9.32402 13.6047 8.88854 13.6012C8.59242 13.5977 8.40778 13.4444 8.4043 13.2075C8.4043 12.9706 8.58894 12.8069 8.88507 12.8034C9.76647 12.7999 10.6479 12.7999 11.5293 12.8034C11.8219 12.8034 12.0066 12.9741 11.9996 13.2145C11.9926 13.4479 11.8149 13.5977 11.5328 13.6012C11.0868 13.6047 10.6409 13.6012 10.1985 13.6012Z" fill="black"/>
</svg>
