<svg width="22" height="24" viewBox="0 0 22 24" fill="none" xmlns="http://www.w3.org/2000/svg">
<path d="M21.1159 11.9922C21.1159 14.9993 21.1159 18.0064 21.1159 21.0136C21.1159 22.2673 20.5662 23.1803 19.4397 23.7391C19.0354 23.9389 18.5993 23.998 18.1542 23.998C13.7298 23.998 9.30538 24.0025 4.88099 23.998C3.11851 23.9934 1.90566 22.7624 1.90566 20.9999C1.90566 20.7228 1.89204 20.4503 1.91021 20.1732C1.92383 19.9733 1.87387 19.8961 1.65583 19.9052C1.30605 19.9234 0.956283 19.9188 0.606511 19.9052C0.14772 19.887 -0.12483 19.4782 0.0568697 19.0921C0.165889 18.865 0.352132 18.7605 0.597426 18.7605C0.974453 18.7605 1.34694 18.7559 1.72396 18.765C1.86478 18.7696 1.91021 18.7287 1.91021 18.5833C1.90566 17.4522 1.90566 16.3166 1.91021 15.1855C1.91021 15.0311 1.84661 15.0084 1.71942 15.0129C1.36056 15.0175 1.00171 15.0175 0.642851 15.0129C0.247654 15.0129 -0.00218265 14.7813 0.00235984 14.436C0.00690233 14.0999 0.256739 13.8773 0.633766 13.8728C0.992623 13.8682 1.35148 13.8637 1.71034 13.8728C1.86024 13.8773 1.91021 13.841 1.91021 13.682C1.90112 12.5645 1.90566 11.4471 1.91021 10.3342C1.91021 10.1752 1.87387 10.1161 1.70579 10.1207C1.34694 10.1343 0.98808 10.1252 0.629223 10.1252C0.252197 10.1207 0.00690233 9.89354 0.00235984 9.5574C0.00235984 9.22126 0.247654 8.98959 0.620139 8.9805C0.98808 8.97596 1.35148 8.97142 1.71942 8.9805C1.86024 8.98505 1.90566 8.94416 1.90566 8.79881C1.90112 7.67227 1.90112 6.55027 1.90566 5.42373C1.90566 5.27383 1.86932 5.21932 1.71034 5.22387C1.34239 5.23295 0.978995 5.22841 0.611054 5.22387C0.247654 5.21932 0.00690233 4.99674 0.00235984 4.66968C-0.00218265 4.35171 0.229484 4.10641 0.588341 4.09278C0.956283 4.07916 1.31968 4.07916 1.68762 4.09278C1.86024 4.09733 1.91021 4.04282 1.91021 3.8702C1.91475 3.29785 1.8557 2.72095 2.00106 2.15314C2.30086 0.958465 3.35926 0.0817651 4.59027 0.0136278C4.68112 0.00908529 4.77197 0 4.86282 0C9.2963 0 13.7298 0 18.1587 0C19.2852 0 20.1483 0.467877 20.7343 1.43543C21.025 1.92147 21.1159 2.45749 21.1159 3.01621C21.1159 6.00972 21.1159 8.99867 21.1159 11.9922ZM19.9893 12.024C19.9893 9.03501 19.9893 6.04151 19.9893 3.05255C19.9893 2.8436 19.9802 2.63464 19.9257 2.43477C19.7168 1.63984 19.0445 1.14471 18.1542 1.14471C13.7298 1.14471 9.30538 1.14471 4.88099 1.14471C4.78106 1.14471 4.68113 1.15379 4.58119 1.16288C3.77263 1.25827 3.14576 1.87151 3.06854 2.68461C3.02766 3.10706 3.05946 3.53406 3.05037 3.95651C3.04583 4.09733 3.13668 4.09278 3.23207 4.09278C3.6091 4.09278 3.98158 4.0837 4.35861 4.09733C4.73564 4.10641 4.9673 4.35171 4.95822 4.69239C4.94913 5.01945 4.70838 5.23295 4.34044 5.23295C3.9725 5.23749 3.6091 5.23749 3.24116 5.23295C3.10034 5.22841 3.05491 5.27383 3.05491 5.41465C3.05946 6.54573 3.05946 7.68135 3.05491 8.81243C3.05491 8.94416 3.09125 8.98505 3.22299 8.98505C3.59093 8.97596 3.95433 8.9805 4.32227 8.98505C4.71747 8.98959 4.96276 9.22126 4.95822 9.57103C4.95367 9.90717 4.70838 10.1252 4.32681 10.1298C3.96795 10.1343 3.6091 10.1388 3.25024 10.1252C3.10034 10.1207 3.05037 10.157 3.05037 10.316C3.05946 11.4425 3.05946 12.5645 3.05037 13.6911C3.05037 13.8591 3.11397 13.8819 3.25478 13.8773C3.53642 13.8682 3.82259 13.8728 4.10423 13.8728C4.69475 13.8728 4.95367 14.0454 4.95822 14.4406C4.96276 14.8403 4.69929 15.022 4.11786 15.022C3.82714 15.022 3.53642 15.0266 3.24116 15.0175C3.10942 15.0129 3.05037 15.0402 3.05037 15.1946C3.05491 16.3257 3.05491 17.4613 3.05037 18.5924C3.05037 18.7378 3.10034 18.7741 3.23661 18.7741C3.61818 18.765 4.00429 18.7696 4.38586 18.7741C4.6357 18.7741 4.81286 18.8968 4.91279 19.1239C5.07632 19.5055 4.80377 19.8961 4.35407 19.9097C3.98612 19.9234 3.62272 19.9234 3.25478 19.9097C3.08671 19.9052 3.04129 19.9642 3.05037 20.1232C3.05946 20.423 3.05491 20.7228 3.05491 21.0226C3.05946 22.1265 3.78171 22.8578 4.88554 22.8578C9.30992 22.8578 13.7343 22.8578 18.1587 22.8578C18.3495 22.8578 18.5403 22.8396 18.7265 22.7897C19.5124 22.5671 19.9893 21.9084 19.9893 21.0226C19.9893 18.0201 19.9893 15.022 19.9893 12.024Z" fill="black"/>
<path d="M11.5003 17.7158C10.3329 17.7158 9.16545 17.7158 8.00258 17.7158C7.4711 17.7158 7.26215 17.4932 7.28486 16.9618C7.37117 14.9131 8.68395 13.2914 10.6054 12.8553C12.9993 12.3102 15.3887 13.9819 15.7021 16.4257C15.7294 16.6256 15.7475 16.8209 15.7521 17.0208C15.7611 17.4932 15.5431 17.7158 15.0752 17.7158C14.1349 17.7158 13.1946 17.7158 12.2498 17.7158C12 17.7158 11.7501 17.7158 11.5003 17.7158ZM11.5139 16.5711C12.4633 16.5711 13.4127 16.5711 14.3621 16.5711C14.5029 16.5711 14.571 16.562 14.5392 16.3849C14.2621 14.9403 13.0402 13.9183 11.5457 13.8956C10.083 13.8729 8.81568 14.8949 8.50679 16.3303C8.46137 16.5348 8.52042 16.5756 8.71575 16.5711C9.6515 16.5666 10.5827 16.5711 11.5139 16.5711Z" fill="black"/>
<path d="M11.5235 11.8283C9.99724 11.8329 8.7526 10.5973 8.74806 9.07558C8.74352 7.53567 9.98816 6.28649 11.519 6.29103C13.0407 6.29557 14.2854 7.54021 14.2854 9.06195C14.2944 10.5837 13.0543 11.8238 11.5235 11.8283ZM11.5144 10.6791C12.4184 10.6791 13.1543 9.94773 13.1497 9.04832C13.1452 8.16253 12.4138 7.43119 11.5235 7.42665C10.6241 7.42211 9.89277 8.15799 9.89731 9.06649C9.89731 9.96136 10.615 10.6791 11.5144 10.6791Z" fill="black"/>
</svg>
