<svg width="21" height="24" viewBox="0 0 21 24" fill="none" xmlns="http://www.w3.org/2000/svg">
<path d="M19.815 5.42787C19.8101 5.42787 19.8051 5.42787 19.8051 5.42787C18.8771 5.43284 17.9491 5.43284 17.0212 5.43284C16.247 5.43284 15.4729 5.43283 14.6987 5.4378C14.6094 5.4378 14.5201 5.42787 14.4605 5.36832C14.401 5.30381 14.396 5.21449 14.401 5.13013C14.4208 4.76291 14.4159 4.37584 14.2422 4.0235C13.9147 3.35854 13.3787 3.02109 12.6592 3.01117C10.9521 2.99628 9.37901 2.99628 7.84065 3.01117C6.85809 3.02109 6.12861 3.75553 6.09387 4.75298V4.81253C6.08891 4.9217 6.08395 5.03584 6.09884 5.14501C6.1038 5.20952 6.10876 5.29885 6.04921 5.3584C5.99463 5.42291 5.9053 5.42787 5.82094 5.42787H5.81598C4.46619 5.42291 3.11641 5.42291 1.76663 5.42291H0.714592H0.660005C0.640155 5.42291 0.625268 5.42291 0.605418 5.42291C0.570681 5.42291 0.535943 5.42291 0.496244 5.42787C0.228272 5.44772 0.0297795 5.64622 0.00496728 5.91419C4.84624e-06 5.95885 0 6.00352 0 6.05314V6.08788V19.1391C0 19.9281 0.322561 20.4789 0.987528 20.8214C1.2952 20.9802 1.63264 21 1.89069 21H6.90771C10.8082 21 14.7136 21 18.6141 21C18.7382 21 18.8672 20.9901 18.9863 20.9752C19.7505 20.8759 20.3361 20.3152 20.475 19.546C20.48 19.5212 20.4899 19.4914 20.4998 19.4666L20.5048 19.4517V5.84968C20.3956 5.55193 20.1971 5.42787 19.815 5.42787ZM7.13599 5.1599C7.14591 5.08547 7.14095 5.00607 7.14095 4.92667C7.14095 4.87208 7.14095 4.81749 7.14095 4.76291C7.15583 4.3411 7.43869 4.06817 7.87043 4.0632C8.56517 4.0632 9.25991 4.0632 9.95465 4.0632H10.8132H11.3342C11.7511 4.0632 12.1729 4.0632 12.5897 4.0632C13.081 4.0632 13.3539 4.33614 13.3589 4.82742C13.3589 4.87208 13.3638 4.9217 13.3688 4.97133C13.3837 5.1202 13.3936 5.27404 13.3142 5.36832C13.2547 5.44276 13.1653 5.46261 13.0711 5.46261C13.0165 5.46261 12.9569 5.45765 12.9023 5.44772C12.8527 5.44276 12.7981 5.43283 12.7535 5.4378C12.1332 5.44276 11.5129 5.44276 10.8925 5.4378H9.52788C8.82321 5.4378 8.11855 5.4378 7.41388 5.44276C7.33448 5.44276 7.25012 5.4378 7.19553 5.37329C7.13102 5.30877 7.13103 5.22441 7.13599 5.1599ZM19.2294 6.48983L19.1798 6.65856C19.1649 6.70322 19.155 6.74788 19.1401 6.79254L17.3785 12.0875C17.2246 12.549 17.0162 12.6978 16.5299 12.6978H15.7061C14.9766 12.6978 14.2223 12.6978 13.4829 12.7028C13.3986 12.7028 13.2993 12.6978 13.2398 12.6284C13.1802 12.5639 13.1802 12.4696 13.1902 12.3902C13.2001 12.281 13.1951 12.1718 13.1951 12.0577V12.018C13.1852 11.7103 12.9669 11.492 12.6741 11.492C11.1258 11.487 9.49315 11.487 7.83569 11.492C7.53795 11.492 7.32456 11.7054 7.30967 12.013V12.0378C7.30967 12.0527 7.30967 12.0627 7.30967 12.0775C7.30471 12.1321 7.31463 12.1966 7.3196 12.2562C7.33448 12.3951 7.35433 12.5539 7.24019 12.6482C7.17568 12.7028 7.09132 12.7177 7.002 12.7177C6.94741 12.7177 6.89283 12.7127 6.83328 12.7078C6.77869 12.7028 6.7241 12.7028 6.6844 12.6978C5.76139 12.6978 4.84334 12.6978 3.92033 12.6978C3.51341 12.6978 3.28513 12.539 3.16107 12.1669C2.66483 10.6831 2.16858 9.19436 1.67234 7.70563L1.33986 6.70322C1.32993 6.68337 1.32497 6.65856 1.32001 6.63374L1.28527 6.4948H19.2294V6.48983ZM8.34682 12.7574C8.34682 12.6978 8.35178 12.6333 8.39644 12.5887C8.44111 12.539 8.51058 12.539 8.5602 12.5341C9.68172 12.539 10.8032 12.539 11.9247 12.5341C11.9843 12.5291 12.0438 12.539 12.0885 12.5887C12.1332 12.6383 12.1381 12.7028 12.1381 12.7574C12.1332 13.0502 12.1282 13.3678 12.1381 13.6804C12.1381 13.73 12.1381 13.8045 12.0885 13.8591C12.0389 13.9136 11.9644 13.9136 11.895 13.9136C11.488 13.9087 11.0811 13.9087 10.6742 13.9087H10.2425H9.80081C9.39886 13.9087 8.99194 13.9087 8.58998 13.9136C8.58502 13.9136 8.58502 13.9136 8.58006 13.9136C8.52051 13.9136 8.44607 13.9037 8.39644 13.8541C8.34186 13.7995 8.34186 13.7251 8.34186 13.6606C8.35674 13.343 8.35179 13.0254 8.34682 12.7574ZM19.4428 19.1143C19.4428 19.7147 19.1997 19.9628 18.5943 19.9628H1.89069C1.28527 19.9628 1.04211 19.7197 1.04211 19.1192V9.74023L1.21084 9.71046L1.71701 11.219C1.76663 11.3629 1.81129 11.5019 1.85595 11.6458C1.9552 11.9436 2.04949 12.2413 2.15866 12.5341C2.43656 13.3132 3.04694 13.7449 3.87566 13.7449C4.59025 13.7449 5.29988 13.7449 6.01447 13.7449H6.9226C7.26004 13.7449 7.29478 13.7797 7.29478 14.127V14.2015C7.29478 14.256 7.29478 14.3106 7.29478 14.3702C7.29974 14.7473 7.50817 14.9558 7.88035 14.9558C8.40637 14.9558 8.93239 14.9558 9.45344 14.9558H10.7685C11.364 14.9558 11.9595 14.9558 12.5599 14.9558C12.9917 14.9558 13.1852 14.7622 13.1902 14.3305C13.1902 14.2858 13.1852 14.2362 13.1802 14.1915C13.1703 14.0526 13.1554 13.9087 13.2348 13.8144C13.3291 13.7003 13.4929 13.7201 13.6318 13.735C13.6814 13.74 13.7311 13.7449 13.7757 13.7449C14.4308 13.74 15.0858 13.74 15.7458 13.7449H16.52C17.4777 13.7449 18.0633 13.3231 18.361 12.4199L19.1997 9.91888C19.2195 9.85933 19.2443 9.79978 19.3088 9.74519L19.4428 9.63106V19.1143Z" fill="black"/>
</svg>
