<svg width="24" height="24" viewBox="0 0 24 24" fill="none" xmlns="http://www.w3.org/2000/svg">
<path d="M24.0007 13.1463C23.8272 13.643 23.4681 13.9932 23.094 14.3433C21.3704 15.9472 19.6497 17.5542 17.941 19.1761C17.3754 19.7118 16.732 19.9661 15.951 19.9601C13.8772 19.9422 11.8034 19.9542 9.72965 19.9542C9.64586 19.9542 9.55907 19.9542 9.47828 19.9542C9.45135 20.035 9.51718 20.0589 9.54711 20.0978C9.72965 20.3372 9.72965 20.5497 9.52317 20.7711C9.33165 20.9776 9.12816 21.1721 8.92766 21.3726C8.14364 22.1596 7.35661 22.9436 6.56959 23.7307C6.21349 24.0868 6.00702 24.0898 5.65989 23.7396C3.85543 21.9352 2.05096 20.1337 0.249495 18.3292C-0.0826689 17.9971 -0.0826627 17.7846 0.246509 17.4554C1.21308 16.4859 2.18264 15.5193 3.1522 14.5498C3.45444 14.2475 3.66989 14.2385 3.97513 14.5348C4.08286 14.6395 4.13971 14.6216 4.23847 14.5318C4.68135 14.1338 5.13022 13.7448 5.58208 13.3588C6.18357 12.844 6.86286 12.467 7.62295 12.2396C7.75761 12.2007 7.7995 12.1408 7.80549 11.9972C7.92219 9.2441 9.08028 7.06259 11.3905 5.51848C11.4084 5.50651 11.4264 5.48855 11.4533 5.46461C11.163 5.09355 11.0523 4.6746 11.163 4.21077C11.2708 3.76489 11.5431 3.43572 11.962 3.26216C12.1476 3.18435 12.1266 3.1245 12.0458 2.98386C11.6927 2.36741 11.3486 1.74497 11.0044 1.12254C10.777 0.712569 10.8907 0.431277 11.3426 0.308586C12.0368 0.117068 12.7431 0.000361116 13.4702 0.000361116C14.4667 -0.00263136 15.4542 0.00634593 16.4208 0.293623C16.9116 0.437262 17.0343 0.703592 16.7859 1.14648C16.4418 1.76891 16.0976 2.39135 15.7445 3.00779C15.6727 3.13647 15.6637 3.18734 15.8223 3.25617C16.6542 3.61826 16.9325 4.56687 16.4388 5.33594C16.352 5.46761 16.3909 5.50352 16.4986 5.57534C18.5365 6.94888 19.6437 8.89099 19.9639 11.3029C19.9908 11.5034 19.9998 11.7069 20.0208 11.9463C20.3918 11.7039 20.7479 11.4705 21.104 11.2341C21.3195 11.0905 21.5439 10.9648 21.7983 10.9049C22.6691 10.6955 23.5459 11.1383 23.899 11.9583C23.9289 12.0271 23.9648 12.0959 23.9978 12.1648C24.0007 12.4879 24.0007 12.8171 24.0007 13.1463ZM12.4229 19.0145C13.6199 19.0145 14.8169 19.0055 16.0138 19.0175C16.4956 19.0235 16.8936 18.8739 17.2407 18.5387C18.0547 17.7607 18.8836 16.9946 19.7036 16.2255C20.721 15.2739 21.7354 14.3193 22.7529 13.3707C23.0162 13.1253 23.1688 12.8411 23.085 12.473C22.9444 11.8505 22.2741 11.5932 21.7205 11.9523C20.2542 12.9099 18.7908 13.8735 17.3245 14.8281C17.1959 14.9118 17.1809 15.0016 17.1869 15.1363C17.2348 16.1926 16.4537 17.0963 15.4243 17.1233C14.2992 17.1532 13.171 17.1323 12.0458 17.1323C11.8483 17.1323 11.6987 17.0425 11.6119 16.8659C11.4473 16.5368 11.6897 16.1956 12.0937 16.1956C13.15 16.1926 14.2064 16.1956 15.2627 16.1926C15.8343 16.1926 16.2532 15.7916 16.2562 15.256C16.2562 14.7173 15.8433 14.3193 15.2687 14.3163C14.745 14.3134 14.2184 14.2924 13.6977 14.3223C13.1022 14.3552 12.6174 14.1757 12.1356 13.8226C10.3491 12.5119 7.89527 12.6196 6.20452 14.056C5.7766 14.4211 5.36064 14.8011 4.92673 15.1632C4.78608 15.2799 4.79207 15.3398 4.91775 15.4655C6.05789 16.5936 7.18904 17.7278 8.32019 18.8679C8.43091 18.9786 8.54164 19.0145 8.69126 19.0145C9.93314 19.0145 11.178 19.0145 12.4229 19.0145ZM19.0692 11.9373C18.9495 9.73487 18.0816 7.89151 16.2862 6.55687C14.772 5.4317 13.0513 5.45564 11.5162 6.55687C10.9386 6.96983 10.4538 7.47855 10.0469 8.06208C9.26582 9.18425 8.80198 10.4201 8.74213 11.7937C8.73615 11.9014 8.70623 12.0062 8.89775 11.9912C10.397 11.8894 11.7376 12.3174 12.9256 13.2331C13.0393 13.3199 13.159 13.3917 13.3086 13.3797C13.3446 13.3767 13.3924 13.3767 13.4134 13.3528C13.5062 13.254 13.4044 12.8291 13.2757 12.7692C13.0094 12.6465 12.782 12.467 12.5964 12.2426C12.4109 12.0211 12.4259 11.7458 12.6234 11.5722C12.8149 11.4017 13.0752 11.4136 13.2787 11.6052C13.3416 11.665 13.3984 11.7308 13.4643 11.7847C13.7066 11.9882 13.952 12.0271 14.1525 11.8954C14.3261 11.7817 14.4009 11.6141 14.362 11.4107C14.3171 11.1713 14.1435 11.0605 13.7934 11.0306C13.2159 10.9827 12.7191 10.5817 12.5545 10.0311C12.39 9.4835 12.5486 8.84012 13.0274 8.54686C13.3775 8.33439 13.4672 8.09799 13.4433 7.72991C13.4253 7.47555 13.6468 7.28703 13.8922 7.28104C14.1435 7.27506 14.353 7.46358 14.371 7.72991C14.3799 7.86158 14.3829 7.99624 14.371 8.12791C14.362 8.24462 14.3979 8.31045 14.5146 8.35534C14.7361 8.44212 14.9276 8.57978 15.0862 8.75633C15.2478 8.93289 15.2478 9.17528 15.1011 9.35782C14.9485 9.54634 14.7001 9.58824 14.4907 9.45657C14.4368 9.42365 14.3919 9.37877 14.344 9.33986C14.0867 9.13638 13.8563 9.09747 13.6558 9.23213C13.4762 9.35483 13.4014 9.52839 13.4553 9.74085C13.5121 9.97127 13.6737 10.067 14.0209 10.097C14.6253 10.1478 15.1311 10.5817 15.2717 11.1653C15.4153 11.7608 15.1879 12.3952 14.6493 12.6765C14.377 12.8201 14.365 12.9937 14.374 13.2331C14.377 13.3468 14.4129 13.3827 14.5236 13.3797C14.7809 13.3737 15.0413 13.3767 15.2986 13.3797C15.8223 13.3827 16.2802 13.5592 16.6453 13.9393C16.75 14.047 16.8158 14.053 16.9355 13.9722C17.4742 13.6101 18.0038 13.2331 18.5664 12.9129C18.9644 12.6854 19.1619 12.4071 19.0692 11.9373ZM8.5147 20.406C8.47879 20.3671 8.43989 20.3192 8.398 20.2773C8.0778 19.9572 7.75761 19.637 7.43742 19.3168C6.20452 18.0839 4.96863 16.854 3.74171 15.6151C3.61304 15.4834 3.54421 15.4834 3.41254 15.6151C2.7123 16.3303 2.0001 17.0335 1.29387 17.7397C1.20709 17.8265 1.13228 17.8834 1.26395 18.015C2.84397 19.5861 4.41801 21.1631 5.99205 22.7401C6.08482 22.8359 6.14167 22.8359 6.23444 22.7401C6.96161 22.007 7.69177 21.2798 8.42194 20.5497C8.45784 20.5108 8.50872 20.4808 8.5147 20.406ZM15.7445 1.08962C14.5116 0.829275 13.3027 0.823291 12.0728 1.09561C12.4109 1.70008 12.7341 2.27763 13.0513 2.85817C13.1052 2.95393 13.171 2.9659 13.2638 2.95393C13.6917 2.89707 14.1196 2.90007 14.5475 2.95393C14.6253 2.96291 14.7001 2.97488 14.751 2.8851C15.0742 2.2896 15.4064 1.69709 15.7445 1.08962ZM13.9281 3.85167C13.8652 3.85167 13.8024 3.84868 13.7396 3.85167C13.2757 3.86963 12.8209 3.94444 12.384 4.09705C12.1206 4.18982 12.0009 4.45316 12.0907 4.70453C12.1745 4.93495 12.3959 5.04267 12.6593 4.96786C13.4912 4.73146 14.3261 4.72547 15.155 4.97086C15.3495 5.02771 15.5111 4.9948 15.6398 4.84218C15.8612 4.58183 15.7445 4.20478 15.4004 4.08808C14.9246 3.92948 14.4308 3.85466 13.9281 3.85167Z" fill="black"/>
<path d="M10.1414 16.1984C10.3898 16.1924 10.6083 16.3929 10.6202 16.6443C10.6322 16.9016 10.4227 17.129 10.1624 17.135C9.90503 17.141 9.68359 16.9255 9.68359 16.6652C9.68359 16.4168 9.89007 16.2044 10.1414 16.1984Z" fill="black"/>
</svg>
