<svg width="25" height="24" viewBox="0 0 25 24" fill="none" xmlns="http://www.w3.org/2000/svg">
<path d="M17.1717 22.9265C19.254 22.9265 21.3319 22.9265 23.4142 22.9265C23.6475 22.9265 23.6475 22.9265 23.6387 22.6976C23.6035 21.4649 23.4274 20.2587 22.9299 19.1185C22.3973 17.899 21.6092 16.8777 20.5439 16.0721C20.3062 15.8916 20.064 15.7155 19.8131 15.5482C19.6942 15.469 19.6106 15.4822 19.5094 15.579C18.7478 16.301 17.8629 16.8029 16.8547 17.0758C14.9706 17.5821 13.2008 17.3091 11.55 16.2614C11.2286 16.0589 10.9337 15.8212 10.6563 15.557C10.5727 15.4734 10.5022 15.4778 10.4054 15.5394C9.93874 15.8388 9.4941 16.1601 9.0979 16.5475C9.00985 16.6356 8.94822 16.6444 8.86458 16.5475C8.68408 16.3494 8.49919 16.1557 8.3143 15.9664C8.23505 15.8828 8.29228 15.8388 8.34951 15.7859C8.78534 15.3809 9.25638 15.0199 9.75824 14.703C10.0356 14.5269 10.3305 14.3684 10.6123 14.1967C10.7003 14.1439 10.7576 14.1527 10.8324 14.2275C11.167 14.5797 11.506 14.9319 11.9022 15.218C12.6858 15.7903 13.5574 16.1337 14.5215 16.2262C16.2692 16.3935 17.766 15.8476 19.0075 14.6061C19.1263 14.4829 19.254 14.3684 19.3641 14.2407C19.4433 14.1527 19.5137 14.1483 19.615 14.2011C20.5439 14.7294 21.4199 15.3237 22.1683 16.0985C23.3305 17.2959 24.0657 18.7223 24.4355 20.3423C24.6864 21.4429 24.7217 22.5567 24.6821 23.6749C24.6688 24.0006 24.6644 24.0006 24.3475 24.0006C20.5395 24.0006 16.7315 24.0006 12.9191 24.0006C12.2676 24.0006 11.616 24.0006 10.9645 24.0006C10.718 24.0006 10.718 23.9962 10.718 23.7497C10.718 23.5428 10.7224 23.3315 10.718 23.1246C10.7136 22.9837 10.7488 22.9309 10.9028 22.9309C12.9895 22.9265 15.0806 22.9265 17.1717 22.9265Z" fill="black"/>
<path d="M21.0621 9.09798C21.0665 12.3381 18.4427 15.0587 15.1146 15.0631C11.738 15.0675 9.13623 12.3337 9.14063 9.09358C9.14503 5.81386 11.7908 3.11965 15.1234 3.13286C18.4559 3.14167 21.0709 5.85348 21.0621 9.09798ZM19.9967 9.10678C20.0319 6.50943 17.9056 4.21142 15.1278 4.19382C12.4159 4.18061 10.2236 6.36855 10.206 9.07597C10.1884 11.7306 12.3279 13.9713 15.0529 13.9977C17.91 14.0242 20.0231 11.6689 19.9967 9.10678Z" fill="black"/>
<path d="M1.79183 18.3388C1.55851 18.3388 1.32079 18.3388 1.08746 18.3388C0.981808 18.3388 0.92018 18.2948 0.884961 18.1936C0.810122 17.9866 0.726479 17.7841 0.638433 17.586C0.585606 17.4672 0.612019 17.3879 0.700065 17.3043C1.18872 16.8464 1.67297 16.3886 2.15723 15.9264C2.59746 15.5037 3.03329 15.0811 3.47352 14.6585C3.83891 14.3063 4.20429 13.9541 4.56968 13.602C4.65773 13.5183 4.72817 13.5051 4.82502 13.602C5.30047 14.0554 5.78032 14.5044 6.25577 14.9579C7.05698 15.7195 7.8538 16.4899 8.65062 17.2559C8.84432 17.4408 8.83992 17.4408 8.73426 17.6917C8.66383 17.859 8.59339 18.0263 8.53176 18.198C8.49654 18.2992 8.44371 18.3388 8.33365 18.3388C7.88902 18.3344 7.44879 18.3432 7.00416 18.3476C6.81486 18.3476 6.79284 18.374 6.81045 18.5633C6.87649 19.2809 7.00856 19.9853 7.29031 20.65C7.52363 21.1959 7.8406 21.689 8.24561 22.1204C8.51855 22.411 8.8003 22.6839 9.13487 22.8996C9.25814 22.9789 9.29335 23.0713 9.22732 23.2078C9.13487 23.4103 9.04683 23.6216 8.96759 23.8285C8.92796 23.9298 8.87073 23.965 8.76068 23.943C8.14435 23.8153 7.54564 23.6436 6.96454 23.4103C6.36582 23.1682 5.79793 22.8732 5.27845 22.4902C4.38479 21.8299 3.67161 21.0198 3.20057 20.0073C2.97605 19.5275 2.79996 19.0256 2.6855 18.5105C2.65909 18.3873 2.59746 18.3432 2.47419 18.3476C2.24967 18.3432 2.02075 18.3388 1.79183 18.3388ZM6.93372 22.1908C6.91611 22.16 6.8985 22.1292 6.87649 22.0984C6.53311 21.5701 6.26457 21.0066 6.08408 20.4035C5.78912 19.4262 5.71428 18.4225 5.73189 17.4055C5.73189 17.2867 5.78912 17.2779 5.88157 17.2779C6.23375 17.2779 6.58594 17.2779 6.94252 17.2779C6.98655 17.2779 7.05259 17.3043 7.07019 17.2471C7.0878 17.1986 7.02617 17.1678 6.99976 17.1326C6.98215 17.1106 6.96454 17.093 6.94252 17.0754C6.67398 16.8244 6.40544 16.5691 6.1369 16.3182C5.69667 15.9 5.25204 15.4817 4.81621 15.0591C4.73697 14.9799 4.67534 14.9711 4.5873 15.0547C3.86532 15.7459 3.14334 16.437 2.42137 17.1282C2.38615 17.1634 2.31571 17.1942 2.34652 17.2515C2.37294 17.3043 2.44338 17.2823 2.4962 17.2823C2.79116 17.2823 3.08611 17.2867 3.37666 17.2823C3.50433 17.2779 3.55275 17.3219 3.57036 17.454C3.6496 18.0439 3.76847 18.625 3.99298 19.1753C4.35397 20.0645 4.89546 20.8217 5.63945 21.4336C6.02685 21.7462 6.45387 22.0059 6.93372 22.1908Z" fill="black"/>
<path d="M3.10401 4.81925C3.11281 3.31807 3.68952 2.07221 4.83412 1.11251C5.82023 0.284879 6.97804 -0.084913 8.25911 0.0163399C9.7823 0.139604 10.9841 0.857179 11.8734 2.09863C11.9835 2.25271 12.0715 2.4288 12.1683 2.59609C12.2212 2.68854 12.1992 2.74136 12.1067 2.78539C11.869 2.89544 11.6357 3.0099 11.4023 3.12877C11.3011 3.18159 11.2615 3.13317 11.2131 3.05393C10.9533 2.58728 10.6187 2.17787 10.1917 1.8521C9.61942 1.40747 8.97228 1.14773 8.2503 1.0817C7.30381 0.998052 6.43215 1.22697 5.67055 1.80367C4.77688 2.48163 4.26181 3.3797 4.16937 4.50669C4.00208 6.46131 5.36239 8.12538 7.14533 8.48637C7.44468 8.548 7.74844 8.58322 8.0522 8.5568C8.17106 8.548 8.21949 8.58762 8.22389 8.70208C8.2415 8.96181 8.25911 9.22595 8.28112 9.48569C8.28992 9.58694 8.2415 9.61335 8.14905 9.61776C6.79314 9.67499 5.61332 9.25677 4.6184 8.33229C3.81278 7.5883 3.32413 6.66821 3.14364 5.58525C3.12603 5.47079 3.10401 5.35193 3.09961 5.23747C3.09961 5.09659 3.10401 4.96012 3.10401 4.81925Z" fill="black"/>
<path d="M7.67747 11.5202C6.392 11.507 5.26061 11.0843 4.2833 10.2479C4.07639 10.0718 4.13362 10.0498 3.88269 10.2259C2.87456 10.9214 2.13938 11.8415 1.64192 12.9553C1.35577 13.598 1.16207 14.2672 1.05641 14.9628C1.0432 15.0508 1.00799 15.0992 0.911135 15.0816C0.642595 15.0376 0.374054 14.9936 0.105513 14.954C0.00426035 14.9407 -0.00894468 14.8835 0.00426223 14.7955C0.299216 12.9905 1.02559 11.4101 2.34628 10.1158C2.89657 9.57875 3.5261 9.16493 4.19085 8.79514C4.27889 8.74671 4.32732 8.78193 4.38455 8.84356C4.58706 9.06368 4.78516 9.28819 5.01848 9.47749C5.73606 10.0674 6.55048 10.402 7.47937 10.446C7.86237 10.4636 8.23657 10.4416 8.61076 10.358C8.73403 10.3315 8.77364 10.38 8.80006 10.4856C8.85729 10.7277 8.91893 10.9743 8.98496 11.2164C9.01137 11.3221 8.98496 11.3705 8.8749 11.3925C8.4787 11.4761 8.08248 11.529 7.67747 11.5202Z" fill="black"/>
</svg>
