<svg width="24" height="24" viewBox="0 0 24 24" fill="none" xmlns="http://www.w3.org/2000/svg">
<g clip-path="url(#clip0_1152_160)">
<path d="M24.0003 11.9935C23.9622 18.6073 18.771 23.8055 12.3694 23.9945C5.55088 24.1956 0.0470536 18.7603 0.00029212 12.0804C-0.0451333 5.4893 5.21286 0.0619979 11.8664 0.000536566C18.588 -0.0615929 23.9629 5.27953 24.0003 11.9935ZM1.60421 12.361C1.62024 14.0231 2.16401 15.899 3.25155 17.6179C3.36378 17.7949 3.42257 17.819 3.58623 17.6607C5.71922 15.5937 8.26572 14.4199 11.2344 14.2409C14.7843 14.0271 17.8425 15.1949 20.4103 17.648C20.5733 17.8036 20.6355 17.817 20.7624 17.6139C22.2474 15.2289 22.7417 12.6542 22.192 9.9025C21.0917 4.39168 15.7168 0.762791 10.1636 1.75486C5.22221 2.63803 1.61223 6.95569 1.60421 12.361Z" fill="black"/>
<path d="M16.8052 7.99434C16.8139 10.6218 14.6582 12.7897 12.0309 12.7943C9.38619 12.799 7.21312 10.6599 7.2051 8.04445C7.19708 5.34482 9.33141 3.19969 12.0296 3.19434C14.6489 3.18967 16.7966 5.34883 16.8052 7.99434Z" fill="black"/>
</g>
<defs>
<clipPath id="clip0_1152_160">
<rect width="24" height="24" fill="white"/>
</clipPath>
</defs>
</svg>
