<svg width="38" height="24" viewBox="0 0 38 24" fill="none" xmlns="http://www.w3.org/2000/svg">
<path d="M37.4339 9.39605C37.4339 8.98755 37.2959 8.83298 36.8985 8.77226C36.5893 8.7281 36.2747 8.68394 35.9656 8.63978C35.4356 8.56801 34.8836 8.49073 34.3481 8.39688C34.1604 8.36376 33.9672 8.34168 33.7795 8.3196C33.2772 8.2644 32.7638 8.2092 32.2835 7.92766C29.0542 6.0287 25.4716 5.0461 21.646 5.00193C18.7866 4.96881 16.2417 5.36075 13.8294 6.19431C12.085 6.79601 10.451 7.70133 8.87219 8.57353C8.61274 8.71706 8.37537 8.7833 8.09936 8.79434C5.69253 8.89371 3.44579 9.52302 1.41434 10.6712C0.43726 11.2233 -0.0264387 12.0016 0.00116249 13.0449C0.0177232 13.895 0.0177235 14.7617 0.0122032 15.5953C0.0122032 15.9762 0.0066818 16.3516 0.0066818 16.7325C0.0066818 17.2293 0.100526 17.3231 0.608388 17.3286C1.14937 17.3342 1.69036 17.3452 2.22582 17.3231C2.55151 17.3121 2.68952 17.4556 2.79993 17.6985C3.46788 19.0896 4.61056 19.8238 6.10655 19.8348C6.11759 19.8348 6.12311 19.8348 6.13415 19.8348C7.61358 19.8348 8.74523 19.1006 9.41318 17.704C9.56222 17.3894 9.75543 17.3286 10.0149 17.3286C10.0149 17.3286 10.0149 17.3286 10.0204 17.3286C12.1181 17.3342 14.2213 17.3342 16.319 17.3342H18.0579H19.7857C21.9 17.3342 24.0142 17.3342 26.1285 17.3286C26.1285 17.3286 26.1285 17.3286 26.134 17.3286C26.4321 17.3286 26.5867 17.428 26.7081 17.6985C27.3264 19.1117 28.8334 19.9839 30.368 19.8238C31.737 19.6803 32.7417 18.9571 33.3434 17.6819C33.3545 17.6654 33.36 17.6433 33.3655 17.6212C33.4042 17.5218 33.4649 17.3673 33.6802 17.3286C34.3812 17.2072 35.0381 16.9091 35.673 16.6165C35.822 16.5503 35.9766 16.4785 36.1256 16.4123C36.9702 16.0424 37.4229 15.3469 37.4339 14.3974C37.4505 13.056 37.445 11.687 37.4395 10.3621L37.4339 9.39605ZM11.1852 8.55145C12.5818 7.71238 14.1164 7.08859 15.8774 6.64145C17.0698 6.33783 18.3118 6.15015 19.6753 6.0563C19.7692 6.05078 19.8906 6.05078 19.9789 6.13358C20.0673 6.21639 20.0728 6.33783 20.0672 6.44272V6.59176C20.0617 7.15483 20.0507 7.73998 20.0728 8.31408C20.0783 8.43001 20.0673 8.57905 19.9734 8.6729C19.8796 8.76674 19.7471 8.7833 19.6091 8.7833C19.6035 8.7833 19.6035 8.7833 19.598 8.7833C18.1241 8.77226 16.6502 8.77778 15.1763 8.77778H10.8153L11.1852 8.55145ZM6.12311 18.8301C6.11759 18.8301 6.11207 18.8301 6.10655 18.8301C4.67681 18.8301 3.49548 17.6654 3.46788 16.2301C3.45683 15.5456 3.73837 14.8666 4.24071 14.3587C4.74305 13.8509 5.41652 13.5638 6.09551 13.5638C6.10103 13.5638 6.10655 13.5638 6.11207 13.5638C7.54182 13.5749 8.74523 14.7783 8.74523 16.197C8.73971 17.6378 7.5639 18.8191 6.12311 18.8301ZM19.9624 16.2136C19.863 16.3129 19.7029 16.3184 19.5704 16.324C15.9326 16.3129 12.9848 16.3129 10.2854 16.324H10.2799C9.91 16.324 9.76095 16.1915 9.72231 15.8161C9.60639 14.69 8.98812 13.6963 8.0276 13.0946C7.08364 12.5039 5.9575 12.3825 4.92522 12.7524C3.501 13.2713 2.684 14.298 2.48527 15.8106C2.44111 16.1418 2.34727 16.3184 1.96085 16.3184C1.94981 16.3184 1.93877 16.3184 1.92773 16.3184H1.87804C1.00033 16.2964 0.945124 16.2412 0.945124 15.3303V14.701C0.945124 14.2263 0.945124 13.746 0.945124 13.2713C0.939603 12.4598 1.29842 11.8691 2.03261 11.4717C4.11374 10.3511 6.38256 9.77695 8.77283 9.77695C8.78387 9.77695 8.78939 9.77695 8.80043 9.77695C9.94312 9.77695 11.0858 9.77695 12.2285 9.77695H13.741H15.1874C16.6613 9.77695 18.1296 9.77695 19.6036 9.77143C19.725 9.77143 19.8796 9.78247 19.9734 9.87631C20.0673 9.97015 20.0783 10.1137 20.0783 10.2351C20.0617 12.2169 20.0617 14.0496 20.0783 15.8327C20.0728 16.0203 20.0341 16.1363 19.9624 16.2136ZM21.0719 6.42064C21.0719 6.31575 21.0775 6.19431 21.1603 6.1115C21.2431 6.0287 21.37 6.01766 21.4528 6.01766C23.9701 6.00662 26.4707 6.4648 28.861 7.3922C28.9052 7.40876 28.9328 7.43636 28.9659 7.46396C28.9824 7.48052 28.999 7.49708 29.0266 7.51917L29.1315 7.60749L28.7451 7.97182C28.5077 8.19263 28.2759 8.41345 28.0495 8.63978C27.9115 8.77778 27.7625 8.77778 27.63 8.77778H26.4431C24.7926 8.77778 23.1365 8.77778 21.486 8.7833H21.4804C21.37 8.7833 21.2486 8.77226 21.1658 8.68394C21.0775 8.59561 21.0719 8.46865 21.0719 8.36928C21.083 7.79518 21.083 7.17691 21.0719 6.42064ZM31.8254 18.1015C31.3341 18.5707 30.7048 18.8246 30.0423 18.8246C30.0202 18.8246 29.9926 18.8246 29.9706 18.8246C29.2419 18.8025 28.5795 18.51 28.0882 17.9911C27.6134 17.4832 27.365 16.8208 27.3871 16.1252C27.4368 14.6734 28.6347 13.5307 30.0368 13.5583C31.4997 13.597 32.67 14.7893 32.6479 16.2136C32.6368 16.9367 32.3443 17.6047 31.8254 18.1015ZM36.4182 13.7239V14.2925C36.4182 14.8997 36.1367 15.3248 35.5847 15.5511C35.3749 15.6394 35.1651 15.7222 34.9553 15.8051C34.6738 15.9155 34.3978 16.0259 34.1218 16.1473C34.0059 16.197 33.8899 16.2412 33.7851 16.1804C33.6857 16.1197 33.6581 15.9983 33.6415 15.8713C33.4759 14.4692 32.7638 13.459 31.5107 12.8793C30.4508 12.388 29.2033 12.4543 28.171 13.056C27.1442 13.6577 26.4763 14.7065 26.3879 15.8658C26.3603 16.2025 26.2223 16.3184 25.8911 16.324C24.4503 16.3129 22.9875 16.3129 21.5467 16.324C21.5412 16.324 21.5356 16.324 21.5301 16.324C21.4031 16.324 21.2651 16.3074 21.1713 16.2191C21.0719 16.1197 21.0609 15.9762 21.0664 15.8547C21.0775 14.0551 21.0775 12.1672 21.0664 10.2572C21.0664 10.1302 21.0775 9.98119 21.1713 9.88735C21.2651 9.79351 21.4142 9.78247 21.5356 9.78247C22.3195 9.79351 23.1199 9.79351 23.8928 9.78799L25.6427 9.78247C26.3658 9.78247 27.1056 9.77695 27.8398 9.78799C28.1875 9.79351 28.4415 9.69414 28.6623 9.45125C28.8776 9.22492 29.0984 9.00411 29.3192 8.7833C29.5179 8.59009 29.7166 8.39136 29.9043 8.19264C30.0258 8.06567 30.219 7.91662 30.5005 8.10431C30.5447 8.13743 30.5999 8.15951 30.6496 8.18159C30.7213 8.21472 30.7931 8.24784 30.8593 8.29752C32.0572 9.18628 33.509 9.34085 34.7897 9.48437C34.9609 9.50093 35.132 9.52854 35.2976 9.55614C35.5239 9.58926 35.7558 9.6279 35.9876 9.64446C36.4237 9.67206 36.4127 9.97015 36.4072 10.1523C36.4072 10.1965 36.4017 10.2406 36.4072 10.2793C36.4182 10.4118 36.3906 10.5111 36.3299 10.5774C36.236 10.6712 36.1036 10.6657 35.9987 10.6602C35.9711 10.6602 35.9435 10.6547 35.9214 10.6547C35.7779 10.6547 35.6288 10.6547 35.4798 10.6491C35.2148 10.6436 34.9443 10.6326 34.6793 10.6657C34.58 10.6767 34.5137 10.7043 34.4916 10.7375C34.4585 10.7872 34.4806 10.8976 34.5082 11.0024C34.5358 11.1239 34.5634 11.2509 34.5303 11.3668C34.5082 11.4441 34.464 11.5821 34.5027 11.6373C34.5248 11.6649 34.5855 11.6759 34.6628 11.6759C34.8836 11.6704 35.0989 11.6704 35.3197 11.6704C35.5405 11.6704 35.7668 11.6759 35.9876 11.6649C36.098 11.6649 36.225 11.6704 36.3133 11.7587C36.4017 11.847 36.4127 11.9795 36.4072 12.0734C36.4182 12.6309 36.4182 13.1774 36.4182 13.7239Z" fill="black"/>
<path d="M17.9152 10.6878C17.8931 10.6657 17.8379 10.6602 17.7551 10.6602C17.4515 10.6712 17.1479 10.6657 16.8443 10.6657H16.4634C16.0549 10.6657 15.8065 10.6657 15.7237 10.7485C15.6464 10.8313 15.6519 11.0797 15.6685 11.4992C15.6685 11.5379 15.6685 11.56 15.6685 11.5876C15.6629 11.6372 15.674 11.6593 15.6795 11.6704C15.685 11.6759 15.7016 11.6924 15.7899 11.6869C16.0273 11.6814 16.2646 11.6814 16.502 11.6814H17.1534C17.5619 11.6814 17.8103 11.6814 17.8876 11.5986C17.9649 11.5158 17.9594 11.2784 17.9538 10.8754C17.9483 10.743 17.9262 10.7043 17.9152 10.6878Z" fill="black"/>
</svg>
