<svg width="107" height="107" viewBox="0 0 107 107" fill="none" xmlns="http://www.w3.org/2000/svg">
<path d="M53.5 107C83.0472 107 107 83.0472 107 53.5C107 23.9528 83.0472 0 53.5 0C23.9528 0 0 23.9528 0 53.5C0 83.0472 23.9528 107 53.5 107Z" fill="#21367F" fill-opacity="0.1"/>
<path d="M54.006 28.9256C54.3597 28.4185 54.8142 27.9897 55.341 27.666C55.8678 27.3423 56.4557 27.1306 57.0679 27.0442C57.6802 26.9577 58.3037 26.9984 58.8995 27.1637C59.4953 27.3289 60.0507 27.6152 60.531 28.0046L70.341 35.9696C71.2175 36.6809 71.7947 37.6956 71.9581 38.8126C72.1215 39.9295 71.8591 41.0671 71.223 41.9996H67.563L68.733 40.3226C68.9508 40.012 69.0428 39.6304 68.9904 39.2546C68.9381 38.8789 68.7454 38.5369 68.451 38.2976L63.399 34.1996L58.011 41.9996H54.36L61.062 32.3036L58.638 30.3356C58.478 30.2058 58.2929 30.1103 58.0943 30.0551C57.8958 29.9999 57.6879 29.9863 57.4839 30.015C57.2798 30.0437 57.0838 30.1142 56.9082 30.222C56.7325 30.3298 56.581 30.4726 56.463 30.6416L48.54 41.9966H44.88L54.006 28.9256ZM64.5 59.9996C64.1022 59.9996 63.7206 60.1576 63.4393 60.4389C63.158 60.7203 63 61.1018 63 61.4996C63 61.8974 63.158 62.279 63.4393 62.5603C63.7206 62.8416 64.1022 62.9996 64.5 62.9996H67.5C67.8978 62.9996 68.2794 62.8416 68.5607 62.5603C68.842 62.279 69 61.8974 69 61.4996C69 61.1018 68.842 60.7203 68.5607 60.4389C68.2794 60.1576 67.8978 59.9996 67.5 59.9996H64.5ZM37.5 38.9996H44.007L41.907 41.9996H37.5C37.1022 41.9996 36.7206 42.1576 36.4393 42.439C36.158 42.7203 36 43.1018 36 43.4996C36 43.8974 36.158 44.279 36.4393 44.5603C36.7206 44.8416 37.1022 44.9996 37.5 44.9996H69C70.5913 44.9996 72.1174 45.6318 73.2426 46.757C74.3679 47.8822 75 49.4083 75 50.9996V68.9996C75 70.5909 74.3679 72.117 73.2426 73.2422C72.1174 74.3675 70.5913 74.9996 69 74.9996H40.5C38.5109 74.9996 36.6032 74.2094 35.1967 72.8029C33.7902 71.3964 33 69.4887 33 67.4996V43.4996C33 42.3061 33.4741 41.1615 34.318 40.3176C35.1619 39.4737 36.3065 38.9996 37.5 38.9996ZM36 67.4996C36 68.6931 36.4741 69.8377 37.318 70.6816C38.1619 71.5255 39.3065 71.9996 40.5 71.9996H69C69.7957 71.9996 70.5587 71.6835 71.1213 71.1209C71.6839 70.5583 72 69.7953 72 68.9996V50.9996C72 50.204 71.6839 49.4409 71.1213 48.8783C70.5587 48.3157 69.7957 47.9996 69 47.9996H37.5C36.975 47.9996 36.468 47.9096 36 47.7446V67.4996Z" fill="#21367F"/>
</svg>
