<svg width="107" height="107" viewBox="0 0 107 107" fill="none" xmlns="http://www.w3.org/2000/svg">
<rect width="107" height="107" rx="53.5" fill="#FF992E" fill-opacity="0.1"/>
<path d="M54.7926 51.9824C55.3025 51.5166 55.8022 51.0148 56.2846 50.5285C56.4327 50.3795 56.5809 50.2305 56.7291 50.0815C57.0323 49.7783 57.1994 49.4444 57.1977 49.1413C57.1959 48.9135 57.1029 48.708 56.9186 48.5265C56.3328 47.951 55.6884 48.4151 55.3577 48.7422L55.163 48.9341C54.5755 49.5129 53.969 50.1123 53.3936 50.7168C53.2627 50.8538 53.0559 51.0371 52.7682 51.0371C52.4805 51.0371 52.272 50.8538 52.1394 50.7151C51.4743 50.0198 50.78 49.3365 50.1271 48.696C49.9255 48.4991 49.5999 48.249 49.2346 48.249C49.0331 48.249 48.8194 48.3261 48.6092 48.5299C48.4266 48.708 48.3319 48.9152 48.3301 49.1447C48.3267 49.4375 48.48 49.7527 48.7574 50.0335L49.0985 50.3777C49.6292 50.9138 50.177 51.4669 50.7387 51.979C50.8972 52.1229 51.1074 52.3523 51.1091 52.664C51.1108 52.9706 50.9161 53.1932 50.7266 53.3696C50.2511 53.8114 49.7825 54.2807 49.3277 54.7345C49.1158 54.9452 48.9038 55.1575 48.6919 55.3665C48.4421 55.6131 48.3215 55.8408 48.3336 56.0464V56.0686C48.3388 56.531 48.5076 56.817 48.8832 56.9917C49.2777 57.1766 49.6309 57.1133 49.9599 56.7965C50.7163 56.072 51.4399 55.3493 52.1118 54.6489C52.2634 54.4913 52.4736 54.3098 52.7665 54.3098C52.7665 54.3098 52.7665 54.3098 52.7682 54.3098C53.0645 54.3098 53.2816 54.5016 53.4177 54.6472C54.0759 55.3408 54.7633 56.0138 55.4283 56.6646C55.7126 56.942 56.0106 57.0893 56.2897 57.0893C56.2932 57.0893 56.2966 57.0893 56.3001 57.0893C56.5292 57.0859 56.7446 56.9848 56.9375 56.7845C57.3355 56.3752 57.2786 55.8117 56.7876 55.3151C56.1846 54.7054 55.5024 54.0135 54.8046 53.3662C54.6134 53.1898 54.4187 52.9672 54.4204 52.6606C54.4239 52.3541 54.6341 52.1263 54.7926 51.9824Z" fill="#FF992E"/>
<path d="M53.0485 77.5315C64.3962 73.7076 71.7444 63.5345 71.7618 51.6201C71.7653 49.1452 71.7653 46.6704 71.7653 44.1958V44.0057V44.0015C71.7653 40.8259 71.7653 37.543 71.7739 34.3166V34.316V34.3159V34.3158V34.3157V34.3157V34.3156V34.3155V34.3155V34.3154V34.3153V34.3152V34.3152V34.3151V34.315V34.3149V34.3149V34.3148V34.3147V34.3146V34.3146V34.3145V34.3144V34.3143V34.3143V34.3142V34.3141V34.314V34.314V34.3139V34.3138V34.3137V34.3136V34.3136V34.3135V34.3134V34.3133V34.3133V34.3132V34.3131V34.313V34.3129V34.3129V34.3128V34.3127V34.3126V34.3125V34.3124V34.3124V34.3123V34.3122V34.3121V34.312V34.3119V34.3119V34.3118V34.3117V34.3116V34.3115V34.3114V34.3114V34.3113V34.3112V34.3111V34.311V34.3109V34.3108V34.3108V34.3107V34.3106V34.3105V34.3104V34.3103V34.3102V34.3101V34.31V34.31V34.3099V34.3098V34.3097V34.3096V34.3095V34.3094V34.3093V34.3092V34.3091V34.3091V34.309V34.3089V34.3088V34.3087V34.3086V34.3085V34.3084V34.3083V34.3082V34.3081V34.308V34.3079V34.3078V34.3078V34.3077V34.3076V34.3075V34.3074V34.3073V34.3072V34.3071V34.307V34.3069V34.3068V34.3067V34.3066V34.3065V34.3064V34.3063V34.3062V34.3061V34.306V34.3059V34.3058V34.3057V34.3056V34.3055V34.3054V34.3053V34.3052V34.3051V34.305V34.3049V34.3048V34.3047V34.3046V34.3045V34.3044V34.3043V34.3042V34.3041V34.304V34.3039V34.3038V34.3037V34.3036V34.3035V34.3034V34.3033V34.3032V34.3031V34.303V34.3029V34.3028V34.3027V34.3026V34.3025V34.3024V34.3023V34.3022V34.302V34.3019V34.3018V34.3017V34.3016V34.3015V34.3014V34.3013V34.3012V34.3011V34.301V34.3009V34.3008V34.3007V34.3006V34.3004V34.3003V34.3002V34.3001V34.3V34.2999V34.2998V34.2997V34.2996V34.2995V34.2994V34.2992V34.2991V34.299V34.2989V34.2988V34.2987V34.2986V34.2985V34.2984V34.2982V34.2981V34.298V34.2979V34.2978V34.2977V34.2976V34.2975V34.2973V34.2972V34.2971V34.297V34.2969V34.2968V34.2967V34.2966V34.2964V34.2963V34.2962V34.2961V34.296V34.2959V34.2958V34.2956V34.2955V34.2954V34.2953V34.2952V34.2951V34.2949V34.2948V34.2947V34.2946V34.2945V34.2944V34.2943V34.2941V34.294V34.2939V34.2938V34.2937V34.2935V34.2934V34.2933V34.2932V34.2931V34.293V34.2928V34.2927V34.2926V34.2925V34.2924V34.2922V34.2921V34.292V34.2919V34.2918V34.2917V34.2915V34.2914V34.2913V34.2912V34.2911V34.2909V34.2908V34.2907V34.2906V34.2905V34.2903V34.2902V34.2901V34.29V34.2898V34.2897V34.2896V34.2895V34.2894V34.2892V34.2891V34.289V34.2889V34.2888V34.2886V34.2885V34.2884V34.2883V34.2881V34.288V34.2879V34.2878V34.2876V34.2875V34.2874V34.2873V34.2872V34.287V34.2869V34.2868V34.2867V34.2865V34.2864V34.2863V34.2862V34.286V34.2859V34.2858V34.2857V34.2855V34.2854V34.2853V34.2852V34.285V34.2849V34.2848V34.2847V34.2845V34.2844V34.2843V34.2842V34.284V34.2839V34.2838V34.2837V34.2835V34.2834V34.2833V34.2832V34.283V34.2829V34.2828V34.2826V34.2825V34.2824V34.2823V34.2821V34.282V34.2819V34.2818V34.2816V34.2815V34.2814V34.2812V34.2811V34.281V34.2809V34.2807V34.2806V34.2805V34.2804V34.2802V34.2801V34.28V34.2798V34.2797V34.2796V34.2795V34.2793V34.2792V34.2791V34.2789V34.2788V34.2787V34.2786V34.2784V34.2783V34.2782V34.278V34.2779V34.2778V34.2777V34.2775V34.2774V34.2773V34.2771V34.277V34.2769V34.2767V34.2766V34.2765V34.2764V34.2762V34.2761V34.276V34.2758V34.2757V34.2756V34.2754V34.2753V34.2752V34.2751V34.2749V34.2748V34.2747V34.2745V34.2744V34.2743V34.2741V34.274V34.2739V34.2737V34.2736V34.2735V34.2734V34.2732V34.2731V34.273V34.2728V34.2727V34.2726V34.2724V34.2723V34.2722V34.272V34.2719V34.2718V34.2717V34.2715V34.2714V34.2713V34.2711V34.271V34.2709V34.2707V34.2706V34.2705V34.2703V34.2702V34.2701V34.2699V34.2698V34.2697V34.2696V34.2694V34.2693V34.2692V34.269V34.2689V34.2688V34.2686V34.2685V34.2684V34.2682V34.2681V34.268V34.2678V34.2677V34.2676V34.2674V34.2673V34.2672V34.2671V34.2669V34.2668V34.2667V34.2665V34.2664V34.2663V34.2661V34.266V34.2659V34.2657V34.2656V34.2655V34.2653V34.2652V34.2651V34.2649V34.2648V34.2647V34.2645V34.2644V34.2643V34.2642V34.264V34.2639V34.2638V34.2636V34.2635V34.2634V34.2632V34.2631V34.263V34.2628V34.2627V34.2626V34.2624V34.2623V34.2622V34.2621V34.2619V34.2618V34.2617V34.2615V34.2614V34.2613V34.2611V34.261V34.2609V34.2607V34.2606V34.2605V34.2603V34.2602V34.2601V34.26V34.2598V34.2597V34.2596V34.2594V34.2593V34.2592V34.259V34.2589V34.2588V34.2586V34.2585V34.2584V34.2582V34.2581V34.258V34.2579V34.2577V34.1483L71.7972 34.0781L71.5601 33.9991L71.3229 33.9201L71.3206 33.927C65.4124 31.9823 59.6102 30.0513 54.7003 28.4154C54.5805 28.3753 54.4577 28.3377 54.3387 28.3013C54.2966 28.2884 54.255 28.2756 54.2142 28.263L54.2128 28.2626L54.2082 28.2612C53.7554 28.1237 53.3174 27.9908 52.8915 27.7766L52.7892 27.7252L52.6835 27.769L52.6628 27.7776L52.6609 27.7784L52.6572 27.78C52.5399 27.8297 52.4175 27.8816 52.2853 27.9254L52.2851 27.9255L51.7338 28.1087L51.7337 28.1087C45.8863 30.0542 39.8427 32.0647 33.8922 34.0324L33.7202 34.0892L33.7207 34.2704C33.7264 36.2859 33.7262 38.3013 33.726 40.3182C33.7259 40.7207 33.7259 41.1232 33.7259 41.5259V41.5909C33.7259 41.8402 33.7259 42.09 33.7259 42.3404C33.7257 45.5978 33.7256 48.9469 33.7448 52.2429L33.7448 52.2429C33.7657 55.6863 34.4705 59.0335 35.8416 62.19C39.0933 69.6791 44.7105 74.8537 52.5232 77.5633L52.5238 77.5635C52.592 77.587 52.6675 77.6032 52.7633 77.5969C52.8504 77.5912 52.9427 77.5674 53.0485 77.5315ZM53.0485 77.5315L52.9687 77.2946M53.0485 77.5315C53.0487 77.5314 53.0489 77.5314 53.0492 77.5313L52.9687 77.2946M52.9687 77.2946C52.7723 77.3614 52.6947 77.358 52.6052 77.3271L54.6209 28.6525C59.5965 30.3103 65.4887 32.2711 71.4791 34.2423C71.4929 34.2475 71.5084 34.2526 71.5239 34.2577V34.316C71.5153 37.5427 71.5153 40.8259 71.5153 44.0015V44.0057V44.1958C71.5153 46.6704 71.5153 49.1451 71.5118 51.6198C71.4946 63.4262 64.2155 73.5047 52.9687 77.2946ZM69.9027 43.348V43.2761C69.9009 41.144 69.8992 38.7258 69.9078 36.3762L69.9027 43.348ZM69.9027 43.348C69.9044 46.1156 69.9061 48.9773 69.8923 51.7927L69.9027 43.348ZM69.6578 36.3753C69.6492 38.7255 69.6509 41.1442 69.6527 43.2763V43.2761L69.6578 36.3753ZM69.6578 36.3753C69.6585 36.0908 69.5925 35.8803 69.4766 35.722C69.3603 35.5632 69.1761 35.433 68.8975 35.3412L68.8974 35.3411C63.9905 33.721 58.8941 32.0306 53.3223 30.1707C52.9335 30.0425 52.5753 30.0435 52.1757 30.1759C47.2104 31.832 41.8865 33.6028 36.5953 35.3446L36.5951 35.3447C36.2304 35.4645 36.0517 35.6468 35.9569 35.8256C35.8574 36.0131 35.8351 36.2255 35.8367 36.4273L35.8367 36.4276C35.8505 38.494 35.8488 40.5979 35.8471 42.6305C35.8471 42.6306 35.8471 42.6306 35.8471 42.6307L35.8471 44.653V46.7201C35.8471 47.1225 35.8472 47.5251 35.8473 47.9277C35.8476 49.1321 35.848 50.3373 35.8454 51.5415L69.6578 36.3753ZM53.4241 75.1669L53.4247 75.1666C58.2051 73.3605 62.2663 70.1966 65.1679 66.0152L65.3733 66.1578L53.4241 75.1669ZM53.4241 75.1669C53.1839 75.2583 52.9642 75.2995 52.7499 75.2995C52.5274 75.2995 52.3028 75.2541 52.0605 75.1554C43.4007 71.6177 38.0858 65.2189 36.2435 56.1136L36.2435 56.1136M53.4241 75.1669L36.2435 56.1136M36.2435 56.1136C35.9685 54.7552 35.8419 53.3049 35.8454 51.5415L36.2435 56.1136Z" fill="#FF992E" stroke="#FF992E" stroke-width="0.5"/>
<path d="M41.8321 52.673L41.8321 52.673C41.8203 58.6512 46.7004 63.5306 52.709 63.5457H52.7376C58.742 63.5457 63.6402 58.6991 63.6621 52.747C63.6722 49.8528 62.5479 47.1251 60.4944 45.0637L41.8321 52.673ZM41.8321 52.673C41.8372 49.7823 42.9766 47.0648 45.0417 45.0221M41.8321 52.673L45.0417 45.0221M45.0417 45.0221C47.1086 42.9776 49.8536 41.8525 52.7738 41.8525M45.0417 45.0221L52.7738 41.8525M52.7738 41.8525H52.7924M52.7738 41.8525H52.7924M52.7924 41.8525C55.7116 41.861 58.4391 43.0023 60.4943 45.0636L52.7924 41.8525ZM52.762 39.7461H52.7618H52.7531C45.586 39.7461 39.7371 45.5366 39.7178 52.6564L39.7178 52.6565C39.709 56.1144 41.0606 59.3739 43.5247 61.832C45.9868 64.2898 49.2582 65.6469 52.7322 65.6504H52.7325H52.7497C59.9119 65.6504 65.7571 59.8579 65.7764 52.7349V52.7348C65.7852 49.2752 64.4336 46.0157 61.9696 43.5576L61.9695 43.5576C59.5073 41.1031 56.2377 39.7496 52.762 39.7461Z" fill="#FF992E" stroke="#FF992E" stroke-width="0.5"/>
</svg>
