<svg width="107" height="108" viewBox="0 0 107 108" fill="none" xmlns="http://www.w3.org/2000/svg">
<path d="M53.5 108C83.0472 108 107 83.8234 107 54C107 24.1766 83.0472 0 53.5 0C23.9528 0 0 24.1766 0 54C0 83.8234 23.9528 108 53.5 108Z" fill="#FF1572" fill-opacity="0.1"/>
<g clip-path="url(#clip0_670_317)">
<path d="M85.9996 62.3691C85.6281 63.1089 85.0108 63.3561 84.1916 63.3478C81.8019 63.321 79.4105 63.3394 77.0208 63.3377C75.7624 63.3377 75.4469 63.1022 75.0806 61.9031C74.8482 61.1415 74.8482 61.1415 74.1817 61.5858C74.1122 61.6325 74.0477 61.6893 73.9714 61.726C73.1403 62.1436 72.7316 62.6613 72.7248 63.7269C72.7113 65.7845 70.9016 67.4229 68.6781 67.6751C68.2711 67.7219 68.0726 67.8705 67.8606 68.2045C66.7463 69.9632 65.0656 70.678 63.0168 70.5728C62.586 70.5511 62.3944 70.6496 62.179 70.9937C61.0036 72.8626 58.7055 73.8129 56.8433 73.1916C56.6957 73.1415 56.5702 73.1215 56.4261 73.2116C54.5825 74.3741 52.6829 74.0784 50.7613 73.4271C49.3163 72.9377 48.1088 72.0643 46.9063 71.1774C43.521 68.6805 40.1901 66.1135 36.9252 63.463C35.2716 62.1185 33.852 60.5436 32.3527 59.0455C32.2815 58.9736 32.2018 58.9085 32.1238 58.8384C32.0797 58.8935 32.0458 58.9202 32.0322 58.9553C31.3351 60.6488 31.3368 60.6488 29.4593 60.6488C27.2172 60.6488 24.975 60.6505 22.7312 60.6471C21.4541 60.6455 21.0013 60.2045 21.0013 58.9653C20.9996 51.1974 20.9996 43.4263 21.0013 35.6567C21.0013 34.4375 21.5304 33.9181 22.7533 34.0116C26.6321 34.3073 30.5092 34.6212 34.2591 35.7486C34.9477 35.9557 35.6074 36.2296 36.2349 36.5837C37.0473 37.043 37.4238 37.6926 37.1796 38.6146C37.0287 39.1841 37.2 39.3561 37.8156 39.3494C40.9889 39.3194 44.1621 39.3311 47.3354 39.3411C47.7356 39.3427 48.0562 39.2459 48.3818 39.002C50.3797 37.5089 52.5778 36.6037 55.1523 36.8693C56.75 37.0329 58.2306 37.5691 59.6875 38.2004C61.9687 39.1891 64.2702 40.1277 66.6005 40.9995C66.7565 41.058 66.916 41.1064 67.1551 41.1866C67.0432 40.6739 67.0754 40.2279 67.3773 39.8471C67.6656 39.483 68.0947 39.3511 68.5085 39.1941C72.0702 37.8446 75.7895 37.2233 79.5683 36.8726C81.1066 36.7306 82.6516 36.7139 84.1933 36.6471C85.021 36.6121 85.6281 36.8759 85.9996 37.6158C85.9996 45.868 85.9996 54.1185 85.9996 62.3691ZM44.9287 41.9916C42.1931 41.9916 39.6134 41.9949 37.0338 41.9866C36.7556 41.9849 36.6284 42.0567 36.5775 42.3507C36.4639 43.0054 36.3045 43.6534 36.1569 44.3031C35.3123 48.0192 34.2574 51.6801 33.16 55.3277C33.0769 55.6066 32.948 55.8555 33.2296 56.1244C34.8832 57.7043 36.352 59.4747 38.1141 60.9427C41.9098 64.1027 45.8344 67.1022 49.8557 69.9832C50.7071 70.5945 51.6636 70.977 52.6779 71.2091C53.0968 71.3043 53.5513 71.4597 54.1466 71.1407C52.7457 69.8045 51.4041 68.5386 50.0779 67.2542C49.5063 66.6997 48.9534 66.1219 48.4259 65.5256C48.0087 65.053 47.9646 64.5002 48.3004 63.9624C48.6227 63.4446 49.1213 63.2709 49.7217 63.3678C50.1253 63.4329 50.3848 63.7102 50.6494 63.9824C52.6541 66.0434 54.6147 68.1461 56.7873 70.04C57.888 70.9987 59.0515 70.825 59.8707 69.6208C60.0759 69.3202 60.103 69.1248 59.7927 68.8409C57.8236 67.0405 55.9749 65.1198 54.1364 63.1908C53.9923 63.0388 53.8413 62.8885 53.7277 62.7148C53.3546 62.1503 53.4512 61.4538 53.9465 61.0112C54.4366 60.5753 55.1676 60.5469 55.69 60.9645C55.902 61.1331 56.0835 61.3419 56.2734 61.5373C58.1831 63.5131 60.0555 65.5273 62.1416 67.3294C63.0694 68.1311 64.2379 68.1027 65.1657 67.3027C65.6999 66.8417 65.7084 66.6313 65.2114 66.1636C62.7641 63.8605 60.4287 61.4488 58.078 59.0505C57.4267 58.3858 57.3962 57.6175 57.961 57.0563C58.5478 56.4734 59.3398 56.5269 60.0267 57.21C60.6661 57.8463 61.2919 58.496 61.928 59.1373C63.763 60.9828 65.5795 62.845 67.4926 64.6121C67.8657 64.9578 68.2609 65.1064 68.7578 64.9645C69.845 64.6538 70.3436 63.61 69.8806 62.5962C69.6974 62.1954 69.4362 61.8413 69.1598 61.4972C68.3152 60.4484 67.3281 59.5365 66.324 58.6413C62.586 55.3177 58.4901 52.4167 54.7673 49.0764C54.5435 48.8743 54.3654 48.9394 54.1432 49.0296C53.5377 49.2734 52.9441 49.5657 52.3149 49.7244C51.7773 49.8613 51.3872 50.0968 51.0191 50.5093C49.3435 52.3933 47.2692 53.2868 44.6913 52.8676C42.4017 52.4935 41.1636 51.2342 41.1737 49.23C41.1822 47.7219 41.7979 46.4025 42.534 45.1248C43.1734 44.0225 43.9756 43.0371 44.9287 41.9916ZM54.2789 39.4947C53.1273 39.4947 52.052 39.8087 51.0972 40.4133C48.7092 41.9281 46.64 43.7837 45.0814 46.1436C44.5268 46.9837 44.0705 47.8789 43.8993 48.8826C43.8195 49.3486 43.8043 49.8196 44.3826 50.0267C45.0034 50.2488 45.6394 50.3791 46.3076 50.3006C47.7017 50.1369 48.6328 49.2885 49.4249 48.2446C49.6929 47.8922 49.9337 47.4513 50.4001 47.4045C51.7586 47.2693 52.9289 46.6196 54.1653 46.1503C54.8623 45.8847 55.4271 46.0033 55.9563 46.5144C57.4369 47.9457 59.0549 49.2217 60.6576 50.5177C63.8428 53.0931 67.1195 55.5649 70.04 58.4459C70.5777 58.9753 70.9338 59.9924 71.6275 59.9657C72.294 59.939 72.9233 59.1858 73.5864 58.7766C73.8815 58.5945 73.9697 58.4292 73.8476 58.0734C72.3347 53.7043 70.7591 49.3586 69.0258 45.0697C68.9139 44.7941 68.7561 44.6288 68.4729 44.5286C64.8332 43.2476 61.2648 41.7929 57.7184 40.2797C56.6245 39.8137 55.4814 39.5164 54.2789 39.4947ZM83.3029 49.9966C83.3029 46.643 83.2927 43.2876 83.3131 39.934C83.3165 39.4613 83.1842 39.3361 82.7059 39.3528C78.9747 39.4931 75.2943 39.954 71.6953 40.9645C70.3521 41.3419 70.3606 41.3336 70.888 42.5745C73.3201 48.2964 75.3893 54.1469 77.3261 60.0442C77.4737 60.4918 77.6416 60.6739 78.1436 60.6622C79.6446 60.6271 81.1473 60.6271 82.6499 60.6605C83.1842 60.6722 83.3182 60.5068 83.3148 59.9941C83.291 56.6622 83.3029 53.3286 83.3029 49.9966ZM23.6979 47.3695C23.6979 50.6396 23.6946 53.9081 23.6996 57.1782C23.7013 58.1135 23.6013 57.9849 24.4934 57.9916C25.4872 57.9983 26.4811 57.9966 27.475 57.9916C28.1296 57.9883 28.9319 58.1987 29.3983 57.9014C29.8969 57.5824 29.8884 56.7173 30.0835 56.086C31.7066 50.8116 33.2856 45.5256 34.2438 40.0843C34.5135 38.5544 34.527 38.5361 33.0091 38.1436C30.1598 37.4054 27.2426 37.083 24.317 36.7941C23.7743 36.7407 23.6878 36.8943 23.6895 37.3736C23.7064 40.7056 23.6979 44.0375 23.6979 47.3695Z" fill="#FF1572"/>
</g>
<defs>
<clipPath id="clip0_670_317">
<rect width="65" height="40" fill="white" transform="translate(21 34)"/>
</clipPath>
</defs>
</svg>
