<svg width="107" height="107" viewBox="0 0 107 107" fill="none" xmlns="http://www.w3.org/2000/svg">
<path d="M53.5 107C83.0472 107 107 83.0472 107 53.5C107 23.9528 83.0472 0 53.5 0C23.9528 0 0 23.9528 0 53.5C0 83.0472 23.9528 107 53.5 107Z" fill="#21367F" fill-opacity="0.1"/>
<g clip-path="url(#clip0_671_360)">
<path d="M79.9116 74.1122C79.2168 68.825 76.3933 64.9025 71.5172 62.4525C71.4359 62.4108 71.3546 62.3674 71.2715 62.3206L70.8949 62.1174L71.1371 61.9577C73.8563 60.1675 75.6101 57.3233 75.9496 54.1579C76.2908 50.9717 75.2035 47.8479 72.9688 45.5854C70.879 43.4723 68.0926 42.3072 65.1224 42.3037C65.1171 42.3037 65.1136 42.3037 65.1083 42.3037C62.154 42.3037 59.3853 43.4532 57.3097 45.542C55.0449 47.8219 53.947 50.9751 54.2971 54.1961C54.6418 57.3632 56.3886 60.1866 59.0901 61.9403L59.2527 62.0462L59.129 62.1955C59.0989 62.2372 59.0671 62.2841 59.0087 62.3136C58.9292 62.3553 58.8479 62.3935 58.7665 62.4317L58.6392 62.4907C56.4841 63.5308 54.6666 65.0015 53.238 66.8646C51.1218 69.622 50.1352 72.7839 50.2254 76.531C50.236 76.946 50.2873 76.9998 50.7027 76.9929C56.5778 76.9824 62.5235 76.9807 68.3914 76.9807C70.9002 76.9807 73.3931 76.9807 75.8629 76.9807H79.5191C79.6729 76.9807 79.8285 76.9876 79.9823 76.9963C79.9894 76.9963 79.9965 76.9963 80.0036 76.9981V74.489C79.9947 74.456 79.9877 74.4248 79.9788 74.3918C79.9505 74.305 79.924 74.2112 79.9116 74.1122ZM56.9402 52.9476C56.9826 48.539 60.66 44.9725 65.1507 44.9725C65.1702 44.9725 65.1878 44.9725 65.2073 44.9725C67.3801 44.9864 69.4186 45.8337 70.9444 47.3583C72.4861 48.8984 73.3223 50.9439 73.2994 53.1161C73.2534 57.4848 69.5919 61.0165 65.1242 61.0165C65.103 61.0165 65.0835 61.0165 65.0623 61.0165C62.8736 61.0009 60.8192 60.1449 59.2792 58.6065C57.7499 57.0802 56.919 55.0712 56.9402 52.9476ZM77.0528 74.1765C76.9379 74.3102 76.754 74.3241 76.5436 74.3241C76.5383 74.3241 76.533 74.3241 76.5277 74.3241C73.5487 74.3171 70.5201 74.3171 67.5905 74.3171H61.9047H53.8374C53.4838 74.3171 53.2893 74.3171 53.1691 74.1782C53.0506 74.041 53.0842 73.8535 53.139 73.5427C54.1874 67.58 59.8309 63.2738 65.9834 63.7322C71.595 64.1542 76.1759 68.2346 77.1217 73.6556C77.1536 73.8361 77.1695 74.0393 77.0528 74.1765Z" fill="#21367F"/>
<path d="M50.4803 54.7674C50.4043 50.7026 48.5833 47.5164 45.065 45.2956L45.0225 45.2695C44.6866 45.0577 44.5169 44.95 44.4992 44.7608C44.4815 44.5698 44.6318 44.4291 44.9341 44.1478C47.6162 41.6544 48.3411 37.8309 46.7481 34.6273C45.1375 31.3838 41.5555 29.5241 38.0408 30.1058C34.6162 30.6719 32.2913 32.6478 31.3171 35.8219C30.3253 39.055 31.1492 41.9079 33.7658 44.3024C33.9373 44.4604 34.0787 44.6045 34.0557 44.7851C34.0327 44.9656 33.8559 45.0768 33.6774 45.1757C32.2329 45.9658 30.9971 47.0788 30.007 48.4835C28.582 50.5029 27.9279 52.8297 28.0074 55.5957C28.0198 56.0159 28.0516 56.0715 28.4583 56.0662C31.1721 56.0454 33.9302 56.0471 36.5981 56.0506C37.4803 56.0506 38.3608 56.0523 39.243 56.0523H41.6245C44.1103 56.0541 46.6791 56.0541 49.2074 56.0471C49.2091 56.0471 49.2109 56.0471 49.2127 56.0471C49.3576 56.0471 49.5132 56.0662 49.6617 56.0836C49.9782 56.1218 50.3053 56.16 50.4485 56.0055C50.597 55.8457 50.5563 55.5123 50.5192 55.1911C50.5015 55.0505 50.4839 54.9046 50.4803 54.7674ZM33.6526 38.1955C33.642 35.1725 36.1455 32.693 39.2324 32.6687C39.2465 32.6687 39.2624 32.6687 39.2784 32.6687C42.3405 32.6687 44.8475 35.1152 44.874 38.1452C44.8864 39.6089 44.3065 40.998 43.2369 42.0555C42.1672 43.1147 40.7546 43.6981 39.2589 43.6981C39.2589 43.6981 39.2589 43.6981 39.2571 43.6981C36.1773 43.6981 33.6632 41.2307 33.6526 38.1955ZM47.5278 53.2464C47.4164 53.3888 47.2308 53.3888 46.8595 53.3888H39.2501L37.3353 53.387C35.4524 53.3853 33.5059 53.3836 31.5911 53.3974C31.5841 53.3974 31.577 53.3974 31.5682 53.3974C31.3542 53.3974 31.1438 53.3749 31.0272 53.2255C30.9122 53.0797 30.9317 52.887 30.9971 52.6404C31.9801 48.9576 35.364 46.3808 39.2235 46.3704C39.2306 46.3704 39.2377 46.3704 39.2448 46.3704C43.1078 46.3704 46.497 48.9211 47.4942 52.5814C47.5914 52.9286 47.6392 53.104 47.5278 53.2464Z" fill="#21367F"/>
<path d="M42.5507 64.3299C42.4481 64.2292 42.4128 64.2257 42.4075 64.2257C42.4092 64.2257 42.3721 64.224 42.2766 64.323C41.6331 64.9862 41.1292 65.4811 40.643 65.9256C40.5299 66.0281 40.5228 66.0749 40.5228 66.0871C40.5228 66.1062 40.5405 66.1531 40.6607 66.259C41.0461 66.6028 41.428 66.9622 41.7957 67.3095C41.9478 67.4536 42.0998 67.596 42.2519 67.7384L42.3615 67.8408L42.1316 68.1638L41.9725 68.1742C41.9124 68.1794 41.8505 68.1846 41.7904 68.1846H39.1703C36.612 68.1829 33.9689 68.1829 31.3681 68.1951C31.2037 68.1968 31.0075 68.1794 30.8749 68.0492C30.737 67.9138 30.7281 67.7176 30.7281 67.5265C30.7334 66.325 30.7352 65.1217 30.7352 63.9201C30.7352 62.5692 30.7352 61.1732 30.744 59.7997C30.7458 59.6539 30.7299 59.5636 30.6963 59.5323C30.6786 59.515 30.6238 59.4889 30.4488 59.4959C29.7434 59.5271 29.0326 59.5271 28.3378 59.4959C28.1575 59.4872 28.0903 59.5132 28.0655 59.5358C28.0284 59.5705 28.0107 59.666 28.0107 59.8188C28.0267 63.4339 28.0267 67.0317 28.0107 70.5096C28.0107 70.6711 28.0284 70.7666 28.0673 70.8048C28.1062 70.843 28.2105 70.8621 28.3714 70.8604C30.8307 70.8517 33.32 70.85 35.774 70.85C36.7216 70.85 37.6657 70.85 38.5992 70.85H42.1582L42.2855 71.2024L42.2041 71.2806C42.0574 71.423 41.9089 71.5653 41.7621 71.7077C41.3856 72.0724 40.9984 72.4492 40.6076 72.8121C40.5122 72.9006 40.5122 72.9319 40.5122 72.9319C40.5122 72.9319 40.5139 72.9631 40.597 73.0413C41.1787 73.5899 41.7515 74.1525 42.2996 74.7134C42.3792 74.7932 42.4092 74.7985 42.4092 74.7985C42.4092 74.7985 42.441 74.795 42.5277 74.7082C44.4424 72.8121 46.1344 71.1521 47.6955 69.6345C47.791 69.5425 47.791 69.5077 47.791 69.5077C47.791 69.5025 47.7857 69.4695 47.6814 69.3688C45.9452 67.6776 44.2179 65.9812 42.5507 64.3299Z" fill="#21367F"/>
</g>
<defs>
<clipPath id="clip0_671_360">
<rect width="52" height="47" fill="white" transform="translate(28 30)"/>
</clipPath>
</defs>
</svg>
