<svg width="107" height="107" viewBox="0 0 107 107" fill="none" xmlns="http://www.w3.org/2000/svg">
<path d="M53.5 107C83.0472 107 107 83.0472 107 53.5C107 23.9528 83.0472 0 53.5 0C23.9528 0 0 23.9528 0 53.5C0 83.0472 23.9528 107 53.5 107Z" fill="#FF992E" fill-opacity="0.1"/>
<g clip-path="url(#clip0_671_371)">
<path d="M25 55.4729C25 54.4922 25 53.5094 25 52.5286C25.1842 51.3389 25.2359 50.1347 25.4532 48.9471C26.3947 43.7848 28.5448 39.1832 31.9634 35.2106C36.7146 29.6882 42.7137 26.3591 49.9399 25.3122C55.8231 24.4597 61.4538 25.3535 66.7742 27.9895C73.1395 31.1428 77.7418 36.0258 80.6016 42.5206C82.8738 47.6787 83.4967 53.0769 82.6213 58.6303C81.9695 62.7622 80.4609 66.5879 78.1039 70.0536C73.483 76.8484 67.1239 81.0134 59.0513 82.5445C57.9814 82.7473 56.895 82.8508 55.8148 82.9997C54.6436 82.9997 53.4744 82.9997 52.3031 82.9997C52.1127 82.8983 51.9017 82.9087 51.6947 82.8921C47.9678 82.6066 44.4334 81.6217 41.0934 79.9499C36.0773 77.4381 32.1145 73.7655 29.1987 68.9797C27.1563 65.6279 25.8464 61.9987 25.3125 58.1006C25.1966 57.2275 25.1035 56.3502 25 55.4729ZM46.0081 53.7639C48.1023 53.7639 50.1986 53.7556 52.2928 53.7721C52.6777 53.7742 52.8163 53.677 52.8143 53.2714C52.7998 50.4968 52.7998 47.7222 52.8143 44.9496C52.8163 44.5731 52.688 44.482 52.3321 44.4675C48.5493 44.3227 44.8224 43.7951 41.1845 42.7213C40.7789 42.6013 40.634 42.6944 40.5367 43.104C39.7442 46.4373 39.3013 49.8119 39.2496 53.2404C39.2434 53.6749 39.3593 53.7783 39.7794 53.7742C41.8549 53.7514 43.9305 53.7639 46.0081 53.7639ZM61.9132 53.7639C63.9143 53.7639 65.9154 53.7452 67.9144 53.7763C68.4607 53.7845 68.6449 53.6852 68.6262 53.0811C68.5186 49.7333 68.1234 46.429 67.3391 43.1702C67.2377 42.7523 67.1239 42.6302 66.6707 42.7626C63.0866 43.8075 59.4155 44.3351 55.6886 44.4613C55.2292 44.4779 55.1816 44.6641 55.1837 45.0407C55.1961 47.7574 55.2023 50.4761 55.1795 53.1928C55.1754 53.6873 55.3472 53.7783 55.7962 53.7742C57.8366 53.7514 59.8749 53.7639 61.9132 53.7639ZM75.8524 53.7639C77.2865 53.7639 78.7226 53.7514 80.1567 53.7721C80.5395 53.7783 80.6244 53.6563 80.6099 53.2859C80.4174 48.105 78.8903 43.3647 75.9973 39.0611C75.8007 38.7673 75.6724 38.7445 75.3868 38.9307C73.661 40.0604 71.8213 40.9708 69.8885 41.6867C69.4788 41.8378 69.4602 42.053 69.5533 42.4068C70.4907 45.9635 70.9253 49.5885 70.9832 53.2611C70.9894 53.7142 71.1571 53.7783 71.5482 53.7721C72.9822 53.7514 74.4184 53.7639 75.8524 53.7639ZM32.1227 53.7639C33.5009 53.7639 34.8791 53.739 36.2552 53.7763C36.7622 53.7908 36.8885 53.6356 36.8926 53.1473C36.9236 49.4912 37.3996 45.8911 38.3225 42.353C38.4177 41.9867 38.3805 41.7881 37.977 41.635C36.1063 40.9232 34.3121 40.0439 32.638 38.9411C32.3276 38.7362 32.1931 38.79 31.9903 39.0921C29.1035 43.3792 27.5888 48.1029 27.3922 53.2611C27.3777 53.6563 27.4708 53.7783 27.8764 53.7721C29.2919 53.7494 30.7073 53.7639 32.1227 53.7639ZM52.8122 73.2089C52.8122 70.9454 52.8018 68.6818 52.8225 66.4182C52.8267 65.992 52.7149 65.8493 52.2824 65.901C51.7403 65.9672 51.1919 65.9734 50.6456 66.0086C47.6077 66.2051 44.6258 66.7245 41.6935 67.5459C41.381 67.6328 41.3562 67.7528 41.4493 68.0135C42.6454 71.3819 44.1974 74.5476 46.7117 77.1505C48.2596 78.754 50.0496 79.9561 52.2742 80.4362C52.7211 80.5334 52.8246 80.4465 52.8225 80.0017C52.8018 77.736 52.8122 75.4725 52.8122 73.2089ZM52.8122 34.7988C52.8122 32.5353 52.8039 30.2717 52.8184 28.0102C52.8205 27.5861 52.748 27.464 52.2804 27.5633C50.0537 28.0392 48.2679 29.2475 46.72 30.8469C44.2016 33.4477 42.6599 36.6175 41.4535 39.9797C41.3086 40.3811 41.5321 40.4122 41.7991 40.4887C45.2259 41.4529 48.7252 41.9392 52.2783 42.1026C52.7004 42.1212 52.8267 42.0219 52.8225 41.5895C52.8018 39.3259 52.8122 37.0624 52.8122 34.7988ZM55.1919 34.7823C55.1919 37.0479 55.2023 39.3114 55.1837 41.5771C55.1795 41.9909 55.2727 42.1461 55.7176 42.1026C56.7316 42.0033 57.7517 41.9723 58.7657 41.8771C61.2676 41.6412 63.726 41.1633 66.1513 40.5032C66.3934 40.437 66.5527 40.3749 66.4369 40.0522C65.2428 36.6817 63.697 33.5119 61.1952 30.8945C59.6969 29.3241 57.9545 28.1426 55.8148 27.6067C55.3265 27.4847 55.1733 27.5571 55.1795 28.1033C55.2106 30.3276 55.1919 32.5559 55.1919 34.7823ZM55.1919 73.1779C55.1919 75.4414 55.2002 77.7029 55.1857 79.9665C55.1837 80.3741 55.2375 80.5272 55.7093 80.4155C57.9007 79.9044 59.668 78.7023 61.1952 77.107C63.697 74.4938 65.2408 71.3281 66.4369 67.9618C66.5652 67.6018 66.3665 67.5583 66.1161 67.488C62.7224 66.5465 59.2603 66.0665 55.7486 65.8989C55.2934 65.8762 55.1775 66.0024 55.1816 66.4451C55.2044 68.6901 55.1919 70.935 55.1919 73.1779ZM46.0681 56.1433C43.9533 56.1433 41.8404 56.1495 39.7256 56.1371C39.3924 56.135 39.2682 56.1991 39.2931 56.5736C39.4793 59.3834 39.8601 62.1601 40.5223 64.8996C40.6175 65.2968 40.7416 65.4148 41.1596 65.2885C44.7769 64.2106 48.4852 63.6871 52.2473 63.5402C52.6735 63.5236 52.8267 63.4222 52.8205 62.967C52.7956 60.8732 52.7956 58.7772 52.8205 56.6833C52.8267 56.2157 52.6632 56.1288 52.239 56.1329C50.1841 56.1536 48.1272 56.1433 46.0681 56.1433ZM61.9008 56.1433C59.8439 56.1433 57.7849 56.1536 55.7279 56.1329C55.312 56.1288 55.1775 56.2322 55.1837 56.6647C55.2064 58.7793 55.2106 60.8938 55.1878 63.0064C55.1837 63.4533 55.3513 63.5236 55.7424 63.5381C59.4321 63.6809 63.0679 64.1837 66.6148 65.2306C67.1694 65.3941 67.2667 65.1892 67.3743 64.7361C68.0096 62.067 68.3903 59.3669 68.5517 56.6274C68.5766 56.1991 68.4586 56.1309 68.0758 56.1329C66.0168 56.1516 63.9598 56.1433 61.9008 56.1433ZM75.7531 56.1433C74.3563 56.1433 72.9595 56.1702 71.5627 56.1288C71.0577 56.1143 70.9212 56.2819 70.9005 56.7516C70.7659 59.7559 70.3107 62.7167 69.543 65.6237C69.4395 66.0189 69.5409 66.1865 69.9154 66.3272C71.8089 67.0369 73.6217 67.9204 75.3123 69.0335C75.6579 69.2611 75.8069 69.2363 76.047 68.8784C78.5364 65.152 80.0181 61.0697 80.4878 56.615C80.5271 56.2322 80.434 56.1329 80.0574 56.1371C78.6233 56.1536 77.1892 56.1433 75.7531 56.1433ZM32.2221 56.1433C30.9763 56.1433 29.7306 56.1433 28.4848 56.1433C27.4998 56.1433 27.4853 56.1453 27.597 57.1426C28.0854 61.4608 29.6126 65.392 32.0358 68.988C32.1972 69.226 32.311 69.2694 32.5656 69.1018C34.2894 67.9721 36.1311 67.0638 38.0556 66.3313C38.335 66.2238 38.4301 66.0789 38.3515 65.783C37.532 62.7498 37.1078 59.6524 36.9257 56.5219C36.905 56.1805 36.7581 56.135 36.4705 56.1371C35.0529 56.1495 33.6375 56.1433 32.2221 56.1433ZM62.5382 28.8854C63.1466 29.6179 63.7819 30.311 64.3489 31.0621C66.2216 33.5346 67.5667 36.2844 68.5869 39.1997C68.7214 39.5866 68.858 39.6363 69.2201 39.4894C70.8301 38.8356 72.3925 38.099 73.8803 37.1969C74.2735 36.9589 74.3004 36.8224 73.99 36.4727C71.6599 33.845 68.9346 31.7304 65.7933 30.16C64.7545 29.6406 63.6908 29.1668 62.5382 28.8854ZM62.3995 79.1761C62.6272 79.1409 62.7017 79.1409 62.7679 79.1182C67.2149 77.5374 70.977 74.9531 74.0893 71.4088C74.3377 71.1254 74.2321 71.0323 73.9817 70.875C72.4897 69.946 70.9108 69.1991 69.2822 68.539C68.8704 68.3735 68.7214 68.4252 68.5745 68.8515C67.815 71.0467 66.8404 73.1427 65.607 75.1166C64.7151 76.5442 63.6908 77.8643 62.3995 79.1761ZM45.3728 28.9165C45.2983 28.8937 45.2777 28.8792 45.2632 28.8854C40.7809 30.4476 37.0085 33.0567 33.8817 36.6155C33.6437 36.8844 33.772 36.9734 33.9955 37.1141C35.5041 38.0555 37.0995 38.8169 38.7468 39.4811C39.0551 39.6052 39.1648 39.5204 39.2641 39.2328C40.6092 35.4009 42.4757 31.8752 45.3728 28.9165ZM45.3273 79.0954C44.6837 78.3588 44.0298 77.6305 43.4421 76.8443C41.617 74.409 40.2926 71.7109 39.2931 68.8494C39.1648 68.4832 39.051 68.4004 38.6681 68.5556C37.1099 69.1867 35.6117 69.9295 34.159 70.7757C33.6748 71.0571 33.7368 71.2226 34.0638 71.5806C35.1088 72.7268 36.2097 73.8089 37.4224 74.7773C39.7959 76.6705 42.4095 78.1416 45.3273 79.0954Z" fill="#FF992E"/>
</g>
<defs>
<clipPath id="clip0_671_371">
<rect width="58" height="58" fill="white" transform="translate(25 25)"/>
</clipPath>
</defs>
</svg>
