<svg width="20" height="20" viewBox="0 0 20 20" fill="none" xmlns="http://www.w3.org/2000/svg">
<g clip-path="url(#clip0_1150_183)">
<path d="M17.6625 10.5579V17.8419C17.6625 18.2173 17.3587 18.5218 16.9843 18.5218H2.1537C1.77928 18.5218 1.47556 18.2173 1.47556 17.8419V2.9713C1.47556 2.59588 1.77928 2.29136 2.1537 2.29136H9.502C9.77252 2.29136 9.99139 2.0719 9.99139 1.80067V1.30319C9.99139 1.03196 9.77252 0.8125 9.502 0.8125H2.1537C0.964033 0.811884 0 1.77847 0 2.9713V17.8419C0 19.0341 0.964033 20.0013 2.1537 20.0013H16.9849C18.174 20.0013 19.1386 19.0347 19.1386 17.8419V10.5579C19.1386 10.2811 18.9148 10.0567 18.6388 10.0567H18.1629C17.8863 10.0567 17.6625 10.2811 17.6625 10.5579Z" fill="black"/>
<path d="M10.7126 16.6921H4.05784C3.85556 16.6921 3.69141 16.5275 3.69141 16.3246V15.5744C3.69141 15.3716 3.85556 15.207 4.05784 15.207H10.7132C10.9155 15.207 11.0797 15.3716 11.0797 15.5744V16.3246C11.0797 16.5275 10.9155 16.6921 10.7126 16.6921Z" fill="black"/>
<path d="M8.92109 11.942C8.74464 11.942 8.57495 11.8754 8.44583 11.7539C8.30012 11.6165 8.2202 11.4229 8.22696 11.2226L8.3075 8.99411C8.31672 8.74692 8.41755 8.51452 8.59155 8.34006L16.5104 0.400845C17.0434 -0.133615 17.9109 -0.133615 18.4434 0.400845L19.5992 1.55976C19.8575 1.81867 19.9995 2.16265 19.9995 2.52882C19.9995 2.89499 19.8575 3.23897 19.5992 3.49787L11.6847 11.434C11.5193 11.5998 11.3004 11.704 11.068 11.7274L8.98995 11.9383C8.9672 11.9407 8.94384 11.942 8.92109 11.942ZM9.65395 9.19323L9.60599 10.513L10.8123 10.3904L18.6432 2.5393C18.6487 2.53375 18.6487 2.5245 18.6432 2.51896L17.4873 1.36004C17.4818 1.35449 17.4726 1.35449 17.467 1.36004L9.65395 9.19323ZM10.9315 10.378C10.9315 10.3787 10.9315 10.3787 10.9315 10.378V10.378Z" fill="black"/>
</g>
<defs>
<clipPath id="clip0_1150_183">
<rect width="20" height="20" fill="white"/>
</clipPath>
</defs>
</svg>
