<svg width="20" height="20" viewBox="0 0 20 20" fill="none" xmlns="http://www.w3.org/2000/svg">
<g clip-path="url(#clip0_1150_179)">
<path d="M2.89976 16.3557C2.20265 16.3567 1.75672 15.7685 1.95922 15.156C2.16282 14.5414 2.38523 13.9321 2.59878 13.3207C2.88316 12.5075 3.16864 11.6944 3.44859 10.8802C3.51277 10.6943 3.61457 10.5359 3.75952 10.3976C7.27825 7.04156 10.7948 3.68447 14.3124 0.328427C14.7727 -0.110878 15.3171 -0.109822 15.783 0.333707C16.7467 1.25033 17.7083 2.16907 18.6699 3.08781C19.1733 3.56936 19.1733 4.07097 18.6665 4.55568C16.2222 6.88949 13.7768 9.22225 11.3325 11.555C10.2913 12.5487 9.24896 13.5403 8.21105 14.5372C8.034 14.7072 7.83594 14.8287 7.59582 14.9036C6.15071 15.3588 4.70891 15.8203 3.26491 16.2796C3.13213 16.3219 2.99713 16.362 2.89976 16.3557ZM4.41126 13.9934C4.4345 13.9881 4.46105 13.9849 4.4865 13.9765C5.25443 13.7325 6.02125 13.4875 6.78917 13.2446C6.87769 13.2172 6.9474 13.1718 7.01158 13.1095C10.2127 10.0533 13.4128 6.99826 16.6173 3.9453C16.7224 3.84498 16.7191 3.79007 16.6162 3.69397C16.1326 3.24199 15.6535 2.78685 15.1821 2.32325C15.0737 2.21659 15.0172 2.21765 14.9066 2.32325C11.7132 5.37621 8.51755 8.42706 5.31971 11.4758C5.25 11.5423 5.198 11.6141 5.16701 11.705C4.91805 12.4252 4.66687 13.1433 4.41569 13.8624C4.40241 13.9025 4.37364 13.9406 4.41126 13.9934Z" fill="black"/>
<path d="M9.0479 18.1788C11.7179 18.1788 14.388 18.1798 17.058 18.1777C17.4851 18.1777 17.8104 18.334 17.9974 18.7057C18.2641 19.2359 17.931 19.861 17.3269 19.973C17.2107 19.9941 17.0901 19.9994 16.9728 19.9994C11.6847 20.0004 6.39779 20.0004 1.10973 20.0015C0.876259 20.0015 0.65053 19.9804 0.44693 19.8568C0.0950572 19.6424 -0.0742402 19.2411 0.0308791 18.8589C0.132679 18.4871 0.481232 18.2105 0.882899 18.183C0.964781 18.1777 1.04666 18.1798 1.12855 18.1798C3.76759 18.1788 6.40775 18.1788 9.0479 18.1788Z" fill="black"/>
</g>
<defs>
<clipPath id="clip0_1150_179">
<rect width="19.0476" height="20" fill="white"/>
</clipPath>
</defs>
</svg>
