<svg width="23" height="20" viewBox="0 0 23 20" fill="none" xmlns="http://www.w3.org/2000/svg">
<g clip-path="url(#clip0_1150_184)">
<path d="M22.9993 17.4431C22.9212 17.6186 22.8768 17.8091 22.761 17.9685C22.4718 18.3663 22.0817 18.564 21.5908 18.564C20.3257 18.5646 19.0601 18.5675 17.7951 18.5604C17.6258 18.5592 17.5526 18.5927 17.5154 18.7742C17.3654 19.5039 16.7299 19.9969 15.9545 19.9981C13.7533 20.0011 11.5527 19.9993 9.35144 19.9993C8.5881 19.9993 7.82415 20.0011 7.0608 19.9987C6.24645 19.9957 5.64933 19.5218 5.4729 18.7239C5.43929 18.5717 5.36548 18.5622 5.24246 18.5628C3.97741 18.5658 2.71177 18.5652 1.44673 18.5646C0.536953 18.564 0.000450086 18.0248 0.000450086 17.1118C-0.000150029 15.5573 -0.000150029 14.0028 0.000450086 12.4482C0.00165032 10.6558 1.3237 9.32834 3.11565 9.32954C3.64615 9.33014 4.18085 9.27683 4.70535 9.39065C5.61933 9.58833 6.31126 10.0975 6.76675 10.9128C6.84896 11.0596 6.88317 11.0728 7.00619 10.95C8.0786 9.87887 9.37785 9.33314 10.8955 9.33074C11.6799 9.32954 12.4672 9.27503 13.245 9.44396C14.3054 9.674 15.2182 10.1694 15.9803 10.9368C16.0973 11.0548 16.1357 11.0812 16.2354 10.9086C16.8247 9.88846 17.7194 9.3535 18.8999 9.33194C19.4592 9.32175 20.0245 9.27263 20.579 9.39364C21.8308 9.66681 22.7316 10.6097 22.9585 11.8731C22.9645 11.9079 22.9849 11.9396 22.9987 11.9732C22.9993 13.7961 22.9993 15.6196 22.9993 17.4431ZM11.4909 18.6538C12.9497 18.6538 14.4086 18.6544 15.8675 18.6538C16.1423 18.6538 16.215 18.5897 16.215 18.3393C16.2156 17.0993 16.2294 15.8598 16.2102 14.6204C16.182 12.7699 14.7789 11.1213 12.9593 10.7577C12.2764 10.6211 11.5875 10.675 10.9009 10.6756C8.5935 10.6774 6.78955 12.4812 6.78295 14.7827C6.77935 15.9479 6.78235 17.113 6.78235 18.2782C6.78235 18.6053 6.83096 18.6538 7.15862 18.6544C8.6031 18.6538 10.047 18.6538 11.4909 18.6538ZM1.34711 14.6443C1.34711 15.4363 1.35071 16.2282 1.34351 17.0196C1.34231 17.1706 1.37411 17.2233 1.53734 17.2221C2.77178 17.2149 4.00682 17.2149 5.24126 17.2221C5.40149 17.2227 5.43869 17.1765 5.43749 17.022C5.43089 16.23 5.43029 15.4387 5.43929 14.6467C5.44529 14.1369 5.50591 13.6307 5.67994 13.1497C5.77656 12.8825 5.80056 12.6165 5.79396 12.3386C5.77356 11.5317 5.21485 10.8595 4.4209 10.7092C3.98401 10.6265 3.53993 10.675 3.09944 10.6744C2.07445 10.6726 1.34951 11.4023 1.34651 12.4261C1.34531 13.1659 1.34711 13.9051 1.34711 14.6443ZM21.6514 14.6545C21.6514 13.8925 21.6514 13.1311 21.6514 12.3691C21.6514 12.3542 21.6508 12.3392 21.6508 12.3242C21.631 11.5305 21.0705 10.8511 20.2867 10.7134C19.7544 10.6199 19.2083 10.6319 18.6766 10.6954C17.6708 10.8158 16.9345 11.7713 17.2826 13.0077C17.4332 13.5433 17.5508 14.08 17.558 14.6348C17.5688 15.4339 17.5664 16.233 17.561 17.0322C17.5604 17.1736 17.5922 17.2227 17.7447 17.2221C18.9791 17.2155 20.2135 17.2149 21.448 17.2221C21.6202 17.2233 21.6574 17.17 21.6556 17.007C21.6466 16.2229 21.6514 15.4387 21.6514 14.6545Z" fill="black"/>
<path d="M11.5032 1.38736e-06C13.6606 0.00179855 15.4124 1.76062 15.4058 3.91721C15.3992 6.05942 13.6414 7.80447 11.4924 7.80207C9.33619 7.80027 7.58386 6.04025 7.58986 3.88426C7.59586 1.74265 9.3536 -0.00179577 11.5032 1.38736e-06ZM8.93832 3.90104C8.93832 5.30402 10.0887 6.4548 11.493 6.4566C12.8985 6.45839 14.0543 5.31181 14.0585 3.91122C14.0627 2.49745 12.9075 1.34248 11.4924 1.34547C10.0863 1.34907 8.93772 2.49745 8.93832 3.90104Z" fill="black"/>
<path d="M3.59507 2.87012C4.95433 2.87012 6.06455 3.97896 6.06455 5.33582C6.06455 6.69208 4.95253 7.80152 3.59447 7.80152C2.23701 7.80152 1.1244 6.69028 1.125 5.33522C1.1256 3.97956 2.23701 2.87012 3.59507 2.87012ZM4.71729 5.3454C4.72149 4.72598 4.21859 4.21739 3.59927 4.21499C2.98776 4.21319 2.48246 4.70681 2.47286 5.31425C2.46326 5.93427 2.96195 6.44886 3.57947 6.45605C4.19939 6.46324 4.71249 5.96243 4.71729 5.3454Z" fill="black"/>
<path d="M19.4088 2.87012C20.7674 2.87072 21.8776 3.98016 21.877 5.33702C21.8764 6.69327 20.7644 7.80212 19.4058 7.80152C18.0483 7.80092 16.9363 6.68908 16.9375 5.33402C16.9381 3.97896 18.0507 2.86952 19.4088 2.87012ZM20.5292 5.32923C20.5262 4.71101 20.0155 4.2102 19.395 4.21559C18.7853 4.22098 18.2872 4.72179 18.2848 5.33103C18.2824 5.94985 18.7883 6.45665 19.4082 6.45605C20.0275 6.45605 20.5328 5.94805 20.5292 5.32923Z" fill="black"/>
</g>
<defs>
<clipPath id="clip0_1150_184">
<rect width="23" height="20" fill="white"/>
</clipPath>
</defs>
</svg>
