<svg width="22" height="20" viewBox="0 0 22 20" fill="none" xmlns="http://www.w3.org/2000/svg">
<g clip-path="url(#clip0_1150_180)">
<path d="M21.1351 0.638201C20.6339 0.209709 20.093 0.00201643 19.482 0.00100822H17.0431C12.2873 0 7.37086 -0.00100822 2.53473 0.00201643C1.16329 0.00302465 0.00330407 1.15441 0.00228743 2.51752C-0.000762477 7.26622 -0.000762477 12.153 0.00228743 17.4563C0.00330407 18.7196 1.03824 19.8468 2.30903 19.9708C2.51033 19.9899 2.72382 20 2.96273 20C3.16911 20 3.37853 20 3.58695 20C4.90552 20 6.2241 20 7.54166 20C11.3876 20 15.3647 20.001 19.2757 19.997C20.4601 19.996 21.2856 19.4898 21.799 18.4494C21.8742 18.2961 21.9199 18.1267 21.9687 17.9483C21.9789 17.911 21.9891 17.8737 21.9992 17.8364V2.12633C21.8478 1.49216 21.5641 1.00519 21.1351 0.638201ZM20.5424 17.2909C20.5424 18.0662 20.093 18.5119 19.3092 18.5119C16.5379 18.5129 13.736 18.5129 10.926 18.5129C8.19129 18.5129 5.44841 18.5129 2.71467 18.5119C1.91661 18.5119 1.47641 18.0723 1.47641 17.2738C1.47641 13.1129 1.47641 8.95095 1.47641 4.79004C1.47641 4.58537 1.47641 4.45027 1.58722 4.34542C1.69397 4.24359 1.83223 4.24359 2.04166 4.24359H12.514C15.0078 4.24359 17.5006 4.24359 19.9944 4.24359C20.1978 4.24359 20.3309 4.24359 20.4367 4.34743C20.5424 4.45229 20.5424 4.58436 20.5424 4.78601V5.89807C20.5424 9.69502 20.5424 13.493 20.5424 17.2909Z" fill="black"/>
<path d="M15.1738 13.0538L15.1484 13.0316C15.0935 12.9832 15.0406 12.9379 14.9918 12.9126C14.4378 12.6293 14.204 12.1817 14.2985 11.5818C14.3239 11.4185 14.3676 11.233 14.5649 11.0928C14.7895 10.9335 14.9857 10.7853 15.1637 10.6411C15.3355 10.502 15.3243 10.3921 15.2501 10.26C15.0173 9.84162 14.7682 9.41413 14.51 8.99068C14.4225 8.84751 14.3168 8.81324 14.147 8.87272L14.1145 8.88381C13.9722 8.93422 13.8369 8.9806 13.721 9.04815C13.292 9.29718 12.9108 9.26794 12.5895 8.96245C12.5651 8.93926 12.4991 8.91406 12.4716 8.90297C12.3384 8.85155 12.1737 8.73359 12.1412 8.46238L12.1331 8.3918C12.1076 8.17705 12.0802 7.95524 12.0456 7.7415C11.9999 7.46323 11.9287 7.40173 11.641 7.39669C11.3757 7.39266 11.1052 7.39367 10.843 7.39367C10.7454 7.39367 10.6478 7.39467 10.5512 7.39467C10.0357 7.39467 9.99 7.43601 9.94425 7.93911C9.94323 7.94819 9.94221 7.95524 9.94221 7.96331C9.94221 8.18411 9.9412 8.85256 9.23667 9.07941C9.22752 9.08545 9.2082 9.10159 9.19804 9.10965C9.08316 9.20745 8.88898 9.3002 8.6216 9.18224C8.34101 9.05823 8.10617 8.96245 7.88556 8.87877C7.69952 8.80819 7.59379 8.84348 7.49517 9.00681C7.25118 9.4101 7.00922 9.82448 6.77641 10.2409C6.6778 10.4163 6.70118 10.5212 6.86892 10.6552C6.89434 10.6754 6.91874 10.6956 6.94415 10.7167C7.03362 10.7903 7.118 10.8599 7.20645 10.9093C7.6375 11.1523 7.80525 11.4911 7.70562 11.9175C7.6985 11.9488 7.7046 12.0073 7.7107 12.0597L7.71375 12.0819C7.73611 12.2815 7.65783 12.4479 7.47992 12.5749C7.23593 12.7503 7.03972 12.8985 6.86181 13.0407C6.67983 13.1859 6.68898 13.2917 6.77031 13.4369C6.99702 13.8422 7.24203 14.2637 7.49924 14.6891C7.59175 14.8414 7.70053 14.8777 7.87539 14.8141L7.94656 14.7879C8.09702 14.7335 8.24037 14.6821 8.3644 14.6105C8.53316 14.5137 8.69379 14.4653 8.84628 14.4653C9.04249 14.4653 9.22549 14.5449 9.39323 14.7032C9.42271 14.7305 9.48676 14.7577 9.54268 14.7809L9.55589 14.7859C9.74092 14.8635 9.84665 15.0047 9.87105 15.2053C9.90257 15.4624 9.93815 15.7548 9.98491 16.0321C10.0134 16.2004 10.0957 16.27 10.2696 16.272C10.782 16.2771 11.2811 16.2771 11.7528 16.272C11.9114 16.27 11.9979 16.1974 12.0273 16.0411L12.0365 15.9917C12.0619 15.8576 12.0863 15.7306 12.0843 15.6106C12.0792 15.16 12.2795 14.8474 12.7115 14.6266C12.9677 14.4966 13.2473 14.3856 13.5991 14.5883C13.6987 14.6458 13.8136 14.6891 13.9345 14.7345C13.9884 14.7547 14.0423 14.7748 14.0952 14.797C14.1663 14.8262 14.2131 14.8404 14.2345 14.8393L14.2426 14.8383H14.2507C14.2517 14.8383 14.2528 14.8383 14.2538 14.8383C14.4042 14.8383 14.4612 14.7768 14.4978 14.7153C14.7367 14.3141 15.0071 13.8604 15.2582 13.4057C15.3121 13.3089 15.3395 13.198 15.1738 13.0538ZM12.4574 13.2948C12.0741 13.6759 11.5617 13.8886 11.0168 13.8946C11.0097 13.8946 11.0026 13.8946 10.9965 13.8946C10.4617 13.8946 9.95645 13.687 9.57216 13.3089C9.17465 12.9167 8.95608 12.3934 8.95811 11.8339C8.96218 10.6946 9.86292 9.8033 11.0107 9.8033C11.0117 9.8033 11.0127 9.8033 11.0127 9.8033C11.5648 9.80431 12.0792 10.015 12.4625 10.3982C12.8508 10.7853 13.0623 11.3076 13.0582 11.8661C13.0541 12.4055 12.8417 12.9137 12.4574 13.2948Z" fill="black"/>
</g>
<defs>
<clipPath id="clip0_1150_180">
<rect width="22" height="20" fill="white"/>
</clipPath>
</defs>
</svg>
