<svg width="20" height="20" viewBox="0 0 20 20" fill="none" xmlns="http://www.w3.org/2000/svg">
<g clip-path="url(#clip0_1150_175)">
<path d="M18.7882 0C18.8234 0.05 18.8821 0.0378906 18.9298 0.0519531C19.5674 0.240234 19.9959 0.790234 19.9967 1.45586C20.0002 4.37227 20.0014 7.28906 19.9967 10.2055C19.9955 11.0414 19.3521 11.6645 18.4899 11.668C16.8689 11.6746 15.2479 11.6699 13.6272 11.6699C13.2042 11.6699 12.7811 11.673 12.3576 11.6691C11.4567 11.6609 10.8317 11.043 10.8305 10.1441C10.827 7.27305 10.8278 4.40195 10.8301 1.53125C10.8309 0.752734 11.2528 0.226562 12.0187 0.0273437C12.0367 0.0226562 12.0528 0.009375 12.0696 0C14.3094 0 16.5488 0 18.7882 0ZM18.749 5.83086C18.749 4.41211 18.749 2.99375 18.749 1.575C18.749 1.30664 18.6946 1.25 18.4344 1.25C16.4239 1.25 14.4131 1.25 12.4026 1.25039C12.1408 1.25039 12.0802 1.30937 12.0802 1.56992C12.0794 4.41367 12.0794 7.25703 12.0802 10.1008C12.0802 10.357 12.1447 10.4195 12.4073 10.4195C14.4115 10.4203 16.4157 10.4203 18.4195 10.4195C18.6923 10.4195 18.749 10.3609 18.749 10.0867C18.7494 8.66797 18.749 7.24961 18.749 5.83086Z" fill="black"/>
<path d="M0 9.5702C0.0293525 9.47762 0.0551827 9.38387 0.0884488 9.29285C0.295482 8.72293 0.817173 8.33739 1.45353 8.33426C3.53639 8.32489 5.61924 8.32215 7.7017 8.33426C8.56897 8.33934 9.16658 8.98543 9.16815 9.87645C9.17128 11.5362 9.16893 13.196 9.16893 14.8557C9.16893 15.9753 9.16893 17.0948 9.16893 18.2143C9.16893 19.2698 8.90476 19.6499 7.92869 19.9991C5.70221 19.9991 3.47573 19.9991 1.24924 19.9991C0.788603 19.8893 0.40663 19.6647 0.179246 19.2335C0.105669 19.0932 0.0590963 18.9378 0 18.7889C0 15.7159 0 12.6432 0 9.5702ZM1.25002 14.1647C1.25002 15.5835 1.25002 17.0018 1.25002 18.4206C1.25002 18.6995 1.30051 18.7499 1.57995 18.7499C3.58413 18.7503 5.58793 18.7503 7.59212 18.7499C7.86177 18.7499 7.91891 18.6917 7.91891 18.4143C7.9193 15.5839 7.9193 12.753 7.91891 9.92254C7.91891 9.63817 7.86099 9.58035 7.57568 9.58035C5.57815 9.57996 3.58061 9.57996 1.58308 9.58035C1.30716 9.58035 1.25002 9.63739 1.25002 9.90926C1.24963 11.3276 1.25002 12.746 1.25002 14.1647Z" fill="black"/>
<path d="M7.92908 0C8.18934 0.0820312 8.44725 0.164453 8.65781 0.352734C8.99869 0.657422 9.16698 1.03906 9.16815 1.4918C9.17128 2.72187 9.17715 3.95195 9.16658 5.18203C9.15915 6.03906 8.54001 6.66289 7.68213 6.6668C5.61924 6.67617 3.55596 6.67383 1.49306 6.66758C0.75886 6.66523 0.217208 6.22617 0.0356143 5.51953C0.027787 5.48867 0.0121324 5.45977 0 5.42969C0 4.02344 0 2.61719 0 1.21094C0.0571395 1.15742 0.0473553 1.0793 0.0700546 1.01328C0.205859 0.617969 0.455551 0.324219 0.834393 0.146094C0.956108 0.0890625 1.08526 0.0480469 1.21089 0C3.45029 0 5.68969 0 7.92908 0ZM4.5829 1.25C3.57474 1.25 2.56619 1.24961 1.55803 1.25039C1.30834 1.25039 1.25042 1.30937 1.25002 1.5625C1.24963 2.73984 1.24963 3.91758 1.25002 5.09492C1.25002 5.35781 1.30912 5.41953 1.56781 5.41953C3.57787 5.42031 5.58793 5.42031 7.59799 5.41953C7.85551 5.41953 7.91891 5.35508 7.91891 5.09453C7.91969 3.92344 7.91969 2.75234 7.91891 1.58164C7.91891 1.30742 7.86099 1.25039 7.5882 1.25039C6.5867 1.24961 5.5848 1.25 4.5829 1.25Z" fill="black"/>
<path d="M12.0703 19.9999C11.9783 19.9706 11.8848 19.9448 11.7944 19.9116C11.2218 19.7015 10.8406 19.1835 10.8348 18.5472C10.823 17.2913 10.8179 16.0347 10.8363 14.7788C10.8489 13.9288 11.4891 13.3343 12.3568 13.3315C13.7692 13.3269 15.1813 13.3304 16.5937 13.3304C17.2121 13.3304 17.8305 13.3284 18.4484 13.3308C19.3861 13.3343 19.999 13.9499 19.9994 14.8878C20.0002 16.0526 19.9998 17.2179 19.9998 18.3827C19.9998 19.2593 19.6288 19.7472 18.7842 19.9819C18.7721 19.9854 18.7615 19.994 18.7498 20.0003C16.5233 19.9999 14.2968 19.9999 12.0703 19.9999ZM15.4091 18.7499C16.411 18.7499 17.4129 18.7499 18.4144 18.7499C18.6946 18.7499 18.749 18.6972 18.749 18.4253C18.7494 17.2542 18.7494 16.0831 18.749 14.9124C18.749 14.6386 18.6922 14.5808 18.4187 14.5808C16.4149 14.5804 14.4115 14.5804 12.4077 14.5808C12.1443 14.5808 12.0801 14.6425 12.0801 14.8987C12.0789 16.0761 12.0789 17.2538 12.0801 18.4311C12.0805 18.6913 12.1412 18.7499 12.4034 18.7503C13.4057 18.7503 14.4076 18.7499 15.4091 18.7499Z" fill="black"/>
</g>
<defs>
<clipPath id="clip0_1150_175">
<rect width="20" height="20" fill="white"/>
</clipPath>
</defs>
</svg>
