<svg width="20" height="20" viewBox="0 0 20 20" fill="none" xmlns="http://www.w3.org/2000/svg">
<g clip-path="url(#clip0_1150_182)">
<path d="M19.109 14.4959C18.9338 13.8875 18.3968 13.4787 17.7729 13.4787H17.7588C17.5327 13.4809 17.3263 13.5395 17.1543 13.6057C17.3197 13.1285 17.4221 12.6332 17.4596 12.128C17.5051 11.5162 17.4564 10.8703 17.3154 10.2086C17.0292 8.86676 16.3896 7.60475 15.3601 6.35042C15.2755 6.24721 15.1978 6.15611 15.1232 6.07209C15.0877 6.02038 15.0422 5.97069 14.9877 5.92383L14.9849 5.92141C14.9811 5.91737 14.9773 5.91313 14.9733 5.90909C14.9506 5.88545 14.9253 5.86364 14.8981 5.84425C14.7492 5.70932 14.4972 5.473 14.2308 5.22294C13.7602 4.7814 13.2735 4.32512 13.1059 4.1912C13.0973 4.18433 13.0917 4.17928 13.0881 4.17585C13.0883 4.17363 13.0885 4.1708 13.0887 4.16757C13.1268 3.81005 13.0265 3.48667 12.7982 3.22854C13.0203 2.88314 13.1995 2.5632 13.3456 2.25194C13.4767 1.97259 13.6325 1.59892 13.675 1.18424C13.7092 0.851975 13.6401 0.578487 13.4753 0.393266C13.3406 0.242383 13.1528 0.162194 12.9323 0.162194C12.792 0.162194 12.6407 0.194916 12.4831 0.259753C12.4306 0.281366 12.3877 0.291869 12.3524 0.291869C12.322 0.291869 12.2959 0.283992 12.2678 0.266015C12.0794 0.146843 11.883 0.0682711 11.7331 0.013331C11.709 0.00444368 11.6836 0 11.6581 0H11.3185C11.2943 0 11.2702 0.00403971 11.2474 0.0119171C11.0656 0.0749366 10.8874 0.158963 10.7178 0.261369C10.6801 0.284194 10.645 0.295101 10.6104 0.295101C10.5773 0.295101 10.5424 0.285204 10.5037 0.265005C10.3907 0.206227 10.2758 0.149469 10.1646 0.0945292C10.1161 0.0706949 10.0678 0.0466587 10.0195 0.0226224C9.98941 0.00787743 9.95608 0 9.92236 0H9.54499C9.51466 0 9.48453 0.00646354 9.45679 0.0187847C9.42785 0.0315097 9.39652 0.0436289 9.3632 0.0565559C9.27938 0.0888736 9.18419 0.125635 9.09659 0.187645C9.00978 0.24925 8.93215 0.277932 8.85233 0.277932C8.78269 0.277932 8.70566 0.256118 8.61685 0.211479C8.49672 0.150883 8.37699 0.120181 8.26084 0.120181C7.97807 0.120181 7.74319 0.299949 7.61647 0.613228C7.48936 0.927719 7.53465 1.23615 7.57975 1.44076C7.72004 2.07661 8.04672 2.63611 8.33488 3.12977C8.33827 3.13542 8.34146 3.14087 8.34506 3.14592C8.26144 3.30549 8.05291 3.74643 8.01738 4.22897C8.0084 4.23745 8.00022 4.24654 7.99304 4.25624C7.50273 4.65274 7.12317 4.97511 6.76416 5.33605C4.66343 7.44902 3.70156 9.53715 3.74686 11.8941C3.62513 11.8812 3.50061 11.8693 3.37449 11.8652C3.33517 11.2605 2.90673 10.8545 2.29728 10.8505C2.06699 10.8488 1.85845 10.8482 1.65969 10.8482C1.45096 10.8482 1.25739 10.849 1.06761 10.8507C0.768869 10.8533 0.49807 10.9611 0.304899 11.1542C0.109732 11.349 0.00237049 11.6222 0.00197138 11.9236C-0.000622867 14.0574 -0.000622867 16.2869 0.00177182 18.5501C0.00257005 19.1765 0.438802 19.6178 1.06282 19.6233C1.26138 19.6251 1.46752 19.6259 1.67586 19.6259C1.8808 19.6259 2.09473 19.6251 2.31165 19.6233C2.84486 19.6191 3.24338 19.2979 3.34815 18.7972C3.92467 19.0194 4.51057 19.2399 5.07811 19.4536C5.34013 19.5522 5.60214 19.651 5.86396 19.7501C6.30239 19.916 6.75997 20.0002 7.22414 20.0002H7.23173C8.02616 19.9986 8.73499 19.998 9.39892 19.998C10.081 19.998 10.7108 19.9988 11.3244 20.0004C11.3244 20.0004 11.335 20.0004 11.3352 20.0004C12.0754 20.0004 12.766 19.7978 13.3877 19.3981C14.3958 18.7501 15.4218 18.0924 16.4142 17.4566C17.1196 17.0046 17.8252 16.5523 18.5305 16.0997C19.0473 15.7676 19.2854 15.1081 19.109 14.4959ZM11.3679 18.982L10.9938 18.9818C10.3901 18.9814 9.78626 18.981 9.1824 18.981C8.42568 18.981 7.79508 18.9816 7.1978 18.9828H7.19281C6.85756 18.9828 6.51612 18.9125 6.1184 18.7616L5.935 18.6921C5.10465 18.3768 4.24595 18.0508 3.39804 17.7386C3.38985 17.7355 3.38367 17.7329 3.37888 17.7307C3.37828 17.724 3.37808 17.7145 3.37808 17.702C3.38227 16.9888 3.38167 16.2641 3.38107 15.5632L3.38087 15.1356C3.38267 14.854 3.38706 13.2848 3.38027 12.8772C4.09589 12.9091 4.77618 13.0945 5.40319 13.4286C5.53789 13.5003 5.67418 13.5773 5.80609 13.6516C6.13237 13.8356 6.47002 14.0261 6.83321 14.1689C7.25148 14.3333 7.68273 14.381 8.0998 14.4268C8.18082 14.4357 8.26444 14.445 8.34625 14.4549C8.72461 14.5007 9.10896 14.5444 9.48094 14.5866C9.88883 14.6328 10.3107 14.6807 10.7244 14.7316C11.2223 14.7928 11.5821 15.2146 11.5797 15.7343C11.5795 15.8003 11.5791 15.8678 11.5765 15.9144C11.5308 15.9169 11.4655 15.9169 11.4053 15.9169L10.1471 15.9171C9.74914 15.9171 9.35102 15.9169 8.95311 15.9163H8.94971C8.83876 15.9163 8.57854 15.9163 8.43665 16.1786C8.36581 16.3095 8.35464 16.463 8.40612 16.5998C8.45801 16.7383 8.56916 16.8472 8.71104 16.8987C8.79805 16.9302 8.88127 16.9345 8.95131 16.9345C8.96488 16.9345 8.97845 16.9343 8.99202 16.9341C9.00379 16.9339 9.01557 16.9339 9.02794 16.9339H9.3155L10.4087 16.9337C10.8527 16.9337 11.3787 16.9339 11.9137 16.9355H11.9177C12.0895 16.9355 12.2486 16.9017 12.404 16.8323C13.9939 16.1219 15.6119 15.4012 17.3511 14.6286C17.4508 14.5842 17.5686 14.5353 17.6839 14.5084C17.721 14.4997 17.7574 14.4953 17.7919 14.4953C17.9462 14.4953 18.0665 14.5846 18.1305 14.7464C18.2068 14.9388 18.1461 15.1402 17.9797 15.2471C16.4563 16.2257 14.6481 17.3863 12.789 18.5754C12.3675 18.8455 11.89 18.982 11.3679 18.982ZM11.1582 3.99507C11.3606 3.9676 11.5619 3.92922 11.7567 3.89206C11.8014 3.88358 11.8461 3.87489 11.891 3.86661C11.9145 3.86216 11.9365 3.85994 11.9562 3.85994C12.0207 3.85994 12.0578 3.87691 12.0816 3.97043C12.1007 4.04577 12.1123 4.17767 11.9756 4.21645C11.6038 4.32168 11.2155 4.38268 10.8214 4.39743C10.7866 4.39864 10.7495 4.39924 10.7042 4.39924C10.6693 4.39924 10.6346 4.39884 10.5997 4.39844C10.5633 4.39803 10.527 4.39763 10.4907 4.39763C10.4889 4.39763 10.4869 4.39763 10.4851 4.39763C10.4454 4.39864 10.4051 4.39924 10.3652 4.39924C9.9469 4.39924 9.52364 4.34471 9.07125 4.23261C8.99901 4.21463 8.94572 4.17504 8.92118 4.12091C8.89623 4.06536 8.90182 3.99669 8.93694 3.92741C8.97506 3.85247 9.00659 3.85247 9.02934 3.85247C9.0443 3.85247 9.06187 3.85489 9.08102 3.85934C9.58491 3.98012 10.0495 4.0387 10.5017 4.0387C10.7238 4.0389 10.9445 4.02416 11.1582 3.99507ZM12.5302 1.59649C12.3412 2.05944 12.0848 2.47735 11.8589 2.82517C11.8549 2.83143 11.8509 2.83749 11.8471 2.84375C11.7158 2.86537 11.5861 2.89142 11.4603 2.91687C11.1923 2.97101 10.9393 3.02211 10.7062 3.02211C10.6757 3.02211 10.6456 3.0213 10.6168 3.01948C10.6124 3.01928 10.6078 3.01908 10.6034 3.01908C10.6032 3.01908 10.5839 3.01908 10.5839 3.01908C10.2091 3.01908 9.84772 2.97848 9.41169 2.88718L9.39952 2.88476C9.39014 2.88274 9.37856 2.88052 9.36958 2.87829C9.04171 2.35657 8.75714 1.87968 8.59071 1.33815C8.58452 1.31796 8.57914 1.29715 8.57455 1.27554C8.66634 1.29856 8.75854 1.31008 8.85054 1.31008C9.09938 1.31008 9.35322 1.22504 9.60466 1.05719C9.64717 1.02871 9.68588 1.01498 9.723 1.01498C9.76012 1.01498 9.79903 1.02871 9.84193 1.05699C10.098 1.22545 10.3576 1.31109 10.6136 1.31109C10.8701 1.31109 11.1243 1.22565 11.3693 1.05699C11.4107 1.02851 11.4508 1.01417 11.4887 1.01417C11.5254 1.01417 11.5641 1.0277 11.604 1.05436C11.8569 1.22302 12.1133 1.30866 12.3661 1.30866C12.4573 1.30866 12.5489 1.29755 12.6401 1.27574C12.6112 1.39006 12.5701 1.49914 12.5302 1.59649ZM8.57854 5.11872C8.60568 5.11872 8.64 5.13892 8.66415 5.15568C8.74198 5.21001 8.82519 5.22698 8.89224 5.24051C8.90641 5.24334 8.92058 5.24617 8.93435 5.2496C9.40071 5.36413 9.89661 5.41988 10.4504 5.41988C10.6691 5.41988 10.894 5.41139 11.1385 5.39382C11.6583 5.35666 12.1267 5.30394 12.5593 5.04883C12.8461 5.29343 14.0837 6.4595 14.3334 6.71097C14.3382 6.71582 14.3433 6.72046 14.3485 6.72491C14.3547 6.72996 14.3609 6.73501 14.3669 6.73985C15.6197 8.18486 16.2781 9.56624 16.4381 11.086C16.558 12.2238 16.3401 13.2541 15.7909 14.1483C15.752 14.2115 15.7099 14.2481 15.6407 14.2788C14.7816 14.6581 13.9101 15.0473 13.0672 15.4238L12.5835 15.6399C12.5459 14.6845 11.8832 13.8994 10.9758 13.7538C10.2279 13.6338 9.46397 13.5532 8.72541 13.4753C8.63601 13.4658 8.54661 13.4565 8.45721 13.447C7.76315 13.3733 7.14352 13.2836 6.59195 12.9323C5.92064 12.5049 5.33933 12.2355 4.76819 12.0872C4.7656 12.0537 4.76261 12.021 4.75961 11.9886C4.75442 11.9331 4.74964 11.8808 4.74784 11.8301C4.71252 10.7792 4.95737 9.75327 5.49598 8.69346C6.12219 7.46155 7.03756 6.36517 8.37639 5.24354C8.44863 5.18315 8.52965 5.11872 8.57854 5.11872ZM2.3757 15.3499C2.3759 15.4153 2.3761 15.4806 2.3761 15.546C2.3761 15.8987 2.3761 16.2516 2.3761 16.6042C2.3761 17.2189 2.3761 17.8337 2.3759 18.4483C2.3759 18.5378 2.36852 18.5776 2.36373 18.594C2.34737 18.5988 2.30726 18.6065 2.21666 18.6067L2.04244 18.6069C1.89437 18.6071 1.7461 18.6073 1.59803 18.6073C1.40985 18.6073 1.25319 18.6069 1.10512 18.6061C1.05404 18.6059 1.0269 18.6008 1.01413 18.5974C1.01073 18.5847 1.00614 18.5576 1.00614 18.5069C1.00515 17.7081 1.00534 16.8959 1.00554 16.1104V15.2418V14.5981C1.00554 13.737 1.00534 12.876 1.00574 12.0147C1.00574 11.9327 1.01273 11.8945 1.01712 11.8788C1.03308 11.8741 1.0714 11.8669 1.15501 11.8666C1.3428 11.8662 1.53058 11.866 1.71816 11.866C1.88858 11.866 2.05901 11.8662 2.22943 11.8666C2.31344 11.8669 2.34876 11.8755 2.36173 11.88C2.36652 11.8935 2.3757 11.9315 2.3759 12.0234C2.3763 12.228 2.3763 12.8069 2.3761 13.4197C2.3761 13.9938 2.3759 14.5981 2.3763 14.9556C2.37491 15.0879 2.3753 15.221 2.3757 15.3499Z" fill="black"/>
<path d="M9.06614 12.1792C9.32337 12.3505 9.57481 12.4654 9.83444 12.5303C9.8951 12.5454 9.95776 12.547 10.0182 12.5485C10.0787 12.5501 10.1617 12.5521 10.1765 12.5741C10.201 12.6107 10.1956 12.7002 10.1908 12.7793C10.1875 12.8341 10.1841 12.8906 10.1879 12.9462C10.2028 13.1661 10.3389 13.3057 10.552 13.3196C10.5626 13.3202 10.5732 13.3206 10.5834 13.3206C10.7787 13.3206 10.9192 13.1978 10.9591 12.9924C10.9779 12.8965 10.9805 12.7919 10.9669 12.6901C10.9514 12.5733 10.9621 12.542 11.1042 12.5026C11.8079 12.3071 12.3175 11.627 12.3439 10.8488C12.3684 10.1194 11.9733 9.56029 11.2313 9.27488C11.2082 9.26599 11.185 9.2567 11.1615 9.24701C11.1082 9.2256 11.0533 9.20318 10.9957 9.1854C10.9793 9.18035 10.9725 9.17712 10.9699 9.1755C10.9695 9.17328 10.9693 9.16884 10.9693 9.16015C10.9719 8.63661 10.9721 8.10033 10.9697 7.56608C11.0992 7.60789 11.2184 7.66829 11.3329 7.7507C11.5506 7.90724 11.7795 7.8832 11.9162 7.68929C12.0499 7.49963 12.0014 7.27159 11.7925 7.10818C11.6454 6.99305 11.4858 6.87812 11.2962 6.84782C11.1292 6.82096 11.03 6.77672 10.9839 6.70845C10.9452 6.65089 10.9388 6.56585 10.9645 6.4487C10.9729 6.41052 10.9637 6.37861 10.9583 6.35942L10.9575 6.35659C10.9005 6.1538 10.7528 6.03847 10.5614 6.04735C10.3481 6.05745 10.205 6.19803 10.1883 6.41436C10.1817 6.5002 10.1769 6.59231 10.1875 6.68361C10.1982 6.77672 10.1883 6.79066 10.099 6.80743C9.91286 6.84217 9.73406 6.93609 9.5365 7.10253C9.17709 7.4055 8.96896 7.93814 9.01885 8.42836C9.06454 8.87818 9.31399 9.2468 9.72149 9.46636C9.75821 9.48616 9.79512 9.50757 9.83104 9.52857C9.91625 9.57826 10.0045 9.62957 10.101 9.66633C10.1709 9.69299 10.1908 9.71602 10.1879 9.81782C10.1815 10.0414 10.1829 10.2676 10.1839 10.4866V10.4963C10.1843 10.5829 10.1849 10.6696 10.1849 10.7564C10.1849 10.8502 10.1847 10.9439 10.1843 11.0376C10.1835 11.2774 10.1829 11.5254 10.1869 11.7702C10.1869 11.7765 10.1869 11.7819 10.1867 11.7864C10.1813 11.786 10.1745 11.7854 10.1667 11.7846C9.90288 11.7522 9.672 11.6276 9.48082 11.5098C9.37565 11.445 9.26051 11.424 9.15634 11.4509C9.05856 11.4759 8.97454 11.542 8.92007 11.6367C8.80771 11.832 8.86499 12.0451 9.06614 12.1792ZM10.1853 8.58631V8.81738C9.96714 8.70104 9.81588 8.58732 9.80291 8.34211C9.78594 8.02176 9.90827 7.781 10.1663 7.62668C10.1729 7.62284 10.1789 7.61921 10.1845 7.61597C10.1847 7.62486 10.1849 7.63476 10.1849 7.64587C10.1855 7.95531 10.1855 8.26435 10.1853 8.58631ZM10.9705 10.016C11.3433 10.1244 11.5722 10.448 11.5568 10.8502C11.5422 11.2305 11.2992 11.5793 10.9711 11.7011V11.4099C10.9711 10.9786 10.9711 10.4912 10.9705 10.016Z" fill="black"/>
</g>
<defs>
<clipPath id="clip0_1150_182">
<rect width="19.1667" height="20" fill="white"/>
</clipPath>
</defs>
</svg>
