<svg width="37" height="20" viewBox="0 0 37 20" fill="none" xmlns="http://www.w3.org/2000/svg">
<g clip-path="url(#clip0_1150_181)">
<path d="M34.8813 16.3326C34.5089 16.3316 34.458 16.2105 34.4591 15.8935C34.4697 12.2585 34.4665 8.62355 34.4654 4.98858C34.4654 4.90548 34.4676 4.82135 34.4665 4.73825C34.4707 3.87645 34.4686 1.90661 34.4644 1.58548C34.4527 0.649812 33.8119 0.0147445 32.8507 0.00448492C31.9246 -0.00577465 30.9973 0.00551087 30.0712 0.00038109C29.685 -0.00167082 29.3402 0.105029 29.0421 0.339973C28.5689 0.712395 28.4469 1.21511 28.4469 1.77939C28.4522 6.43826 28.4501 11.0971 28.4501 15.756C28.4501 15.8586 28.4405 15.9612 28.4511 16.0628C28.4724 16.269 28.3737 16.3254 28.1732 16.3234C27.525 16.3151 26.8746 16.2987 26.2285 16.3285C25.8604 16.3449 25.7692 16.2331 25.7713 15.8842C25.7872 13.4527 25.7819 11.0202 25.7777 8.58867C25.7755 7.495 25.1284 6.87224 24.0049 6.86916C23.2103 6.86711 22.4167 6.86814 21.6221 6.86916C20.3745 6.87019 19.7634 7.45498 19.7623 8.6492C19.7613 11.0807 19.756 13.5133 19.7697 15.9448C19.7719 16.2505 19.6817 16.3377 19.3719 16.3264C18.7502 16.3049 18.1275 16.3008 17.5068 16.3275C17.1652 16.3418 17.0634 16.2567 17.0644 15.9089C17.0782 11.9282 17.074 7.94744 17.0729 3.96776C17.0729 2.91307 16.4417 2.29852 15.3532 2.29134C14.5193 2.28621 13.6854 2.28826 12.8516 2.29032C11.6878 2.29339 11.0608 2.89666 11.0586 4.02008C11.0555 5.41538 11.0576 6.81068 11.0576 8.20496C11.0576 10.7904 11.0533 13.3758 11.0639 15.9612C11.065 16.2485 10.9844 16.3357 10.6863 16.3254C10.0518 16.3039 9.4153 16.3039 8.78088 16.3254C8.47321 16.3357 8.37455 16.2546 8.37879 15.9448C8.39577 14.5115 8.39046 13.0783 8.38516 11.644C8.38091 10.5462 7.74013 9.93062 6.61238 9.92754C5.7923 9.92549 4.97116 9.92651 4.15108 9.92754C3.01166 9.92959 2.37406 10.537 2.373 11.6286C2.37088 13.0105 2.37194 14.3935 2.37194 15.7755C2.37194 16.2854 2.37194 16.2854 1.83724 16.3213C0.76148 16.3941 -0.0288952 17.2098 0.000810208 18.2152C0.0305156 19.2217 0.856962 19.9778 1.95076 19.9932C2.30828 19.9983 2.66581 19.9973 3.02227 19.9932C3.02333 19.9932 3.02333 19.9932 3.02439 19.9932C12.2596 19.9942 25.835 19.9953 34.8569 19.9922C35.9974 19.9922 36.8366 19.2114 36.8419 18.1732C36.8472 17.141 36.0154 16.3346 34.8813 16.3326ZM29.7211 1.8471C29.7211 1.75784 29.7189 1.66756 29.7242 1.5783C29.738 1.34849 29.8622 1.23153 30.1051 1.23153C31.0048 1.23256 31.9055 1.23358 32.8051 1.2305C33.0958 1.22948 33.2008 1.37619 33.1966 1.64191C33.1902 1.9497 33.186 3.87952 33.1934 4.74133C33.1923 4.81417 33.1955 4.88804 33.1955 4.96191C33.1955 8.62252 33.1913 12.2831 33.2019 15.9437C33.2029 16.2413 33.1287 16.3377 32.8104 16.3295C31.9373 16.308 31.0631 16.3018 30.19 16.3316C29.8006 16.3449 29.7104 16.23 29.7115 15.8627C29.7264 11.1905 29.7211 6.51828 29.7211 1.8471ZM21.5446 8.09518C22.3637 8.10749 23.1837 8.10647 24.0038 8.09518C24.355 8.09005 24.512 8.22445 24.5109 8.56917C24.5067 11.0489 24.5046 13.5297 24.5141 16.0094C24.5152 16.2741 24.4123 16.3285 24.1661 16.3254C23.2272 16.3151 22.2894 16.311 21.3505 16.3275C21.0747 16.3326 21.0269 16.229 21.029 15.994C21.0386 14.7536 21.0333 13.5143 21.0333 12.2739C21.0333 11.0469 21.0428 9.81981 21.028 8.59174C21.0237 8.2224 21.1765 8.09005 21.5446 8.09518ZM12.3243 4.02008C12.3232 3.66202 12.4601 3.50915 12.8388 3.51634C13.6589 3.5307 14.4801 3.5307 15.3001 3.51634C15.6789 3.51018 15.8104 3.65689 15.8083 4.01905C15.7967 6.00325 15.803 7.98643 15.803 9.97063C15.803 11.9671 15.7977 13.9637 15.8094 15.9602C15.8115 16.2392 15.7468 16.3346 15.4402 16.3285C14.514 16.308 13.5878 16.3131 12.6617 16.3264C12.3996 16.3305 12.3232 16.2505 12.3232 16.0002C12.3296 12.0072 12.3296 8.01413 12.3243 4.02008ZM3.64078 13.7933C3.64078 13.0772 3.65033 12.3601 3.63654 11.644C3.63017 11.3044 3.75748 11.1515 4.12137 11.1566C4.95524 11.1689 5.78912 11.17 6.62193 11.1566C6.98582 11.1505 7.11843 11.3075 7.11737 11.6409C7.11207 13.0998 7.11101 14.5587 7.1195 16.0176C7.12056 16.2485 7.04841 16.3295 6.80441 16.3264C5.85171 16.3151 4.89902 16.3141 3.94632 16.3275C3.69807 16.3305 3.63229 16.2526 3.63654 16.0207C3.65033 15.2779 3.64078 14.5351 3.64078 13.7933ZM34.9768 18.7631C34.8325 18.7754 34.6861 18.7692 34.5408 18.7692C25.5687 18.7692 11.9604 18.7692 2.85253 18.7703C2.79418 18.7703 2.73689 18.7703 2.67854 18.7703C2.60215 18.7703 2.52577 18.7703 2.44938 18.7703C2.43453 18.7703 2.42074 18.7713 2.40695 18.7713C2.23402 18.7713 2.06109 18.7703 1.88922 18.7641C1.53064 18.7497 1.27178 18.5025 1.27496 18.1834C1.2792 17.8438 1.47123 17.6335 1.8139 17.5699C1.955 17.5432 2.10353 17.5514 2.24887 17.5514C7.6351 17.5504 13.0224 17.5504 18.4086 17.5504C23.7948 17.5504 29.1821 17.5504 34.5683 17.5514C34.7264 17.5514 34.8898 17.5422 35.0426 17.573C35.3831 17.6427 35.5836 17.8582 35.5613 18.1978C35.5401 18.5322 35.3311 18.7333 34.9768 18.7631Z" fill="black"/>
</g>
<defs>
<clipPath id="clip0_1150_181">
<rect width="36.8421" height="20" fill="white"/>
</clipPath>
</defs>
</svg>
