<svg width="29" height="20" viewBox="0 0 29 20" fill="none" xmlns="http://www.w3.org/2000/svg">
<g clip-path="url(#clip0_1150_178)">
<path d="M28.7518 11.4906C28.2842 12.8354 27.8151 14.1802 27.3495 15.5263C26.9163 16.7791 26.488 18.0339 26.0555 19.2874C25.8719 19.8204 25.6229 19.9962 25.042 19.9983C24.2656 20.001 23.4885 19.9996 22.7121 19.999C21.9469 19.9983 21.6572 19.7202 21.6565 18.9847C21.6558 16.8084 21.6508 14.6321 21.6628 12.4558C21.6642 12.1865 21.5847 12.1286 21.3196 12.1313C19.9721 12.1449 18.6246 12.1381 17.2772 12.1375C16.55 12.1368 16.2349 11.8314 16.2349 11.1253C16.2342 7.75208 16.2342 4.37819 16.2349 1.00499C16.2349 0.313169 16.5493 0.00849657 17.2603 0.00849657C20.7127 0.00781497 24.1658 0.0153125 27.6181 0.000999038C28.14 -0.00104574 28.5261 0.135955 28.7497 0.606936C28.7518 4.23438 28.7518 7.8625 28.7518 11.4906ZM27.0675 6.47273C27.0675 4.94937 27.0626 3.42601 27.0731 1.90264C27.0745 1.68658 27.0126 1.63546 26.7946 1.63546C23.9316 1.64228 21.0685 1.64296 18.2062 1.63478C17.9678 1.6341 17.9157 1.70021 17.9164 1.92241C17.9242 4.68764 17.9256 7.45354 17.915 10.2188C17.9143 10.4737 18.0022 10.5112 18.2343 10.5091C19.6282 10.4996 21.0221 10.5071 22.416 10.5023C22.7388 10.5009 23.0004 10.6005 23.1896 10.8595C23.3331 11.0558 23.3422 11.2821 23.3422 11.5104C23.3422 13.7044 23.345 15.8992 23.338 18.0932C23.3373 18.3011 23.3865 18.389 23.6158 18.3693C23.8387 18.3502 24.0659 18.3495 24.2888 18.3693C24.5244 18.3897 24.6278 18.3079 24.7031 18.0857C25.4577 15.8583 26.2257 13.6349 26.9922 11.4116C27.0464 11.2548 27.0703 11.098 27.0696 10.9331C27.0661 9.44652 27.0675 7.95997 27.0675 6.47273Z" fill="black"/>
<path d="M0.000312568 6.07656C0.000312568 4.38075 -0.00039071 2.68494 0.000312568 0.989819C0.000312568 0.314359 0.314678 0.0083237 1.00881 0.0083237C4.50832 0.0076421 8.00713 0.0076421 11.5066 0.0083237C12.1966 0.0083237 12.5158 0.319131 12.5158 0.993227C12.5165 4.36644 12.5158 7.73964 12.5173 11.1129C12.5173 11.333 12.4793 11.545 12.4082 11.7522C11.5453 14.2598 10.6838 16.7674 9.82088 19.2743C9.6317 19.8243 9.38626 19.9968 8.78777 19.9981C7.99236 20.0002 7.19695 20.0008 6.40225 19.9981C5.72218 19.9954 5.41204 19.6934 5.41133 19.0268C5.40922 16.8328 5.40641 14.6381 5.41626 12.444C5.41766 12.1939 5.34733 12.1298 5.09134 12.1318C3.73472 12.1441 2.37809 12.1387 1.02147 12.1373C0.313974 12.1366 0.00101585 11.8285 0.000312568 11.136C0.000312568 9.44976 0.000312568 7.76282 0.000312568 6.07656ZM10.8315 6.4562C10.8315 4.9417 10.828 3.4272 10.8357 1.9127C10.8364 1.71231 10.8013 1.63393 10.5657 1.63461C7.69276 1.64347 4.81988 1.6421 1.94769 1.63597C1.74585 1.63529 1.67904 1.67414 1.67974 1.88543C1.68748 4.66906 1.68748 7.45338 1.68044 10.237C1.67974 10.4476 1.73178 10.511 1.95683 10.5096C3.35073 10.4994 4.74533 10.5028 6.13922 10.5049C6.77007 10.5056 7.08795 10.8109 7.09357 11.4223C7.0992 11.9935 7.09498 12.5646 7.09498 13.1365C7.09498 14.7689 7.10342 16.4013 7.08724 18.0331C7.08443 18.32 7.17445 18.3977 7.44943 18.3705C7.66252 18.3493 7.88054 18.3527 8.09434 18.3705C8.3011 18.3875 8.38057 18.3064 8.44387 18.1203C9.21185 15.869 9.98967 13.6204 10.7661 11.3719C10.8139 11.2328 10.8329 11.0924 10.8329 10.9459C10.8301 9.4484 10.8315 7.9523 10.8315 6.4562Z" fill="black"/>
</g>
<defs>
<clipPath id="clip0_1150_178">
<rect width="28.75" height="20" fill="white"/>
</clipPath>
</defs>
</svg>
